<svg width="335" height="353" viewBox="0 0 335 353" fill="none" xmlns="http://www.w3.org/2000/svg">
<g clip-path="url(#clip0_522_2748)">
<path opacity="0.5" d="M-37.1494 364.566L183.94 239.106" stroke="white" stroke-width="0.207371"/>
<path opacity="0.5" d="M-38.5986 399.608L179.603 275.804" stroke="white" stroke-width="0.207371"/>
<path opacity="0.5" d="M-48.2761 399.608L176.292 272.193" stroke="white" stroke-width="0.207371"/>
<path opacity="0.5" d="M11.4466 399.599L414.965 170.65" stroke="white" stroke-width="0.207371"/>
<path opacity="0.5" d="M50.4177 442.753L318.428 289.119" stroke="white" stroke-width="0.207371"/>
<path opacity="0.5" d="M63.6992 471.999L617.097 149.999" stroke="white" stroke-width="0.207371"/>
<path d="M240.1 270.444L215.115 284.726L214.987 313.571L214.98 313.576L215.057 313.623L215.057 313.65L240.1 299.335L240.226 270.488L240.202 270.504L240.1 270.444Z" fill="#5F9FD7"/>
<path d="M214.98 313.576L214.987 313.571L215.115 284.726L215.089 284.74L190.224 270.24L190.215 270.244L190.091 299.091L190.115 299.076L214.98 313.576Z" fill="#5F9FD7"/>
<path d="M187.099 298.106L187.108 298.099L187.235 269.255L187.21 269.269L162.345 254.769L162.335 254.773L162.212 283.621L162.234 283.605L187.099 298.106Z" fill="#5F9FD7"/>
<path d="M213.839 344.962L213.848 344.957L213.974 316.111L213.95 316.126L189.084 301.626L189.075 301.629L188.952 330.477L188.975 330.462L213.839 344.962Z" fill="#5F9FD7"/>
<path d="M215.116 284.726L240.101 270.444L215.259 255.958L215.262 255.929L190.274 270.213L215.114 284.698L215.116 284.726Z" fill="#AFDAFF"/>
<path d="M243.277 206.896L218.29 221.176L218.163 250.022L218.155 250.027L218.234 250.073L218.232 250.1L243.276 235.786L243.401 206.938L243.378 206.954L243.277 206.896Z" fill="#5F9FD7"/>
<path d="M184.825 334.086L159.838 348.367L159.71 377.212L159.703 377.217L159.781 377.264L159.78 377.29L184.823 362.976L184.949 334.13L184.926 334.145L184.825 334.086Z" fill="#5F9FD7"/>
<path d="M241.875 301.561L216.89 315.841L216.763 344.687L216.754 344.691L216.833 344.737L216.831 344.764L241.875 330.451L242.001 301.603L241.977 301.619L241.875 301.561Z" fill="#5F9FD7"/>
<path d="M159.703 377.217L159.711 377.213L159.838 348.367L159.813 348.381L134.948 333.881L134.938 333.885L134.815 362.731L134.838 362.717L159.703 377.217Z" fill="#5F9FD7"/>
<path d="M213.376 370.307L213.384 370.303L213.511 341.458L213.487 341.473L188.621 326.973L188.612 326.976L188.489 355.821L188.512 355.808L213.376 370.307Z" fill="#5F9FD7"/>
<path d="M128.43 333.505L103.442 347.786L103.315 376.632L103.308 376.636L103.386 376.684L103.385 376.709L128.428 362.396L128.554 333.549L128.53 333.565L128.43 333.505Z" fill="#5F9FD7"/>
<path d="M99.3641 378.67L99.3714 378.666L99.4983 349.821L99.4737 349.835L74.6086 335.336L74.5992 335.339L74.4766 364.185L74.4995 364.171L99.3641 378.67Z" fill="#5F9FD7"/>
<path d="M103.028 347.786L128.015 333.505L103.173 319.019L103.175 318.991L78.187 333.275L103.028 347.759L103.028 347.786Z" fill="#AFDAFF"/>
<path d="M130.434 298.125L155.42 283.843L130.578 269.357L130.579 269.329L105.593 283.612L130.433 298.097L130.434 298.125Z" fill="#AFDAFF"/>
<path d="M158.704 281.939L158.712 281.935L158.839 253.09L158.814 253.104L133.949 238.604L133.939 238.608L133.816 267.454L133.839 267.44L158.704 281.939Z" fill="#5F9FD7"/>
<path d="M158.839 253.09L183.824 238.809L158.983 224.322L158.985 224.293L133.997 238.577L158.838 253.061L158.839 253.09Z" fill="#AFDAFF"/>
<path d="M268.737 254.443L243.75 268.724L243.623 297.57L243.615 297.575L243.693 297.622L243.692 297.647L268.736 283.333L268.861 254.486L268.838 254.502L268.737 254.443Z" fill="#5F9FD7"/>
<path d="M243.751 268.724L268.737 254.443L243.896 239.956L243.898 239.927L218.91 254.211L243.751 268.696L243.751 268.724Z" fill="#AFDAFF"/>
<path d="M131.733 331.515L156.719 317.233L131.877 302.747L131.879 302.719L106.892 317.002L131.733 331.486V331.515Z" fill="#AFDAFF"/>
<path d="M184.942 301.454L159.956 315.736L159.829 344.58L159.821 344.587L159.899 344.632L159.898 344.659L184.942 330.344L185.067 301.497L185.044 301.514L184.942 301.454Z" fill="#5F9FD7"/>
<path d="M159.956 315.736L184.942 301.454L160.101 286.968L160.103 286.939L135.116 301.223L159.956 315.707V315.736Z" fill="#AFDAFF"/>
<path d="M213.954 224.073L188.969 238.354L188.841 267.199L188.833 267.204L188.911 267.25L188.91 267.276L213.954 252.962L214.079 224.115L214.056 224.132L213.954 224.073Z" fill="#5F9FD7"/>
<path d="M185.651 235.451L210.636 221.169L185.795 206.682L185.797 206.654L160.809 220.938L185.65 235.423L185.651 235.451Z" fill="#AFDAFF"/>
<path d="M331.398 312.448L331.407 312.443L331.534 283.598L331.507 283.613L306.642 269.112L306.633 269.116L306.51 297.962L306.533 297.948L331.398 312.448Z" fill="#5F9FD7"/>
<path d="M359.414 291.188L384.4 276.907L359.558 262.421L359.562 262.392L334.573 276.676L359.414 291.161L359.414 291.188Z" fill="#AFDAFF"/>
<path d="M327.117 341.893L302.13 356.175L302.003 385.02L301.995 385.024L302.073 385.072L302.072 385.097L327.115 370.784L327.241 341.936L327.218 341.953L327.117 341.893Z" fill="#5F9FD7"/>
<path d="M301.996 385.024L302.004 385.02L302.131 356.175L302.106 356.188L277.24 341.689L277.231 341.693L277.107 370.539L277.131 370.525L301.996 385.024Z" fill="#5F9FD7"/>
<path d="M355.669 378.115L355.677 378.111L355.804 349.266L355.778 349.28L330.913 334.78L330.904 334.784L330.781 363.629L330.803 363.616L355.669 378.115Z" fill="#5F9FD7"/>
<path d="M270.721 341.313L245.735 355.595L245.608 384.439L245.6 384.443L245.678 384.491L245.677 384.517L270.72 370.204L270.846 341.356L270.823 341.372L270.721 341.313Z" fill="#5F9FD7"/>
<path d="M241.657 386.479L241.664 386.474L241.791 357.628L241.767 357.643L216.901 343.142L216.891 343.146L216.77 371.992L216.791 371.979L241.657 386.479Z" fill="#5F9FD7"/>
<path d="M245.735 364.984L270.721 350.702L245.88 336.216L245.882 336.188L220.894 350.471L245.735 364.956L245.735 364.984Z" fill="#AFDAFF"/>
<path d="M272.726 315.322L297.712 301.04L272.87 286.554L272.873 286.526L247.884 300.809L272.725 315.293L272.726 315.322Z" fill="#AFDAFF"/>
<path d="M303.003 296.283L303.011 296.278L303.139 267.432L303.113 267.447L278.248 252.947L278.238 252.951L278.115 281.797L278.138 281.783L303.003 296.283Z" fill="#5F9FD7"/>
<path d="M303.138 267.432L328.125 253.152L303.283 238.665L303.285 238.637L278.297 252.921L303.138 267.405L303.138 267.432Z" fill="#AFDAFF"/>
<path d="M273.196 348.297L298.182 334.015L273.34 319.528L273.342 319.501L248.354 333.784L273.196 348.268L273.196 348.297Z" fill="#AFDAFF"/>
<path d="M327.29 320.534L302.305 334.816L302.178 363.66L302.169 363.666L302.247 363.712L302.246 363.738L327.29 349.423L327.415 320.577L327.392 320.593L327.29 320.534Z" fill="#5F9FD7"/>
<path d="M302.249 332.933L327.235 318.652L302.393 304.165L302.395 304.136L277.408 318.42L302.249 332.904L302.249 332.933Z" fill="#AFDAFF"/>
<path d="M355.822 237.171L330.836 251.453L330.709 280.298L330.701 280.303L330.778 280.349L330.778 280.376L355.823 266.062L355.947 237.214L355.923 237.231L355.822 237.171Z" fill="#5F9FD7"/>
<path d="M330.835 251.453L355.821 237.171L330.98 222.686L330.982 222.656L305.994 236.94L330.835 251.424V251.453Z" fill="#AFDAFF"/>
</g>
<defs>
<clipPath id="clip0_522_2748">
<rect width="335" height="353" rx="10" fill="white"/>
</clipPath>
</defs>
</svg>
