<svg width="1090" height="346" viewBox="0 0 1090 346" fill="none" xmlns="http://www.w3.org/2000/svg">
<g clip-path="url(#clip0_522_2639)">
<path opacity="0.5" d="M188.854 433.144L721.932 130.642" stroke="white" stroke-width="0.5"/>
<path opacity="0.5" d="M185.36 517.635L711.475 219.127" stroke="white" stroke-width="0.5"/>
<path opacity="0.5" d="M162.026 517.635L703.493 210.417" stroke="white" stroke-width="0.5"/>
<path opacity="0.5" d="M306.026 517.635L1278.97 -34.3923" stroke="white" stroke-width="0.5"/>
<path opacity="0.5" d="M399.99 621.665L1046.2 251.23" stroke="white" stroke-width="0.5"/>
<path opacity="0.5" d="M432.016 692.203L1766.34 -84.1848" stroke="white" stroke-width="0.5"/>
<path d="M857.342 206.224L797.099 240.66L796.791 310.209L796.773 310.222L796.96 310.335L796.958 310.399L857.342 275.885L857.644 206.33L857.588 206.368L857.342 206.224Z" fill="#5F9FD7"/>
<path d="M796.774 310.221L796.791 310.209L797.1 240.66L797.037 240.695L737.085 205.733L737.062 205.742L736.764 275.296L736.82 275.259L796.774 310.221Z" fill="#5F9FD7"/>
<path d="M729.548 272.92L729.568 272.905L729.874 203.357L729.815 203.392L669.861 168.43L669.838 168.44L669.541 237.995L669.595 237.957L729.548 272.92Z" fill="#5F9FD7"/>
<path d="M794.022 385.897L794.042 385.885L794.348 316.334L794.289 316.371L734.334 281.407L734.312 281.416L734.015 350.971L734.071 350.936L794.022 385.897Z" fill="#5F9FD7"/>
<path d="M797.099 240.66L857.342 206.224L797.445 171.296L797.452 171.227L737.203 205.668L797.097 240.592L797.099 240.66Z" fill="#AFDAFF"/>
<path d="M865.001 53L804.756 87.4332L804.449 156.983L804.43 156.996L804.619 157.108L804.615 157.172L865 122.658L865.302 53.1032L865.246 53.1422L865.001 53Z" fill="#5F9FD7"/>
<path d="M861.622 281.251L801.378 315.683L801.072 385.234L801.052 385.246L801.241 385.357L801.237 385.421L861.621 350.909L861.924 281.353L861.868 281.392L861.622 281.251Z" fill="#5F9FD7"/>
<path d="M792.906 447.01L792.924 447L793.232 377.45L793.172 377.485L733.218 342.523L733.195 342.532L732.899 412.082L732.954 412.049L792.906 447.01Z" fill="#5F9FD7"/>
<path d="M526.84 392.707L587.088 358.274L527.192 323.346L527.195 323.277L466.946 357.719L526.842 392.642L526.84 392.707Z" fill="#AFDAFF"/>
<path d="M592.921 272.967L653.165 238.531L593.268 203.603L593.272 203.535L533.025 237.974L592.919 272.899L592.921 272.967Z" fill="#AFDAFF"/>
<path d="M661.083 233.942L661.102 233.932L661.409 164.38L661.349 164.416L601.394 129.454L601.372 129.464L601.075 199.016L601.131 198.981L661.083 233.942Z" fill="#5F9FD7"/>
<path d="M661.409 164.38L721.652 129.947L661.757 95.018L661.762 94.9487L601.513 129.388L661.407 164.312L661.409 164.38Z" fill="#AFDAFF"/>
<path d="M926.39 167.644L866.144 202.078L865.837 271.628L865.818 271.641L866.006 271.754L866.005 271.816L926.388 237.302L926.69 167.748L926.635 167.787L926.39 167.644Z" fill="#5F9FD7"/>
<path d="M866.144 202.078L926.39 167.644L866.493 132.714L866.498 132.645L806.249 167.086L866.143 202.011L866.144 202.078Z" fill="#AFDAFF"/>
<path d="M596.052 353.475L656.297 319.039L596.4 284.111L596.406 284.043L536.158 318.483L596.052 353.406V353.475Z" fill="#AFDAFF"/>
<path d="M724.349 280.994L664.103 315.429L663.797 384.976L663.777 384.993L663.966 385.102L663.962 385.166L724.349 350.652L724.649 281.099L724.594 281.139L724.349 280.994Z" fill="#5F9FD7"/>
<path d="M664.103 315.429L724.348 280.994L664.452 246.066L664.457 245.996L604.209 280.438L664.103 315.361V315.429Z" fill="#AFDAFF"/>
<path d="M794.3 94.4167L734.057 128.851L733.75 198.4L733.73 198.413L733.919 198.525L733.915 198.587L794.301 164.074L794.602 94.5187L794.547 94.559L794.3 94.4167Z" fill="#5F9FD7"/>
<path d="M726.057 121.851L786.299 87.4167L726.404 52.4863L726.409 52.4183L666.16 86.8578L726.055 121.783L726.057 121.851Z" fill="#AFDAFF"/>
<path d="M1077.47 307.503L1077.5 307.491L1077.8 237.941L1077.74 237.976L1017.78 203.014L1017.76 203.022L1017.47 272.574L1017.52 272.541L1077.47 307.503Z" fill="#5F9FD7"/>
<path d="M1145.02 256.242L1205.27 221.807L1145.37 186.879L1145.38 186.81L1085.13 221.251L1145.02 256.175L1145.02 256.242Z" fill="#AFDAFF"/>
<path d="M936.007 314.432L996.251 279.996L936.354 245.068L936.361 245L876.11 279.44L936.006 314.361L936.007 314.432Z" fill="#AFDAFF"/>
<path d="M1009.01 268.525L1009.03 268.515L1009.33 198.962L1009.27 198.999L949.32 164.036L949.296 164.046L949 233.598L949.055 233.564L1009.01 268.525Z" fill="#5F9FD7"/>
<path d="M1009.33 198.962L1069.58 164.53L1009.68 129.601L1009.69 129.532L949.439 163.973L1009.33 198.895L1009.33 198.962Z" fill="#AFDAFF"/>
<path d="M937.138 393.938L997.384 359.504L937.487 324.574L937.492 324.508L877.243 358.946L937.14 393.869L937.138 393.938Z" fill="#AFDAFF"/>
<path d="M1067.57 327L1007.33 361.435L1007.02 430.981L1007 430.996L1007.19 431.107L1007.19 431.171L1067.57 396.654L1067.87 327.102L1067.82 327.142L1067.57 327Z" fill="#5F9FD7"/>
<path d="M1007.19 356.894L1067.43 322.46L1007.54 287.531L1007.54 287.46L947.294 321.901L1007.19 356.825L1007.19 356.894Z" fill="#AFDAFF"/>
<path d="M1136.36 125.998L1076.12 160.433L1075.81 229.983L1075.79 229.995L1075.98 230.107L1075.98 230.17L1136.36 195.658L1136.66 126.103L1136.61 126.142L1136.36 125.998Z" fill="#5F9FD7"/>
<path d="M1076.12 160.433L1136.36 125.998L1076.47 91.0718L1076.47 91L1016.22 125.442L1076.12 160.365V160.433Z" fill="#AFDAFF"/>
</g>
<defs>
<clipPath id="clip0_522_2639">
<rect width="1090" height="346" rx="10" fill="white"/>
</clipPath>
</defs>
</svg>
