<svg width="336" height="353" viewBox="0 0 336 353" fill="none" xmlns="http://www.w3.org/2000/svg">
<g clip-path="url(#clip0_522_2804)">
<path opacity="0.5" d="M140.808 362.046L392.173 235.435" stroke="white" stroke-width="0.150676"/>
<path opacity="0.5" d="M83.0737 359.644L334.429 233.014" stroke="white" stroke-width="0.150676"/>
<path opacity="0.5" d="M131.779 404.58L380.416 263.508" stroke="white" stroke-width="0.150676"/>
<path opacity="0.5" d="M187.743 398.215L443.184 269.873" stroke="white" stroke-width="0.150676"/>
<path d="M268.813 239.638L319.754 214.168V239.638L311.264 243.884V226.903L268.813 248.129V239.638Z" fill="#005490"/>
<path d="M243.342 142V252.374L251.833 248.129V256.619L234.852 265.109V142H243.342Z" fill="#005490"/>
<path d="M311.264 294.825V260.864L319.754 256.619V290.58L311.264 294.825Z" fill="#005490"/>
<path opacity="0.5" d="M311.264 328.786V311.805L319.754 307.56V333.031L192.401 396.708V426.423H183.91V392.463L311.264 328.786Z" fill="#005490"/>
<path d="M226.362 142H234.852V265.109L226.362 260.864V142Z" fill="#338FD2"/>
<path d="M268.813 231.148L311.264 209.922L319.754 214.168L268.813 239.638V231.148Z" fill="#0568B0"/>
<path d="M251.833 239.638V248.129L243.342 252.374V243.883L251.833 239.638Z" fill="#0C7ACA"/>
<path d="M311.264 311.805V328.786L302.774 324.541V316.05L311.264 311.805Z" fill="#338FD2"/>
<path d="M302.774 299.07V265.109L311.264 260.864V294.825L302.774 299.07Z" fill="#338FD2"/>
<path d="M302.774 248.129V231.148L311.264 226.903V243.883L302.774 248.129Z" fill="#0070C1"/>
<path opacity="0.5" d="M311.264 328.786L302.774 324.541L175.42 388.217L183.911 392.463L311.264 328.786Z" fill="#0B7BCC"/>
<path d="M285.793 222.658V205.677L268.813 214.168V282.09L209.381 311.805V142H217.871V299.07L260.323 277.844V209.922L294.284 192.942V218.413L285.793 222.658Z" fill="#005491"/>
<path d="M319.754 273.599L336.734 265.109V248.129L285.793 273.599V239.638L294.283 235.393V260.864L345.225 235.393V269.354L319.754 282.09V273.599Z" fill="#005491"/>
<path d="M302.773 282.09V290.58L192.4 345.766V362.747L345.225 286.334V294.824L183.91 375.482V341.557L302.773 282.09Z" fill="#005491"/>
<path d="M251.832 205.677L260.322 209.922V277.844L251.832 273.599V205.677Z" fill="#338FD2"/>
<path d="M285.793 239.638V273.599L277.303 269.354V243.883L285.793 239.638Z" fill="#338FD2"/>
<path d="M277.303 226.903V209.922L285.793 205.677V222.658L277.303 226.903Z" fill="#0060BF"/>
<path d="M175.42 371.237L183.91 375.482V341.521L175.42 337.276V371.237Z" fill="#338FD2"/>
<path d="M328.245 252.374L336.735 248.129V265.109L328.245 260.864V252.374Z" fill="#0060BF"/>
<path d="M251.832 180.206L260.322 184.451V192.941L251.832 188.696V180.206Z" fill="#0060BF"/>
<path d="M345.225 235.393L336.734 231.148L294.283 252.374V260.864L345.225 235.393Z" fill="#0C7ACA"/>
<path d="M294.284 192.942L285.793 188.697L251.832 205.677L260.323 209.922L294.284 192.942Z" fill="#0C7ACA"/>
<path d="M294.284 167.471L285.793 163.226L251.832 180.206L260.323 184.451L294.284 167.471Z" fill="#0C7ACA"/>
<path d="M260.322 277.844L251.832 273.599L217.871 290.58V299.07L260.322 277.844Z" fill="#0C7ACA"/>
<path d="M319.754 265.109L328.245 260.864L336.735 265.109L319.754 273.599V265.109Z" fill="#0C7ACA"/>
<path d="M302.773 273.599V282.089L183.91 341.521L175.42 337.276L302.773 273.599Z" fill="#0C7ACA"/>
<path d="M166.93 350.011V383.972L158.44 388.217V354.292L166.93 350.011Z" fill="#005491"/>
<path d="M149.949 383.972L158.439 388.217V354.256L149.949 350.011V383.972Z" fill="#338FD2"/>
<path d="M166.93 350.011L158.44 354.256L149.95 350.011L158.44 345.766L166.93 350.011Z" fill="#0C7ACA"/>
<path d="M345.225 286.334L336.734 282.089L192.4 354.257V362.747L345.225 286.334Z" fill="#0C7ACA"/>
<path d="M200.89 142H209.38V311.805L200.89 307.56V142Z" fill="#338FD2"/>
<path d="M260.323 192.941L294.284 175.961V167.471L260.323 184.451V192.941Z" fill="#005491"/>
<path opacity="0.75" d="M336.735 265.109L328.245 260.863V269.354L336.735 265.109Z" fill="#4495D1"/>
<path opacity="0.75" d="M260.322 277.844L251.832 273.599V282.089L260.322 277.844Z" fill="#4495D1"/>
<path style="mix-blend-mode:multiply" d="M294.283 294.824L302.773 290.579V273.599L294.283 277.844V294.824Z" fill="url(#paint0_linear_522_2804)"/>
<path style="mix-blend-mode:screen" opacity="0.5" d="M260.323 184.451L294.284 167.471L285.793 163.226L260.323 175.961V184.451Z" fill="url(#paint1_linear_522_2804)"/>
<path style="mix-blend-mode:screen" opacity="0.5" d="M260.323 209.922L294.284 192.941L285.793 188.696L260.323 201.432V209.922Z" fill="url(#paint2_linear_522_2804)"/>
<path style="mix-blend-mode:screen" opacity="0.5" d="M285.793 231.147L319.754 214.167L311.264 209.922L285.793 222.657V231.147Z" fill="url(#paint3_linear_522_2804)"/>
<path style="mix-blend-mode:screen" opacity="0.5" d="M311.264 252.373L345.225 235.393L336.734 231.148L311.264 243.883V252.373Z" fill="url(#paint4_linear_522_2804)"/>
<path style="mix-blend-mode:screen" opacity="0.5" d="M311.264 303.315L345.225 286.334L336.734 282.089L311.264 294.824V303.315Z" fill="url(#paint5_linear_522_2804)"/>
<path style="mix-blend-mode:multiply" d="M294.284 235.393V252.373L285.793 256.618L277.303 252.373V243.883L294.284 235.393Z" fill="url(#paint6_linear_522_2804)"/>
<path style="mix-blend-mode:multiply" opacity="0.5" d="M200.891 142H217.871V192.941H200.891V142Z" fill="url(#paint7_linear_522_2804)"/>
<path style="mix-blend-mode:multiply" opacity="0.5" d="M226.361 142H243.342V192.941H226.361V142Z" fill="url(#paint8_linear_522_2804)"/>
</g>
<defs>
<linearGradient id="paint0_linear_522_2804" x1="302.773" y1="284.212" x2="294.283" y2="284.212" gradientUnits="userSpaceOnUse">
<stop stop-color="#8896A3"/>
<stop offset="0.1333" stop-color="#ABB5BE"/>
<stop offset="0.28012" stop-color="#C9CFD5"/>
<stop offset="0.43468" stop-color="#E1E4E8"/>
<stop offset="0.59834" stop-color="#F2F3F5"/>
<stop offset="0.77725" stop-color="#FCFCFD"/>
<stop offset="1" stop-color="white"/>
</linearGradient>
<linearGradient id="paint1_linear_522_2804" x1="294.284" y1="173.838" x2="260.323" y2="173.838" gradientUnits="userSpaceOnUse">
<stop stop-color="white"/>
<stop offset="0.06285" stop-color="#DADADA"/>
<stop offset="0.16011" stop-color="#A7A7A7"/>
<stop offset="0.26211" stop-color="#7B7B7B"/>
<stop offset="0.36683" stop-color="#555555"/>
<stop offset="0.475" stop-color="#363636"/>
<stop offset="0.58781" stop-color="#1E1E1E"/>
<stop offset="0.70718" stop-color="#0D0D0D"/>
<stop offset="0.83764" stop-color="#030303"/>
<stop offset="1"/>
</linearGradient>
<linearGradient id="paint2_linear_522_2804" x1="357.961" y1="199.309" x2="357.43" y2="199.309" gradientUnits="userSpaceOnUse">
<stop stop-color="white"/>
<stop offset="0.06285" stop-color="#DADADA"/>
<stop offset="0.16011" stop-color="#A7A7A7"/>
<stop offset="0.26211" stop-color="#7B7B7B"/>
<stop offset="0.36683" stop-color="#555555"/>
<stop offset="0.475" stop-color="#363636"/>
<stop offset="0.58781" stop-color="#1E1E1E"/>
<stop offset="0.70718" stop-color="#0D0D0D"/>
<stop offset="0.83764" stop-color="#030303"/>
<stop offset="1"/>
</linearGradient>
<linearGradient id="paint3_linear_522_2804" x1="319.754" y1="220.535" x2="285.793" y2="220.535" gradientUnits="userSpaceOnUse">
<stop stop-color="white"/>
<stop offset="0.06285" stop-color="#DADADA"/>
<stop offset="0.16011" stop-color="#A7A7A7"/>
<stop offset="0.26211" stop-color="#7B7B7B"/>
<stop offset="0.36683" stop-color="#555555"/>
<stop offset="0.475" stop-color="#363636"/>
<stop offset="0.58781" stop-color="#1E1E1E"/>
<stop offset="0.70718" stop-color="#0D0D0D"/>
<stop offset="0.83764" stop-color="#030303"/>
<stop offset="1"/>
</linearGradient>
<linearGradient id="paint4_linear_522_2804" x1="345.225" y1="241.76" x2="311.264" y2="241.76" gradientUnits="userSpaceOnUse">
<stop stop-color="white"/>
<stop offset="0.06285" stop-color="#DADADA"/>
<stop offset="0.16011" stop-color="#A7A7A7"/>
<stop offset="0.26211" stop-color="#7B7B7B"/>
<stop offset="0.36683" stop-color="#555555"/>
<stop offset="0.475" stop-color="#363636"/>
<stop offset="0.58781" stop-color="#1E1E1E"/>
<stop offset="0.70718" stop-color="#0D0D0D"/>
<stop offset="0.83764" stop-color="#030303"/>
<stop offset="1"/>
</linearGradient>
<linearGradient id="paint5_linear_522_2804" x1="345.225" y1="292.702" x2="311.264" y2="292.702" gradientUnits="userSpaceOnUse">
<stop stop-color="white"/>
<stop offset="0.06285" stop-color="#DADADA"/>
<stop offset="0.16011" stop-color="#A7A7A7"/>
<stop offset="0.26211" stop-color="#7B7B7B"/>
<stop offset="0.36683" stop-color="#555555"/>
<stop offset="0.475" stop-color="#363636"/>
<stop offset="0.58781" stop-color="#1E1E1E"/>
<stop offset="0.70718" stop-color="#0D0D0D"/>
<stop offset="0.83764" stop-color="#030303"/>
<stop offset="1"/>
</linearGradient>
<linearGradient id="paint6_linear_522_2804" x1="285.793" y1="256.618" x2="285.793" y2="235.393" gradientUnits="userSpaceOnUse">
<stop stop-color="white"/>
<stop offset="0.22275" stop-color="#FCFCFD"/>
<stop offset="0.40166" stop-color="#F2F3F5"/>
<stop offset="0.56532" stop-color="#E1E4E8"/>
<stop offset="0.71988" stop-color="#C9CFD5"/>
<stop offset="0.8667" stop-color="#ABB5BE"/>
<stop offset="1" stop-color="#8896A3"/>
</linearGradient>
<linearGradient id="paint7_linear_522_2804" x1="209.381" y1="192.941" x2="209.381" y2="142" gradientUnits="userSpaceOnUse">
<stop stop-color="white"/>
<stop offset="0.21071" stop-color="#FCFCFC"/>
<stop offset="0.38001" stop-color="#F2F3F4"/>
<stop offset="0.53491" stop-color="#E1E3E6"/>
<stop offset="0.68122" stop-color="#C9CDD1"/>
<stop offset="0.82154" stop-color="#AAB1B7"/>
<stop offset="0.95551" stop-color="#858F98"/>
<stop offset="1" stop-color="#77828C"/>
</linearGradient>
<linearGradient id="paint8_linear_522_2804" x1="234.852" y1="142" x2="234.852" y2="142" gradientUnits="userSpaceOnUse">
<stop stop-color="white"/>
<stop offset="0.21071" stop-color="#FCFCFC"/>
<stop offset="0.38001" stop-color="#F2F3F4"/>
<stop offset="0.53491" stop-color="#E1E3E6"/>
<stop offset="0.68122" stop-color="#C9CDD1"/>
<stop offset="0.82154" stop-color="#AAB1B7"/>
<stop offset="0.95551" stop-color="#858F98"/>
<stop offset="1" stop-color="#77828C"/>
</linearGradient>
<clipPath id="clip0_522_2804">
<rect width="336" height="353" rx="10" fill="white"/>
</clipPath>
</defs>
</svg>
