<svg width="24" height="24" viewBox="0 0 24 24" fill="none" xmlns="http://www.w3.org/2000/svg">
<path fill-rule="evenodd" clip-rule="evenodd" d="M4.58077 3.5H13.4193C13.6829 3.49999 13.9103 3.49998 14.0976 3.51529C14.2952 3.53144 14.4918 3.56709 14.681 3.66349C14.9633 3.8073 15.1927 4.03677 15.3365 4.31902C15.4329 4.5082 15.4686 4.70481 15.4848 4.90249C15.5001 5.08977 15.5 5.31715 15.5 5.58072V7.43875C15.5 7.4506 15.5 7.46236 15.5001 7.47402C15.5002 7.64732 15.5003 7.8002 15.4694 7.95078C15.4422 8.08318 15.3973 8.21129 15.3358 8.33165C15.2659 8.46854 15.1703 8.58784 15.0619 8.72308C15.0546 8.73218 15.0473 8.74136 15.0399 8.75061L11.7411 12.8741C11.5986 13.0522 11.5725 13.0885 11.5548 13.1233C11.5343 13.1634 11.5193 13.2061 11.5102 13.2503C11.5024 13.2885 11.5 13.3332 11.5 13.5613V17C11.5 17.1574 11.4259 17.3056 11.3 17.4L7.30004 20.4C7.14853 20.5136 6.94582 20.5319 6.77643 20.4472C6.60704 20.3625 6.50004 20.1894 6.50004 20V13.5613C6.50004 13.3332 6.49768 13.2885 6.48983 13.2503C6.48077 13.2061 6.46579 13.1634 6.44529 13.1233C6.42753 13.0885 6.40145 13.0522 6.25899 12.8741L2.96021 8.75061C2.95281 8.74136 2.94546 8.73218 2.93817 8.72308C2.8298 8.58784 2.7342 8.46854 2.66426 8.33165C2.60277 8.21129 2.55783 8.08318 2.53066 7.95078C2.49976 7.8002 2.49988 7.64732 2.50002 7.47402C2.50003 7.46236 2.50004 7.4506 2.50004 7.43875L2.50004 5.58073C2.50003 5.31715 2.50002 5.08977 2.51532 4.90249C2.53147 4.70481 2.56713 4.5082 2.66353 4.31902C2.80734 4.03677 3.03681 3.8073 3.31905 3.66349C3.50824 3.56709 3.70485 3.53144 3.90252 3.51529C4.08981 3.49998 4.31719 3.49999 4.58077 3.5ZM3.98395 4.51196C3.84812 4.52306 3.79776 4.5419 3.77304 4.5545C3.67896 4.60243 3.60247 4.67892 3.55453 4.77301C3.54194 4.79773 3.5231 4.84809 3.512 4.98392C3.50043 5.12559 3.50004 5.31172 3.50004 5.6V7.43875C3.50004 7.6668 3.5024 7.71149 3.51025 7.74974C3.5193 7.79387 3.53428 7.83658 3.55478 7.8767C3.57254 7.91147 3.59862 7.94784 3.74108 8.12592L7.03986 12.2494C7.04726 12.2586 7.05461 12.2678 7.0619 12.2769C7.17028 12.4122 7.26587 12.5315 7.33581 12.6684C7.3973 12.7887 7.44224 12.9168 7.46941 13.0492C7.50032 13.1998 7.50019 13.3527 7.50006 13.526C7.50005 13.5376 7.50004 13.5494 7.50004 13.5613V19L10.5 16.75V13.5613C10.5 13.5494 10.5 13.5376 10.5 13.526C10.4999 13.3527 10.4998 13.1998 10.5307 13.0492C10.5578 12.9168 10.6028 12.7887 10.6643 12.6684C10.7342 12.5315 10.8298 12.4122 10.9382 12.2769C10.9455 12.2678 10.9528 12.2586 10.9602 12.2494L14.259 8.12592C14.4015 7.94784 14.4275 7.91147 14.4453 7.8767C14.4658 7.83658 14.4808 7.79387 14.4898 7.74974C14.4977 7.71149 14.5 7.6668 14.5 7.43875V5.6C14.5 5.31172 14.4996 5.12559 14.4881 4.98392C14.477 4.84809 14.4581 4.79773 14.4455 4.77301C14.3976 4.67892 14.3211 4.60243 14.227 4.5545C14.2023 4.5419 14.152 4.52306 14.0161 4.51196C13.8745 4.50039 13.6883 4.5 13.4 4.5H4.60004C4.31176 4.5 4.12562 4.50039 3.98395 4.51196ZM18.5 6C18.5 5.72386 18.7239 5.5 19 5.5H21C21.2762 5.5 21.5 5.72386 21.5 6C21.5 6.27614 21.2762 6.5 21 6.5H19C18.7239 6.5 18.5 6.27614 18.5 6ZM15.5 12C15.5 11.7239 15.7239 11.5 16 11.5H21C21.2762 11.5 21.5 11.7239 21.5 12C21.5 12.2761 21.2762 12.5 21 12.5H16C15.7239 12.5 15.5 12.2761 15.5 12ZM15.5 18C15.5 17.7239 15.7239 17.5 16 17.5H21C21.2762 17.5 21.5 17.7239 21.5 18C21.5 18.2761 21.2762 18.5 21 18.5H16C15.7239 18.5 15.5 18.2761 15.5 18Z" fill="#8D8D8D"/>
</svg>
