<svg width="24" height="24" viewBox="0 0 24 24" fill="none" xmlns="http://www.w3.org/2000/svg">
<path fill-rule="evenodd" clip-rule="evenodd" d="M4.06189 11H7.0312C7.05869 10.6195 7.10387 10.2454 7.165 9.87826C7.52168 7.7361 8.41346 5.87516 9.43274 4.42082C6.57765 5.38759 4.44567 7.92234 4.06189 11ZM12 4.40694C10.7949 5.72286 9.54541 7.75897 9.13784 10.2067C9.09472 10.4657 9.06085 10.7303 9.03748 11H14.9625C14.9392 10.7303 14.9053 10.4657 14.8622 10.2067C14.4546 7.75897 13.2051 5.72286 12 4.40694ZM14.9352 13H9.06477C9.29157 14.9873 10.1395 17.1787 12 19.4701C13.8605 17.1787 14.7084 14.9873 14.9352 13ZM9.62561 19.6418C8.02627 17.3523 7.25376 15.105 7.05377 13H4.06189C4.45427 16.1466 6.674 18.7257 9.62561 19.6418ZM14.3744 19.6418C15.9737 17.3523 16.7462 15.105 16.9462 13H19.9381C19.5457 16.1466 17.326 18.7257 14.3744 19.6418ZM19.9381 11H16.9688C16.9413 10.6195 16.8961 10.2454 16.835 9.87826C16.4783 7.7361 15.5865 5.87516 14.5673 4.42082C17.4224 5.38759 19.5543 7.92234 19.9381 11ZM2 12C2 6.47715 6.47715 2 12 2C17.5228 2 22 6.47715 22 12C22 17.5228 17.5228 22 12 22C6.47715 22 2 17.5228 2 12Z" fill="#025EA1"/>
</svg>
