<svg width="24" height="24" viewBox="0 0 24 24" fill="none" xmlns="http://www.w3.org/2000/svg">
<path fill-rule="evenodd" clip-rule="evenodd" d="M11 3.5C6.85786 3.5 3.5 6.85786 3.5 11C3.5 15.1421 6.85786 18.5 11 18.5C13.0722 18.5 14.9481 17.6596 16.3055 16.3011C16.5008 16.106 16.8174 16.1062 17.0125 16.3015L17.3553 16.6446C17.1337 16.8939 16.8976 17.1302 16.6484 17.3519L16.3051 17.0083C16.1099 16.8129 16.1101 16.4964 16.3054 16.3012C16.3054 16.3012 16.3055 16.3011 16.3055 16.3011C17.6614 14.9441 18.5 13.07 18.5 11C18.5 6.85786 15.1421 3.5 11 3.5ZM16.6484 17.3519L20.6463 21.3534C20.8415 21.5487 21.158 21.5489 21.3534 21.3537C21.5487 21.1585 21.5489 20.842 21.3537 20.6466L17.3553 16.6446C18.6896 15.1435 19.5 13.1664 19.5 11C19.5 6.30558 15.6944 2.5 11 2.5C6.30558 2.5 2.5 6.30558 2.5 11C2.5 15.6944 6.30558 19.5 11 19.5C13.1682 19.5 15.1468 18.6882 16.6484 17.3519ZM10.5 6C10.5 5.72386 10.7239 5.5 11 5.5C14.0376 5.5 16.5 7.96243 16.5 11C16.5 11.2761 16.2761 11.5 16 11.5C15.7239 11.5 15.5 11.2761 15.5 11C15.5 8.51472 13.4853 6.5 11 6.5C10.7239 6.5 10.5 6.27614 10.5 6Z" fill="white"/>
</svg>
