<svg width="24" height="24" viewBox="0 0 24 24" fill="none" xmlns="http://www.w3.org/2000/svg">
<path fill-rule="evenodd" clip-rule="evenodd" d="M12 3.5C10.067 3.5 8.50001 5.067 8.50001 7C8.50001 8.933 10.067 10.5 12 10.5C13.933 10.5 15.5 8.933 15.5 7C15.5 5.067 13.933 3.5 12 3.5ZM7.50001 7C7.50001 4.51472 9.51473 2.5 12 2.5C14.4853 2.5 16.5 4.51472 16.5 7C16.5 9.48528 14.4853 11.5 12 11.5C9.51473 11.5 7.50001 9.48528 7.50001 7ZM8.16647 14.5012C8.06 14.4933 7.98511 14.4981 7.75376 14.5157C7.67509 14.5217 7.61135 14.5297 7.55466 14.54C6.52869 14.7257 5.72573 15.5287 5.54 16.5547C5.50202 16.7644 5.50001 17.0266 5.50001 17.6841V19.4C5.50001 19.6883 5.5004 19.8744 5.51197 20.0161C5.52307 20.1519 5.54191 20.2023 5.55451 20.227C5.60244 20.3211 5.67893 20.3976 5.77301 20.4455C5.79774 20.4581 5.84809 20.4769 5.98393 20.488C6.1256 20.4996 6.31173 20.5 6.60001 20.5H17.4C17.6883 20.5 17.8744 20.4996 18.0161 20.488C18.1519 20.4769 18.2023 20.4581 18.227 20.4455C18.3211 20.3976 18.3976 20.3211 18.4455 20.227C18.4581 20.2023 18.4769 20.1519 18.488 20.0161C18.4996 19.8744 18.5 19.6883 18.5 19.4V17.6787C18.5 17.0264 18.498 16.7663 18.4606 16.5581C18.2759 15.5294 17.4707 14.7241 16.4419 14.5394C16.3866 14.5294 16.3239 14.5216 16.2463 14.5157C16.0147 14.4981 15.9397 14.4933 15.8333 14.5013C15.7105 14.5104 15.6562 14.52 15.5377 14.5535C15.4397 14.5811 15.2278 14.6753 14.6795 14.9236C13.8619 15.294 12.9543 15.5 12 15.5C11.0457 15.5 10.1381 15.294 9.32051 14.9236C8.77216 14.6752 8.56024 14.5811 8.46224 14.5534C8.34367 14.52 8.28932 14.5104 8.16647 14.5012ZM7.69763 13.5171C7.90571 13.5012 8.05258 13.49 8.24076 13.504C8.43034 13.5181 8.55075 13.5394 8.73372 13.591C8.91594 13.6424 9.20479 13.7733 9.65796 13.9787C9.68254 13.9898 9.70759 14.0012 9.73314 14.0127C10.4237 14.3256 11.1908 14.5 12 14.5C12.8092 14.5 13.5763 14.3256 14.2669 14.0127C14.2924 14.0012 14.3175 13.9898 14.3421 13.9786C14.7952 13.7733 15.084 13.6424 15.2661 13.591C15.4491 13.5394 15.5693 13.5182 15.7589 13.504C15.947 13.49 16.094 13.5012 16.3022 13.5171L16.3221 13.5186C16.4259 13.5265 16.5231 13.538 16.6187 13.5551C18.0589 13.8138 19.1863 14.9411 19.4449 16.3814C19.5001 16.6888 19.5001 17.0454 19.5 17.6194L19.5 19.4193C19.5 19.6829 19.5 19.9102 19.4847 20.0975C19.4686 20.2952 19.4329 20.4918 19.3365 20.681C19.1927 20.9632 18.9632 21.1927 18.681 21.3365C18.4918 21.4329 18.2952 21.4686 18.0975 21.4847C17.9102 21.5 17.6829 21.5 17.4193 21.5H6.58073C6.31716 21.5 6.08978 21.5 5.90249 21.4847C5.70482 21.4686 5.50821 21.4329 5.31902 21.3365C5.03678 21.1927 4.80731 20.9632 4.6635 20.681C4.5671 20.4918 4.53144 20.2952 4.51529 20.0975C4.49999 19.9102 4.5 19.6828 4.50001 19.4193L4.5 17.6243C4.49994 17.0458 4.4999 16.6863 4.55599 16.3765C4.81602 14.9402 5.94017 13.816 7.37652 13.556C7.47366 13.5384 7.57233 13.5266 7.67777 13.5186L7.69763 13.5171Z" fill="white"/>
</svg>
