<svg width="56" height="56" viewBox="0 0 56 56" fill="none" xmlns="http://www.w3.org/2000/svg">
<path fill-rule="evenodd" clip-rule="evenodd" d="M25.6667 8.16659C16.0017 8.16659 8.16671 16.0016 8.16671 25.6666C8.16671 35.3316 16.0017 43.1666 25.6667 43.1666C30.5018 43.1666 34.8789 41.2057 38.0462 38.0358C38.5021 37.5806 39.2406 37.581 39.6959 38.0368L40.4958 38.8373C39.9787 39.4191 39.4278 39.9703 38.8463 40.4878L38.0453 39.6859C37.5899 39.2301 37.5902 38.4914 38.046 38.036C38.0461 38.036 38.0461 38.0359 38.0462 38.0358C41.2101 34.8693 43.1667 30.4965 43.1667 25.6666C43.1667 16.0016 35.3317 8.16659 25.6667 8.16659ZM38.8463 40.4878L48.1747 49.8245C48.6301 50.2803 49.3688 50.2807 49.8246 49.8253C50.2804 49.3698 50.2808 48.6312 49.8254 48.1753L40.4958 38.8373C43.609 35.3347 45.5 30.7215 45.5 25.6666C45.5 14.7129 36.6204 5.83325 25.6667 5.83325C14.7131 5.83325 5.83337 14.7129 5.83337 25.6666C5.83337 36.6202 14.7131 45.4999 25.6667 45.4999C30.7259 45.4999 35.3426 43.6057 38.8463 40.4878ZM25.6667 15.8333C26.311 15.8333 26.8334 16.3556 26.8334 16.9999V25.3333H37C37.6444 25.3333 38.1667 25.8556 38.1667 26.4999C38.1667 27.1443 37.6444 27.6666 37 27.6666H26.8334V36.9999C26.8334 37.6443 26.311 38.1666 25.6667 38.1666C25.0224 38.1666 24.5 37.6443 24.5 36.9999V27.6666H15C14.3557 27.6666 13.8334 27.1443 13.8334 26.4999C13.8334 25.8556 14.3557 25.3333 15 25.3333H24.5V16.9999C24.5 16.3556 25.0224 15.8333 25.6667 15.8333Z" fill="white"/>
</svg>
