<svg width="335" height="368" viewBox="0 0 335 368" fill="none" xmlns="http://www.w3.org/2000/svg">
<g clip-path="url(#clip0_518_2039)">
<path d="M232.509 350.443L179.902 340.441L199.996 324.258L265.021 324.258L285.115 340.441L232.509 350.443Z" fill="#F2F8FD"/>
<path d="M118.124 235.273L161.427 243.506L204.73 235.273L188.287 222.03H134.567L118.124 235.273Z" stroke="url(#paint0_angular_518_2039)" stroke-width="0.180109"/>
<path d="M98.9783 324.214L121.88 328.639L144.782 324.214L136.13 317.131H107.631L98.9783 324.214Z" stroke="url(#paint1_angular_518_2039)" stroke-width="0.180109"/>
<path d="M166.675 342.945L249.31 358.623L331.945 342.945L300.479 317.657H198.142L166.675 342.945Z" stroke="url(#paint2_angular_518_2039)" stroke-width="0.180109"/>
<path d="M159.36 240.82L195.004 234.043L181.389 223.078H137.33L123.715 234.043L159.36 240.82Z" fill="#EAF3FB"/>
<path d="M120.938 326.859L138.802 323.398L131.979 317.798H109.898L103.074 323.398L120.938 326.859Z" fill="#EAF1F7"/>
<path d="M155.923 203.966L167.047 167.471L192.651 200.922L155.923 203.966Z" fill="#EBF7FE"/>
<path d="M128.745 223.144L155.922 203.966L168.934 235.022L128.745 223.144Z" fill="#E6F2FC"/>
<path d="M155.922 203.966L192.65 200.922L168.934 235.022L155.922 203.966Z" fill="#E6F2FC"/>
<path d="M168.934 235.022L192.65 200.922L188.134 218.239L168.934 235.022Z" fill="#E3EFF9"/>
<path d="M192.651 200.922L167.047 167.471L186.948 176.326L192.651 200.922Z" fill="#EBF7FE"/>
<path d="M128.745 223.143L168.934 235.022L148.573 232.022L128.745 223.143Z" fill="#E3EFF9"/>
<path d="M127.507 181.266L123.046 198.566L128.744 223.144L127.507 181.266Z" fill="#EBF7FE"/>
<path d="M167.047 167.471L127.509 181.266L146.833 164.364L167.047 167.471Z" fill="#EFFBFF"/>
<path d="M128.744 223.144L127.507 181.266L155.921 203.966L128.744 223.144Z" fill="#EBF7FE"/>
<path d="M155.923 203.966L127.509 181.266L167.047 167.471L155.923 203.966Z" fill="#EBF7FE"/>
<path d="M127.51 181.266L123.049 198.566L128.746 223.143M127.51 181.266L128.746 223.143M127.51 181.266L155.923 203.966M127.51 181.266L167.047 167.471M127.51 181.266L146.833 164.364L167.047 167.471M128.746 223.143L155.923 203.966M128.746 223.143L168.935 235.022M128.746 223.143L148.573 232.021L168.935 235.022M155.923 203.966L167.047 167.471M155.923 203.966L192.651 200.922M155.923 203.966L168.935 235.022M167.047 167.471L192.651 200.922M167.047 167.471L186.948 176.326L192.651 200.922M192.651 200.922L168.935 235.022M192.651 200.922L188.135 218.239L168.935 235.022" stroke="url(#paint3_linear_518_2039)" stroke-width="0.083531"/>
<path d="M120.781 305.61L136.352 292.216L138.361 314.804L120.781 305.61Z" fill="#EBF7FE"/>
<path d="M102.897 306.504L120.781 305.61L117.754 323.482L102.897 306.504Z" fill="#E6F2FC"/>
<path d="M120.783 305.61L138.363 314.804L117.755 323.482L120.783 305.61Z" fill="#E6F2FC"/>
<path d="M117.754 323.482L138.362 314.804L131.32 321.379L117.754 323.482Z" fill="#E3EFF9"/>
<path d="M138.362 314.804L136.352 292.216L142.852 301.975L138.362 314.804Z" fill="#EBF7FE"/>
<path d="M102.897 306.504L117.754 323.482L109.358 316.252L102.897 306.504Z" fill="#E3EFF9"/>
<path d="M114.398 287.101L107.386 293.685L102.898 306.503L114.398 287.101Z" fill="#EBF7FE"/>
<path d="M136.352 292.216L114.397 287.102L128.054 284.98L136.352 292.216Z" fill="#EFFBFF"/>
<path d="M102.898 306.503L114.398 287.101L120.782 305.609L102.898 306.503Z" fill="#EBF7FE"/>
<path d="M120.781 305.61L114.396 287.102L136.351 292.216L120.781 305.61Z" fill="#EBF7FE"/>
<path d="M114.396 287.102L107.385 293.685L102.897 306.504M114.396 287.102L102.897 306.504M114.396 287.102L120.781 305.61M114.396 287.102L136.352 292.216M114.396 287.102L128.053 284.98L136.352 292.216M102.897 306.504L120.781 305.61M102.897 306.504L117.753 323.482M102.897 306.504L109.357 316.252L117.753 323.482M120.781 305.61L136.352 292.216M120.781 305.61L138.361 314.804M120.781 305.61L117.753 323.482M136.352 292.216L138.361 314.804M136.352 292.216L142.852 301.975L138.361 314.804M138.361 314.804L117.753 323.482M138.361 314.804L131.319 321.379L117.753 323.482" stroke="url(#paint4_linear_518_2039)" stroke-width="0.134893"/>
<path d="M234.662 283.497L283.486 241.501L289.787 312.328L234.662 283.497Z" fill="#EBF7FE"/>
<path d="M178.586 286.301L234.662 283.497L225.169 339.537L178.586 286.301Z" fill="#E6F2FC"/>
<path d="M234.662 283.497L289.787 312.328L225.169 339.537L234.662 283.497Z" fill="#E6F2FC"/>
<path d="M225.169 339.537L289.786 312.328L267.706 332.944L225.169 339.537Z" fill="#E3EFF9"/>
<path d="M289.787 312.328L283.486 241.501L303.868 272.102L289.787 312.328Z" fill="#EBF7FE"/>
<path d="M178.585 286.301L225.169 339.537L198.842 316.868L178.585 286.301Z" fill="#E3EFF9"/>
<path d="M214.644 225.464L192.658 246.106L178.586 286.301L214.644 225.464Z" fill="#EBF7FE"/>
<path d="M283.486 241.501L214.644 225.465L257.466 218.814L283.486 241.501Z" fill="#EFFBFF"/>
<path d="M178.586 286.301L214.644 225.464L234.662 283.497L178.586 286.301Z" fill="#EBF7FE"/>
<path d="M234.662 283.497L214.644 225.465L283.486 241.501L234.662 283.497Z" fill="#EBF7FE"/>
<path d="M214.645 225.465L192.659 246.106L178.587 286.301M214.645 225.465L178.587 286.301M214.645 225.465L234.663 283.498M214.645 225.465L283.487 241.501M214.645 225.465L257.467 218.814L283.487 241.501M178.587 286.301L234.663 283.498M178.587 286.301L225.17 339.537M178.587 286.301L198.843 316.868L225.17 339.537M234.663 283.498L283.487 241.501M234.663 283.498L289.788 312.328M234.663 283.498L225.17 339.537M283.487 241.501L289.788 312.328M283.487 241.501L303.869 272.102L289.788 312.328M289.788 312.328L225.17 339.537M289.788 312.328L267.708 332.944L225.17 339.537" stroke="url(#paint5_linear_518_2039)" stroke-width="0.140999"/>
</g>
<defs>
<radialGradient id="paint0_angular_518_2039" cx="0" cy="0" r="1" gradientUnits="userSpaceOnUse" gradientTransform="translate(161.427 231.626) rotate(-90) scale(11.9721 45.7505)">
<stop offset="0.136114" stop-color="#6CACE4" stop-opacity="0"/>
<stop offset="0.334568" stop-color="#6CACE4" stop-opacity="0.76"/>
<stop offset="0.612118" stop-color="#6CACE4" stop-opacity="0"/>
</radialGradient>
<radialGradient id="paint1_angular_518_2039" cx="0" cy="0" r="1" gradientUnits="userSpaceOnUse" gradientTransform="translate(121.88 322.269) rotate(-90) scale(6.46194 24.2969)">
<stop offset="0.136114" stop-color="#6CACE4" stop-opacity="0"/>
<stop offset="0.334568" stop-color="#6CACE4" stop-opacity="0.76"/>
<stop offset="0.612118" stop-color="#6CACE4" stop-opacity="0"/>
</radialGradient>
<radialGradient id="paint2_angular_518_2039" cx="0" cy="0" r="1" gradientUnits="userSpaceOnUse" gradientTransform="translate(249.31 335.968) rotate(-90) scale(22.746 87.1069)">
<stop offset="0.136114" stop-color="#6CACE4" stop-opacity="0"/>
<stop offset="0.334568" stop-color="#6CACE4" stop-opacity="0.85"/>
<stop offset="0.612118" stop-color="#6CACE4" stop-opacity="0"/>
</radialGradient>
<linearGradient id="paint3_linear_518_2039" x1="114.752" y1="150.157" x2="187.127" y2="139.703" gradientUnits="userSpaceOnUse">
<stop stop-color="#15256D"/>
<stop offset="1" stop-color="#4495D1"/>
</linearGradient>
<linearGradient id="paint4_linear_518_2039" x1="117.555" y1="269.279" x2="153.482" y2="285.37" gradientUnits="userSpaceOnUse">
<stop stop-color="#15256D"/>
<stop offset="1" stop-color="#4495D1"/>
</linearGradient>
<linearGradient id="paint5_linear_518_2039" x1="224.548" y1="169.581" x2="337.2" y2="220.037" gradientUnits="userSpaceOnUse">
<stop stop-color="#15256D"/>
<stop offset="1" stop-color="#4495D1"/>
</linearGradient>
<clipPath id="clip0_518_2039">
<rect width="335" height="368" rx="10" fill="white"/>
</clipPath>
</defs>
</svg>
