<svg width="335" height="368" viewBox="0 0 335 368" fill="none" xmlns="http://www.w3.org/2000/svg">
<g clip-path="url(#clip0_518_1705)">
<ellipse cx="107.819" cy="264.288" rx="54.239" ry="8.25974" fill="#E3EFF9"/>
<path d="M155.312 255.203C155.312 255.694 155.015 256.197 154.394 256.705C153.776 257.212 152.855 257.707 151.656 258.183C149.259 259.133 145.782 259.991 141.476 260.713C132.866 262.156 120.966 263.049 107.818 263.049C94.6704 263.049 82.7706 262.156 74.1606 260.713C69.8545 259.991 66.3778 259.133 63.9808 258.183C62.7816 257.707 61.8607 257.212 61.2419 256.705C60.6216 256.197 60.3247 255.694 60.3247 255.203C60.3247 254.711 60.6216 254.208 61.2419 253.7C61.8607 253.193 62.7816 252.698 63.9808 252.223C66.3778 251.273 69.8545 250.414 74.1606 249.693C82.7706 248.249 94.6704 247.356 107.818 247.356C120.966 247.356 132.866 248.249 141.476 249.693C145.782 250.414 149.259 251.273 151.656 252.223C152.855 252.698 153.776 253.193 154.394 253.7C155.015 254.208 155.312 254.711 155.312 255.203Z" stroke="#003274" stroke-width="0.275325"/>
<path d="M151.457 246.117C151.457 246.634 151.18 247.157 150.612 247.68C150.044 248.204 149.199 248.715 148.098 249.206C145.898 250.188 142.704 251.076 138.747 251.822C130.836 253.315 119.901 254.239 107.818 254.239C95.7354 254.239 84.8002 253.315 76.8889 251.822C72.9321 251.076 69.7387 250.188 67.5378 249.206C66.4368 248.715 65.5919 248.204 65.0242 247.68C64.4563 247.157 64.1792 246.634 64.1792 246.117C64.1792 245.6 64.4563 245.077 65.0242 244.553C65.5919 244.03 66.4368 243.519 67.5378 243.028C69.7387 242.046 72.9321 241.158 76.8889 240.412C84.8002 238.919 95.7354 237.995 107.818 237.995C119.901 237.995 130.836 238.919 138.747 240.412C142.704 241.158 145.898 242.046 148.098 243.028C149.199 243.519 150.044 244.03 150.612 244.553C151.18 245.077 151.457 245.6 151.457 246.117Z" stroke="#003274" stroke-width="0.275325"/>
<path d="M145.951 236.756C145.951 237.28 145.706 237.804 145.211 238.326C144.716 238.848 143.979 239.358 143.019 239.848C141.097 240.829 138.308 241.716 134.85 242.462C127.937 243.954 118.38 244.878 107.818 244.878C97.2572 244.878 87.6999 243.954 80.7864 242.462C77.3286 241.716 74.5396 240.829 72.6184 239.848C71.6576 239.358 70.9207 238.848 70.4258 238.326C69.9314 237.804 69.686 237.28 69.686 236.756C69.686 236.232 69.9314 235.707 70.4258 235.186C70.9207 234.664 71.6576 234.154 72.6184 233.663C74.5396 232.683 77.3286 231.796 80.7864 231.05C87.6999 229.558 97.2572 228.634 107.818 228.634C118.38 228.634 127.937 229.558 134.85 231.05C138.308 231.796 141.097 232.683 143.019 233.663C143.979 234.154 144.716 234.664 145.211 235.186C145.706 235.707 145.951 236.232 145.951 236.756Z" stroke="#025EA1" stroke-width="0.275325"/>
<path d="M141.546 227.395C141.546 228.455 140.661 229.506 138.953 230.491C137.256 231.469 134.791 232.356 131.732 233.102C125.617 234.593 117.162 235.517 107.819 235.517C98.4747 235.517 90.0199 234.593 83.905 233.102C80.8465 232.356 78.3811 231.469 76.6837 230.491C74.976 229.506 74.0913 228.455 74.0913 227.395C74.0913 226.335 74.976 225.284 76.6837 224.299C78.3811 223.32 80.8465 222.434 83.905 221.688C90.0199 220.197 98.4747 219.273 107.819 219.273C117.162 219.273 125.617 220.197 131.732 221.688C134.791 222.434 137.256 223.32 138.953 224.299C140.661 225.284 141.546 226.335 141.546 227.395Z" stroke="#025EA1" stroke-width="0.275325"/>
<path d="M136.59 218.309C136.59 219.339 135.832 220.354 134.38 221.302C132.934 222.246 130.833 223.102 128.223 223.822C123.007 225.263 115.793 226.156 107.818 226.156C99.844 226.156 92.6296 225.263 87.4131 223.822C84.8039 223.102 82.7023 222.246 81.2563 221.302C79.8044 220.354 79.0468 219.339 79.0468 218.309C79.0468 217.279 79.8044 216.265 81.2563 215.316C82.7023 214.372 84.8039 213.517 87.4131 212.796C92.6296 211.355 99.844 210.462 107.818 210.462C115.793 210.462 123.007 211.355 128.223 212.796C130.833 213.517 132.934 214.372 134.38 215.316C135.832 216.265 136.59 217.279 136.59 218.309Z" stroke="#025EA1" stroke-width="0.275325"/>
<path d="M134.865 209.05C134.865 210.117 134.149 211.16 132.787 212.132C131.428 213.102 129.454 213.98 127.002 214.72C122.099 216.201 115.318 217.118 107.822 217.118C100.326 217.118 93.545 216.201 88.6424 214.72C86.1902 213.98 84.2159 213.102 82.8576 212.132C81.4958 211.16 80.7793 210.117 80.7793 209.05C80.7793 207.984 81.4958 206.94 82.8576 205.968C84.2159 204.999 86.1902 204.12 88.6424 203.38C93.545 201.9 100.326 200.982 107.822 200.982C115.318 200.982 122.099 201.9 127.002 203.38C129.454 204.12 131.428 204.999 132.787 205.968C134.149 206.94 134.865 207.984 134.865 209.05Z" stroke="#025EA1" stroke-width="0.275325"/>
<path d="M133.84 199.819C133.84 200.888 133.149 201.932 131.84 202.902C130.534 203.871 128.635 204.75 126.276 205.49C121.56 206.97 115.035 207.887 107.823 207.887C100.61 207.887 94.0862 206.97 89.3698 205.49C87.0107 204.75 85.1117 203.871 83.8054 202.902C82.4964 201.932 81.8056 200.888 81.8056 199.819C81.8056 198.75 82.4964 197.707 83.8054 196.736C85.1117 195.767 87.0107 194.888 89.3698 194.148C94.0862 192.669 100.61 191.751 107.823 191.751C115.035 191.751 121.56 192.669 126.276 194.148C128.635 194.888 130.534 195.767 131.84 196.736C133.149 197.707 133.84 198.75 133.84 199.819Z" stroke="#025EA1" stroke-width="0.275325"/>
<path d="M134.353 190.588C134.353 191.656 133.649 192.699 132.314 193.671C130.981 194.64 129.045 195.518 126.639 196.258C121.829 197.738 115.177 198.656 107.823 198.656C100.468 198.656 93.8156 197.738 89.0061 196.258C86.6005 195.518 84.6638 194.64 83.3315 193.671C81.9961 192.699 81.2924 191.656 81.2924 190.588C81.2924 189.52 81.9961 188.477 83.3315 187.505C84.6638 186.536 86.6005 185.658 89.0061 184.917C93.8156 183.438 100.468 182.52 107.823 182.52C115.177 182.52 121.829 183.438 126.639 184.917C129.045 185.658 130.981 186.536 132.314 187.505C133.649 188.477 134.353 189.52 134.353 190.588Z" stroke="#6CACE4" stroke-width="0.275325"/>
<path d="M134.865 181.357C134.865 182.423 134.149 183.467 132.787 184.439C131.428 185.408 129.454 186.287 127.002 187.027C122.099 188.507 115.318 189.425 107.822 189.425C100.326 189.425 93.545 188.507 88.6424 187.027C86.1902 186.287 84.2159 185.408 82.8576 184.439C81.4958 183.467 80.7793 182.423 80.7793 181.357C80.7793 180.29 81.4958 179.247 82.8576 178.275C84.2159 177.305 86.1902 176.427 88.6424 175.686C93.545 174.206 100.326 173.289 107.822 173.289C115.318 173.289 122.099 174.206 127.002 175.686C129.454 176.427 131.428 177.305 132.787 178.275C134.149 179.247 134.865 180.29 134.865 181.357Z" stroke="#6CACE4" stroke-width="0.275325"/>
<path d="M135.378 172.126C135.378 173.191 134.649 174.234 133.26 175.207C131.876 176.176 129.864 177.055 127.365 177.796C122.37 179.276 115.46 180.193 107.822 180.193C100.184 180.193 93.2748 179.276 88.2792 177.796C85.7805 177.055 83.7685 176.176 82.3842 175.207C80.996 174.234 80.2666 173.191 80.2666 172.126C80.2666 171.06 80.996 170.017 82.3842 169.044C83.7685 168.075 85.7805 167.196 88.2792 166.455C93.2748 164.975 100.184 164.058 107.822 164.058C115.46 164.058 122.37 164.975 127.365 166.455C129.864 167.196 131.876 168.075 133.26 169.044C134.649 170.017 135.378 171.06 135.378 172.126Z" stroke="#6CACE4" stroke-width="0.275325"/>
<path d="M136.404 162.894C136.404 163.958 135.648 165.001 134.207 165.974C132.771 166.945 130.684 167.824 128.092 168.564C122.91 170.045 115.744 170.962 107.822 170.962C99.9006 170.962 92.7342 170.045 87.5525 168.564C84.9607 167.824 82.8733 166.945 81.437 165.974C79.9959 165.001 79.2407 163.958 79.2407 162.894C79.2407 161.831 79.9959 160.788 81.437 159.815C82.8733 158.844 84.9607 157.965 87.5525 157.225C92.7342 155.744 99.9006 154.827 107.822 154.827C115.744 154.827 122.91 155.744 128.092 157.225C130.684 157.965 132.771 158.844 134.207 159.815C135.648 160.788 136.404 161.831 136.404 162.894Z" stroke="#6CACE4" stroke-width="0.275325"/>
<path d="M158.616 264.564C158.616 265.294 158.257 266.022 157.543 266.742C156.828 267.461 155.767 268.162 154.388 268.834C151.63 270.177 147.631 271.39 142.678 272.411C132.775 274.451 119.087 275.714 103.964 275.714C88.8406 275.714 75.153 274.451 65.2496 272.411C60.2968 271.39 56.2977 270.177 53.5402 268.834C52.1612 268.162 51.0999 267.461 50.3851 266.742C49.6708 266.022 49.312 265.294 49.312 264.564C49.312 263.833 49.6708 263.105 50.3851 262.386C51.0999 261.666 52.1612 260.965 53.5402 260.294C56.2977 258.95 60.2968 257.737 65.2496 256.716C75.153 254.676 88.8406 253.413 103.964 253.413C119.087 253.413 132.775 254.676 142.678 256.716C147.631 257.737 151.63 258.95 154.388 260.294C155.767 260.965 156.828 261.666 157.543 262.386C158.257 263.105 158.616 263.833 158.616 264.564Z" stroke="url(#paint0_angular_518_1705)" stroke-width="0.275325"/>
<path d="M580.964 287.416C580.964 291.43 578.814 295.367 574.681 299.189C570.549 303.01 564.446 306.702 556.574 310.224C540.831 317.267 518.042 323.612 489.871 328.943C433.531 339.603 355.692 346.197 269.709 346.197C183.726 346.197 105.887 339.603 49.5472 328.943C21.3759 323.612 -1.41315 317.267 -17.1561 310.224C-25.0281 306.702 -31.1307 303.01 -35.2633 299.189C-39.396 295.367 -41.5454 291.43 -41.5454 287.416C-41.5454 283.401 -39.396 279.464 -35.2633 275.642C-31.1307 271.821 -25.0281 268.129 -17.1561 264.607C-1.41315 257.564 21.3759 251.219 49.5472 245.888C105.887 235.228 183.726 228.634 269.709 228.634C355.692 228.634 433.531 235.228 489.871 245.888C518.042 251.219 540.831 257.564 556.574 264.607C564.446 268.129 570.549 271.821 574.681 275.642C578.814 279.464 580.964 283.401 580.964 287.416Z" stroke="url(#paint1_angular_518_1705)" stroke-width="0.275325"/>
<path d="M566.647 291.545C566.647 296.156 564.491 300.671 560.358 305.045C556.225 309.421 550.122 313.648 542.251 317.679C526.509 325.742 503.721 333.006 475.551 339.108C419.212 351.313 341.374 358.862 255.392 358.862C169.41 358.862 91.5726 351.313 35.2338 339.108C7.0633 333.006 -15.7246 325.742 -31.4665 317.679C-39.3377 313.648 -45.4403 309.421 -49.5735 305.045C-53.7062 300.671 -55.8623 296.156 -55.8623 291.545C-55.8623 286.935 -53.7062 282.42 -49.5735 278.046C-45.4403 273.67 -39.3377 269.443 -31.4665 265.412C-15.7246 257.349 7.0633 250.085 35.2338 243.982C91.5726 231.778 169.41 224.229 255.392 224.229C341.374 224.229 419.212 231.778 475.551 243.982C503.721 250.085 526.509 257.349 542.251 265.412C550.122 269.443 556.225 273.67 560.358 278.046C564.491 282.42 566.647 286.935 566.647 291.545Z" stroke="url(#paint2_angular_518_1705)" stroke-width="0.275325"/>
<path d="M291.322 316.325C291.322 317.473 290.756 318.61 289.645 319.723C288.534 320.837 286.889 321.918 284.758 322.952C280.495 325.02 274.319 326.886 266.676 328.455C251.391 331.591 230.27 333.532 206.935 333.532C183.601 333.532 162.479 331.591 147.195 328.455C139.552 326.886 133.375 325.02 129.113 322.952C126.982 321.918 125.336 320.837 124.225 319.723C123.115 318.61 122.548 317.473 122.548 316.325C122.548 315.176 123.115 314.04 124.225 312.926C125.336 311.812 126.982 310.731 129.113 309.697C133.375 307.629 139.552 305.763 147.195 304.194C162.479 301.058 183.601 299.117 206.935 299.117C230.27 299.117 251.391 301.058 266.676 304.194C274.319 305.763 280.495 307.629 284.758 309.697C286.889 310.731 288.534 311.812 289.645 312.926C290.756 314.04 291.322 315.176 291.322 316.325Z" stroke="url(#paint3_angular_518_1705)" stroke-width="0.275325"/>
<ellipse cx="203.638" cy="315.486" rx="74.0695" ry="12.6976" fill="#E3EFF9"/>
<path d="M268.185 301.519C268.185 302.285 267.776 303.06 266.937 303.837C266.098 304.614 264.849 305.374 263.221 306.103C259.966 307.562 255.243 308.881 249.39 309.99C237.687 312.208 221.512 313.581 203.638 313.581C185.765 313.581 169.589 312.208 157.887 309.99C152.034 308.881 147.311 307.562 144.056 306.103C142.428 305.374 141.179 304.614 140.34 303.837C139.501 303.06 139.092 302.285 139.092 301.519C139.092 300.753 139.501 299.977 140.34 299.2C141.179 298.423 142.428 297.664 144.056 296.934C147.311 295.475 152.034 294.157 157.887 293.047C169.589 290.829 185.765 289.456 203.638 289.456C221.512 289.456 237.687 290.829 249.39 293.047C255.243 294.157 259.966 295.475 263.221 296.934C264.849 297.664 266.098 298.423 266.937 299.2C267.776 299.977 268.185 300.753 268.185 301.519Z" stroke="#003274" stroke-width="0.423254"/>
<path d="M263.106 287.551C263.106 288.356 262.724 289.162 261.953 289.964C261.181 290.766 260.031 291.551 258.533 292.305C255.536 293.812 251.187 295.176 245.794 296.323C235.013 298.617 220.108 300.037 203.639 300.037C187.169 300.037 172.265 298.617 161.484 296.323C156.091 295.176 151.741 293.812 148.745 292.305C147.246 291.551 146.097 290.766 145.325 289.964C144.554 289.162 144.172 288.356 144.172 287.551C144.172 286.747 144.554 285.941 145.325 285.139C146.097 284.336 147.246 283.552 148.745 282.798C151.741 281.291 156.091 279.927 161.484 278.78C172.265 276.486 187.169 275.065 203.639 275.065C220.108 275.065 235.013 276.486 245.794 278.78C251.187 279.927 255.536 281.291 258.533 282.798C260.031 283.552 261.181 284.336 261.953 285.139C262.724 285.941 263.106 286.747 263.106 287.551Z" stroke="#003274" stroke-width="0.423254"/>
<path d="M255.487 273.161C255.487 274.79 254.127 276.406 251.501 277.92C248.892 279.425 245.102 280.787 240.4 281.934C231 284.226 218.002 285.647 203.638 285.647C189.274 285.647 176.276 284.226 166.876 281.934C162.174 280.787 158.384 279.425 155.775 277.92C153.149 276.406 151.789 274.79 151.789 273.161C151.789 271.531 153.149 269.915 155.775 268.402C158.384 266.897 162.174 265.535 166.876 264.388C176.276 262.095 189.274 260.675 203.638 260.675C218.002 260.675 231 262.095 240.4 264.388C245.102 265.535 248.892 266.897 251.501 268.402C254.127 269.915 255.487 271.531 255.487 273.161Z" stroke="#025EA1" stroke-width="0.423254"/>
<path d="M251.255 258.77C251.255 260.408 250.001 262.023 247.595 263.533C245.201 265.036 241.722 266.398 237.404 267.544C228.771 269.836 216.833 271.256 203.639 271.256C190.444 271.256 178.507 269.836 169.874 267.544C165.556 266.398 162.077 265.036 159.682 263.533C157.277 262.023 156.023 260.408 156.023 258.77C156.023 257.132 157.277 255.517 159.682 254.007C162.077 252.504 165.556 251.142 169.874 249.996C178.507 247.704 190.444 246.284 203.639 246.284C216.833 246.284 228.771 247.704 237.404 249.996C241.722 251.142 245.201 252.504 247.595 254.007C250.001 255.517 251.255 257.132 251.255 258.77Z" stroke="#025EA1" stroke-width="0.423254"/>
<path d="M246.794 244.76C246.794 246.396 245.652 248 243.478 249.496C241.31 250.987 238.159 252.338 234.246 253.476C226.423 255.752 215.604 257.162 203.644 257.162C191.684 257.162 180.865 255.752 173.042 253.476C169.129 252.338 165.978 250.987 163.81 249.496C161.635 248 160.494 246.396 160.494 244.76C160.494 243.124 161.635 241.52 163.81 240.024C165.978 238.533 169.129 237.182 173.042 236.044C180.865 233.768 191.684 232.357 203.644 232.357C215.604 232.357 226.423 233.768 234.246 236.044C238.159 237.182 241.31 238.533 243.478 240.024C245.652 241.52 246.794 243.124 246.794 244.76Z" stroke="#025EA1" stroke-width="0.423254"/>
<path d="M245.218 230.569C245.218 232.209 244.116 233.813 242.023 235.307C239.935 236.797 236.899 238.148 233.13 239.286C225.593 241.561 215.169 242.971 203.645 242.971C192.121 242.971 181.697 241.561 174.16 239.286C170.39 238.148 167.355 236.797 165.267 235.307C163.174 233.813 162.072 232.209 162.072 230.569C162.072 228.929 163.174 227.325 165.267 225.831C167.355 224.341 170.39 222.99 174.16 221.852C181.697 219.577 192.121 218.166 203.645 218.166C215.169 218.166 225.593 219.577 233.13 221.852C236.899 222.99 239.935 224.341 242.023 225.831C244.116 227.325 245.218 228.929 245.218 230.569Z" stroke="#025EA1" stroke-width="0.423254"/>
<path d="M243.641 216.378C243.641 218.021 242.579 219.626 240.567 221.118C238.558 222.608 235.639 223.958 232.012 225.096C224.762 227.37 214.732 228.781 203.645 228.781C192.557 228.781 182.527 227.37 175.277 225.096C171.65 223.958 168.731 222.608 166.723 221.118C164.711 219.626 163.649 218.021 163.649 216.378C163.649 214.735 164.711 213.131 166.723 211.638C168.731 210.149 171.65 208.798 175.277 207.66C182.527 205.386 192.557 203.976 203.645 203.976C214.732 203.976 224.762 205.386 232.012 207.66C235.639 208.798 238.558 210.149 240.567 211.638C242.579 213.131 243.641 214.735 243.641 216.378Z" stroke="#025EA1" stroke-width="0.423254"/>
<path d="M244.429 202.187C244.429 203.829 243.348 205.433 241.295 206.926C239.247 208.416 236.269 209.766 232.571 210.904C225.178 213.179 214.951 214.59 203.645 214.59C192.339 214.59 182.112 213.179 174.719 210.904C171.021 209.766 168.043 208.416 165.995 206.926C163.942 205.433 162.861 203.829 162.861 202.187C162.861 200.546 163.942 198.942 165.995 197.448C168.043 195.958 171.021 194.608 174.719 193.47C182.112 191.195 192.339 189.785 203.645 189.785C214.951 189.785 225.178 191.195 232.571 193.47C236.269 194.608 239.247 195.958 241.295 197.448C243.348 198.942 244.429 200.546 244.429 202.187Z" stroke="#6CACE4" stroke-width="0.423254"/>
<path d="M245.218 187.996C245.218 189.636 244.116 191.24 242.023 192.734C239.935 194.224 236.899 195.575 233.13 196.713C225.593 198.988 215.169 200.399 203.645 200.399C192.121 200.399 181.697 198.988 174.16 196.713C170.39 195.575 167.355 194.224 165.267 192.734C163.174 191.24 162.072 189.636 162.072 187.996C162.072 186.356 163.174 184.752 165.267 183.258C167.355 181.768 170.39 180.417 174.16 179.279C181.697 177.004 192.121 175.594 203.645 175.594C215.169 175.594 225.593 177.004 233.13 179.279C236.899 180.417 239.935 181.768 242.023 183.258C244.116 184.752 245.218 186.356 245.218 187.996Z" stroke="#6CACE4" stroke-width="0.423254"/>
<path d="M246.006 173.805C246.006 175.443 244.885 177.047 242.751 178.542C240.623 180.033 237.53 181.384 233.689 182.522C226.009 184.797 215.387 186.208 203.645 186.208C191.903 186.208 181.281 184.797 173.602 182.522C169.76 181.384 166.667 180.033 164.539 178.542C162.405 177.047 161.284 175.443 161.284 173.805C161.284 172.167 162.405 170.563 164.539 169.068C166.667 167.578 169.76 166.227 173.602 165.088C181.281 162.813 191.903 161.403 203.645 161.403C215.387 161.403 226.009 162.813 233.689 165.088C237.53 166.227 240.623 167.578 242.751 169.068C244.885 170.563 246.006 172.167 246.006 173.805Z" stroke="#6CACE4" stroke-width="0.423254"/>
<path d="M247.582 159.614C247.582 161.248 246.421 162.852 244.206 164.349C241.998 165.84 238.789 167.192 234.805 168.33C226.839 170.606 215.822 172.017 203.644 172.017C191.467 172.017 180.45 170.606 172.484 168.33C168.5 167.192 165.291 165.84 163.083 164.349C160.867 162.852 159.706 161.248 159.706 159.614C159.706 157.98 160.867 156.376 163.083 154.88C165.291 153.388 168.5 152.036 172.484 150.898C180.45 148.622 191.467 147.212 203.644 147.212C215.822 147.212 226.839 148.622 234.805 150.898C238.789 152.036 241.998 153.388 244.206 154.88C246.421 156.376 247.582 157.98 247.582 159.614Z" stroke="#6CACE4" stroke-width="0.423254"/>
</g>
<defs>
<radialGradient id="paint0_angular_518_1705" cx="0" cy="0" r="1" gradientUnits="userSpaceOnUse" gradientTransform="translate(103.964 264.564) rotate(90) scale(11.2883 54.7896)">
<stop offset="0.11597" stop-color="#6CACE4"/>
<stop offset="0.394021" stop-color="#6CACE4" stop-opacity="0.0165707"/>
<stop offset="0.930671" stop-color="#6CACE4" stop-opacity="0.0165707"/>
</radialGradient>
<radialGradient id="paint1_angular_518_1705" cx="0" cy="0" r="1" gradientUnits="userSpaceOnUse" gradientTransform="translate(269.709 287.416) rotate(90) scale(58.9195 311.392)">
<stop offset="0.385251" stop-color="#6CACE4" stop-opacity="0.0165707"/>
<stop offset="0.904975" stop-color="#6CACE4"/>
</radialGradient>
<radialGradient id="paint2_angular_518_1705" cx="0" cy="0" r="1" gradientUnits="userSpaceOnUse" gradientTransform="translate(255.392 291.545) rotate(90) scale(67.4545 311.392)">
<stop offset="0.385251" stop-color="#6CACE4" stop-opacity="0.0165707"/>
<stop offset="0.904975" stop-color="#6CACE4"/>
</radialGradient>
<radialGradient id="paint3_angular_518_1705" cx="0" cy="0" r="1" gradientUnits="userSpaceOnUse" gradientTransform="translate(206.935 316.325) rotate(90) scale(17.3455 84.5247)">
<stop offset="0.11597" stop-color="#6CACE4"/>
<stop offset="0.394021" stop-color="#6CACE4" stop-opacity="0.0165707"/>
<stop offset="0.930671" stop-color="#6CACE4" stop-opacity="0.0165707"/>
</radialGradient>
<clipPath id="clip0_518_1705">
<rect width="335" height="368" rx="10" fill="white"/>
</clipPath>
</defs>
</svg>
