<svg width="335" height="368" viewBox="0 0 335 368" fill="none" xmlns="http://www.w3.org/2000/svg">
<g clip-path="url(#clip0_518_2086)">
<path opacity="0.5" d="M-95 371L440 108" stroke="#6C8EAB" stroke-width="0.5"/>
<path opacity="0.5" d="M81 184L589 -67" stroke="#6C8EAB" stroke-width="0.5"/>
<path opacity="0.5" d="M195 221L-395 -68" stroke="#6C8EAB" stroke-width="0.5"/>
<path opacity="0.5" d="M402 437L89 282" stroke="#6C8EAB" stroke-width="0.5"/>
<path opacity="0.5" d="M-95 399L440 137" stroke="#6C8EAB" stroke-width="0.5"/>
<path opacity="0.5" d="M96 202L607 -48" stroke="#6C8EAB" stroke-width="0.5"/>
<path opacity="0.5" d="M218 261L-412 -48" stroke="#6C8EAB" stroke-width="0.5"/>
<path opacity="0.5" d="M429 476L89 309" stroke="#6C8EAB" stroke-width="0.5"/>
<path opacity="0.5" d="M-95 427L440 162" stroke="#6C8EAB" stroke-width="0.5"/>
<path opacity="0.5" d="M14 427L550 162" stroke="#6C8EAB" stroke-width="0.5"/>
<path opacity="0.5" d="M-95 455L440 192" stroke="#6C8EAB" stroke-width="0.5"/>
<path opacity="0.5" d="M14 455L550 192" stroke="#6C8EAB" stroke-width="0.5"/>
<path d="M98.2993 203L69 189.592V162.408L98.2993 149L128 162.408V189.592L98.2993 203Z" fill="#A7CCE8"/>
<path d="M98.2993 203L69 189.592V162.408M98.2993 203L128 189.592V162.408M98.2993 203V176.184M69 162.408L98.2993 176.184M69 162.408L98.2993 149L128 162.408M98.2993 176.184L128 162.408" stroke="white" stroke-width="0.467979"/>
<path d="M96 206L69 191.466V162L96 176.932V206Z" fill="#E3EFF9"/>
<path d="M89 310.875V282.938L116.581 268.688V241.125L144.919 227.438V199.688L172.5 186L200.459 199.688V227.438L228.041 241.125V268.688L256 282.938V310.875L228.041 324L200.459 310.875L172.5 324L144.919 310.875L116.581 324L89 310.875Z" fill="#A7CCE8"/>
<path d="M116.581 324V296.625M116.581 324L89 310.875V282.938M116.581 324L144.919 310.875M116.581 296.625L89 282.938M116.581 296.625L144.919 282.938M89 282.938L116.581 268.688M144.919 310.875V282.938M144.919 310.875L172.5 324M144.919 282.938L116.581 268.688M144.919 282.938L172.5 296.625M144.919 282.938L172.5 268.688M144.919 282.938V254.625M116.581 268.688V241.125M172.5 324V296.625M172.5 324L200.459 310.875M172.5 296.625L200.459 282.938M200.459 282.938L228.041 296.625M200.459 282.938L228.041 268.688M200.459 282.938V254.625M200.459 282.938V310.875M200.459 282.938L172.5 268.688M228.041 296.625V324M228.041 296.625L256 282.938M228.041 324L200.459 310.875M228.041 324L256 310.875V282.938M256 282.938L228.041 268.688M228.041 268.688V241.125M172.5 268.688V241.125M116.581 241.125L144.919 254.625M116.581 241.125L144.919 227.438M144.919 254.625L172.5 241.125M172.5 241.125L200.459 254.625M172.5 241.125L144.919 227.438M172.5 241.125L200.459 227.438M172.5 241.125V213.75M200.459 254.625L228.041 241.125M228.041 241.125L200.459 227.438M144.919 227.438V199.688M200.459 227.438V199.688M144.919 199.688L172.5 213.75M144.919 199.688L172.5 186L200.459 199.688M172.5 213.75L200.459 199.688" stroke="white" stroke-width="0.467979"/>
<path d="M226 296L199 282V310.575L226 324V296Z" fill="#E3EFF9"/>
<path d="M144 281.885V310.538L171.313 324V295.923L144 281.885Z" fill="#E3EFF9"/>
<path d="M199 252.846L171.313 239V267.269L199 281.885V252.846Z" fill="#E3EFF9"/>
<path d="M116.416 296.253V324L89 310.697V282.38L116.416 296.253Z" fill="#E3EFF9"/>
<path d="M116.416 267.937L144.584 282.38V253.683L116.416 240V267.937Z" fill="#E3EFF9"/>
<path d="M172 240L144.584 226.127V198L172 212.253V240Z" fill="#E3EFF9"/>
</g>
<defs>
<clipPath id="clip0_518_2086">
<rect width="335" height="368" rx="10" fill="white"/>
</clipPath>
</defs>
</svg>
