<svg width="335" height="368" viewBox="0 0 335 368" fill="none" xmlns="http://www.w3.org/2000/svg">
<g clip-path="url(#clip0_518_2013)">
<path opacity="0.5" d="M-90.0903 373.228L439.58 112.091" stroke="white" stroke-width="0.284463"/>
<path opacity="0.5" d="M85.1387 186.621L588.638 -61.4311" stroke="white" stroke-width="0.284463"/>
<path opacity="0.5" d="M196.648 224.739L-385.363 -62" stroke="white" stroke-width="0.284463"/>
<path opacity="0.5" d="M404.295 436.948L92.239 283.208" stroke="white" stroke-width="0.284463"/>
<path opacity="0.5" d="M-90.0903 400.537L439.58 139.4" stroke="white" stroke-width="0.284463"/>
<path opacity="0.5" d="M101.638 205.964L606.275 -42.6565" stroke="white" stroke-width="0.284463"/>
<path opacity="0.5" d="M220.543 263.995L-403 -43.2255" stroke="white" stroke-width="0.284463"/>
<path opacity="0.5" d="M428.201 476.204L91.9659 310.541" stroke="white" stroke-width="0.284463"/>
<path opacity="0.5" d="M-90.0903 426.707L439.58 165.57" stroke="white" stroke-width="0.284463"/>
<path opacity="0.5" d="M20.2817 426.707L549.952 165.57" stroke="white" stroke-width="0.284463"/>
<path opacity="0.5" d="M-90.0903 454.016L439.58 192.879" stroke="white" stroke-width="0.284463"/>
<path opacity="0.5" d="M20.2817 454.016L549.952 192.879" stroke="white" stroke-width="0.284463"/>
<path d="M102.093 206.108L74.8984 192.511V164.944L102.093 151.347L129.659 164.944V192.511L102.093 206.108Z" fill="#025EA1"/>
<path d="M102.093 206.108L74.8984 192.511V164.944M102.093 206.108L129.659 192.511V164.944M102.093 206.108V178.914M74.8984 164.944L102.093 178.914M74.8984 164.944L102.093 151.347L129.659 164.944M102.093 178.914L129.659 164.944" stroke="white" stroke-width="0.266245"/>
<path d="M102.093 206.108L74.8984 192.511V164.944L102.093 178.914V206.108Z" fill="#1773B6"/>
<path d="M92.0352 310.822V283.069L119.229 268.913V241.532L147.169 227.935V200.368L174.363 186.771L201.93 200.368V227.935L229.124 241.532V268.913L256.691 283.069V310.822L229.124 323.86L201.93 310.822L174.363 323.86L147.169 310.822L119.229 323.86L92.0352 310.822Z" fill="#025EA1"/>
<path d="M119.229 323.86V296.666M119.229 323.86L92.0352 310.822V283.069M119.229 323.86L147.169 310.822M119.229 296.666L92.0352 283.069M119.229 296.666L147.169 283.069M92.0352 283.069L119.229 268.913M147.169 310.822V283.069M147.169 310.822L174.363 323.86M147.169 283.069L119.229 268.913M147.169 283.069L174.363 296.666M147.169 283.069L174.363 268.913M147.169 283.069V254.943M119.229 268.913V241.532M174.363 323.86V296.666M174.363 323.86L201.93 310.822M174.363 296.666L201.93 283.069M201.93 283.069L229.124 296.666M201.93 283.069L229.124 268.913M201.93 283.069V254.943M201.93 283.069V310.822M201.93 283.069L174.363 268.913M229.124 296.666V323.86M229.124 296.666L256.691 283.069M229.124 323.86L201.93 310.822M229.124 323.86L256.691 310.822V283.069M256.691 283.069L229.124 268.913M229.124 268.913V241.532M174.363 268.913V241.532M119.229 241.532L147.169 254.943M119.229 241.532L147.169 227.935M147.169 254.943L174.363 241.532M174.363 241.532L201.93 254.943M174.363 241.532L147.169 227.935M174.363 241.532L201.93 227.935M174.363 241.532V214.338M201.93 254.943L229.124 241.532M229.124 241.532L201.93 227.935M147.169 227.935V200.368M201.93 227.935V200.368M147.169 200.368L174.363 214.338M147.169 200.368L174.363 186.771L201.93 200.368M174.363 214.338L201.93 200.368" stroke="white" stroke-width="0.266245"/>
<path d="M229.123 296.666L201.929 283.069V310.822L229.123 323.86V296.666Z" fill="#1773B6"/>
<path d="M147.167 283.069V310.822L174.361 323.86V296.666L147.167 283.069Z" fill="#1773B6"/>
<path d="M201.928 254.943L174.361 241.532V268.913L201.928 283.069V254.943Z" fill="#1773B6"/>
<path d="M119.229 296.666V323.86L92.0352 310.822V283.069L119.229 296.666Z" fill="#1773B6"/>
<path d="M119.229 268.913L147.169 283.069V254.943L119.229 241.532V268.913Z" fill="#1773B6"/>
<path d="M174.363 241.532L147.169 227.935V200.368L174.363 214.338V241.532Z" fill="#1773B6"/>
</g>
<defs>
<clipPath id="clip0_518_2013">
<rect width="335" height="368" rx="10" fill="white"/>
</clipPath>
</defs>
</svg>
