<svg width="770" height="414" viewBox="0 0 770 414" fill="none" xmlns="http://www.w3.org/2000/svg">
<g clip-path="url(#clip0_518_161)">
<ellipse cx="494.5" cy="279" rx="98.5" ry="15" fill="#E3EFF9"/>
<path d="M580.75 262.5C580.75 263.392 580.211 264.306 579.084 265.229C577.961 266.149 576.288 267.049 574.11 267.912C569.757 269.637 563.443 271.196 555.623 272.506C539.987 275.128 518.377 276.75 494.5 276.75C470.623 276.75 449.013 275.128 433.377 272.506C425.557 271.196 419.243 269.637 414.89 267.912C412.712 267.049 411.039 266.149 409.916 265.229C408.789 264.306 408.25 263.392 408.25 262.5C408.25 261.608 408.789 260.694 409.916 259.771C411.039 258.851 412.712 257.951 414.89 257.088C419.243 255.363 425.557 253.804 433.377 252.494C449.013 249.872 470.623 248.25 494.5 248.25C518.377 248.25 539.987 249.872 555.623 252.494C563.443 253.804 569.757 255.363 574.11 257.088C576.288 257.951 577.961 258.851 579.084 259.771C580.211 260.694 580.75 261.608 580.75 262.5Z" stroke="#003274" stroke-width="0.5"/>
<path d="M573.75 246C573.75 246.939 573.247 247.888 572.215 248.839C571.184 249.79 569.65 250.718 567.651 251.61C563.654 253.393 557.854 255.005 550.669 256.361C536.301 259.072 516.443 260.75 494.5 260.75C472.557 260.75 452.699 259.072 438.331 256.361C431.146 255.005 425.346 253.393 421.349 251.61C419.35 250.718 417.816 249.79 416.785 248.839C415.753 247.888 415.25 246.939 415.25 246C415.25 245.061 415.753 244.112 416.785 243.161C417.816 242.21 419.35 241.282 421.349 240.39C425.346 238.607 431.146 236.995 438.331 235.639C452.699 232.928 472.557 231.25 494.5 231.25C516.443 231.25 536.301 232.928 550.669 235.639C557.854 236.995 563.654 238.607 567.651 240.39C569.65 241.282 571.184 242.21 572.215 243.161C573.247 244.112 573.75 245.061 573.75 246Z" stroke="#003274" stroke-width="0.5"/>
<path d="M563.75 229C563.75 229.952 563.304 230.904 562.407 231.851C561.508 232.799 560.17 233.726 558.425 234.616C554.936 236.396 549.871 238.007 543.591 239.362C531.036 242.072 513.68 243.75 494.5 243.75C475.32 243.75 457.964 242.072 445.409 239.362C439.129 238.007 434.064 236.396 430.575 234.616C428.83 233.726 427.492 232.799 426.593 231.851C425.696 230.904 425.25 229.952 425.25 229C425.25 228.048 425.696 227.096 426.593 226.149C427.492 225.201 428.83 224.274 430.575 223.384C434.064 221.604 439.129 219.993 445.409 218.638C457.964 215.928 475.32 214.25 494.5 214.25C513.68 214.25 531.036 215.928 543.591 218.638C549.871 219.993 554.936 221.604 558.425 223.384C560.17 224.274 561.508 225.201 562.407 226.149C563.304 227.096 563.75 228.048 563.75 229Z" stroke="#025EA1" stroke-width="0.5"/>
<path d="M555.75 212C555.75 213.925 554.143 215.834 551.042 217.622C547.959 219.4 543.482 221.009 537.928 222.364C526.823 225.072 511.469 226.75 494.5 226.75C477.531 226.75 462.177 225.072 451.072 222.364C445.518 221.009 441.041 219.4 437.958 217.622C434.857 215.834 433.25 213.925 433.25 212C433.25 210.075 434.857 208.166 437.958 206.378C441.041 204.6 445.518 202.991 451.072 201.636C462.177 198.928 477.531 197.25 494.5 197.25C511.469 197.25 526.823 198.928 537.928 201.636C543.482 202.991 547.959 204.6 551.042 206.378C554.143 208.166 555.75 210.075 555.75 212Z" stroke="#025EA1" stroke-width="0.5"/>
<path d="M546.75 195.5C546.75 197.371 545.374 199.213 542.738 200.935C540.112 202.65 536.295 204.203 531.557 205.512C522.083 208.129 508.982 209.75 494.5 209.75C480.018 209.75 466.917 208.129 457.443 205.512C452.705 204.203 448.888 202.65 446.262 200.935C443.626 199.213 442.25 197.371 442.25 195.5C442.25 193.629 443.626 191.787 446.262 190.065C448.888 188.35 452.705 186.797 457.443 185.488C466.917 182.871 480.018 181.25 494.5 181.25C508.982 181.25 522.083 182.871 531.557 185.488C536.295 186.797 540.112 188.35 542.738 190.065C545.374 191.787 546.75 193.629 546.75 195.5Z" stroke="#025EA1" stroke-width="0.5"/>
<path d="M543.618 178.685C543.618 180.622 542.317 182.517 539.844 184.282C537.377 186.043 533.792 187.639 529.339 188.983C520.435 191.671 508.121 193.337 494.507 193.337C480.894 193.337 468.579 191.671 459.676 188.983C455.223 187.639 451.637 186.043 449.171 184.282C446.698 182.517 445.396 180.622 445.396 178.685C445.396 176.748 446.698 174.854 449.171 173.089C451.637 171.328 455.223 169.732 459.676 168.388C468.579 165.7 480.894 164.034 494.507 164.034C508.121 164.034 520.435 165.7 529.339 168.388C533.792 169.732 537.377 171.328 539.844 173.089C542.317 174.854 543.618 176.748 543.618 178.685Z" stroke="#025EA1" stroke-width="0.5"/>
<path d="M541.756 161.921C541.756 163.863 540.502 165.758 538.125 167.521C535.752 169.281 532.304 170.876 528.02 172.22C519.454 174.907 507.606 176.573 494.508 176.573C481.41 176.573 469.562 174.907 460.997 172.22C456.712 170.876 453.264 169.281 450.891 167.521C448.514 165.758 447.26 163.863 447.26 161.921C447.26 159.98 448.514 158.085 450.891 156.322C453.264 154.562 456.712 152.967 460.997 151.623C469.562 148.936 481.41 147.27 494.508 147.27C507.606 147.27 519.454 148.936 528.02 151.623C532.304 152.967 535.752 154.562 538.125 156.322C540.502 158.085 541.756 159.98 541.756 161.921Z" stroke="#025EA1" stroke-width="0.5"/>
<path d="M542.687 145.157C542.687 147.096 541.409 148.991 538.984 150.755C536.565 152.516 533.048 154.111 528.679 155.455C519.945 158.143 507.863 159.809 494.508 159.809C481.152 159.809 469.071 158.143 460.336 155.455C455.968 154.111 452.451 152.516 450.031 150.755C447.606 148.991 446.328 147.096 446.328 145.157C446.328 143.218 447.606 141.323 450.031 139.559C452.451 137.799 455.968 136.204 460.336 134.859C469.071 132.172 481.152 130.506 494.508 130.506C507.863 130.506 519.945 132.172 528.679 134.859C533.048 136.204 536.565 137.799 538.984 139.559C541.409 141.323 542.687 143.218 542.687 145.157Z" stroke="#6CACE4" stroke-width="0.5"/>
<path d="M543.618 128.393C543.618 130.33 542.317 132.225 539.844 133.99C537.377 135.751 533.792 137.346 529.339 138.691C520.435 141.378 508.121 143.045 494.507 143.045C480.894 143.045 468.579 141.378 459.676 138.691C455.223 137.346 451.637 135.751 449.171 133.99C446.698 132.225 445.396 130.33 445.396 128.393C445.396 126.456 446.698 124.561 449.171 122.796C451.637 121.036 455.223 119.44 459.676 118.096C468.579 115.408 480.894 113.742 494.507 113.742C508.121 113.742 520.435 115.408 529.339 118.096C533.792 119.44 537.377 121.036 539.844 122.796C542.317 124.561 543.618 126.456 543.618 128.393Z" stroke="#6CACE4" stroke-width="0.5"/>
<path d="M544.549 111.629C544.549 113.564 543.225 115.459 540.704 117.225C538.19 118.986 534.536 120.582 529.998 121.926C520.926 124.614 508.378 126.28 494.507 126.28C480.636 126.28 468.088 124.614 459.016 121.926C454.478 120.582 450.824 118.986 448.31 117.225C445.79 115.459 444.465 113.564 444.465 111.629C444.465 109.694 445.79 107.799 448.31 106.033C450.824 104.272 454.478 102.676 459.016 101.332C468.088 98.6437 480.636 96.9775 494.507 96.9775C508.378 96.9775 520.926 98.6437 529.998 101.332C534.536 102.676 538.19 104.272 540.704 106.033C543.225 107.799 544.549 109.694 544.549 111.629Z" stroke="#6CACE4" stroke-width="0.5"/>
<path d="M546.411 94.8649C546.411 96.7955 545.04 98.6902 542.423 100.458C539.815 102.22 536.024 103.817 531.317 105.161C521.907 107.85 508.892 109.516 494.507 109.516C480.121 109.516 467.106 107.85 457.696 105.161C452.989 103.817 449.198 102.22 446.59 100.458C443.973 98.6902 442.602 96.7955 442.602 94.8649C442.602 92.9343 443.973 91.0396 446.59 89.2718C449.198 87.5098 452.989 85.9132 457.696 84.5684C467.106 81.8798 480.121 80.2135 494.507 80.2135C508.892 80.2135 521.907 81.8798 531.317 84.5684C536.024 85.9132 539.815 87.5098 542.423 89.2718C545.04 91.0396 546.411 92.9343 546.411 94.8649Z" stroke="#6CACE4" stroke-width="0.5"/>
<path d="M586.75 279.5C586.75 280.827 586.098 282.149 584.801 283.455C583.503 284.762 581.576 286.035 579.071 287.255C574.064 289.694 566.801 291.898 557.807 293.751C539.822 297.456 514.964 299.75 487.5 299.75C460.036 299.75 435.178 297.456 417.193 293.751C408.199 291.898 400.936 289.694 395.929 287.255C393.424 286.035 391.497 284.762 390.199 283.455C388.902 282.149 388.25 280.827 388.25 279.5C388.25 278.173 388.902 276.851 390.199 275.545C391.497 274.238 393.424 272.965 395.929 271.745C400.936 269.306 408.199 267.102 417.193 265.249C435.178 261.544 460.036 259.25 487.5 259.25C514.964 259.25 539.822 261.544 557.807 265.249C566.801 267.102 574.064 269.306 579.071 271.745C581.576 272.965 583.503 274.238 584.801 275.545C586.098 276.851 586.75 278.173 586.75 279.5Z" stroke="url(#paint0_angular_518_161)" stroke-width="0.5"/>
<path d="M1353.75 321C1353.75 328.291 1349.85 335.441 1342.34 342.381C1334.84 349.32 1323.75 356.026 1309.46 362.421C1280.87 375.211 1239.48 386.735 1188.32 396.415C1086.01 415.774 944.648 427.75 788.5 427.75C632.352 427.75 490.993 415.774 388.678 396.415C337.518 386.735 296.132 375.211 267.542 362.421C253.246 356.026 242.164 349.32 234.659 342.381C227.153 335.441 223.25 328.291 223.25 321C223.25 313.709 227.153 306.559 234.659 299.619C242.164 292.68 253.246 285.974 267.542 279.579C296.132 266.789 337.518 255.265 388.678 245.585C490.993 226.226 632.352 214.25 788.5 214.25C944.648 214.25 1086.01 226.226 1188.32 245.585C1239.48 255.265 1280.87 266.789 1309.46 279.579C1323.75 285.974 1334.84 292.68 1342.34 299.619C1349.85 306.559 1353.75 313.709 1353.75 321Z" stroke="url(#paint1_angular_518_161)" stroke-width="0.5"/>
<path d="M1327.75 328.5C1327.75 336.873 1323.83 345.072 1316.33 353.016C1308.82 360.962 1297.74 368.639 1283.45 375.96C1254.86 390.601 1213.47 403.794 1162.32 414.876C1060 437.04 918.646 450.75 762.5 450.75C606.354 450.75 464.997 437.04 362.684 414.876C311.525 403.794 270.142 390.601 241.554 375.96C227.259 368.639 216.177 360.962 208.671 353.016C201.166 345.072 197.25 336.873 197.25 328.5C197.25 320.127 201.166 311.928 208.671 303.984C216.177 296.038 227.259 288.361 241.554 281.04C270.142 266.399 311.525 253.206 362.684 242.124C464.997 219.96 606.354 206.25 762.5 206.25C918.646 206.25 1060 219.96 1162.32 242.124C1213.47 253.206 1254.86 266.399 1283.45 281.04C1297.74 288.361 1308.82 296.038 1316.33 303.984C1323.83 311.928 1327.75 320.127 1327.75 328.5Z" stroke="url(#paint2_angular_518_161)" stroke-width="0.5"/>
<path d="M827.75 373.5C827.75 375.586 826.721 377.649 824.704 379.672C822.687 381.695 819.699 383.658 815.828 385.536C808.088 389.292 796.871 392.681 782.991 395.529C755.234 401.225 716.876 404.75 674.5 404.75C632.124 404.75 593.766 401.225 566.009 395.529C552.129 392.681 540.912 389.292 533.172 385.536C529.301 383.658 526.313 381.695 524.296 379.672C522.279 377.649 521.25 375.586 521.25 373.5C521.25 371.414 522.279 369.351 524.296 367.328C526.313 365.305 529.301 363.342 533.172 361.464C540.912 357.708 552.129 354.319 566.009 351.471C593.766 345.775 632.124 342.25 674.5 342.25C716.876 342.25 755.234 345.775 782.991 351.471C796.871 354.319 808.088 357.708 815.828 361.464C819.699 363.342 822.687 365.305 824.704 367.328C826.721 369.351 827.75 371.414 827.75 373.5Z" stroke="url(#paint3_angular_518_161)" stroke-width="0.5"/>
<ellipse cx="668.513" cy="371.977" rx="134.513" ry="23.0594" fill="#E3EFF9"/>
<path d="M785.731 346.612C785.731 348.003 784.989 349.411 783.465 350.822C781.942 352.233 779.674 353.613 776.717 354.938C770.806 357.587 762.228 359.981 751.599 361.996C730.347 366.024 700.972 368.518 668.513 368.518C636.054 368.518 606.679 366.024 585.427 361.996C574.798 359.981 566.22 357.587 560.309 354.938C557.352 353.613 555.084 352.233 553.561 350.822C552.037 349.411 551.294 348.003 551.294 346.612C551.294 345.221 552.037 343.813 553.561 342.401C555.084 340.99 557.352 339.611 560.309 338.286C566.22 335.637 574.798 333.242 585.427 331.227C606.679 327.199 636.054 324.705 668.513 324.705C700.972 324.705 730.347 327.199 751.599 331.227C762.228 333.242 770.806 335.637 776.717 338.286C779.674 339.611 781.942 340.99 783.465 342.401C784.989 343.813 785.731 345.221 785.731 346.612Z" stroke="#003274" stroke-width="0.768646"/>
<path d="M776.509 321.247C776.509 322.707 775.815 324.171 774.414 325.627C773.012 327.085 770.925 328.51 768.203 329.879C762.762 332.616 754.862 335.092 745.069 337.176C725.49 341.342 698.423 343.922 668.514 343.922C638.604 343.922 611.538 341.342 591.958 337.176C582.165 335.092 574.266 332.616 568.824 329.879C566.103 328.51 564.016 327.085 562.614 325.627C561.213 324.171 560.519 322.707 560.519 321.247C560.519 319.786 561.213 318.322 562.614 316.866C564.016 315.408 566.103 313.983 568.824 312.614C574.266 309.877 582.165 307.401 591.958 305.317C611.538 301.151 638.604 298.571 668.514 298.571C698.423 298.571 725.49 301.151 745.069 305.317C754.862 307.401 762.762 309.877 768.203 312.614C770.925 313.983 773.012 315.408 774.414 316.866C775.815 318.322 776.509 319.786 776.509 321.247Z" stroke="#003274" stroke-width="0.768646"/>
<path d="M762.671 295.113C762.671 298.072 760.201 301.006 755.434 303.755C750.695 306.488 743.812 308.962 735.273 311.045C718.202 315.208 694.598 317.788 668.512 317.788C642.426 317.788 618.822 315.208 601.751 311.045C593.212 308.962 586.329 306.488 581.59 303.755C576.823 301.006 574.353 298.072 574.353 295.113C574.353 292.153 576.823 289.219 581.59 286.47C586.329 283.737 593.212 281.263 601.751 279.181C618.822 275.017 642.426 272.438 668.512 272.438C694.598 272.438 718.202 275.017 735.273 279.181C743.812 281.263 750.695 283.737 755.434 286.47C760.201 289.219 762.671 292.153 762.671 295.113Z" stroke="#025EA1" stroke-width="0.768646"/>
<path d="M754.986 268.979C754.986 271.954 752.709 274.887 748.34 277.629C743.992 280.358 737.673 282.831 729.832 284.913C714.154 289.075 692.475 291.654 668.513 291.654C644.552 291.654 622.872 289.075 607.195 284.913C599.353 282.831 593.035 280.358 588.686 277.629C584.318 274.887 582.041 271.954 582.041 268.979C582.041 266.003 584.318 263.07 588.686 260.328C593.035 257.599 599.353 255.126 607.195 253.045C622.872 248.882 644.552 246.304 668.513 246.304C692.475 246.304 714.154 248.882 729.832 253.045C737.673 255.126 743.992 257.599 748.34 260.328C752.709 263.07 754.986 266.003 754.986 268.979Z" stroke="#025EA1" stroke-width="0.768646"/>
<path d="M746.884 243.536C746.884 246.507 744.812 249.419 740.863 252.136C736.925 254.844 731.203 257.298 724.097 259.365C709.891 263.498 690.242 266.059 668.523 266.059C646.804 266.059 627.155 263.498 612.949 259.365C605.843 257.298 600.121 254.844 596.183 252.136C592.234 249.419 590.162 246.507 590.162 243.536C590.162 240.565 592.234 237.652 596.183 234.936C600.121 232.228 605.843 229.774 612.949 227.706C627.155 223.574 646.804 221.012 668.523 221.012C690.242 221.012 709.891 223.574 724.097 227.706C731.203 229.774 736.925 232.228 740.863 234.936C744.812 237.652 746.884 240.565 746.884 243.536Z" stroke="#025EA1" stroke-width="0.768646"/>
<path d="M744.023 217.764C744.023 220.742 742.022 223.655 738.22 226.368C734.428 229.075 728.916 231.528 722.07 233.595C708.384 237.727 689.452 240.288 668.525 240.288C647.597 240.288 628.666 237.727 614.979 233.595C608.133 231.528 602.621 229.075 598.829 226.368C595.027 223.655 593.027 220.742 593.027 217.764C593.027 214.787 595.027 211.874 598.829 209.16C602.621 206.454 608.133 204.001 614.979 201.934C628.666 197.802 647.597 195.241 668.525 195.241C689.452 195.241 708.384 197.802 722.07 201.934C728.916 204.001 734.428 206.454 738.22 209.16C742.022 211.874 744.023 214.787 744.023 217.764Z" stroke="#025EA1" stroke-width="0.768646"/>
<path d="M741.159 191.993C741.159 194.978 739.23 197.891 735.576 200.601C731.929 203.306 726.627 205.759 720.041 207.825C706.874 211.956 688.66 214.517 668.525 214.517C648.389 214.517 630.175 211.956 617.008 207.825C610.422 205.759 605.12 203.306 601.473 200.601C597.819 197.891 595.89 194.978 595.89 191.993C595.89 189.009 597.819 186.096 601.473 183.385C605.12 180.68 610.422 178.228 617.008 176.162C630.175 172.031 648.389 169.47 668.525 169.47C688.66 169.47 706.874 172.031 720.041 176.162C726.627 178.228 731.929 180.68 735.576 183.385C739.23 186.096 741.159 189.009 741.159 191.993Z" stroke="#025EA1" stroke-width="0.768646"/>
<path d="M742.591 166.222C742.591 169.203 740.626 172.116 736.898 174.828C733.179 177.534 727.772 179.986 721.056 182.053C707.629 186.184 689.056 188.745 668.525 188.745C647.993 188.745 629.42 186.184 615.993 182.053C609.277 179.986 603.87 177.534 600.151 174.828C596.423 172.116 594.459 169.203 594.459 166.222C594.459 163.241 596.423 160.328 600.151 157.616C603.87 154.91 609.277 152.457 615.993 150.391C629.42 146.259 647.993 143.698 668.525 143.698C689.056 143.698 707.629 146.259 721.056 150.391C727.772 152.457 733.179 154.91 736.898 157.616C740.626 160.328 742.591 163.241 742.591 166.222Z" stroke="#6CACE4" stroke-width="0.768646"/>
<path d="M744.023 140.45C744.023 143.428 742.022 146.341 738.22 149.054C734.428 151.761 728.916 154.214 722.07 156.281C708.384 160.413 689.452 162.974 668.525 162.974C647.597 162.974 628.666 160.413 614.979 156.281C608.133 154.214 602.621 151.761 598.829 149.054C595.027 146.341 593.027 143.428 593.027 140.45C593.027 137.473 595.027 134.56 598.829 131.846C602.621 129.14 608.133 126.687 614.979 124.62C628.666 120.488 647.597 117.927 668.525 117.927C689.452 117.927 708.384 120.488 722.07 124.62C728.916 126.687 734.428 129.14 738.22 131.846C742.022 134.56 744.023 137.473 744.023 140.45Z" stroke="#6CACE4" stroke-width="0.768646"/>
<path d="M745.454 114.679C745.454 117.653 743.418 120.566 739.543 123.281C735.678 125.988 730.061 128.442 723.085 130.509C709.138 134.641 689.848 137.203 668.525 137.203C647.201 137.203 627.911 134.641 613.965 130.509C606.989 128.442 601.372 125.988 597.507 123.281C593.632 120.566 591.595 117.653 591.595 114.679C591.595 111.705 593.632 108.792 597.507 106.077C601.372 103.37 606.989 100.916 613.965 98.8493C627.911 94.7169 647.201 92.1556 668.525 92.1556C689.848 92.1556 709.138 94.7169 723.085 98.8493C730.061 100.916 735.678 103.37 739.543 106.077C743.418 108.792 745.454 111.705 745.454 114.679Z" stroke="#6CACE4" stroke-width="0.768646"/>
<path d="M748.316 88.9078C748.316 91.8757 746.208 94.7884 742.185 97.5061C738.175 100.215 732.347 102.669 725.111 104.737C710.645 108.87 690.638 111.431 668.523 111.431C646.408 111.431 626.401 108.87 611.935 104.737C604.699 102.669 598.871 100.215 594.862 97.5061C590.838 94.7884 588.73 91.8757 588.73 88.9078C588.73 85.94 590.838 83.0273 594.862 80.3095C598.871 77.6009 604.699 75.1464 611.935 73.0791C626.401 68.9459 646.408 66.3843 668.523 66.3843C690.638 66.3843 710.645 68.9459 725.111 73.0791C732.347 75.1464 738.175 77.6009 742.185 80.3095C746.208 83.0273 748.316 85.94 748.316 88.9078Z" stroke="#6CACE4" stroke-width="0.768646"/>
</g>
<defs>
<radialGradient id="paint0_angular_518_161" cx="0" cy="0" r="1" gradientUnits="userSpaceOnUse" gradientTransform="translate(487.5 279.5) rotate(90) scale(20.5 99.5)">
<stop offset="0.11597" stop-color="#6CACE4"/>
<stop offset="0.394021" stop-color="#6CACE4" stop-opacity="0.0165707"/>
<stop offset="0.930671" stop-color="#6CACE4" stop-opacity="0.0165707"/>
</radialGradient>
<radialGradient id="paint1_angular_518_161" cx="0" cy="0" r="1" gradientUnits="userSpaceOnUse" gradientTransform="translate(788.5 321) rotate(90) scale(107 565.5)">
<stop offset="0.385251" stop-color="#6CACE4" stop-opacity="0.0165707"/>
<stop offset="0.904975" stop-color="#6CACE4"/>
</radialGradient>
<radialGradient id="paint2_angular_518_161" cx="0" cy="0" r="1" gradientUnits="userSpaceOnUse" gradientTransform="translate(762.5 328.5) rotate(90) scale(122.5 565.5)">
<stop offset="0.385251" stop-color="#6CACE4" stop-opacity="0.0165707"/>
<stop offset="0.904975" stop-color="#6CACE4"/>
</radialGradient>
<radialGradient id="paint3_angular_518_161" cx="0" cy="0" r="1" gradientUnits="userSpaceOnUse" gradientTransform="translate(674.5 373.5) rotate(90) scale(31.5 153.5)">
<stop offset="0.11597" stop-color="#6CACE4"/>
<stop offset="0.394021" stop-color="#6CACE4" stop-opacity="0.0165707"/>
<stop offset="0.930671" stop-color="#6CACE4" stop-opacity="0.0165707"/>
</radialGradient>
<clipPath id="clip0_518_161">
<rect width="770" height="414" fill="white"/>
</clipPath>
</defs>
</svg>
