<svg width="335" height="368" viewBox="0 0 335 368" fill="none" xmlns="http://www.w3.org/2000/svg">
<g clip-path="url(#clip0_518_2445)">
<ellipse cx="108.152" cy="263.96" rx="55.0118" ry="8.37743" fill="#035FA2"/>
<path d="M156.212 254.744C156.212 255.195 155.94 255.677 155.322 256.183C154.707 256.687 153.785 257.184 152.573 257.664C150.153 258.623 146.636 259.492 142.271 260.224C133.546 261.687 121.483 262.593 108.152 262.593C94.8212 262.593 82.7582 261.687 74.0332 260.224C69.6688 259.492 66.1514 258.623 63.7308 257.664C62.5193 257.184 61.5972 256.687 60.9822 256.183C60.3643 255.677 60.0923 255.195 60.0923 254.744C60.0923 254.294 60.3643 253.812 60.9822 253.306C61.5972 252.802 62.5193 252.305 63.7308 251.825C66.1514 250.865 69.6688 249.996 74.0332 249.265C82.7582 247.802 94.8212 246.896 108.152 246.896C121.483 246.896 133.546 247.802 142.271 249.265C146.636 249.996 150.153 250.865 152.573 251.825C153.785 252.305 154.707 252.802 155.322 253.306C155.94 253.812 156.212 254.294 156.212 254.744Z" stroke="white" stroke-width="0.5"/>
<path d="M152.303 245.529C152.303 246.011 152.045 246.514 151.481 247.034C150.918 247.553 150.073 248.066 148.962 248.562C146.741 249.552 143.512 250.451 139.502 251.207C131.486 252.72 120.403 253.657 108.152 253.657C95.9022 253.657 84.8183 252.72 76.8029 251.207C72.7931 250.451 69.5639 249.552 67.343 248.562C66.2317 248.066 65.3868 247.553 64.8235 247.034C64.2598 246.514 64.002 246.011 64.002 245.529C64.002 245.047 64.2598 244.544 64.8235 244.025C65.3868 243.505 66.2317 242.992 67.343 242.497C69.5639 241.506 72.7931 240.608 76.8029 239.851C84.8183 238.339 95.9022 237.402 108.152 237.402C120.403 237.402 131.486 238.339 139.502 239.851C143.512 240.608 146.741 241.506 148.962 242.497C150.073 242.992 150.918 243.505 151.481 244.025C152.045 244.544 152.303 245.047 152.303 245.529Z" stroke="white" stroke-width="0.5"/>
<path d="M146.718 236.035C146.718 236.529 146.487 237.035 145.998 237.551C145.508 238.068 144.772 238.579 143.804 239.073C141.868 240.061 139.049 240.958 135.546 241.714C128.544 243.225 118.859 244.162 108.152 244.162C97.446 244.162 87.7607 243.225 80.7584 241.714C77.2553 240.958 74.4371 240.061 72.5009 239.073C71.5324 238.579 70.7971 238.068 70.3069 237.551C69.8179 237.035 69.5869 236.529 69.5869 236.035C69.5869 235.54 69.8179 235.034 70.3069 234.518C70.7971 234.001 71.5324 233.491 72.5009 232.997C74.4371 232.009 77.2553 231.111 80.7584 230.355C87.7607 228.844 97.446 227.907 108.152 227.907C118.859 227.907 128.544 228.844 135.546 230.355C139.049 231.111 141.868 232.009 143.804 232.997C144.772 233.491 145.508 234.001 145.998 234.518C146.487 235.034 146.718 235.54 146.718 236.035Z" stroke="white" stroke-width="0.5"/>
<path d="M142.25 226.54C142.25 227.551 141.403 228.589 139.676 229.585C137.967 230.57 135.478 231.466 132.38 232.221C126.189 233.731 117.623 234.668 108.152 234.668C98.6813 234.668 90.1152 233.731 83.9241 232.221C80.8265 231.466 78.3374 230.57 76.6288 229.585C74.9016 228.589 74.0547 227.551 74.0547 226.54C74.0547 225.53 74.9016 224.492 76.6288 223.496C78.3374 222.511 80.8265 221.615 83.9241 220.859C90.1152 219.349 98.6813 218.413 108.152 218.413C117.623 218.413 126.189 219.349 132.38 220.859C135.478 221.615 137.967 222.511 139.676 223.496C141.403 224.492 142.25 225.53 142.25 226.54Z" stroke="white" stroke-width="0.5"/>
<path d="M137.224 217.325C137.224 218.312 136.496 219.312 135.033 220.268C133.58 221.217 131.46 222.081 128.819 222.81C123.54 224.268 116.233 225.173 108.153 225.173C100.072 225.173 92.7648 224.268 87.486 222.81C84.8449 222.081 82.7256 221.217 81.2724 220.268C79.8088 219.312 79.0815 218.312 79.0815 217.325C79.0815 216.338 79.8088 215.338 81.2724 214.382C82.7256 213.433 84.8449 212.569 87.486 211.84C92.7648 210.382 100.072 209.477 108.153 209.477C116.233 209.477 123.54 210.382 128.819 211.84C131.46 212.569 133.58 213.433 135.033 214.382C136.496 215.338 137.224 216.338 137.224 217.325Z" stroke="white" stroke-width="0.5"/>
<path d="M135.474 207.934C135.474 208.963 134.783 209.992 133.412 210.97C132.049 211.944 130.059 212.831 127.577 213.58C122.618 215.077 115.751 216.007 108.156 216.007C100.561 216.007 93.6945 215.077 88.7351 213.58C86.2538 212.831 84.264 211.944 82.9 210.97C81.5299 209.992 80.8384 208.963 80.8384 207.934C80.8384 206.906 81.5299 205.876 82.9 204.898C84.264 203.925 86.2538 203.038 88.7351 202.289C93.6945 200.792 100.561 199.862 108.156 199.862C115.751 199.862 122.618 200.792 127.577 202.289C130.059 203.038 132.049 203.925 133.412 204.898C134.783 205.876 135.474 206.906 135.474 207.934Z" stroke="white" stroke-width="0.5"/>
<path d="M134.435 198.572C134.435 199.605 133.767 200.634 132.451 201.61C131.14 202.583 129.227 203.469 126.84 204.218C122.07 205.715 115.464 206.644 108.157 206.644C100.85 206.644 94.2443 205.715 89.474 204.218C87.0873 203.469 85.1741 202.583 83.863 201.61C82.5471 200.634 81.8794 199.605 81.8794 198.572C81.8794 197.539 82.5471 196.509 83.863 195.533C85.1741 194.561 87.0873 193.674 89.474 192.925C94.2443 191.429 100.85 190.499 108.157 190.499C115.464 190.499 122.07 191.429 126.84 192.925C129.227 193.674 131.14 194.561 132.451 195.533C133.767 196.509 134.435 197.539 134.435 198.572Z" stroke="white" stroke-width="0.5"/>
<path d="M134.954 189.209C134.954 190.24 134.275 191.269 132.932 192.246C131.594 193.219 129.643 194.106 127.209 194.855C122.344 196.352 115.608 197.281 108.157 197.281C100.705 197.281 93.9694 196.352 89.1045 194.855C86.6705 194.106 84.719 193.219 83.3815 192.246C82.0385 191.269 81.3589 190.24 81.3589 189.209C81.3589 188.178 82.0385 187.149 83.3815 186.172C84.719 185.199 86.6705 184.312 89.1045 183.563C93.9694 182.066 100.705 181.137 108.157 181.137C115.608 181.137 122.344 182.066 127.209 183.563C129.643 184.312 131.594 185.199 132.932 186.172C134.275 187.149 134.954 188.178 134.954 189.209Z" stroke="white" stroke-width="0.5"/>
<path d="M135.474 179.846C135.474 180.875 134.783 181.904 133.412 182.882C132.049 183.856 130.059 184.743 127.577 185.492C122.618 186.989 115.751 187.919 108.156 187.919C100.561 187.919 93.6945 186.989 88.7351 185.492C86.2538 184.743 84.264 183.856 82.9 182.882C81.5299 181.904 80.8384 180.875 80.8384 179.846C80.8384 178.818 81.5299 177.788 82.9 176.81C84.264 175.837 86.2538 174.95 88.7351 174.201C93.6945 172.704 100.561 171.774 108.156 171.774C115.751 171.774 122.618 172.704 127.577 174.201C130.059 174.95 132.049 175.837 133.412 176.81C134.783 177.788 135.474 178.818 135.474 179.846Z" stroke="white" stroke-width="0.5"/>
<path d="M135.994 170.484C135.994 171.51 135.291 172.539 133.894 173.518C132.503 174.492 130.475 175.379 127.947 176.129C122.893 177.626 115.896 178.556 108.156 178.556C100.417 178.556 93.4202 177.626 88.3662 176.129C85.8375 175.379 83.8094 174.492 82.4191 173.518C81.0217 172.539 80.3184 171.51 80.3184 170.484C80.3184 169.457 81.0217 168.428 82.4191 167.449C83.8094 166.475 85.8375 165.588 88.3662 164.838C93.4202 163.341 100.417 162.411 108.156 162.411C115.896 162.411 122.893 163.341 127.947 164.838C130.475 165.588 132.503 166.475 133.894 167.449C135.291 168.428 135.994 169.457 135.994 170.484Z" stroke="white" stroke-width="0.5"/>
<path d="M137.034 161.121C137.034 162.143 136.307 163.172 134.855 164.153C133.412 165.128 131.307 166.016 128.684 166.765C123.441 168.263 116.183 169.193 108.156 169.193C100.129 169.193 92.8707 168.263 87.6275 166.765C85.0042 166.016 82.8995 165.128 81.4563 164.153C80.0044 163.172 79.2773 162.143 79.2773 161.121C79.2773 160.099 80.0044 159.069 81.4563 158.089C82.8995 157.114 85.0042 156.226 87.6275 155.477C92.8707 153.978 100.129 153.049 108.156 153.049C116.183 153.049 123.441 153.978 128.684 155.477C131.307 156.226 133.412 157.114 134.855 158.089C136.307 159.069 137.034 160.099 137.034 161.121Z" stroke="white" stroke-width="0.5"/>
<path d="M159.563 264.239C159.563 264.941 159.219 265.653 158.507 266.37C157.794 267.088 156.73 267.792 155.337 268.471C152.552 269.827 148.506 271.055 143.487 272.09C133.452 274.157 119.577 275.438 104.243 275.438C88.9095 275.438 75.0346 274.157 64.9995 272.09C59.9798 271.055 55.9341 269.827 53.1493 268.471C51.7564 267.792 50.6921 267.088 49.9792 266.37C49.2671 265.653 48.9229 264.941 48.9229 264.239C48.9229 263.537 49.2671 262.825 49.9792 262.108C50.6921 261.39 51.7564 260.686 53.1493 260.007C55.9341 258.651 59.9798 257.422 64.9995 256.388C75.0346 254.32 88.9095 253.04 104.243 253.04C119.577 253.04 133.452 254.32 143.487 256.388C148.506 257.422 152.552 258.651 155.337 260.007C156.73 260.686 157.794 261.39 158.507 262.108C159.219 262.825 159.563 263.537 159.563 264.239Z" stroke="url(#paint0_angular_518_2445)" stroke-width="0.5"/>
<path d="M587.929 287.416C587.929 291.446 585.772 295.412 581.593 299.276C577.414 303.14 571.237 306.88 563.258 310.449C547.302 317.587 524.198 324.021 495.629 329.427C438.494 340.237 359.553 346.925 272.35 346.925C185.147 346.925 106.206 340.237 49.0717 329.427C20.5025 324.021 -2.60165 317.587 -18.5575 310.449C-26.5362 306.88 -32.7137 303.14 -36.8928 299.276C-41.0721 295.412 -43.229 291.446 -43.229 287.416C-43.229 283.387 -41.0721 279.421 -36.8928 275.556C-32.7137 271.692 -26.5362 267.953 -18.5575 264.384C-2.60165 257.246 20.5025 250.812 49.0717 245.406C106.206 234.595 185.147 227.907 272.35 227.907C359.553 227.907 438.494 234.595 495.629 245.406C524.198 250.812 547.302 257.246 563.258 264.384C571.237 267.953 577.414 271.692 581.593 275.556C585.772 279.421 587.929 283.387 587.929 287.416Z" stroke="url(#paint1_angular_518_2445)" stroke-width="0.5"/>
<path d="M573.408 291.605C573.408 296.244 571.239 300.797 567.06 305.222C562.88 309.647 556.702 313.927 548.725 318.013C532.771 326.184 509.669 333.549 481.101 339.738C423.969 352.114 345.031 359.771 257.829 359.771C170.628 359.771 91.6889 352.114 34.5572 339.738C5.98921 333.549 -17.1127 326.184 -33.0666 318.013C-41.0439 313.927 -47.2215 309.647 -51.4017 305.222C-55.5809 300.797 -57.75 296.244 -57.75 291.605C-57.75 286.966 -55.5809 282.413 -51.4017 277.989C-47.2215 273.563 -41.0439 269.283 -33.0666 265.197C-17.1127 257.026 5.98921 249.661 34.5572 243.472C91.6889 231.096 170.628 223.439 257.829 223.439C345.031 223.439 423.969 231.096 481.101 243.472C509.669 249.661 532.771 257.026 548.725 265.197C556.702 269.283 562.88 273.563 567.06 277.989C571.239 282.413 573.408 286.966 573.408 291.605Z" stroke="url(#paint2_angular_518_2445)" stroke-width="0.5"/>
<path d="M294.161 316.737C294.161 317.863 293.606 318.989 292.492 320.106C291.377 321.224 289.721 322.314 287.565 323.36C283.254 325.452 277 327.342 269.251 328.932C253.758 332.112 232.343 334.08 208.682 334.08C185.02 334.08 163.605 332.112 148.112 328.932C140.364 327.342 134.11 325.452 129.799 323.36C127.643 322.314 125.986 321.224 124.871 320.106C123.758 318.989 123.203 317.863 123.203 316.737C123.203 315.611 123.758 314.485 124.871 313.368C125.986 312.251 127.643 311.16 129.799 310.114C134.11 308.023 140.364 306.132 148.112 304.542C163.605 301.363 185.02 299.395 208.682 299.395C232.343 299.395 253.758 301.363 269.251 304.542C277 306.132 283.254 308.023 287.565 310.114C289.721 311.16 291.377 312.251 292.492 313.368C293.606 314.485 294.161 315.611 294.161 316.737Z" stroke="url(#paint3_angular_518_2445)" stroke-width="0.5"/>
<ellipse cx="205.338" cy="315.887" rx="75.1249" ry="12.8786" fill="#035FA2"/>
<path d="M270.634 301.72C270.634 302.432 270.255 303.177 269.423 303.947C268.591 304.718 267.343 305.479 265.7 306.216C262.416 307.687 257.641 309.022 251.71 310.146C239.854 312.393 223.459 313.785 205.338 313.785C187.217 313.785 170.822 312.393 158.966 310.146C153.035 309.022 148.26 307.687 144.976 306.216C143.333 305.479 142.085 304.718 141.253 303.947C140.421 303.177 140.042 302.432 140.042 301.72C140.042 301.009 140.421 300.264 141.253 299.493C142.085 298.723 143.333 297.962 144.976 297.225C148.26 295.754 153.035 294.419 158.966 293.295C170.822 291.048 187.217 289.655 205.338 289.655C223.459 289.655 239.854 291.048 251.71 293.295C257.641 294.419 262.416 295.754 265.7 297.225C267.343 297.962 268.591 298.723 269.423 299.493C270.255 300.264 270.634 301.009 270.634 301.72Z" stroke="white" stroke-width="0.768646"/>
<path d="M265.483 287.554C265.483 288.312 265.124 289.09 264.361 289.883C263.596 290.678 262.449 291.464 260.938 292.224C257.918 293.743 253.522 295.122 248.059 296.285C237.139 298.608 222.034 300.048 205.338 300.048C188.642 300.048 173.538 298.608 162.618 296.285C157.154 295.122 152.759 293.743 149.738 292.224C148.228 291.464 147.08 290.678 146.316 289.883C145.553 289.09 145.193 288.312 145.193 287.554C145.193 286.796 145.553 286.018 146.316 285.225C147.08 284.43 148.228 283.644 149.738 282.884C152.759 281.365 157.154 279.986 162.618 278.823C173.538 276.5 188.642 275.06 205.338 275.06C222.034 275.06 237.139 276.5 248.059 278.823C253.522 279.986 257.918 281.365 260.938 282.884C262.449 283.644 263.596 284.43 264.361 285.225C265.124 286.018 265.483 286.796 265.483 287.554Z" stroke="white" stroke-width="0.768646"/>
<path d="M257.755 272.958C257.755 274.512 256.453 276.107 253.798 277.638C251.171 279.153 247.345 280.53 242.583 281.691C233.065 284.013 219.897 285.453 205.337 285.453C190.778 285.453 177.609 284.013 168.092 281.691C163.33 280.53 159.503 279.153 156.877 277.638C154.221 276.107 152.919 274.512 152.919 272.958C152.919 271.405 154.221 269.809 156.877 268.278C159.503 266.764 163.33 265.387 168.092 264.225C177.609 261.904 190.778 260.464 205.337 260.464C219.897 260.464 233.065 261.904 242.583 264.225C247.345 265.387 251.171 266.764 253.798 268.278C256.453 269.809 257.755 271.405 257.755 272.958Z" stroke="white" stroke-width="0.768646"/>
<path d="M253.463 258.363C253.463 259.932 252.258 261.526 249.831 263.05C247.422 264.562 243.912 265.937 239.54 267.098C230.802 269.417 218.71 270.857 205.338 270.857C191.966 270.857 179.873 269.417 171.135 267.098C166.763 265.937 163.253 264.562 160.845 263.05C158.417 261.526 157.213 259.932 157.213 258.363C157.213 256.793 158.417 255.199 160.845 253.675C163.253 252.164 166.763 250.788 171.135 249.628C179.873 247.308 191.966 245.868 205.338 245.868C218.71 245.868 230.802 247.308 239.54 249.628C243.912 250.788 247.422 252.164 249.831 253.675C252.258 255.199 253.463 256.793 253.463 258.363Z" stroke="white" stroke-width="0.768646"/>
<path d="M248.938 244.153C248.938 245.728 247.839 247.31 245.649 248.816C243.471 250.314 240.294 251.678 236.334 252.83C228.419 255.133 217.462 256.562 205.343 256.562C193.225 256.562 182.268 255.133 174.353 252.83C170.393 251.678 167.216 250.314 165.038 248.816C162.848 247.31 161.749 245.728 161.749 244.153C161.749 242.578 162.848 240.996 165.038 239.49C167.216 237.992 170.393 236.627 174.353 235.475C182.268 233.173 193.225 231.743 205.343 231.743C217.462 231.743 228.419 233.173 236.334 235.475C240.294 236.627 243.471 237.992 245.649 239.49C247.839 240.996 248.938 242.578 248.938 244.153Z" stroke="white" stroke-width="0.768646"/>
<path d="M247.34 229.76C247.34 231.341 246.277 232.923 244.17 234.427C242.074 235.923 239.015 237.287 235.2 238.438C227.576 240.74 217.02 242.169 205.344 242.169C193.668 242.169 183.112 240.74 175.488 238.438C171.674 237.287 168.615 235.923 166.518 234.427C164.412 232.923 163.349 231.341 163.349 229.76C163.349 228.178 164.412 226.596 166.518 225.092C168.615 223.596 171.674 222.232 175.488 221.081C183.112 218.779 193.668 217.35 205.344 217.35C217.02 217.35 227.576 218.779 235.2 221.081C239.015 222.232 242.074 223.596 244.17 225.092C246.277 226.596 247.34 228.178 247.34 229.76Z" stroke="white" stroke-width="0.768646"/>
<path d="M245.741 215.367C245.741 216.955 244.714 218.538 242.691 220.038C240.676 221.533 237.735 222.896 234.066 224.047C226.732 226.347 216.578 227.776 205.345 227.776C194.111 227.776 183.957 226.347 176.623 224.047C172.954 222.896 170.013 221.533 167.998 220.038C165.975 218.538 164.948 216.955 164.948 215.367C164.948 213.779 165.975 212.196 167.998 210.695C170.013 209.2 172.954 207.838 176.623 206.687C183.957 204.386 194.111 202.957 205.345 202.957C216.578 202.957 226.732 204.386 234.066 206.687C237.735 207.838 240.676 209.2 242.691 210.695C244.714 212.196 245.741 213.779 245.741 215.367Z" stroke="white" stroke-width="0.768646"/>
<path d="M246.54 200.973C246.54 202.558 245.496 204.141 243.431 205.643C241.375 207.138 238.375 208.501 234.633 209.653C227.154 211.954 216.799 213.383 205.344 213.383C193.89 213.383 183.534 211.954 176.056 209.653C172.314 208.501 169.314 207.138 167.258 205.643C165.193 204.141 164.148 202.558 164.148 200.973C164.148 199.389 165.193 197.806 167.258 196.304C169.314 194.808 172.314 193.445 176.056 192.294C183.534 189.993 193.89 188.564 205.344 188.564C216.799 188.564 227.154 189.993 234.633 192.294C238.375 193.445 241.375 194.808 243.431 196.304C245.496 197.806 246.54 199.389 246.54 200.973Z" stroke="white" stroke-width="0.768646"/>
<path d="M247.34 186.58C247.34 188.161 246.277 189.744 244.17 191.247C242.074 192.744 239.015 194.107 235.2 195.259C227.576 197.561 217.02 198.99 205.344 198.99C193.668 198.99 183.112 197.561 175.488 195.259C171.674 194.107 168.615 192.744 166.518 191.247C164.412 189.744 163.349 188.161 163.349 186.58C163.349 184.999 164.412 183.416 166.518 181.913C168.615 180.417 171.674 179.053 175.488 177.901C183.112 175.6 193.668 174.171 205.344 174.171C217.02 174.171 227.576 175.6 235.2 177.901C239.015 179.053 242.074 180.417 244.17 181.913C246.277 183.416 247.34 184.999 247.34 186.58Z" stroke="white" stroke-width="0.768646"/>
<path d="M248.14 172.187C248.14 173.765 247.058 175.347 244.91 176.852C242.773 178.349 239.655 179.713 235.768 180.865C227.998 183.167 217.242 184.597 205.345 184.597C193.447 184.597 182.691 183.167 174.921 180.865C171.034 179.713 167.916 178.349 165.779 176.852C163.631 175.347 162.549 173.765 162.549 172.187C162.549 170.609 163.631 169.027 165.779 167.522C167.916 166.025 171.034 164.661 174.921 163.509C182.691 161.207 193.447 159.777 205.345 159.777C217.242 159.777 227.998 161.207 235.768 163.509C239.655 164.661 242.773 166.025 244.91 167.522C247.058 169.027 248.14 170.609 248.14 172.187Z" stroke="white" stroke-width="0.768646"/>
<path d="M249.738 157.794C249.738 159.365 248.62 160.948 246.388 162.455C244.17 163.954 240.934 165.319 236.901 166.471C228.841 168.774 217.684 170.204 205.344 170.204C193.004 170.204 181.846 168.774 173.786 166.471C169.753 165.319 166.518 163.954 164.299 162.455C162.067 160.948 160.949 159.365 160.949 157.794C160.949 156.222 162.067 154.64 164.299 153.132C166.518 151.634 169.753 150.269 173.786 149.117C181.846 146.814 193.004 145.384 205.344 145.384C217.684 145.384 228.841 146.814 236.901 149.117C240.934 150.269 244.17 151.634 246.388 153.132C248.62 154.64 249.738 156.222 249.738 157.794Z" stroke="white" stroke-width="0.768646"/>
</g>
<defs>
<radialGradient id="paint0_angular_518_2445" cx="0" cy="0" r="1" gradientUnits="userSpaceOnUse" gradientTransform="translate(104.243 264.239) rotate(90) scale(11.4492 55.5703)">
<stop offset="0.11597" stop-color="#6CACE4"/>
<stop offset="0.394021" stop-color="#6CACE4" stop-opacity="0.0165707"/>
<stop offset="0.930671" stop-color="#6CACE4" stop-opacity="0.0165707"/>
</radialGradient>
<radialGradient id="paint1_angular_518_2445" cx="0" cy="0" r="1" gradientUnits="userSpaceOnUse" gradientTransform="translate(272.35 287.416) rotate(90) scale(59.759 315.829)">
<stop offset="0.385251" stop-color="#6CACE4" stop-opacity="0.0165707"/>
<stop offset="0.904975" stop-color="#6CACE4"/>
</radialGradient>
<radialGradient id="paint2_angular_518_2445" cx="0" cy="0" r="1" gradientUnits="userSpaceOnUse" gradientTransform="translate(257.829 291.605) rotate(90) scale(68.4157 315.829)">
<stop offset="0.385251" stop-color="#6CACE4" stop-opacity="0.0165707"/>
<stop offset="0.904975" stop-color="#6CACE4"/>
</radialGradient>
<radialGradient id="paint3_angular_518_2445" cx="0" cy="0" r="1" gradientUnits="userSpaceOnUse" gradientTransform="translate(208.682 316.737) rotate(90) scale(17.5926 85.729)">
<stop offset="0.11597" stop-color="#6CACE4"/>
<stop offset="0.394021" stop-color="#6CACE4" stop-opacity="0.0165707"/>
<stop offset="0.930671" stop-color="#6CACE4" stop-opacity="0.0165707"/>
</radialGradient>
<clipPath id="clip0_518_2445">
<rect width="335" height="368" rx="10" fill="white"/>
</clipPath>
</defs>
</svg>
