<svg width="770" height="414" viewBox="0 0 770 414" fill="none" xmlns="http://www.w3.org/2000/svg">
<g clip-path="url(#clip0_518_937)">
<path d="M706 389L604.237 369.652L643.107 338.348L768.893 338.348L807.763 369.652L706 389Z" fill="#035FA2"/>
<path d="M484.91 166.171L568.5 182.063L652.09 166.171L620.431 140.673H516.569L484.91 166.171Z" stroke="url(#paint0_angular_518_937)" stroke-width="0.5"/>
<path d="M447.871 338.218L492 346.745L536.129 338.218L519.537 324.637H464.463L447.871 338.218Z" stroke="url(#paint1_angular_518_937)" stroke-width="0.5"/>
<path d="M578.826 374.452L738.5 404.746L898.174 374.452L837.454 325.653H639.546L578.826 374.452Z" stroke="url(#paint2_angular_518_937)" stroke-width="0.5"/>
<path d="M564.5 176.945L633.452 163.836L607.114 142.625H521.886L495.548 163.836L564.5 176.945Z" fill="#035FA2"/>
<path d="M490.179 343.378L524.735 336.683L511.536 325.85H468.821L455.622 336.683L490.179 343.378Z" fill="#035FA2"/>
<path d="M557.853 105.654L579.371 35.0582L628.899 99.7665L557.853 105.654Z" fill="#1773B6"/>
<path d="M505.279 142.751L557.851 105.654L583.021 165.729L505.279 142.751Z" fill="#025EA1"/>
<path d="M557.852 105.654L628.898 99.7661L583.022 165.729L557.852 105.654Z" fill="#025EA1"/>
<path d="M583.022 165.729L628.899 99.7662L620.163 133.264L583.022 165.729Z" fill="#025EA1"/>
<path d="M628.899 99.7663L579.371 35.0581L617.867 52.1875L628.899 99.7663Z" fill="#1773B6"/>
<path d="M505.279 142.751L583.021 165.729L543.634 159.925L505.279 142.751Z" fill="#025EA1"/>
<path d="M502.887 61.7432L494.257 95.2081L505.278 142.751L502.887 61.7432Z" fill="#1773B6"/>
<path d="M579.37 35.0572L502.888 61.742L540.268 29.0467L579.37 35.0572Z" fill="#6BABE3"/>
<path d="M505.278 142.751L502.887 61.7432L557.85 105.654L505.278 142.751Z" fill="#1773B6"/>
<path d="M557.852 105.654L502.888 61.7427L579.37 35.0579L557.852 105.654Z" fill="#1773B6"/>
<path d="M502.889 61.7426L494.259 95.2074L505.28 142.751M502.889 61.7426L505.28 142.751M502.889 61.7426L557.852 105.654M502.889 61.7426L579.371 35.0578M502.889 61.7426L540.269 29.0473L579.371 35.0578M505.28 142.751L557.852 105.654M505.28 142.751L583.022 165.729M505.28 142.751L543.635 159.925L583.022 165.729M557.852 105.654L579.371 35.0578M557.852 105.654L628.899 99.766M557.852 105.654L583.022 165.729M579.371 35.0578L628.899 99.766M579.371 35.0578L617.867 52.1872L628.899 99.766M628.899 99.766L583.022 165.729M628.899 99.766L620.163 133.264L583.022 165.729" stroke="white" stroke-width="0.23189"/>
<path d="M489.873 302.274L519.994 276.365L523.881 320.06L489.873 302.274Z" fill="#1773B6"/>
<path d="M455.279 304.003L489.874 302.274L484.018 336.846L455.279 304.003Z" fill="#025EA1"/>
<path d="M489.877 302.274L523.885 320.06L484.021 336.846L489.877 302.274Z" fill="#025EA1"/>
<path d="M484.02 336.846L523.884 320.06L510.262 332.779L484.02 336.846Z" fill="#025EA1"/>
<path d="M523.881 320.06L519.994 276.365L532.568 295.244L523.881 320.06Z" fill="#1773B6"/>
<path d="M455.279 304.003L484.018 336.846L467.776 322.861L455.279 304.003Z" fill="#025EA1"/>
<path d="M477.526 266.472L463.963 279.206L455.281 304.003L477.526 266.472Z" fill="#1773B6"/>
<path d="M519.996 276.365L477.526 266.472L503.943 262.369L519.996 276.365Z" fill="#6BABE3"/>
<path d="M455.281 304.003L477.526 266.472L489.876 302.274L455.281 304.003Z" fill="#1773B6"/>
<path d="M489.873 302.274L477.524 266.472L519.994 276.365L489.873 302.274Z" fill="#1773B6"/>
<path d="M477.525 266.472L463.961 279.206L455.279 304.003M477.525 266.472L455.279 304.003M477.525 266.472L489.874 302.274M477.525 266.472L519.995 276.365M477.525 266.472L503.942 262.369L519.995 276.365M455.279 304.003L489.874 302.274M455.279 304.003L484.018 336.846M455.279 304.003L467.776 322.861L484.018 336.846M489.874 302.274L519.995 276.365M489.874 302.274L523.882 320.06M489.874 302.274L484.018 336.846M519.995 276.365L523.882 320.06M519.995 276.365L532.569 295.243L523.882 320.06M523.882 320.06L484.018 336.846M523.882 320.06L510.26 332.779L484.018 336.846" stroke="white" stroke-width="0.374474"/>
<path d="M710.166 259.5L804.611 178.261L816.8 315.269L710.166 259.5Z" fill="#1773B6"/>
<path d="M601.692 264.923L710.167 259.5L691.804 367.903L601.692 264.923Z" fill="#025EA1"/>
<path d="M710.166 259.5L816.8 315.27L691.803 367.903L710.166 259.5Z" fill="#025EA1"/>
<path d="M691.802 367.903L816.799 315.27L774.087 355.15L691.802 367.903Z" fill="#025EA1"/>
<path d="M601.691 264.923L691.803 367.903L640.876 324.053L601.691 264.923Z" fill="#025EA1"/>
<path d="M671.444 147.241L628.914 187.17L601.692 264.922L671.444 147.241Z" fill="#1773B6"/>
<path d="M804.611 178.261L671.443 147.241L754.277 134.375L804.611 178.261Z" fill="#6BABE3"/>
<path d="M601.692 264.922L671.444 147.241L710.166 259.5L601.692 264.922Z" fill="#1773B6"/>
<path d="M710.167 259.5L671.444 147.241L804.612 178.261L710.167 259.5Z" fill="#1773B6"/>
<path d="M671.443 147.241L628.914 187.17L601.691 264.923M671.443 147.241L601.691 264.923M671.443 147.241L710.166 259.5M671.443 147.241L804.611 178.261M671.443 147.241L754.278 134.375L804.611 178.261M601.691 264.923L710.166 259.5M601.691 264.923L691.803 367.903M601.691 264.923L640.876 324.053L691.803 367.903M710.166 259.5L804.611 178.261M710.166 259.5L816.799 315.27M710.166 259.5L691.803 367.903M804.611 178.261L816.799 315.27M804.611 178.261L844.038 237.456L816.799 315.27M816.799 315.27L691.803 367.903M816.799 315.27L774.088 355.15L691.803 367.903" stroke="white" stroke-width="0.391426"/>
</g>
<defs>
<radialGradient id="paint0_angular_518_937" cx="0" cy="0" r="1" gradientUnits="userSpaceOnUse" gradientTransform="translate(568.5 159.159) rotate(-90) scale(23.1589 88.5)">
<stop offset="0.136114" stop-color="#6CACE4" stop-opacity="0"/>
<stop offset="0.334568" stop-color="#6CACE4" stop-opacity="0.76"/>
<stop offset="0.612118" stop-color="#6CACE4" stop-opacity="0"/>
</radialGradient>
<radialGradient id="paint1_angular_518_937" cx="0" cy="0" r="1" gradientUnits="userSpaceOnUse" gradientTransform="translate(492 334.5) rotate(-90) scale(12.5 47)">
<stop offset="0.136114" stop-color="#6CACE4" stop-opacity="0"/>
<stop offset="0.334568" stop-color="#6CACE4" stop-opacity="0.76"/>
<stop offset="0.612118" stop-color="#6CACE4" stop-opacity="0"/>
</radialGradient>
<radialGradient id="paint2_angular_518_937" cx="0" cy="0" r="1" gradientUnits="userSpaceOnUse" gradientTransform="translate(738.5 361) rotate(-90) scale(44 168.5)">
<stop offset="0.136114" stop-color="#6CACE4" stop-opacity="0"/>
<stop offset="0.334568" stop-color="#6CACE4" stop-opacity="0.85"/>
<stop offset="0.612118" stop-color="#6CACE4" stop-opacity="0"/>
</radialGradient>
<clipPath id="clip0_518_937">
<rect width="770" height="414" fill="white"/>
</clipPath>
</defs>
</svg>
