<svg width="335" height="368" viewBox="0 0 335 368" fill="none" xmlns="http://www.w3.org/2000/svg">
<g clip-path="url(#clip0_518_2132)">
<path d="M233.5 351L179.765 340.635L200.29 323.865L266.71 323.865L287.235 340.635L233.5 351Z" fill="#035FA2"/>
<path d="M116.871 233.218L161 241.745L205.129 233.218L188.537 219.637H133.463L116.871 233.218Z" stroke="url(#paint0_angular_518_2132)" stroke-width="0.5"/>
<path d="M97.7729 324.02L121 328.745L144.227 324.02L135.602 316.587H106.398L97.7729 324.02Z" stroke="url(#paint1_angular_518_2132)" stroke-width="0.5"/>
<path d="M166.94 342.963L251 358.746L335.06 342.963L303.226 317.643H198.774L166.94 342.963Z" stroke="url(#paint2_angular_518_2132)" stroke-width="0.5"/>
<path d="M158.5 239L195.116 231.745L181.13 220.005H135.87L121.884 231.745L158.5 239Z" fill="#035FA2"/>
<path d="M120 327L138.07 323.2L131.168 317.05H108.832L101.93 323.2L120 327Z" fill="#035FA2"/>
<path d="M155.482 201.08L166.854 163.771L193.029 197.969L155.482 201.08Z" fill="#1773B6"/>
<path d="M127.697 220.685L155.481 201.08L168.783 232.829L127.697 220.685Z" fill="#025EA1"/>
<path d="M155.481 201.08L193.028 197.968L168.783 232.829L155.481 201.08Z" fill="#025EA1"/>
<path d="M168.783 232.829L193.028 197.968L188.412 215.671L168.783 232.829Z" fill="#025EA1"/>
<path d="M193.028 197.968L166.854 163.771L187.198 172.824L193.028 197.968Z" fill="#1773B6"/>
<path d="M127.698 220.685L168.783 232.829L147.967 229.761L127.698 220.685Z" fill="#025EA1"/>
<path d="M126.433 177.874L121.873 195.56L127.697 220.685L126.433 177.874Z" fill="#1773B6"/>
<path d="M166.854 163.771L126.435 177.873L146.189 160.595L166.854 163.771Z" fill="#6BABE3"/>
<path d="M127.697 220.685L126.433 177.874L155.481 201.08L127.697 220.685Z" fill="#1773B6"/>
<path d="M155.481 201.08L126.434 177.874L166.853 163.771L155.481 201.08Z" fill="#1773B6"/>
<path d="M126.434 177.874L121.874 195.559L127.698 220.685M126.434 177.874L127.698 220.685M126.434 177.874L155.481 201.08M126.434 177.874L166.854 163.771M126.434 177.874L146.189 160.595L166.854 163.771M127.698 220.685L155.481 201.08M127.698 220.685L168.783 232.829M127.698 220.685L147.968 229.761L168.783 232.829M155.481 201.08L166.854 163.771M155.481 201.08L193.028 197.968M155.481 201.08L168.783 232.829M166.854 163.771L193.028 197.968M166.854 163.771L187.198 172.824L193.028 197.968M193.028 197.968L168.783 232.829M193.028 197.968L188.412 215.672L168.783 232.829" stroke="white" stroke-width="0.23189"/>
<path d="M119.556 304.99L135.474 291.298L137.529 314.39L119.556 304.99Z" fill="#1773B6"/>
<path d="M101.273 305.904L119.556 304.99L116.461 323.261L101.273 305.904Z" fill="#025EA1"/>
<path d="M119.558 304.99L137.531 314.39L116.463 323.261L119.558 304.99Z" fill="#025EA1"/>
<path d="M116.463 323.261L137.53 314.39L130.331 321.111L116.463 323.261Z" fill="#025EA1"/>
<path d="M137.528 314.39L135.474 291.298L142.119 301.275L137.528 314.39Z" fill="#1773B6"/>
<path d="M101.273 305.904L116.461 323.261L107.878 315.87L101.273 305.904Z" fill="#025EA1"/>
<path d="M113.031 286.069L105.862 292.799L101.274 305.904L113.031 286.069Z" fill="#1773B6"/>
<path d="M135.475 291.298L113.03 286.069L126.991 283.901L135.475 291.298Z" fill="#6BABE3"/>
<path d="M101.274 305.904L113.031 286.069L119.557 304.99L101.274 305.904Z" fill="#1773B6"/>
<path d="M119.556 304.99L113.029 286.069L135.474 291.298L119.556 304.99Z" fill="#1773B6"/>
<path d="M113.03 286.069L105.862 292.799L101.273 305.904M113.03 286.069L101.273 305.904M113.03 286.069L119.556 304.99M113.03 286.069L135.474 291.298M113.03 286.069L126.991 283.901L135.474 291.298M101.273 305.904L119.556 304.99M101.273 305.904L116.461 323.261M101.273 305.904L107.878 315.87L116.461 323.261M119.556 304.99L135.474 291.298M119.556 304.99L137.529 314.39M119.556 304.99L116.461 323.261M135.474 291.298L137.529 314.39M135.474 291.298L142.12 301.275L137.529 314.39M137.529 314.39L116.461 323.261M137.529 314.39L130.33 321.111L116.461 323.261" stroke="white" stroke-width="0.374474"/>
<path d="M235.977 282.385L285.889 239.452L292.331 311.858L235.977 282.385Z" fill="#1773B6"/>
<path d="M178.651 285.251L235.977 282.385L226.273 339.674L178.651 285.251Z" fill="#025EA1"/>
<path d="M235.977 282.385L292.331 311.858L226.273 339.674L235.977 282.385Z" fill="#025EA1"/>
<path d="M226.272 339.674L292.33 311.858L269.758 332.934L226.272 339.674Z" fill="#025EA1"/>
<path d="M292.331 311.858L285.889 239.452L306.726 270.735L292.331 311.858Z" fill="#1773B6"/>
<path d="M178.649 285.251L226.272 339.674L199.358 316.5L178.649 285.251Z" fill="#025EA1"/>
<path d="M215.512 223.058L193.036 244.16L178.65 285.251L215.512 223.058Z" fill="#1773B6"/>
<path d="M285.889 239.452L215.512 223.058L259.289 216.259L285.889 239.452Z" fill="#6BABE3"/>
<path d="M178.65 285.251L215.512 223.058L235.977 282.385L178.65 285.251Z" fill="#1773B6"/>
<path d="M235.977 282.385L215.512 223.058L285.889 239.452L235.977 282.385Z" fill="#1773B6"/>
<path d="M215.512 223.058L193.036 244.16L178.65 285.251M215.512 223.058L178.65 285.251M215.512 223.058L235.976 282.385M215.512 223.058L285.889 239.452M215.512 223.058L259.289 216.259L285.889 239.452M178.65 285.251L235.976 282.385M178.65 285.251L226.272 339.674M178.65 285.251L199.358 316.5L226.272 339.674M235.976 282.385L285.889 239.452M235.976 282.385L292.33 311.858M235.976 282.385L226.272 339.674M285.889 239.452L292.33 311.858M285.889 239.452L306.725 270.735L292.33 311.858M292.33 311.858L226.272 339.674M292.33 311.858L269.758 332.934L226.272 339.674" stroke="white" stroke-width="0.391426"/>
</g>
<defs>
<radialGradient id="paint0_angular_518_2132" cx="0" cy="0" r="1" gradientUnits="userSpaceOnUse" gradientTransform="translate(161 229.5) rotate(-90) scale(12.5 47)">
<stop offset="0.136114" stop-color="#6CACE4" stop-opacity="0"/>
<stop offset="0.334568" stop-color="#6CACE4" stop-opacity="0.76"/>
<stop offset="0.612118" stop-color="#6CACE4" stop-opacity="0"/>
</radialGradient>
<radialGradient id="paint1_angular_518_2132" cx="0" cy="0" r="1" gradientUnits="userSpaceOnUse" gradientTransform="translate(121 322) rotate(-90) scale(7 25)">
<stop offset="0.136114" stop-color="#6CACE4" stop-opacity="0"/>
<stop offset="0.334568" stop-color="#6CACE4" stop-opacity="0.76"/>
<stop offset="0.612118" stop-color="#6CACE4" stop-opacity="0"/>
</radialGradient>
<radialGradient id="paint2_angular_518_2132" cx="0" cy="0" r="1" gradientUnits="userSpaceOnUse" gradientTransform="translate(251 336) rotate(-90) scale(23 89)">
<stop offset="0.136114" stop-color="#6CACE4" stop-opacity="0"/>
<stop offset="0.334568" stop-color="#6CACE4" stop-opacity="0.85"/>
<stop offset="0.612118" stop-color="#6CACE4" stop-opacity="0"/>
</radialGradient>
<clipPath id="clip0_518_2132">
<rect width="335" height="368" rx="10" fill="white"/>
</clipPath>
</defs>
</svg>
