<svg width="770" height="412" viewBox="0 0 770 412" fill="none" xmlns="http://www.w3.org/2000/svg">
<g clip-path="url(#clip0_518_787)">
<path opacity="0.5" d="M202 428L1133 -31" stroke="#6C8EAB" stroke-width="0.5"/>
<path opacity="0.5" d="M510 100L1395 -336" stroke="#6C8EAB" stroke-width="0.5"/>
<path opacity="0.5" d="M706 167L-317 -337" stroke="#6C8EAB" stroke-width="0.5"/>
<path opacity="0.5" d="M1071 540L522.5 269.771" stroke="#6C8EAB" stroke-width="0.5"/>
<path opacity="0.5" d="M202 476L1133 17" stroke="#6C8EAB" stroke-width="0.5"/>
<path opacity="0.5" d="M539 134L1426 -303" stroke="#6C8EAB" stroke-width="0.5"/>
<path opacity="0.5" d="M748 236L-348 -304" stroke="#6C8EAB" stroke-width="0.5"/>
<path opacity="0.5" d="M1113 609L522 317.814" stroke="#6C8EAB" stroke-width="0.5"/>
<path opacity="0.5" d="M202 522L1133 63" stroke="#6C8EAB" stroke-width="0.5"/>
<path opacity="0.5" d="M396 522L1327 63" stroke="#6C8EAB" stroke-width="0.5"/>
<path opacity="0.5" d="M202 570L1133 111" stroke="#6C8EAB" stroke-width="0.5"/>
<path opacity="0.5" d="M396 570L1327 111" stroke="#6C8EAB" stroke-width="0.5"/>
<path d="M539.799 134.253L492 110.354V61.8996L539.799 38L588.253 61.8996V110.354L539.799 134.253Z" fill="#A7CCE8"/>
<path d="M539.799 134.253L492 110.354V61.8996M539.799 134.253L588.253 110.354V61.8996M539.799 134.253V86.4541M492 61.8996L539.799 86.4541M492 61.8996L539.799 38L588.253 61.8996M539.799 86.4541L588.253 61.8996" stroke="white" stroke-width="0.467979"/>
<path d="M539.799 134.253L492 110.354V61.8997L539.799 86.4541V134.253Z" fill="#E3EFF9"/>
<path d="M522.121 318.308V269.527L569.92 244.645V196.518L619.029 172.618V124.164L666.829 100.265L715.283 124.164V172.618L763.082 196.518V244.645L811.536 269.527V318.308L763.082 341.225L715.283 318.308L666.829 341.225L619.029 318.308L569.92 341.225L522.121 318.308Z" fill="#A7CCE8"/>
<path d="M569.92 341.225V293.426M569.92 341.225L522.121 318.308V269.527M569.92 341.225L619.029 318.308M569.92 293.426L522.121 269.527M569.92 293.426L619.029 269.527M522.121 269.527L569.92 244.645M619.029 318.308V269.527M619.029 318.308L666.829 341.225M619.029 269.527L569.92 244.645M619.029 269.527L666.829 293.426M619.029 269.527L666.829 244.645M619.029 269.527V220.09M569.92 244.645V196.518M666.829 341.225V293.426M666.829 341.225L715.283 318.308M666.829 293.426L715.283 269.527M715.283 269.527L763.082 293.426M715.283 269.527L763.082 244.645M715.283 269.527V220.09M715.283 269.527V318.308M715.283 269.527L666.829 244.645M763.082 293.426V341.225M763.082 293.426L811.536 269.527M763.082 341.225L715.283 318.308M763.082 341.225L811.536 318.308V269.527M811.536 269.527L763.082 244.645M763.082 244.645V196.518M666.829 244.645V196.518M569.92 196.518L619.029 220.09M569.92 196.518L619.029 172.618M619.029 220.09L666.829 196.518M666.829 196.518L715.283 220.09M666.829 196.518L619.029 172.618M666.829 196.518L715.283 172.618M666.829 196.518V148.719M715.283 220.09L763.082 196.518M763.082 196.518L715.283 172.618M619.029 172.618V124.164M715.283 172.618V124.164M619.029 124.164L666.829 148.719M619.029 124.164L666.829 100.265L715.283 124.164M666.829 148.719L715.283 124.164" stroke="white" stroke-width="0.467979"/>
<path d="M763.081 293.426L715.281 269.526V318.308L763.081 341.225V293.426Z" fill="#E3EFF9"/>
<path d="M619.027 269.527V318.308L666.827 341.225V293.426L619.027 269.527Z" fill="#E3EFF9"/>
<path d="M715.281 220.09L666.827 196.518V244.645L715.281 269.527V220.09Z" fill="#E3EFF9"/>
<path d="M569.92 293.426V341.225L522.121 318.308V269.527L569.92 293.426Z" fill="#E3EFF9"/>
<path d="M569.92 244.645L619.029 269.527V220.09L569.92 196.518V244.645Z" fill="#E3EFF9"/>
<path d="M666.829 196.518L619.029 172.618V124.164L666.829 148.719V196.518Z" fill="#E3EFF9"/>
</g>
<defs>
<clipPath id="clip0_518_787">
<rect width="770" height="412" fill="white"/>
</clipPath>
</defs>
</svg>
