<svg width="553" height="378" viewBox="0 0 553 378" fill="none" xmlns="http://www.w3.org/2000/svg">
<g clip-path="url(#clip0_534_222)">
<path d="M325.142 127.892L289.109 119.049C287.123 112.733 284.597 106.597 281.529 100.641L299.937 69.9617C302.102 66.3523 301.561 61.8406 298.673 58.9531L273.047 33.3266C270.159 30.4391 265.648 29.8977 262.038 32.0633L231.359 50.4711C225.403 47.4031 219.267 44.8766 212.951 42.8914L204.288 6.85781C203.205 2.8875 199.596 0 195.445 0H159.352C155.201 0 151.591 2.8875 150.509 6.85781L141.846 42.8914C135.53 44.8766 129.394 47.4031 123.438 50.4711L92.7586 32.0633C89.1492 29.8977 84.6375 30.4391 81.75 33.3266L56.1234 58.9531C53.2359 61.8406 52.6945 66.3523 54.8602 69.9617L73.268 100.641C70.2 106.597 67.6734 112.733 65.6883 119.049L30.8578 127.892C26.8875 128.795 24 132.404 24 136.555V172.648C24 176.799 26.8875 180.409 30.8578 181.311L65.6883 190.154C67.6734 196.47 70.2 202.606 73.268 208.562L54.8602 239.241C52.6945 242.851 53.2359 247.362 56.1234 250.25L81.75 275.877C84.6375 278.764 89.1492 279.305 92.7586 277.14L123.438 258.732C129.394 261.8 135.53 264.327 141.846 266.312L150.509 301.142C151.591 305.113 155.201 308 159.352 308H195.445C199.596 308 203.205 305.113 204.288 301.142L212.951 266.312C219.267 264.327 225.403 261.8 231.359 258.732L262.038 277.14C265.648 279.305 270.159 278.764 273.047 275.877L298.673 250.25C301.561 247.362 302.102 242.851 299.937 239.241L281.529 208.562C284.597 202.606 287.123 196.47 289.109 190.154L325.142 181.311C329.113 180.409 332 176.799 332 172.648V136.555C332 132.404 329.113 128.795 325.142 127.892ZM177.398 199.719C152.494 199.719 132.281 179.506 132.281 154.602C132.281 129.697 152.494 109.484 177.398 109.484C202.303 109.484 222.516 129.697 222.516 154.602C222.516 179.506 202.303 199.719 177.398 199.719Z" fill="#EFF8FF"/>
</g>
<g clip-path="url(#clip1_534_222)">
<path d="M489.445 265.039L469.876 250.174C470.333 245.813 470.414 241.418 470.118 236.991L489.385 223.195C491.652 221.572 492.511 218.687 491.517 216.172L482.693 193.848C481.699 191.333 479.1 189.816 476.336 190.181L452.843 193.287C450.032 189.854 446.968 186.703 443.653 183.833L447.879 159.653C448.267 156.955 446.834 154.249 444.311 153.156L422.376 143.65C419.854 142.556 416.9 143.361 415.196 145.488L400.441 165.105C396.08 164.648 391.685 164.567 387.258 164.863L373.462 145.595C371.839 143.329 368.954 142.469 366.439 143.464L344.116 152.288C341.6 153.282 340.083 155.881 340.448 158.645L343.555 182.138C340.121 184.949 336.97 188.013 334.1 191.328L310.604 187.528C307.953 187.031 305.248 188.464 304.155 190.987L294.648 212.921C293.555 215.444 294.359 218.398 296.534 219.992L315.372 234.54C314.915 238.901 314.834 243.296 315.13 247.723L295.863 261.519C293.596 263.142 292.737 266.027 293.731 268.542L302.555 290.865C303.549 293.381 306.148 294.898 308.912 294.532L332.405 291.426C335.216 294.859 338.28 298.011 341.595 300.881L337.686 324.33C337.298 327.028 338.731 329.733 341.254 330.826L363.188 340.333C365.711 341.426 368.665 340.622 370.369 338.494L384.807 319.609C389.168 320.066 393.563 320.147 397.99 319.851L411.786 339.118C413.409 341.385 416.294 342.244 418.809 341.25L441.132 332.426C443.648 331.432 445.165 328.833 444.8 326.069L441.693 302.576C445.126 299.765 448.278 296.701 451.148 293.385L475.375 297.502C478.026 298 480.731 296.567 481.825 294.044L491.331 272.109C492.424 269.587 491.62 266.633 489.445 265.039ZM380.741 269.775C365.606 263.216 358.646 245.609 365.206 230.474C371.765 215.339 389.372 208.379 404.507 214.938C419.642 221.498 426.602 239.105 420.042 254.24C413.483 269.375 395.876 276.335 380.741 269.775Z" fill="#EFF8FF"/>
</g>
<path d="M104.1 290V203.9H103.5L42.6 290H104.1ZM148.8 374H103.8V330.2H2.7V291.8L92.1 164H148.8V289.7H175.5V330.2H148.8V374ZM278.025 339.2C290.225 339.2 299.025 333.9 304.425 323.3C310.025 312.5 312.825 294.6 312.825 269.6C312.825 244.2 310.025 226.1 304.425 215.3C298.825 204.3 289.325 198.8 275.925 198.8C263.525 198.8 254.425 204.3 248.625 215.3C243.025 226.3 240.225 244.4 240.225 269.6C240.225 294.8 243.225 312.7 249.225 323.3C255.225 333.9 264.825 339.2 278.025 339.2ZM276.825 377.6C249.425 377.6 228.425 368.9 213.825 351.5C199.425 334.1 192.225 306.6 192.225 269C192.225 231.4 199.525 203.9 214.125 186.5C228.925 169.1 249.525 160.4 275.925 160.4C304.925 160.4 326.225 169.2 339.825 186.8C353.425 204.2 360.225 231.6 360.225 269C360.225 288.2 358.325 304.7 354.525 318.5C350.925 332.1 345.525 343.3 338.325 352.1C331.325 360.9 322.625 367.4 312.225 371.6C302.025 375.6 290.225 377.6 276.825 377.6ZM478.35 290V203.9H477.75L416.85 290H478.35ZM523.05 374H478.05V330.2H376.95V291.8L466.35 164H523.05V289.7H549.75V330.2H523.05V374Z" fill="url(#paint0_linear_534_222)"/>
<defs>
<linearGradient id="paint0_linear_534_222" x1="67.0799" y1="-49.5626" x2="623.159" y2="86.0227" gradientUnits="userSpaceOnUse">
<stop stop-color="#15256D"/>
<stop offset="1" stop-color="#4495D1"/>
</linearGradient>
<clipPath id="clip0_534_222">
<rect width="308" height="308" fill="white" transform="translate(24)"/>
</clipPath>
<clipPath id="clip1_534_222">
<rect width="204" height="204" fill="white" transform="translate(340.121 108) rotate(23.432)"/>
</clipPath>
</defs>
</svg>
