<?xml version="1.0" standalone="no"?>
<!DOCTYPE svg PUBLIC "-//W3C//DTD SVG 1.1//EN" "http://www.w3.org/Graphics/SVG/1.1/DTD/svg11.dtd" >
<svg xmlns="http://www.w3.org/2000/svg" xmlns:xlink="http://www.w3.org/1999/xlink" version="1.1">
<metadata>
Created by FontForge 20170731 at Tue Dec 18 17:35:39 2018
 By Aleksey,,,
Copyright (c) 2018 ParaType Inc., ParaType Ltd. All rights reserved.
</metadata>
<defs>
<font id="Rosatom-Bold" horiz-adv-x="400" >
  <font-face 
    font-family="Rosatom"
    font-weight="700"
    font-stretch="normal"
    units-per-em="1000"
    panose-1="2 11 5 3 4 5 4 2 2 4"
    ascent="779"
    descent="-221"
    x-height="510"
    cap-height="700"
    bbox="-429 -260 1221 998"
    underline-thickness="50"
    underline-position="-200"
    unicode-range="U+0020-FEFF"
  />
<missing-glyph horiz-adv-x="233" 
 />
    <glyph glyph-name="afii10017.var.accented" unicode="&#x410;`" horiz-adv-x="683" 
d="M474 154h-269l-50 -154h-148l239 700h195l236 -700h-153zM246 285h187l-93 294zM389 770h-110l91 154h180z" />
    <glyph glyph-name="afii10022.var.accented" unicode="&#x415;`" horiz-adv-x="564" 
d="M517 0h-449v700h449v-132h-299v-149h263v-123h-263v-164h299v-132zM331 770h-110l91 154h180z" />
    <glyph glyph-name="afii10026.var.accented" unicode="&#x418;`" horiz-adv-x="729" 
d="M661 0h-150v488l-282 -488h-161v700h150v-487l283 487h160v-700zM414 770h-110l91 154h180z" />
    <glyph glyph-name="afii10032.var.accented" unicode="&#x41e;`" horiz-adv-x="765" 
d="M389 120q38 0 70 14t55 42.5t35.5 71.5t12.5 102q0 119 -50 174.5t-132 55.5q-37 0 -69.5 -14t-56.5 -42.5t-37.5 -72t-13.5 -101.5q0 -59 14.5 -102t39.5 -71.5t59 -42.5t73 -14zM384 -12q-76 0 -138.5 23.5t-107.5 69.5t-69.5 113.5t-24.5 155.5t25.5 155.5t70.5 113.5
t106.5 69.5t133.5 23.5q81 0 144.5 -25t107 -71.5t66.5 -114t23 -151.5q0 -93 -25.5 -161.5t-71 -113t-107 -66t-133.5 -21.5zM433 770h-110l91 154h180z" />
    <glyph glyph-name="afii10037.var.accented" unicode="&#x423;`" horiz-adv-x="633" 
d="M177 95q27 17 48.5 36.5t34.5 42.5l3 7l-260 519h174l165 -372l134 372h155l-221 -545q-25 -61 -64.5 -106.5t-84.5 -69.5zM368 770h-110l91 154h180z" />
    <glyph glyph-name="afii10045.var.accented" unicode="&#x42b;`" horiz-adv-x="872" 
d="M218 132h56q79 0 113 29.5t34 78.5q0 53 -35.5 76t-111.5 23h-56v-207zM68 0v700h150v-229h77q134 0 207.5 -55t73.5 -175q0 -115 -76.5 -178t-215.5 -63h-216zM804 0h-150v700h150v-700zM480 770h-110l91 154h180z" />
    <glyph glyph-name="afii10047.var.accented" unicode="&#x42d;`" horiz-adv-x="644" 
d="M46 672q27 14 77 27t127 13q80 0 145 -23t110.5 -67.5t70 -110.5t24.5 -152q0 -90 -27 -159.5t-77 -116.5t-120 -71t-156 -24q-57 0 -102.5 10t-73.5 23l32 120q32 -11 68 -16t60 -5q46 0 86.5 10.5t71.5 32.5t51.5 56t27.5 81h-275v115h272q-18 84 -78.5 124.5
t-145.5 40.5q-31 0 -69 -6.5t-70 -20.5zM321 770h-110l91 154h180z" />
    <glyph glyph-name="afii10048.var.accented" unicode="&#x42e;`" horiz-adv-x="1014" 
d="M641 -12q-140 0 -225 78t-99 226h-99v-292h-150v700h150v-274h102q9 69 36 122.5t68 89.5t95 55t118 19q81 0 143 -25t104.5 -71.5t64 -114t21.5 -151.5q0 -93 -24.5 -161t-68 -112.5t-104 -66.5t-132.5 -22zM646 120q77 0 121 56t44 174q0 120 -46 175t-128 55
q-37 0 -68 -14t-53.5 -42.5t-35 -72t-12.5 -101.5q0 -117 49.5 -173.5t128.5 -56.5zM433 770h-110l91 154h180z" />
    <glyph glyph-name="afii10049.var.accented" unicode="&#x42f;`" horiz-adv-x="643" 
d="M172 282q-53 22 -85.5 66.5t-32.5 121.5q0 119 73 174.5t205 55.5h244v-700h-150v242h-63q-35 0 -53.5 -9.5t-33.5 -36t-33.5 -74t-52.5 -122.5h-170q30 70 50 119.5t35.5 82t30.5 51.5t36 29zM428 366v202h-101q-54 0 -86 -25t-32 -79q0 -52 36 -75t96 -23h87zM399 770
h-110l91 154h180z" />
    <glyph glyph-name="afii10023.var.accented" unicode="&#x401;`" horiz-adv-x="564" 
d="M517 0h-449v700h449v-132h-299v-149h263v-123h-263v-164h299v-132zM291 764h-89l67 156h138zM524 835q0 -29 -17 -47.5t-52 -18.5t-53 18.5t-18 47.5t17.5 47t52.5 18t52.5 -17.5t17.5 -47.5zM200 835q0 -29 -18 -47.5t-54 -18.5q-32 0 -50 18.5t-18 47.5t18 47t50 18
q36 0 54 -17.5t18 -47.5z" />
    <glyph glyph-name="afii10065.var.accented" unicode="&#x430;`" horiz-adv-x="542" 
d="M349 230q-40 -3 -72.5 -7.5t-56 -13t-36 -21.5t-12.5 -33q0 -27 17.5 -42t55.5 -15q45 0 74.5 28t29.5 78v26zM485 0h-126v83h-2q-9 -17 -23 -33.5t-34.5 -29.5t-47 -21t-59.5 -8q-75 0 -118 39.5t-43 108.5q0 47 21.5 79t62 52t99.5 30.5t134 14.5v8q0 41 -22 63t-81 22
q-44 0 -84.5 -10.5t-75.5 -23.5l-22 103q45 23 98 33.5t107 10.5q59 0 100 -13.5t67 -41t37.5 -69t11.5 -98.5v-299zM331 593h-106l86 144h168z" />
    <glyph glyph-name="afii10070.var.accented" unicode="&#x435;`" horiz-adv-x="569" 
d="M511 34q-10 -7 -28 -15t-42.5 -14.5t-55 -11t-65.5 -4.5q-148 0 -216 70.5t-68 201.5q0 60 17.5 108t50.5 82t80.5 52t108.5 18q68 0 114.5 -20.5t75.5 -55.5t41.5 -82.5t12.5 -101.5v-37h-361q8 -64 46 -94.5t114 -30.5q56 0 91.5 10.5t61.5 24.5zM399 306
q1 47 -24.5 78t-79.5 31q-104 0 -118 -109h222zM341 593h-106l86 144h168z" />
    <glyph glyph-name="afii10074.var.accented" unicode="&#x438;`" horiz-adv-x="605" 
d="M60 0v510h136v-266l-3 -71h1l35 58l186 279h130v-510h-136v271l4 66h-2l-34 -57l-187 -280h-130zM362 593h-106l86 144h168z" />
    <glyph glyph-name="afii10080.var.accented" unicode="&#x43e;`" horiz-adv-x="605" 
d="M303 102q62 0 93 37t31 116q0 81 -30 117.5t-94 36.5q-60 0 -92.5 -37t-32.5 -117t34 -116.5t91 -36.5zM303 -11q-129 0 -198 65t-69 201q0 131 71 198.5t196 67.5q127 0 196.5 -66.5t69.5 -199.5q0 -129 -69 -197.5t-197 -68.5zM362 593h-106l86 144h168z" />
    <glyph glyph-name="afii10085.var.accented" unicode="&#x443;`" horiz-adv-x="532" 
d="M129 -146q32 32 51 60.5t32 60.5l6 15l-212 520h150l129 -360l103 360h138l-174 -512q-15 -43 -29 -76t-29.5 -59t-34 -48t-40.5 -42zM325 593h-106l86 144h168z" />
    <glyph glyph-name="afii10093.var.accented" unicode="&#x44b;`" horiz-adv-x="738" 
d="M196 106h63q47 0 67.5 19t20.5 56q0 38 -23.5 53.5t-70.5 15.5h-57v-144zM60 0v510h136v-154h70q115 0 168 -45.5t53 -131.5q0 -39 -14 -72t-41 -56.5t-66 -37t-88 -13.5h-218zM679 0h-136v510h136v-510zM427 593h-106l86 144h168z" />
    <glyph glyph-name="afii10095.var.accented" unicode="&#x44d;`" horiz-adv-x="532" 
d="M45 490q21 8 64.5 19.5t107.5 11.5q144 0 211.5 -65.5t67.5 -193.5q0 -60 -16 -110t-50 -86t-87 -56.5t-126 -20.5q-60 0 -107 10t-74 26l23 100q24 -9 56 -16.5t80 -7.5q72 0 112.5 24.5t47.5 89.5h-219v93h217q-7 51 -44.5 76t-110.5 25q-52 0 -83.5 -7.5t-45.5 -12.5z
M293 593h-106l86 144h168z" />
    <glyph glyph-name="afii10096.var.accented" unicode="&#x44e;`" horiz-adv-x="821" 
d="M529 -11q-112 0 -176 55t-75 157h-82v-201h-136v510h136v-193h82q13 95 76.5 149.5t167.5 54.5q129 0 196 -66t67 -200q0 -129 -66 -197.5t-190 -68.5zM521 102q62 0 92 36.5t30 116.5q0 81 -29 117.5t-93 36.5q-56 0 -87 -37t-31 -117t33 -116.5t85 -36.5zM396 593h-106
l86 144h168z" />
    <glyph glyph-name="afii10097.var.accented" unicode="&#x44f;`" horiz-adv-x="558" 
d="M292 165q-24 0 -37 -6.5t-24 -24.5t-24.5 -50t-38.5 -84h-142q22 49 36 82.5t25.5 55.5t23.5 35t31 22q-43 17 -69.5 50t-26.5 92q0 43 15.5 75.5t43.5 54t67.5 32.5t86.5 11h240v-510h-136v165h-71zM364 268v130h-84q-48 0 -69.5 -16t-21.5 -51t24 -49t72 -14h79z
M348 593h-106l86 144h168z" />
    <glyph glyph-name="afii10071.var.accented" unicode="&#x451;`" horiz-adv-x="569" 
d="M511 34q-10 -7 -28 -15t-42.5 -14.5t-55 -11t-65.5 -4.5q-148 0 -216 70.5t-68 201.5q0 60 17.5 108t50.5 82t80.5 52t108.5 18q68 0 114.5 -20.5t75.5 -55.5t41.5 -82.5t12.5 -101.5v-37h-361q8 -64 46 -94.5t114 -30.5q56 0 91.5 10.5t61.5 24.5zM399 306
q1 47 -24.5 78t-79.5 31q-104 0 -118 -109h222zM303 590h-75l64 147h120zM509 656q0 -26 -17 -43.5t-49 -17.5q-33 0 -49 17.5t-16 43.5q0 29 16 45.5t49 16.5q32 0 49 -16.5t17 -45.5zM244 656q0 -26 -17.5 -43.5t-49.5 -17.5q-31 0 -47.5 17.5t-16.5 43.5q0 29 16.5 45.5
t47.5 16.5q32 0 49.5 -16.5t17.5 -45.5z" />
    <glyph glyph-name="fi" unicode="fi" horiz-adv-x="622" 
d="M243 0h-136v394h-93v116h93v63q0 42 10 76t32 58.5t56.5 37.5t84.5 13q25 0 44.5 -2.5t46.5 -9.5l-23 -107q-7 2 -13.5 3t-17.5 1q-25 0 -41 -5t-25.5 -16.5t-13.5 -31t-4 -47.5v-33h318v-510h-136v394h-182v-394zM575 673q0 -35 -21 -54.5t-62 -19.5q-40 0 -60.5 22.5
t-21 50t20 50t61.5 22.5t62 -18.5t21 -52.5z" />
    <glyph glyph-name="fl" unicode="fl" horiz-adv-x="622" 
d="M355 394h-112v-394h-136v394h-93v116h93v47q0 100 56.5 150.5t158.5 50.5q29 0 53.5 -2.5t50.5 -5.5h136v-750h-136v636q-14 3 -31 5.5t-41 2.5q-25 0 -45.5 -4.5t-35 -16.5t-22.5 -33.5t-8 -55.5v-24h112v-116z" />
    <glyph glyph-name=".notdef" horiz-adv-x="233" 
 />
    <glyph glyph-name=".null" horiz-adv-x="0" 
 />
    <glyph glyph-name="nonmarkingreturn" horiz-adv-x="333" 
 />
    <glyph glyph-name="space" unicode=" " horiz-adv-x="233" 
 />
    <glyph glyph-name="exclam" unicode="!" horiz-adv-x="369" 
d="M276 73q0 -39 -23.5 -61.5t-67.5 -22.5q-42 0 -66.5 23t-24.5 61q0 40 23 62.5t68 22.5q42 0 66.5 -23.5t24.5 -61.5zM246 241h-122l-23 459h168z" />
    <glyph glyph-name="quotedbl" unicode="&#x22;" horiz-adv-x="445" 
d="M182 433h-97l-12 267h121zM360 433h-97l-12 267h121z" />
    <glyph glyph-name="numbersign" unicode="#" horiz-adv-x="644" 
d="M176 507l28 193h111l-27 -193h112l27 193h112l-28 -193h86v-100h-100l-16 -114h87v-99h-101l-26 -194h-111l27 194h-113l-27 -194h-110l26 194h-86v99h100l16 114h-86v100h99zM258 293h113l16 114h-113z" />
    <glyph glyph-name="dollar" unicode="$" horiz-adv-x="594" 
d="M79 161q12 -8 30.5 -16t42 -14.5t51 -11t57.5 -4.5q62 0 87 22t25 62q0 22 -6.5 36.5t-20 26t-35 20.5t-52.5 20l-25 8q-44 15 -74 33.5t-49.5 43.5t-28 57t-8.5 73q0 78 47.5 127t132.5 63v103h87v-98q48 -2 85 -11t62 -19v-128q-39 17 -84.5 24t-83.5 7
q-102 0 -102 -72q0 -17 6.5 -30t21.5 -24.5t40.5 -23t63.5 -24.5l27 -10q45 -16 74.5 -36.5t46 -45.5t23 -55t6.5 -64q0 -88 -49 -140t-137 -66v-104h-87v98q-51 2 -95 12.5t-79 29.5v131z" />
    <glyph glyph-name="percent" unicode="%" horiz-adv-x="857" 
d="M638 69q39 0 55.5 25.5t16.5 79.5q0 53 -15.5 79t-56.5 26q-38 0 -54.5 -26t-16.5 -79q0 -105 71 -105zM638 -12q-33 0 -65.5 8.5t-57.5 30t-40.5 57.5t-15.5 90t15.5 89.5t41 57t57.5 30.5t65 9q34 0 66 -8.5t57 -30t40.5 -57.5t15.5 -90q0 -53 -15.5 -89t-41 -57.5
t-57.5 -30.5t-65 -9zM219 421q39 0 55 25t16 79t-15 80t-56 26q-38 0 -55 -26t-17 -80q0 -104 72 -104zM219 340q-33 0 -65.5 8.5t-57.5 29.5t-40.5 57t-15.5 90t15.5 89.5t41 57.5t57.5 31t65 9q34 0 66 -8.5t57 -30t40.5 -57.5t15.5 -91q0 -53 -15.5 -88.5t-41 -57
t-57.5 -30.5t-65 -9zM230 0h-96l493 700h96z" />
    <glyph glyph-name="ampersand" unicode="&#x26;" horiz-adv-x="740" 
d="M322 435q14 8 29 18.5t27.5 23.5t20.5 28t8 33q0 35 -17.5 53.5t-52.5 18.5q-37 0 -55 -20.5t-18 -52.5q0 -27 15.5 -51.5t42.5 -50.5zM277 307q-35 -22 -55.5 -46.5t-20.5 -67.5q0 -45 29.5 -72.5t77.5 -27.5q38 0 66.5 16t45.5 34zM719 0h-179l-51 59
q-40 -37 -89.5 -54t-113.5 -17t-108 17t-71.5 44.5t-39.5 62t-12 69.5q0 76 39.5 122t110.5 79q-14 15 -28 31.5t-25.5 36t-18.5 42t-7 48.5q0 49 21 82.5t52.5 53t68.5 28t69 8.5q105 0 155.5 -43.5t50.5 -114.5q0 -32 -12 -59.5t-33 -50.5t-49 -41.5t-59 -32.5l111 -129
q16 24 23 55t9 75h130q-8 -79 -29.5 -129t-49.5 -87z" />
    <glyph glyph-name="quotesingle" unicode="'" horiz-adv-x="262" 
d="M180 433h-97l-12 267h121z" />
    <glyph glyph-name="parenleft" unicode="(" horiz-adv-x="350" 
d="M189 308q0 -115 37 -230.5t115 -217.5h-131q-42 46 -71.5 99t-48.5 111t-28 118t-9 120t9 120.5t28 118t48.5 111t71.5 98.5h131q-82 -101 -117 -213t-35 -235z" />
    <glyph glyph-name="parenright" unicode=")" horiz-adv-x="350" 
d="M161 308q0 123 -34.5 235t-117.5 213h131q42 -45 71.5 -98.5t48.5 -111t28 -118t9 -120.5t-9 -120t-28 -118t-48.5 -111t-71.5 -99h-131q78 102 115 217.5t37 230.5z" />
    <glyph glyph-name="asterisk" unicode="*" horiz-adv-x="505" 
d="M328 303l-68 116h-15l-68 -116l-91 61l96 102l-4 13l-134 26l33 107l127 -56l12 8l-17 136h110l-16 -137l11 -7l125 56l32 -107l-133 -26l-4 -14l95 -101z" />
    <glyph glyph-name="plus" unicode="+" horiz-adv-x="589" 
d="M350 80h-111v189h-189v112h189v188h111v-188h190v-112h-190v-189z" />
    <glyph glyph-name="comma" unicode="," horiz-adv-x="299" 
d="M34 -115q50 16 76.5 40.5t35.5 62.5q-52 0 -73 26t-21 61t24.5 59.5t72.5 24.5q44 0 74 -29.5t30 -92.5q0 -40 -11.5 -77t-35 -68t-58 -53.5t-80.5 -33.5z" />
    <glyph glyph-name="hyphen" unicode="-" horiz-adv-x="478" 
d="M404 226h-330v112h330v-112z" />
    <glyph glyph-name="period" unicode="." horiz-adv-x="293" 
d="M239 74q0 -40 -24 -62.5t-69 -22.5q-42 0 -66.5 23t-24.5 62q0 41 23 63t68 22q42 0 67.5 -23.5t25.5 -61.5z" />
    <glyph glyph-name="slash" unicode="/" horiz-adv-x="518" 
d="M132 -150h-126l371 920h126z" />
    <glyph glyph-name="zero" unicode="0" horiz-adv-x="594" 
d="M303 116q61 0 88.5 53.5t27.5 178.5q0 127 -28 181.5t-95 54.5q-62 0 -90.5 -55t-28.5 -181t30 -179t96 -53zM299 -12q-137 0 -209.5 87t-72.5 275t73.5 275t205.5 87q145 0 213 -87.5t68 -274.5q0 -96 -18.5 -164.5t-54 -112.5t-87 -64.5t-118.5 -20.5z" />
    <glyph glyph-name="one" unicode="1" horiz-adv-x="594" 
d="M419 0h-150v536l-118 -77l-63 107l207 134h124v-700z" />
    <glyph glyph-name="two" unicode="2" horiz-adv-x="594" 
d="M540 0h-488v136l111 87q53 39 92 71.5t64.5 61.5t38 57t12.5 58q0 50 -31.5 77.5t-97.5 27.5q-48 0 -90 -12t-77 -30v141q58 22 108.5 29.5t98.5 7.5q66 0 113.5 -16t78.5 -43.5t46 -64.5t15 -79q0 -51 -18 -96t-51.5 -87.5t-81.5 -84t-108 -83.5l-37 -24v-1h302v-133z
" />
    <glyph glyph-name="three" unicode="3" horiz-adv-x="594" 
d="M55 156q49 -20 91.5 -27t83.5 -7q73 0 108 23.5t35 64.5q0 49 -36.5 68.5t-100.5 19.5h-100v121h87q66 0 99.5 19t33.5 64q0 36 -30 56.5t-94 20.5q-48 0 -90.5 -8.5t-74.5 -22.5v133q48 17 97 24t103 7q70 0 118 -15t77 -40.5t42 -59t13 -71.5q0 -66 -37 -106t-104 -56
v-2q85 -14 121 -57t36 -103q0 -100 -71.5 -157t-209.5 -57q-40 0 -91.5 7t-105.5 25v136z" />
    <glyph glyph-name="four" unicode="4" horiz-adv-x="594" 
d="M347 280v287h-2l-203 -287h205zM496 0h-150v146h-337v128l298 426h189v-419h89v-135h-89v-146z" />
    <glyph glyph-name="five" unicode="5" horiz-adv-x="594" 
d="M67 148q37 -14 70 -20.5t77 -6.5q75 0 116 26t41 83q0 105 -143 105q-40 0 -80.5 -6.5t-72.5 -16.5l20 388h408v-129h-290l-8 -131q25 5 44 7t44 2q61 0 105.5 -17.5t74 -47t43.5 -69t14 -83.5q0 -51 -16 -95.5t-51 -77.5t-91 -52t-135 -19q-38 0 -81.5 6.5t-88.5 21.5
v132z" />
    <glyph glyph-name="six" unicode="6" horiz-adv-x="594" 
d="M309 107q49 0 79 30t30 88q0 57 -31.5 86t-78.5 29q-54 0 -85 -29t-31 -71q0 -59 30.5 -96t86.5 -37zM508 559q-33 11 -67 17t-75 6q-42 0 -77 -13.5t-60 -39t-39 -63t-14 -85.5q11 13 25.5 25.5t34.5 22.5t46.5 15.5t61.5 5.5q47 0 89 -13.5t73 -40.5t49 -69t18 -99
q0 -54 -19 -98.5t-53.5 -76t-82.5 -48.5t-107 -17q-78 0 -131.5 27t-87 73.5t-48 107.5t-14.5 130q0 79 17 149.5t55.5 123t101.5 83t156 30.5q29 0 67 -4t81 -15v-134z" />
    <glyph glyph-name="seven" unicode="7" horiz-adv-x="594" 
d="M298 0h-169l245 569h-320v131h485v-116z" />
    <glyph glyph-name="eight" unicode="8" horiz-adv-x="594" 
d="M316 409q46 24 67 49.5t21 57.5q0 42 -30.5 60t-79.5 18q-51 0 -78 -20.5t-27 -53.5q0 -22 10.5 -39t28.5 -30.5t41 -23.5t47 -18zM281 317q-19 -8 -37.5 -18.5t-33.5 -24t-24.5 -31t-9.5 -39.5q0 -44 32.5 -71t94.5 -27q51 0 83.5 24t32.5 71q0 25 -13 43.5t-33 32
t-44.5 23t-47.5 17.5zM427 372q82 -30 113.5 -73t31.5 -108q0 -47 -19 -84.5t-54 -64t-85 -40.5t-113 -14q-58 0 -108.5 12.5t-88 37.5t-59 62t-21.5 87q0 69 38 112.5t108 66.5q-61 28 -95.5 67t-34.5 105q0 41 18.5 73.5t52.5 55t82 34t107 11.5q53 0 99 -10t80 -31
t53.5 -53.5t19.5 -78.5q0 -62 -32 -101.5t-93 -65.5z" />
    <glyph glyph-name="nine" unicode="9" horiz-adv-x="594" 
d="M283 593q-48 0 -77.5 -30t-29.5 -88q0 -57 31.5 -87.5t78.5 -30.5q53 0 84 30t31 77q0 62 -30.5 95.5t-87.5 33.5zM86 142q34 -12 68 -17.5t75 -5.5q42 0 76.5 11.5t59.5 36t39.5 63t14.5 92.5q-21 -31 -60 -53t-109 -22q-47 0 -88.5 14t-72.5 42t-49 70.5t-18 99.5
q0 54 19 98.5t53.5 75.5t82.5 48t107 17q78 0 131.5 -25t87 -69.5t48 -105.5t14.5 -133q0 -83 -17 -154t-55.5 -124t-101.5 -83t-156 -30q-29 0 -67 4t-82 15v135z" />
    <glyph glyph-name="colon" unicode=":" horiz-adv-x="293" 
d="M239 436q0 -41 -24 -63.5t-69 -22.5q-42 0 -66.5 23.5t-24.5 62.5q0 40 23 62t68 22q42 0 67.5 -23t25.5 -61zM239 74q0 -40 -24 -62.5t-69 -22.5q-42 0 -66.5 23t-24.5 62q0 41 23 63t68 22q42 0 67.5 -23.5t25.5 -61.5z" />
    <glyph glyph-name="semicolon" unicode=";" horiz-adv-x="299" 
d="M34 -115q50 16 76.5 40.5t35.5 62.5q-52 0 -73 26t-21 61t24.5 59.5t72.5 24.5q44 0 74 -29.5t30 -92.5q0 -40 -11.5 -77t-35 -68t-58 -53.5t-80.5 -33.5zM239 436q0 -41 -24 -63.5t-69 -22.5q-42 0 -66.5 23.5t-24.5 62.5q0 40 23 62t68 22q42 0 67.5 -23t25.5 -61z" />
    <glyph glyph-name="less" unicode="&#x3c;" horiz-adv-x="582" 
d="M532 65l-482 203v104l482 202v-114l-344 -139v-2l344 -140v-114z" />
    <glyph glyph-name="equal" unicode="=" horiz-adv-x="589" 
d="M50 169v112h490v-112h-490zM50 372v112h490v-112h-490z" />
    <glyph glyph-name="greater" unicode="&#x3e;" horiz-adv-x="582" 
d="M50 574l482 -202v-104l-482 -203v114l344 140v2l-344 139v114z" />
    <glyph glyph-name="question" unicode="?" horiz-adv-x="496" 
d="M276 222h-134v19q0 36 11.5 63.5t28 49t36.5 39t36.5 34.5t28 35.5t11.5 41.5q0 38 -29 58.5t-80 20.5q-41 0 -75.5 -9t-72.5 -27v132q41 17 90.5 25t103.5 8q63 0 107 -14.5t71.5 -39.5t39.5 -57t12 -68q0 -42 -13.5 -72t-34.5 -53.5t-44.5 -42t-44.5 -37.5t-34.5 -41
t-13.5 -52v-13zM300 73q0 -39 -23.5 -61.5t-68.5 -22.5q-42 0 -66.5 23t-24.5 61q0 40 23 62.5t68 22.5q42 0 67 -23.5t25 -61.5z" />
    <glyph glyph-name="at" unicode="@" horiz-adv-x="898" 
d="M650 -105q-38 -14 -81 -22t-90 -8q-108 0 -186.5 31t-129.5 85t-76 126.5t-25 155.5q0 82 26 156t77 130t126 88.5t173 32.5q90 0 159.5 -26t116.5 -71t71.5 -106t24.5 -130q0 -64 -17 -114.5t-47.5 -85.5t-71.5 -53.5t-89 -18.5q-25 0 -45.5 6t-33.5 20q-15 15 -17 42
h-2q-29 -38 -65 -53t-69 -15q-34 0 -60 12t-43 32.5t-26 49t-9 61.5q0 47 12.5 91.5t37.5 79t63 55t89 20.5q45 0 69 -18.5t33 -43.5h1l15 54h96l-42 -237q-2 -8 -4.5 -23t-2.5 -21q0 -9 5 -19.5t24 -10.5q21 0 41 12t35.5 35.5t25 58.5t9.5 81q0 51 -16.5 97t-51 80.5
t-88.5 55t-129 20.5q-81 0 -139.5 -26t-96.5 -70t-56 -103.5t-18 -125.5q0 -60 16 -116.5t54 -100.5t99.5 -70.5t153.5 -26.5q44 0 90 7t84 24v-84zM428 153q27 0 45 16t29 40t15.5 51t4.5 48q0 30 -15.5 49t-48.5 19q-27 0 -45.5 -13t-30 -34t-16.5 -46.5t-5 -50.5
q0 -35 16 -57t51 -22z" />
    <glyph glyph-name="A" unicode="A" horiz-adv-x="683" 
d="M474 154h-269l-50 -154h-148l239 700h195l236 -700h-153zM246 285h187l-93 294z" />
    <glyph glyph-name="B" unicode="B" horiz-adv-x="633" 
d="M218 410h83q68 0 98 23t30 63q0 46 -32.5 63t-92.5 17h-86v-166zM218 124h82q65 0 102.5 18.5t37.5 68.5q0 51 -34 71.5t-98 20.5h-90v-179zM68 0v700h272q115 0 176.5 -46t61.5 -132q0 -68 -39 -106t-98 -51v-2q34 -2 63 -15.5t49 -35t31.5 -48.5t11.5 -57
q0 -43 -15 -80.5t-47 -65.5t-82 -44.5t-121 -16.5h-263z" />
    <glyph glyph-name="C" unicode="C" horiz-adv-x="634" 
d="M588 28q-14 -7 -30.5 -14t-39 -13t-52 -9.5t-67.5 -3.5q-80 0 -145.5 23t-112 67.5t-72 110.5t-25.5 152q0 90 25.5 159.5t73.5 116.5t116.5 71t154.5 24q57 0 102.5 -10t73.5 -23l-33 -126q-32 11 -65 16t-57 5q-52 0 -94.5 -13t-73 -40.5t-47.5 -70t-17 -100.5
q0 -111 62.5 -167t168.5 -56q24 0 58 6.5t66 20.5z" />
    <glyph glyph-name="D" unicode="D" horiz-adv-x="710" 
d="M218 132h61q227 0 227 224q0 110 -51.5 161t-165.5 51h-71v-436zM68 0v700h231q98 0 167.5 -22.5t114 -66t65 -106t20.5 -142.5q0 -180 -98 -271.5t-283 -91.5h-217z" />
    <glyph glyph-name="E" unicode="E" horiz-adv-x="564" 
d="M517 0h-449v700h449v-132h-299v-149h263v-123h-263v-164h299v-132z" />
    <glyph glyph-name="F" unicode="F" horiz-adv-x="525" 
d="M218 0h-150v700h427v-132h-277v-156h260v-130h-260v-282z" />
    <glyph glyph-name="G" unicode="G" horiz-adv-x="687" 
d="M498 269h-128v124h263v-354q-36 -20 -93 -35.5t-129 -15.5q-81 0 -148 23t-116 68t-76 110.5t-27 150.5q0 91 27 160.5t76.5 116.5t117.5 71t151 24q67 0 113.5 -12t70.5 -20l-33 -126q-34 12 -64.5 17.5t-68.5 5.5q-47 0 -89.5 -13t-74.5 -40.5t-51.5 -71t-19.5 -103.5
q0 -59 19 -101.5t49.5 -70t70.5 -40.5t82 -13q20 0 40.5 2.5t37.5 7.5v135z" />
    <glyph glyph-name="H" unicode="H" horiz-adv-x="726" 
d="M658 0h-150v292h-290v-292h-150v700h150v-274h290v274h150v-700z" />
    <glyph glyph-name="I" unicode="I" horiz-adv-x="286" 
d="M218 0h-150v700h150v-700z" />
    <glyph glyph-name="J" unicode="J" horiz-adv-x="441" 
d="M55 138q31 -10 58 -10q55 0 82.5 35.5t27.5 100.5v436h150v-465q0 -55 -13 -100t-40 -77.5t-69 -50t-100 -17.5q-41 0 -66.5 4.5t-54.5 14.5z" />
    <glyph glyph-name="K" unicode="K" horiz-adv-x="664" 
d="M218 377l251 323h174l-269 -327l288 -373h-183l-204 270l-57 -65v-205h-150v700h150v-323z" />
    <glyph glyph-name="L" unicode="L" horiz-adv-x="534" 
d="M502 0h-434v700h150v-562h284v-138z" />
    <glyph glyph-name="M" unicode="M" horiz-adv-x="897" 
d="M852 0h-151l-38 465l-144 -465h-143l-142 463l-38 -463h-151l70 700h179l158 -528l156 528h173z" />
    <glyph glyph-name="N" unicode="N" horiz-adv-x="724" 
d="M656 0h-166l-276 493v-493h-146v700h176l266 -478v478h146v-700z" />
    <glyph glyph-name="O" unicode="O" horiz-adv-x="765" 
d="M389 120q38 0 70 14t55 42.5t35.5 71.5t12.5 102q0 119 -50 174.5t-132 55.5q-37 0 -69.5 -14t-56.5 -42.5t-37.5 -72t-13.5 -101.5q0 -59 14.5 -102t39.5 -71.5t59 -42.5t73 -14zM384 -12q-76 0 -138.5 23.5t-107.5 69.5t-69.5 113.5t-24.5 155.5t25.5 155.5t70.5 113.5
t106.5 69.5t133.5 23.5q81 0 144.5 -25t107 -71.5t66.5 -114t23 -151.5q0 -93 -25.5 -161.5t-71 -113t-107 -66t-133.5 -21.5z" />
    <glyph glyph-name="P" unicode="P" horiz-adv-x="626" 
d="M215 351h82q68 0 106 26.5t38 82.5q0 59 -37 83.5t-106 24.5h-83v-217zM218 0h-150v700h241q66 0 119 -14t90.5 -42.5t57.5 -73t20 -104.5q0 -59 -20.5 -105t-59.5 -77.5t-95 -48t-126 -16.5h-77v-219z" />
    <glyph glyph-name="Q" unicode="Q" horiz-adv-x="765" 
d="M457 -126l-104 115q-70 4 -127 30t-97.5 71.5t-62.5 110.5t-22 149q0 88 25.5 155.5t70.5 113.5t106.5 69.5t133.5 23.5q81 0 144.5 -25t107 -71.5t66.5 -114t23 -151.5q0 -70 -14.5 -126t-41.5 -98t-64.5 -71.5t-83.5 -45.5l128 -135h-188zM389 120q38 0 70 14t55 42.5
t35.5 71.5t12.5 102q0 119 -50 174.5t-132 55.5q-37 0 -69.5 -14t-56.5 -42.5t-37.5 -72t-13.5 -101.5q0 -59 14.5 -102t39.5 -71.5t59 -42.5t73 -14z" />
    <glyph glyph-name="R" unicode="R" horiz-adv-x="653" 
d="M218 276v-276h-150v700h238q133 0 201.5 -48.5t68.5 -153.5q0 -39 -10.5 -69t-29 -52.5t-43 -37.5t-52.5 -24q23 -9 39 -26t33.5 -51.5t41.5 -91.5t63 -146h-160q-36 78 -54.5 131t-34 85t-35 46t-57.5 14h-59zM215 400h87q25 0 47 4t37.5 13.5t24.5 26t9 42.5
q0 46 -31.5 64t-94.5 18h-79v-168z" />
    <glyph glyph-name="S" unicode="S" horiz-adv-x="559" 
d="M68 166q12 -8 30.5 -16.5t41.5 -16t48.5 -12t52.5 -4.5q59 0 86.5 21t27.5 60q0 22 -6.5 36.5t-20 25.5t-35.5 19.5t-53 19.5l-24 8q-83 28 -121.5 77t-38.5 123q0 48 18.5 86t51.5 64.5t77.5 40.5t97.5 14q69 0 118.5 -11.5t79.5 -24.5l-35 -128q-37 17 -76.5 25
t-72.5 8q-51 0 -78 -16.5t-27 -51.5q0 -18 5.5 -30.5t20 -23t39.5 -21.5t64 -24l26 -9q46 -16 76 -37t47 -46t24 -54t7 -61q0 -53 -19.5 -94t-54.5 -69t-82.5 -42t-103.5 -14q-32 0 -64 4t-61 10.5t-54 15.5t-43 19z" />
    <glyph glyph-name="T" unicode="T" horiz-adv-x="579" 
d="M365 0h-150v562h-199v138h547v-138h-198v-562z" />
    <glyph glyph-name="U" unicode="U" horiz-adv-x="692" 
d="M480 700h150v-400q0 -163 -72 -237.5t-212 -74.5q-66 0 -119 17.5t-89.5 55t-56 97t-19.5 143.5v399h150v-380q0 -47 6.5 -83t21.5 -61t41 -37.5t65 -12.5q42 0 68 13t41 37.5t20 60.5t5 83v380z" />
    <glyph glyph-name="V" unicode="V" horiz-adv-x="655" 
d="M427 0h-199l-222 700h163l162 -552h1l165 552h153z" />
    <glyph glyph-name="W" unicode="W" horiz-adv-x="963" 
d="M787 0h-194l-113 514l-112 -514h-196l-163 700h160l113 -513l111 513h176l113 -513l113 513h159z" />
    <glyph glyph-name="X" unicode="X" horiz-adv-x="661" 
d="M473 0l-147 257l-143 -257h-176l212 362l-193 338h177l128 -241l135 241h171l-198 -336l215 -364h-181z" />
    <glyph glyph-name="Y" unicode="Y" horiz-adv-x="636" 
d="M394 0h-150v267l-244 433h174l147 -267l142 267h173l-242 -433v-267z" />
    <glyph glyph-name="Z" unicode="Z" horiz-adv-x="595" 
d="M563 0h-531v133l345 435h-333v132h513v-133l-344 -435h350v-132z" />
    <glyph glyph-name="bracketleft" unicode="[" horiz-adv-x="341" 
d="M314 -150h-237v920h237v-92h-113v-736h113v-92z" />
    <glyph glyph-name="backslash" unicode="\" horiz-adv-x="518" 
d="M513 -150h-126l-371 920h126z" />
    <glyph glyph-name="bracketright" unicode="]" horiz-adv-x="341" 
d="M264 -150h-237v92h113v736h-113v92h237v-920z" />
    <glyph glyph-name="asciicircum" unicode="^" horiz-adv-x="560" 
d="M517 354h-117l-120 227l-119 -227h-117l184 346h105z" />
    <glyph glyph-name="underscore" unicode="_" horiz-adv-x="503" 
d="M503 -211h-503v84h503v-84z" />
    <glyph glyph-name="grave" unicode="`" horiz-adv-x="605" 
d="M378 593h-106l-148 144h167z" />
    <glyph glyph-name="a" unicode="a" horiz-adv-x="542" 
d="M349 230q-40 -3 -72.5 -7.5t-56 -13t-36 -21.5t-12.5 -33q0 -27 17.5 -42t55.5 -15q45 0 74.5 28t29.5 78v26zM485 0h-126v83h-2q-9 -17 -23 -33.5t-34.5 -29.5t-47 -21t-59.5 -8q-75 0 -118 39.5t-43 108.5q0 47 21.5 79t62 52t99.5 30.5t134 14.5v8q0 41 -22 63t-81 22
q-44 0 -84.5 -10.5t-75.5 -23.5l-22 103q45 23 98 33.5t107 10.5q59 0 100 -13.5t67 -41t37.5 -69t11.5 -98.5v-299z" />
    <glyph glyph-name="b" unicode="b" horiz-adv-x="622" 
d="M192 0h-132v750h136v-310h2q24 37 65.5 58t106.5 21q105 0 160.5 -63.5t55.5 -191.5q0 -130 -54 -201.5t-169 -71.5q-63 0 -103.5 21t-65.5 55h-2v-67zM322 103q62 0 91.5 36.5t29.5 121.5q0 77 -32 111.5t-86 34.5q-60 0 -94.5 -38.5t-34.5 -114.5q0 -68 34 -109.5
t92 -41.5z" />
    <glyph glyph-name="c" unicode="c" horiz-adv-x="511" 
d="M481 25q-21 -10 -61 -23t-109 -13q-74 0 -126 19t-85 54.5t-48.5 85t-15.5 111.5q0 60 17 108t50.5 82.5t84.5 53t119 18.5q66 0 105 -11.5t60 -19.5l-24 -106q-20 7 -47.5 14t-70.5 7q-72 0 -112 -33t-40 -108q0 -158 170 -158q29 0 58 6t52 17z" />
    <glyph glyph-name="d" unicode="d" horiz-adv-x="622" 
d="M426 750h136v-750h-132v75h-2q-26 -40 -67.5 -62t-104.5 -22q-109 0 -164.5 69t-55.5 193t57.5 195t173.5 71q60 0 98.5 -21.5t58.5 -55.5h2v308zM302 407q-63 0 -92.5 -39t-29.5 -114q0 -76 32 -113.5t92 -37.5q61 0 91.5 39.5t30.5 112.5q0 69 -31 110.5t-93 41.5z" />
    <glyph glyph-name="e" unicode="e" horiz-adv-x="569" 
d="M511 34q-10 -7 -28 -15t-42.5 -14.5t-55 -11t-65.5 -4.5q-148 0 -216 70.5t-68 201.5q0 60 17.5 108t50.5 82t80.5 52t108.5 18q68 0 114.5 -20.5t75.5 -55.5t41.5 -82.5t12.5 -101.5v-37h-361q8 -64 46 -94.5t114 -30.5q56 0 91.5 10.5t61.5 24.5zM399 306
q1 47 -24.5 78t-79.5 31q-104 0 -118 -109h222z" />
    <glyph glyph-name="f" unicode="f" horiz-adv-x="379" 
d="M371 394h-128v-394h-136v394h-93v116h93v63q0 42 10 76t32 58.5t56.5 37.5t84.5 13q25 0 48 -2.5t50 -9.5l-23 -107q-8 2 -17.5 3t-20.5 1q-25 0 -41 -5t-25.5 -16.5t-13.5 -31t-4 -47.5v-33h128v-116z" />
    <glyph glyph-name="g" unicode="g" horiz-adv-x="622" 
d="M430 510h132v-481q0 -70 -21.5 -117t-59.5 -76t-90 -41.5t-112 -12.5q-27 0 -56.5 2.5t-58.5 7.5t-55 12t-45 16l32 107q26 -11 72.5 -20t93.5 -9q46 0 77.5 9t51 26.5t27.5 43.5t8 60v47h-2q-22 -38 -66 -61t-95 -23q-111 0 -169 61.5t-58 187.5q0 131 55 200.5
t173 69.5q58 0 101 -22.5t63 -57.5h2v71zM300 407q-61 0 -90.5 -35.5t-29.5 -113.5q0 -72 31 -109t89 -37q61 0 93.5 39.5t32.5 105.5q0 69 -30.5 109.5t-95.5 40.5z" />
    <glyph glyph-name="h" unicode="h" horiz-adv-x="603" 
d="M547 0h-136v264q0 40 -5 66.5t-16 42.5t-30 23t-46 7q-63 0 -90.5 -42.5t-27.5 -124.5v-236h-136v750h136v-311h2q28 42 71.5 61t94.5 19q92 0 137.5 -48.5t45.5 -155.5v-315z" />
    <glyph glyph-name="i" unicode="i" horiz-adv-x="260" 
d="M213 673q0 -35 -21 -54.5t-62 -19.5q-39 0 -60.5 19.5t-21.5 54.5q0 33 21.5 52t60.5 19q41 0 62 -18.5t21 -52.5zM198 0h-136v510h136v-510z" />
    <glyph glyph-name="j" unicode="j" horiz-adv-x="261" 
d="M214 673q0 -35 -21 -54.5t-62 -19.5q-39 0 -60.5 19.5t-21.5 54.5q0 33 21.5 52t60.5 19q41 0 62 -18.5t21 -52.5zM-49 -95q16 -3 36 -3q16 0 30.5 3t25 13t16.5 28.5t6 49.5v514h136v-506q0 -108 -43 -165t-146 -57q-21 0 -37 2t-27 4z" />
    <glyph glyph-name="k" unicode="k" horiz-adv-x="555" 
d="M196 292l179 218h157l-200 -223l221 -287h-159l-153 206l-45 -54v-152h-136v750h136v-458z" />
    <glyph glyph-name="l" unicode="l" horiz-adv-x="256" 
d="M196 0h-136v750h136v-750z" />
    <glyph glyph-name="m" unicode="m" horiz-adv-x="863" 
d="M807 0h-135v288q0 57 -15 86t-59 29q-28 0 -46.5 -11t-30 -31t-16 -48.5t-4.5 -63.5v-249h-135v288q0 53 -15.5 84t-59.5 31q-28 0 -46.5 -10.5t-29.5 -30.5t-15.5 -48.5t-4.5 -64.5v-249h-135v510h130v-76h2q26 46 64.5 65.5t88.5 19.5q54 0 90 -24t51 -76q29 54 69 77
t94 23q84 0 121 -47.5t37 -142.5v-329z" />
    <glyph glyph-name="n" unicode="n" horiz-adv-x="603" 
d="M547 0h-136v264q0 40 -5 67t-16 43t-30 22.5t-46 6.5q-63 0 -90.5 -42.5t-27.5 -124.5v-236h-136v510h136v-71h2q28 42 71.5 61t94.5 19q91 0 137 -48.5t46 -155.5v-315z" />
    <glyph glyph-name="o" unicode="o" horiz-adv-x="605" 
d="M303 102q62 0 93 37t31 116q0 81 -30 117.5t-94 36.5q-60 0 -92.5 -37t-32.5 -117t34 -116.5t91 -36.5zM303 -11q-129 0 -198 65t-69 201q0 131 71 198.5t196 67.5q127 0 196.5 -66.5t69.5 -199.5q0 -129 -69 -197.5t-197 -68.5z" />
    <glyph glyph-name="p" unicode="p" horiz-adv-x="622" 
d="M196 -210h-136v720h132v-72h2q30 45 76.5 63t94.5 18q221 0 221 -260q0 -57 -14 -106t-42 -85t-70 -56.5t-99 -20.5q-55 0 -97.5 20.5t-65.5 52.5h-2v-274zM322 103q63 0 92 40t29 118q0 74 -29 110t-95 36q-61 0 -92 -41.5t-31 -113.5q0 -69 32 -109t94 -40z" />
    <glyph glyph-name="q" unicode="q" horiz-adv-x="622" 
d="M430 510h132v-720h-136v282h-2q-19 -32 -60 -56.5t-104 -24.5q-110 0 -167 65.5t-57 190.5q0 132 56.5 202t169.5 70q34 0 61 -7t47.5 -18.5t34.5 -25.5t23 -29h2v71zM302 407q-122 0 -122 -151q0 -81 33.5 -117t91.5 -36q61 0 91 43t30 109q0 68 -31 110t-93 42z" />
    <glyph glyph-name="r" unicode="r" horiz-adv-x="404" 
d="M196 0h-136v510h130v-83h2q41 92 136 92q10 0 27.5 -1.5t32.5 -5.5v-124q-14 5 -29.5 7.5t-33.5 2.5q-37 0 -61.5 -11t-39.5 -32.5t-21.5 -53.5t-6.5 -74v-227z" />
    <glyph glyph-name="s" unicode="s" horiz-adv-x="453" 
d="M59 125q35 -19 71 -24.5t73 -5.5q42 0 60.5 13.5t18.5 39.5q0 20 -18 31t-45.5 20t-59.5 19t-59.5 27.5t-45.5 45.5t-18 74q0 70 49.5 113t162.5 43q38 0 82 -6.5t73 -17.5l-23 -101q-26 9 -59 14t-65 5q-79 0 -79 -43q0 -20 18 -30t45.5 -18t59.5 -17.5t59.5 -27
t45.5 -47t18 -78.5q0 -36 -12 -66.5t-38.5 -52.5t-68 -34t-99.5 -12q-38 0 -81.5 9t-87.5 26z" />
    <glyph glyph-name="t" unicode="t" horiz-adv-x="411" 
d="M384 394h-141v-196q0 -46 16 -67t65 -21q24 0 52 10l19 -105q-23 -14 -51.5 -20t-61.5 -6q-95 0 -135 42.5t-40 123.5v239h-93v116h93v108l136 46v-154h141v-116z" />
    <glyph glyph-name="u" unicode="u" horiz-adv-x="603" 
d="M57 510h136v-264q0 -40 5 -66.5t16 -42.5t30 -23t46 -7q63 0 90.5 42.5t27.5 124.5v236h136v-510h-136v72h-2q-28 -42 -71.5 -61.5t-94.5 -19.5q-91 0 -137 48.5t-46 155.5v315z" />
    <glyph glyph-name="v" unicode="v" horiz-adv-x="530" 
d="M348 0h-167l-175 510h151l111 -372l115 372h142z" />
    <glyph glyph-name="w" unicode="w" horiz-adv-x="783" 
d="M649 0h-168l-90 369h-1l-89 -369h-168l-124 510h143l75 -371l92 371h147l92 -373h1l79 373h136z" />
    <glyph glyph-name="x" unicode="x" horiz-adv-x="536" 
d="M531 0h-155l-111 171l-108 -171h-152l171 265l-156 245h155l97 -158l100 158h148l-159 -245z" />
    <glyph glyph-name="y" unicode="y" horiz-adv-x="532" 
d="M129 -146q32 32 51 60.5t32 60.5l6 15l-212 520h150l129 -360l103 360h138l-174 -512q-15 -43 -29 -76t-29.5 -59t-34 -48t-40.5 -42z" />
    <glyph glyph-name="z" unicode="z" horiz-adv-x="499" 
d="M465 0h-431v120l258 274h-250v116h419v-120l-258 -274h262v-116z" />
    <glyph glyph-name="braceleft" unicode="{" horiz-adv-x="358" 
d="M341 -151h-65q-57 0 -88 18t-45.5 44.5t-17.5 55.5t-3 51v143q0 94 -86 103v92q86 9 86 103v143q0 22 3 51t17.5 55t45.5 44t88 18h65v-91h-28q-21 0 -34 -7t-20.5 -19t-10 -28t-2.5 -35v-146q0 -22 -5.5 -43.5t-17 -39.5t-29.5 -31t-44 -18v-4q26 -5 44 -18t29.5 -31
t17 -39.5t5.5 -43.5v-146q0 -19 2.5 -35t10 -28t20.5 -19t34 -7h28v-92z" />
    <glyph glyph-name="bar" unicode="|" horiz-adv-x="278" 
d="M201 -150h-124v920h124v-920z" />
    <glyph glyph-name="braceright" unicode="}" horiz-adv-x="358" 
d="M18 -151v92h27q21 0 34.5 7t21 19t10 28t2.5 35v146q0 22 5 43.5t16.5 39.5t30 31t44.5 18v4q-26 5 -44.5 18t-30 31t-16.5 39.5t-5 43.5v146q0 19 -2.5 35t-10 28t-21 19t-34.5 7h-27v91h65q56 0 87 -18t46 -44t18 -55t3 -51v-143q0 -94 86 -103v-92q-86 -9 -86 -103
v-143q0 -22 -3 -51t-18 -55.5t-46 -44.5t-87 -18h-65z" />
    <glyph glyph-name="asciitilde" unicode="~" horiz-adv-x="580" 
d="M530 319q-10 -16 -22.5 -31.5t-28.5 -27.5t-35.5 -19.5t-42.5 -7.5t-49.5 7t-70.5 28q-29 14 -52 23.5t-49 9.5q-16 0 -29.5 -7.5t-25 -18t-19.5 -22.5t-14 -22l-42 92q8 16 20 32t28.5 28.5t37 20t44.5 7.5q26 0 55 -8.5t74 -29.5q32 -14 51 -22t38 -8q16 0 30.5 7.5
t26 18.5t20.5 23t14 20z" />
    <glyph glyph-name="uni00A0" unicode="&#xa0;" horiz-adv-x="233" 
 />
    <glyph glyph-name="exclamdown" unicode="&#xa1;" horiz-adv-x="369" 
d="M93.0332 435.009q0 38.9951 23.498 61.4922q23.4971 22.498 67.4912 22.498q41.9951 0 66.4922 -22.9971q24.4971 -22.998 24.4971 -60.9932q0 -39.9951 -22.9971 -62.4922t-67.9922 -22.4971q-41.9951 0 -66.4922 23.4971t-24.4971 61.4922zM123.03 267.029h121.985
l22.9971 -458.943h-167.979z" />
    <glyph glyph-name="cent" unicode="&#xa2;" horiz-adv-x="594" 
d="M300 -112v105q-58 7 -99.5 28.5t-67.5 56t-38.5 80t-12.5 101.5q0 107 54.5 175.5t163.5 82.5v106h82v-103q48 -2 77 -10.5t49 -14.5v-115q-25 9 -55 17t-77 8q-72 0 -112 -33t-40 -108q0 -158 170 -158q38 0 69.5 8t51.5 19v-114q-18 -9 -50 -18t-83 -11v-102h-82z" />
    <glyph glyph-name="sterling" unicode="&#xa3;" horiz-adv-x="594" 
d="M549 0h-491v125h88v190h-88v101h88v55q0 42 12 85t41 77.5t77.5 56.5t121.5 22q39 0 76 -5t72 -14v-124q-36 10 -64 14.5t-60 4.5q-35 0 -59 -9.5t-39 -27t-21.5 -41t-6.5 -51.5v-43h165v-101h-165v-190h253v-125z" />
    <glyph glyph-name="currency" unicode="&#xa4;" horiz-adv-x="570" 
d="M285 212q28 0 52.5 11t43 29.5t29.5 43.5t11 53t-11 52.5t-29.5 43.5t-43 30t-52.5 11q-27 0 -51.5 -11t-43 -30t-29.5 -43.5t-11 -52.5t11 -53t29.5 -43.5t43 -29.5t51.5 -11zM478 479q16 -24 28 -57t12 -73q0 -39 -12 -72t-27 -57l66 -66l-63 -64l-67 66
q-24 -16 -57 -28t-74 -12t-73 11.5t-55 28.5l-67 -66l-63 64l66 66q-16 23 -27.5 56t-11.5 73q0 41 11.5 73t28.5 57l-66 67l62 62l67 -66q24 17 56.5 28t71.5 11q42 0 74.5 -11.5t55.5 -27.5l67 67l63 -63z" />
    <glyph glyph-name="yen" unicode="&#xa5;" horiz-adv-x="594" 
d="M374 147v-147h-150v147h-146v79h146v45l-10 19h-136v79h95l-172 331h173l127 -271l123 271h173l-172 -331h95v-79h-135l-11 -19v-45h146v-79h-146z" />
    <glyph glyph-name="brokenbar" unicode="&#xa6;" horiz-adv-x="278" 
d="M201 -150h-124v391h124v-391zM201 379h-124v391h124v-391z" />
    <glyph glyph-name="section" unicode="&#xa7;" horiz-adv-x="571" 
d="M78 22q52 -24 89 -31.5t75 -7.5q53 0 79 19t26 45q0 15 -7 26t-21.5 20t-35 18t-47.5 21l-52 23q-26 11 -49.5 25t-41 32t-27.5 41.5t-10 53.5q0 40 23 72.5t65 56.5q-32 17 -49.5 46t-17.5 67q0 33 14.5 62.5t43 52t71.5 35.5t101 13q52 0 93.5 -8t70.5 -17v-110
q-56 19 -90 24t-60 5q-16 0 -33 -2.5t-31 -9.5t-23 -18t-9 -28q0 -13 5.5 -22.5t17 -17.5t30.5 -17t46 -21q7 -4 23 -11t25 -10q26 -11 51.5 -24.5t46 -31.5t33 -42.5t12.5 -57.5q0 -39 -24 -72.5t-59 -58.5q26 -19 44 -45.5t18 -65.5q0 -78 -62.5 -124.5t-173.5 -46.5
q-42 0 -87 6t-93 22v114zM348 204q14 14 25 31.5t11 39.5q0 29 -24.5 50.5t-71.5 41.5q-2 1 -10 4.5t-17 8t-18 8t-12 5.5q-23 -15 -33 -32.5t-10 -32.5q0 -35 28 -58t79 -43z" />
    <glyph glyph-name="dieresis" unicode="&#xa8;" horiz-adv-x="583" 
d="M477 668q0 -32 -18.5 -50.5t-56.5 -18.5q-36 0 -55.5 18.5t-19.5 50.5q0 31 19.5 49t55.5 18q38 0 56.5 -17.5t18.5 -49.5zM256 668q0 -32 -19 -50.5t-56 -18.5t-56 18t-19 50t19.5 50t55.5 18q37 0 56 -17.5t19 -49.5z" />
    <glyph glyph-name="copyright" unicode="&#xa9;" horiz-adv-x="831" 
d="M538 259q0 -21 -0.5 -42t-0.5 -43q-19 -8 -44 -12.5t-58 -4.5q-52 0 -88.5 15.5t-59 41.5t-33 61.5t-10.5 76.5q0 91 48.5 143t142.5 52q32 0 58 -5.5t43 -10.5v-82q-20 8 -43.5 11.5t-43.5 3.5q-105 0 -105 -110q0 -61 29 -87t77 -26q21 0 44.5 4.5t43.5 13.5zM778 349
q0 -75 -28.5 -140.5t-78 -114.5t-115.5 -77.5t-141 -28.5q-74 0 -140 28.5t-115 77.5t-77.5 114.5t-28.5 140.5t28.5 141t77.5 115t115 77.5t140 28.5q75 0 141 -28.5t115.5 -77.5t78 -115t28.5 -141zM707 348q0 61 -23 114t-63 93t-93 63t-114 23q-60 0 -112.5 -23
t-91.5 -63t-62 -93t-23 -114q0 -60 23 -112.5t62 -91.5t91.5 -62t112.5 -23q61 0 114 23t93 62t63 91.5t23 112.5z" />
    <glyph glyph-name="ordfeminine" unicode="&#xaa;" horiz-adv-x="418" 
d="M262 505q-10 2 -22 3t-28 1q-41 0 -56 -10t-15 -31q0 -16 13 -27t39 -11q38 0 53.5 18.5t15.5 44.5v12zM368 358h-99v53h-1q-12 -21 -37.5 -40t-73.5 -19q-60 0 -91.5 27.5t-31.5 77.5q0 111 163 111q19 0 36.5 -2t28.5 -4v17q0 22 -14.5 36t-59.5 14q-32 0 -65.5 -7.5
t-53.5 -18.5v84q22 8 58 16.5t78 8.5q87 0 125 -33.5t38 -109.5v-211z" />
    <glyph glyph-name="guillemotleft" unicode="&#xab;" horiz-adv-x="581" 
d="M318 61h-133l-133 208l133 208h133l-121 -208zM541 61h-133l-133 208l133 208h133l-121 -208z" />
    <glyph glyph-name="logicalnot" unicode="&#xac;" horiz-adv-x="686" 
d="M610 140h-107v165h-451v103h558v-268z" />
    <glyph glyph-name="uni00AD" unicode="&#xad;" horiz-adv-x="478" 
d="M404 226h-330v112h330v-112z" />
    <glyph glyph-name="registered" unicode="&#xae;" horiz-adv-x="831" 
d="M778 349q0 -75 -28.5 -140.5t-78 -114.5t-115.5 -77.5t-141 -28.5q-74 0 -140 28.5t-115 77.5t-77.5 114.5t-28.5 140.5t28.5 141t77.5 115t115 77.5t140 28.5q75 0 141 -28.5t115.5 -77.5t78 -115t28.5 -141zM707 348q0 61 -23 114t-63 93t-93 63t-114 23
q-60 0 -112.5 -23t-91.5 -63t-62 -93t-23 -114q0 -60 23 -112.5t62 -91.5t91.5 -62t112.5 -23q61 0 114 23t93 62t63 91.5t23 112.5zM363 372h46q21 0 38.5 10t17.5 38q0 29 -16.5 37.5t-39.5 8.5h-46v-94zM588 163h-100l-84 138h-39v-138h-93v378h155q23 0 47 -4.5
t43.5 -18t32 -37t12.5 -60.5q0 -39 -20 -66t-50 -38z" />
    <glyph glyph-name="macron" unicode="&#xaf;" horiz-adv-x="605" 
d="M464 616h-323v90h323v-90z" />
    <glyph glyph-name="degree" unicode="&#xb0;" horiz-adv-x="396" 
d="M350 561q0 -32 -12 -59.5t-32.5 -47.5t-48.5 -32t-59 -12t-58.5 12t-48 32t-32.5 47.5t-12 59.5q0 31 12 59t32.5 48t48 32t58.5 12t59 -12t48.5 -32t32.5 -48t12 -59zM269 560q0 15 -6 27.5t-16 22.5t-23 15.5t-26 5.5q-27 0 -47.5 -21.5t-20.5 -49.5q0 -27 20.5 -48
t47.5 -21q28 0 49.5 21t21.5 48z" />
    <glyph glyph-name="plusminus" unicode="&#xb1;" horiz-adv-x="589" 
d="M540 60h-490v111h490v-111zM350 232h-111v149h-189v111h189v149h111v-149h190v-111h-190v-149z" />
    <glyph glyph-name="twosuperior" unicode="&#xb2;" 
d="M355 381h-315v96l75 54q32 22 54.5 39.5t36.5 32.5t20 29.5t6 30.5q0 24 -16 40t-56 16q-26 0 -53.5 -6.5t-50.5 -18.5v94q34 12 65.5 17.5t68.5 5.5q83 0 122 -34t39 -88q0 -26 -8.5 -49.5t-27.5 -47t-48 -47.5t-69 -51l-31 -20v-1h188v-92z" />
    <glyph glyph-name="threesuperior" unicode="&#xb3;" 
d="M49 484q30 -11 57.5 -15.5t52.5 -4.5q42 0 61 11.5t19 33.5q0 27 -18.5 38t-56.5 11h-67v78h58q35 0 55 10t20 33q0 21 -16.5 31.5t-54.5 10.5q-29 0 -56 -5.5t-47 -14.5v90q29 11 65 15.5t68 4.5q43 0 72.5 -9t47.5 -24.5t26 -35.5t8 -41q0 -40 -22.5 -64t-64.5 -35v-2
q29 -5 47.5 -15t29.5 -24t15.5 -30t4.5 -31q0 -57 -47 -91.5t-134 -34.5q-24 0 -57 4t-66 15v91z" />
    <glyph glyph-name="acute" unicode="&#xb4;" horiz-adv-x="605" 
d="M362 593h-106l86 144h168z" />
    <glyph glyph-name="mu" unicode="&#xb5;" horiz-adv-x="607" 
d="M196 13v-223h-136v720h136v-272q0 -26 4.5 -49.5t15 -41.5t29 -29t46.5 -11q30 0 52.5 12t37.5 34t22.5 51t7.5 64v242h136v-510h-136v76h-2q-21 -40 -59.5 -62t-82.5 -22q-20 0 -38 5.5t-31 15.5h-2z" />
    <glyph glyph-name="mu" unicode="&#x3bc;" horiz-adv-x="607" 
d="M196 13v-223h-136v720h136v-272q0 -26 4.5 -49.5t15 -41.5t29 -29t46.5 -11q30 0 52.5 12t37.5 34t22.5 51t7.5 64v242h136v-510h-136v76h-2q-21 -40 -59.5 -62t-82.5 -22q-20 0 -38 5.5t-31 15.5h-2z" />
    <glyph glyph-name="paragraph" unicode="&#xb6;" horiz-adv-x="569" 
d="M225 -210v545q-42 0 -75.5 13t-57 37t-36 57t-12.5 72q0 63 25.5 100t61 56t73 24.5t60.5 5.5h232v-910h-94v823h-83v-823h-94z" />
    <glyph glyph-name="periodcentered" unicode="&#xb7;" horiz-adv-x="237" 
d="M203 356q0 -40 -21.5 -62t-62.5 -22q-39 0 -62 22.5t-23 61.5q0 38 22 60t63 22q38 0 61 -22.5t23 -59.5z" />
    <glyph glyph-name="cedilla" unicode="&#xb8;" horiz-adv-x="452" 
d="M132 -161q28 -12 59 -12q21 0 37 10t16 31q0 22 -17.5 28.5t-37.5 6.5h-17.5t-16.5 -1l16 98h73l-10 -49q21 0 40 -5t34 -15.5t23.5 -27t8.5 -41.5q0 -43 -34.5 -71t-91.5 -28q-29 0 -51.5 4.5t-40.5 11.5z" />
    <glyph glyph-name="onesuperior" unicode="&#xb9;" 
d="M290 381h-110v303l-82 -55l-46 75l149 96h89v-419z" />
    <glyph glyph-name="ordmasculine" unicode="&#xba;" horiz-adv-x="418" 
d="M208 435q39 0 59 23t20 74t-19 73.5t-60 22.5q-36 0 -56.5 -22.5t-20.5 -73.5t21 -74t56 -23zM208 352q-90 0 -137.5 44.5t-47.5 135.5q0 87 49 133.5t136 46.5q91 0 139.5 -45.5t48.5 -134.5q0 -86 -48.5 -133t-139.5 -47z" />
    <glyph glyph-name="guillemotright" unicode="&#xbb;" horiz-adv-x="581" 
d="M174 61h-133l121 208l-121 208h133l133 -208zM397 61h-133l121 208l-121 208h133l133 -208z" />
    <glyph glyph-name="onequarter" unicode="&#xbc;" horiz-adv-x="894" 
d="M262 -22h-88l433 742h88zM275 282h-110v303l-82 -55l-46 75l149 96h89v-419zM781 1h-109v83h-204v85l182 251h131v-246h56v-90h-56v-83zM673 173v158h-1l-112 -158h113z" />
    <glyph glyph-name="onehalf" unicode="&#xbd;" horiz-adv-x="894" 
d="M239 -22h-88l433 742h88zM268 282h-110v303l-82 -55l-46 75l149 96h89v-419zM840 1h-315v96l75 54q32 22 54.5 39.5t36.5 32.5t20 29.5t6 30.5q0 24 -16 40t-56 16q-26 0 -53.5 -6.5t-50.5 -18.5v94q34 12 65.5 17.5t68.5 5.5q83 0 122 -34t39 -88q0 -26 -8.5 -49.5
t-27.5 -47t-48 -47.5t-69 -51l-31 -20v-1h188v-92z" />
    <glyph glyph-name="threequarters" unicode="&#xbe;" horiz-adv-x="894" 
d="M277 -22h-88l433 742h88zM787 1h-109v83h-204v85l182 251h131v-246h56v-90h-56v-83zM679 173v158h-1l-112 -158h113zM40 385q30 -11 57.5 -15.5t52.5 -4.5q42 0 61 11.5t19 33.5q0 27 -18.5 38t-56.5 11h-67v78h58q35 0 55 10t20 33q0 21 -16.5 31.5t-54.5 10.5
q-29 0 -56 -5.5t-47 -14.5v90q29 11 65 15.5t68 4.5q43 0 72.5 -9t47.5 -24.5t26 -35.5t8 -41q0 -40 -22.5 -64t-64.5 -35v-2q29 -5 47.5 -15t29.5 -24t15.5 -30t4.5 -31q0 -57 -47 -91.5t-134 -34.5q-24 0 -57 4t-66 15v91z" />
    <glyph glyph-name="questiondown" unicode="&#xbf;" horiz-adv-x="496" 
d="M219.033 286.027h133.984v-18.998q0 -35.9951 -11.499 -63.4922q-11.498 -27.4961 -27.9961 -48.9941q-16.498 -21.4971 -36.4961 -38.9951q-19.9971 -17.498 -36.4951 -34.4961q-16.498 -16.9971 -27.9971 -35.4951q-11.498 -18.498 -11.498 -41.4951
q0 -37.9951 28.9961 -58.4932q28.9971 -20.4971 79.9902 -20.4971q40.9951 0 75.4912 8.99902q34.4951 8.99902 72.4912 26.9961v-131.983q-40.9951 -16.998 -90.4893 -24.9971t-103.487 -7.99902q-62.9922 0 -106.987 14.498q-43.9941 14.498 -71.4912 39.4951
q-27.4961 24.9971 -39.4951 56.9932q-11.998 31.9961 -11.998 67.9922q0 41.9941 13.498 71.9912q13.498 29.9961 34.4961 53.4932q20.9971 23.4971 44.4941 41.9951q23.4971 18.4971 44.4941 37.4951q20.998 18.998 34.4961 40.9951t13.498 51.9932v12.999z
M195.037 435.009q0 38.9951 23.4971 61.4922q23.4971 22.498 68.4912 22.498q41.9951 0 66.4922 -22.9971q24.4971 -22.998 24.4971 -60.9932q0 -39.9951 -22.9971 -62.4922q-22.998 -22.4971 -67.9922 -22.4971q-41.9951 0 -66.9922 23.4971
q-24.9961 23.4971 -24.9961 61.4922z" />
    <glyph glyph-name="Agrave" unicode="&#xc0;" horiz-adv-x="683" 
d="M474 154h-269l-50 -154h-148l239 700h195l236 -700h-153zM246 285h187l-93 294zM411 770h-111l-161 154h180z" />
    <glyph glyph-name="Aacute" unicode="&#xc1;" horiz-adv-x="683" 
d="M474 154h-269l-50 -154h-148l239 700h195l236 -700h-153zM246 285h187l-93 294zM389 770h-110l91 154h180z" />
    <glyph glyph-name="Acircumflex" unicode="&#xc2;" horiz-adv-x="683" 
d="M474 154h-269l-50 -154h-148l239 700h195l236 -700h-153zM246 285h187l-93 294zM535 770h-118l-74 75l-74 -75h-118l116 144h151z" />
    <glyph glyph-name="Atilde" unicode="&#xc3;" horiz-adv-x="683" 
d="M474 154h-269l-50 -154h-148l239 700h195l236 -700h-153zM246 285h187l-93 294zM540 903q-5 -63 -35 -96.5t-73 -33.5q-23 0 -42.5 6t-48.5 20q-23 9 -36.5 16.5t-30.5 7.5q-14 0 -24.5 -12t-13.5 -38l-78 12q3 64 32.5 97t74.5 33q25 0 46.5 -7.5t44.5 -19.5
q26 -11 40.5 -16.5t28.5 -5.5t24.5 12t13.5 37z" />
    <glyph glyph-name="Adieresis" unicode="&#xc4;" horiz-adv-x="683" 
d="M474 154h-269l-50 -154h-148l239 700h195l236 -700h-153zM246 285h187l-93 294zM535 840q0 -33 -19.5 -52t-56.5 -19q-39 0 -59.5 19.5t-20.5 51.5q0 33 20.5 51.5t58.5 18.5t57.5 -18.5t19.5 -51.5zM304 840q0 -33 -20 -52t-59 -19q-36 0 -56.5 19.5t-20.5 51.5
q0 33 20.5 51.5t56.5 18.5q39 0 59 -18.5t20 -51.5z" />
    <glyph glyph-name="Aring" unicode="&#xc5;" horiz-adv-x="683" 
d="M474 154h-269l-50 -154h-148l239 700h195l236 -700h-153zM246 285h187l-93 294zM342 827q22 0 37 14.5t15 35.5q0 20 -15 35t-37 15q-20 0 -34 -15t-14 -35q0 -21 14 -35.5t34 -14.5zM342 755q-26 0 -47.5 9.5t-38 26t-25.5 38.5t-9 48q0 25 9 47t25.5 38.5t38 26
t47.5 9.5t48 -9.5t38.5 -26t26 -38.5t9.5 -47q0 -26 -9.5 -48t-26 -38.5t-38.5 -26t-48 -9.5z" />
    <glyph glyph-name="AE" unicode="&#xc6;" horiz-adv-x="1005" 
d="M509 285v293h-2l-177 -293h179zM958 0h-449v154h-255l-93 -154h-155l427 700h525v-132h-299v-149h264v-123h-264v-164h299v-132z" />
    <glyph glyph-name="Ccedilla" unicode="&#xc7;" horiz-adv-x="618" 
d="M288 -176q28 -14 65 -14q23 0 42 10.5t19 33.5t-20 30.5t-43 7.5q-8 0 -18 -0.5t-18 -2.5l15 102q-144 17 -215 105.5t-71 244.5q0 181 89 276t276 95q57 0 98 -8.5t65 -16.5v-138q-33 12 -73 18.5t-69 6.5q-116 0 -171.5 -52t-55.5 -172q0 -115 56 -169t172 -54
q36 0 70 7t72 24v-141q-27 -12 -66.5 -20t-96.5 -9l-6 -41q22 0 43.5 -5.5t38 -16.5t26.5 -29t10 -45q0 -24 -11.5 -44.5t-31 -35.5t-46 -23t-56.5 -8q-34 0 -57.5 4.5t-43.5 12.5z" />
    <glyph glyph-name="Egrave" unicode="&#xc8;" horiz-adv-x="564" 
d="M517 0h-449v700h449v-132h-299v-149h263v-123h-263v-164h299v-132zM352 770h-111l-161 154h180z" />
    <glyph glyph-name="Eacute" unicode="&#xc9;" horiz-adv-x="564" 
d="M517 0h-449v700h449v-132h-299v-149h263v-123h-263v-164h299v-132zM329 770h-110l91 154h180z" />
    <glyph glyph-name="Ecircumflex" unicode="&#xca;" horiz-adv-x="564" 
d="M517 0h-449v700h449v-132h-299v-149h263v-123h-263v-164h299v-132zM476 770h-118l-74 75l-74 -75h-118l116 144h151z" />
    <glyph glyph-name="Edieresis" unicode="&#xcb;" horiz-adv-x="564" 
d="M517 0h-449v700h449v-132h-299v-149h263v-123h-263v-164h299v-132zM483 840q0 -33 -19.5 -52t-56.5 -19q-39 0 -59.5 19.5t-20.5 51.5q0 33 20.5 51.5t58.5 18.5t57.5 -18.5t19.5 -51.5zM252 840q0 -33 -20 -52t-59 -19q-36 0 -56.5 19.5t-20.5 51.5q0 33 20.5 51.5
t56.5 18.5q39 0 59 -18.5t20 -51.5z" />
    <glyph glyph-name="Igrave" unicode="&#xcc;" horiz-adv-x="286" 
d="M218 0h-150v700h150v-700zM205 770h-111l-161 154h180z" />
    <glyph glyph-name="Iacute" unicode="&#xcd;" horiz-adv-x="286" 
d="M218 0h-150v700h150v-700zM193 770h-110l91 154h180z" />
    <glyph glyph-name="Icircumflex" unicode="&#xce;" horiz-adv-x="286" 
d="M218 0h-150v700h150v-700zM336 770h-118l-74 75l-74 -75h-118l116 144h151z" />
    <glyph glyph-name="Idieresis" unicode="&#xcf;" horiz-adv-x="286" 
d="M218 0h-150v700h150v-700zM338 840q0 -33 -19.5 -52t-56.5 -19q-39 0 -59.5 19.5t-20.5 51.5q0 33 20.5 51.5t58.5 18.5t57.5 -18.5t19.5 -51.5zM107 840q0 -33 -20 -52t-59 -19q-36 0 -56.5 19.5t-20.5 51.5q0 33 20.5 51.5t56.5 18.5q39 0 59 -18.5t20 -51.5z" />
    <glyph glyph-name="Eth" unicode="&#xd0;" horiz-adv-x="744" 
d="M104 300h-86v118h86v282h244q100 0 168 -22.5t108.5 -65.5t58 -105.5t17.5 -143.5q0 -181 -89.5 -272t-276.5 -91h-230v300zM254 300v-168h75q117 0 166.5 55t49.5 169q0 57 -10.5 97t-34.5 65.5t-63.5 37.5t-97.5 12h-85v-150h148v-118h-148z" />
    <glyph glyph-name="Ntilde" unicode="&#xd1;" horiz-adv-x="724" 
d="M656 0h-166l-276 493v-493h-146v700h176l266 -478v478h146v-700zM560 903q-5 -63 -35 -96.5t-73 -33.5q-23 0 -42.5 6t-48.5 20q-23 9 -36.5 16.5t-30.5 7.5q-14 0 -24.5 -12t-13.5 -38l-78 12q3 64 32.5 97t74.5 33q25 0 46.5 -7.5t44.5 -19.5q26 -11 40.5 -16.5
t28.5 -5.5t24.5 12t13.5 37z" />
    <glyph glyph-name="Ograve" unicode="&#xd2;" horiz-adv-x="765" 
d="M389 120q38 0 70 14t55 42.5t35.5 71.5t12.5 102q0 119 -50 174.5t-132 55.5q-37 0 -69.5 -14t-56.5 -42.5t-37.5 -72t-13.5 -101.5q0 -59 14.5 -102t39.5 -71.5t59 -42.5t73 -14zM384 -12q-76 0 -138.5 23.5t-107.5 69.5t-69.5 113.5t-24.5 155.5t25.5 155.5t70.5 113.5
t106.5 69.5t133.5 23.5q81 0 144.5 -25t107 -71.5t66.5 -114t23 -151.5q0 -93 -25.5 -161.5t-71 -113t-107 -66t-133.5 -21.5zM452 770h-111l-161 154h180z" />
    <glyph glyph-name="Oacute" unicode="&#xd3;" horiz-adv-x="765" 
d="M389 120q38 0 70 14t55 42.5t35.5 71.5t12.5 102q0 119 -50 174.5t-132 55.5q-37 0 -69.5 -14t-56.5 -42.5t-37.5 -72t-13.5 -101.5q0 -59 14.5 -102t39.5 -71.5t59 -42.5t73 -14zM384 -12q-76 0 -138.5 23.5t-107.5 69.5t-69.5 113.5t-24.5 155.5t25.5 155.5t70.5 113.5
t106.5 69.5t133.5 23.5q81 0 144.5 -25t107 -71.5t66.5 -114t23 -151.5q0 -93 -25.5 -161.5t-71 -113t-107 -66t-133.5 -21.5zM433 770h-110l91 154h180z" />
    <glyph glyph-name="Ocircumflex" unicode="&#xd4;" horiz-adv-x="765" 
d="M389 120q38 0 70 14t55 42.5t35.5 71.5t12.5 102q0 119 -50 174.5t-132 55.5q-37 0 -69.5 -14t-56.5 -42.5t-37.5 -72t-13.5 -101.5q0 -59 14.5 -102t39.5 -71.5t59 -42.5t73 -14zM384 -12q-76 0 -138.5 23.5t-107.5 69.5t-69.5 113.5t-24.5 155.5t25.5 155.5t70.5 113.5
t106.5 69.5t133.5 23.5q81 0 144.5 -25t107 -71.5t66.5 -114t23 -151.5q0 -93 -25.5 -161.5t-71 -113t-107 -66t-133.5 -21.5zM575 770h-118l-74 75l-74 -75h-118l116 144h151z" />
    <glyph glyph-name="Otilde" unicode="&#xd5;" horiz-adv-x="765" 
d="M389 120q38 0 70 14t55 42.5t35.5 71.5t12.5 102q0 119 -50 174.5t-132 55.5q-37 0 -69.5 -14t-56.5 -42.5t-37.5 -72t-13.5 -101.5q0 -59 14.5 -102t39.5 -71.5t59 -42.5t73 -14zM384 -12q-76 0 -138.5 23.5t-107.5 69.5t-69.5 113.5t-24.5 155.5t25.5 155.5t70.5 113.5
t106.5 69.5t133.5 23.5q81 0 144.5 -25t107 -71.5t66.5 -114t23 -151.5q0 -93 -25.5 -161.5t-71 -113t-107 -66t-133.5 -21.5zM580 903q-5 -63 -35 -96.5t-73 -33.5q-23 0 -42.5 6t-48.5 20q-23 9 -36.5 16.5t-30.5 7.5q-14 0 -24.5 -12t-13.5 -38l-78 12q3 64 32.5 97
t74.5 33q25 0 46.5 -7.5t44.5 -19.5q26 -11 40.5 -16.5t28.5 -5.5t24.5 12t13.5 37z" />
    <glyph glyph-name="Odieresis" unicode="&#xd6;" horiz-adv-x="765" 
d="M389 120q38 0 70 14t55 42.5t35.5 71.5t12.5 102q0 119 -50 174.5t-132 55.5q-37 0 -69.5 -14t-56.5 -42.5t-37.5 -72t-13.5 -101.5q0 -59 14.5 -102t39.5 -71.5t59 -42.5t73 -14zM384 -12q-76 0 -138.5 23.5t-107.5 69.5t-69.5 113.5t-24.5 155.5t25.5 155.5t70.5 113.5
t106.5 69.5t133.5 23.5q81 0 144.5 -25t107 -71.5t66.5 -114t23 -151.5q0 -93 -25.5 -161.5t-71 -113t-107 -66t-133.5 -21.5zM575 840q0 -33 -19.5 -52t-56.5 -19q-39 0 -59.5 19.5t-20.5 51.5q0 33 20.5 51.5t58.5 18.5t57.5 -18.5t19.5 -51.5zM344 840q0 -33 -20 -52
t-59 -19q-36 0 -56.5 19.5t-20.5 51.5q0 33 20.5 51.5t56.5 18.5q39 0 59 -18.5t20 -51.5z" />
    <glyph glyph-name="multiply" unicode="&#xd7;" horiz-adv-x="555" 
d="M135 547l143 -144l143 144l79 -79l-144 -143l144 -143l-79 -79l-143 143l-143 -143l-79 79l144 143l-144 143z" />
    <glyph glyph-name="Oslash" unicode="&#xd8;" horiz-adv-x="765" 
d="M384 -12q-112 0 -189 44l-57 -74l-65 48l58 77q-87 93 -87 267q0 88 23 155.5t66.5 113.5t106 69.5t140.5 23.5q60 0 108 -12t87 -35l58 77l63 -49l-59 -78q43 -47 63.5 -113.5t20.5 -151.5q0 -93 -23.5 -161.5t-67.5 -113t-106 -66t-140 -21.5zM202 350q0 -87 27 -139
l259 341q-41 28 -108 28q-85 0 -131.5 -56t-46.5 -174zM389 120q87 0 131 56t44 174q0 84 -24 137l-257 -339q45 -28 106 -28z" />
    <glyph glyph-name="Ugrave" unicode="&#xd9;" horiz-adv-x="692" 
d="M480 700h150v-400q0 -163 -72 -237.5t-212 -74.5q-66 0 -119 17.5t-89.5 55t-56 97t-19.5 143.5v399h150v-380q0 -47 6.5 -83t21.5 -61t41 -37.5t65 -12.5q42 0 68 13t41 37.5t20 60.5t5 83v380zM424 770h-111l-161 154h180z" />
    <glyph glyph-name="Uacute" unicode="&#xda;" horiz-adv-x="692" 
d="M480 700h150v-400q0 -163 -72 -237.5t-212 -74.5q-66 0 -119 17.5t-89.5 55t-56 97t-19.5 143.5v399h150v-380q0 -47 6.5 -83t21.5 -61t41 -37.5t65 -12.5q42 0 68 13t41 37.5t20 60.5t5 83v380zM396 770h-110l91 154h180z" />
    <glyph glyph-name="Ucircumflex" unicode="&#xdb;" horiz-adv-x="692" 
d="M480 700h150v-400q0 -163 -72 -237.5t-212 -74.5q-66 0 -119 17.5t-89.5 55t-56 97t-19.5 143.5v399h150v-380q0 -47 6.5 -83t21.5 -61t41 -37.5t65 -12.5q42 0 68 13t41 37.5t20 60.5t5 83v380zM539 770h-118l-74 75l-74 -75h-118l116 144h151z" />
    <glyph glyph-name="Udieresis" unicode="&#xdc;" horiz-adv-x="692" 
d="M480 700h150v-400q0 -163 -72 -237.5t-212 -74.5q-66 0 -119 17.5t-89.5 55t-56 97t-19.5 143.5v399h150v-380q0 -47 6.5 -83t21.5 -61t41 -37.5t65 -12.5q42 0 68 13t41 37.5t20 60.5t5 83v380zM540 840q0 -33 -19.5 -52t-56.5 -19q-39 0 -59.5 19.5t-20.5 51.5
q0 33 20.5 51.5t58.5 18.5t57.5 -18.5t19.5 -51.5zM309 840q0 -33 -20 -52t-59 -19q-36 0 -56.5 19.5t-20.5 51.5q0 33 20.5 51.5t56.5 18.5q39 0 59 -18.5t20 -51.5z" />
    <glyph glyph-name="Yacute" unicode="&#xdd;" horiz-adv-x="636" 
d="M394 0h-150v267l-244 433h174l147 -267l142 267h173l-242 -433v-267zM368 770h-110l91 154h180z" />
    <glyph glyph-name="Thorn" unicode="&#xde;" horiz-adv-x="616" 
d="M215 275h87q67 0 96.5 24.5t29.5 77.5q0 54 -29.5 77t-98.5 23h-85v-202zM218 -6h-150v712h150v-97h96q133 0 201 -54t68 -173q0 -117 -68 -178t-213 -61h-84v-149z" />
    <glyph glyph-name="germandbls" unicode="&#xdf;" horiz-adv-x="623" 
d="M269 109q14 -5 31.5 -7.5t37.5 -2.5q49 0 78.5 27.5t29.5 92.5q0 36 -9 59.5t-25.5 36.5t-38.5 18t-48 5h-43v106h34q43 0 70 24.5t27 82.5q0 51 -28.5 73t-72.5 22q-35 0 -57 -11.5t-35.5 -32t-18.5 -48t-5 -59.5v-495h-136v490q0 64 14.5 114t46 84.5t81 52t120.5 17.5
q109 0 170.5 -50.5t61.5 -141.5q0 -69 -32 -108t-82 -56v-3q32 -5 59.5 -18.5t47 -36.5t30.5 -56t11 -76q0 -45 -13.5 -85.5t-41.5 -70.5t-71 -48t-101 -18q-28 0 -50 2.5t-42 8.5v108z" />
    <glyph glyph-name="agrave" unicode="&#xe0;" horiz-adv-x="542" 
d="M349 230q-40 -3 -72.5 -7.5t-56 -13t-36 -21.5t-12.5 -33q0 -27 17.5 -42t55.5 -15q45 0 74.5 28t29.5 78v26zM485 0h-126v83h-2q-9 -17 -23 -33.5t-34.5 -29.5t-47 -21t-59.5 -8q-75 0 -118 39.5t-43 108.5q0 47 21.5 79t62 52t99.5 30.5t134 14.5v8q0 41 -22 63t-81 22
q-44 0 -84.5 -10.5t-75.5 -23.5l-22 103q45 23 98 33.5t107 10.5q59 0 100 -13.5t67 -41t37.5 -69t11.5 -98.5v-299zM347 593h-106l-148 144h167z" />
    <glyph glyph-name="aacute" unicode="&#xe1;" horiz-adv-x="542" 
d="M349 230q-40 -3 -72.5 -7.5t-56 -13t-36 -21.5t-12.5 -33q0 -27 17.5 -42t55.5 -15q45 0 74.5 28t29.5 78v26zM485 0h-126v83h-2q-9 -17 -23 -33.5t-34.5 -29.5t-47 -21t-59.5 -8q-75 0 -118 39.5t-43 108.5q0 47 21.5 79t62 52t99.5 30.5t134 14.5v8q0 41 -22 63t-81 22
q-44 0 -84.5 -10.5t-75.5 -23.5l-22 103q45 23 98 33.5t107 10.5q59 0 100 -13.5t67 -41t37.5 -69t11.5 -98.5v-299zM323 593h-106l86 144h168z" />
    <glyph glyph-name="acircumflex" unicode="&#xe2;" horiz-adv-x="542" 
d="M349 230q-40 -3 -72.5 -7.5t-56 -13t-36 -21.5t-12.5 -33q0 -27 17.5 -42t55.5 -15q45 0 74.5 28t29.5 78v26zM485 0h-126v83h-2q-9 -17 -23 -33.5t-34.5 -29.5t-47 -21t-59.5 -8q-75 0 -118 39.5t-43 108.5q0 47 21.5 79t62 52t99.5 30.5t134 14.5v8q0 41 -22 63t-81 22
q-44 0 -84.5 -10.5t-75.5 -23.5l-22 103q45 23 98 33.5t107 10.5q59 0 100 -13.5t67 -41t37.5 -69t11.5 -98.5v-299zM452 591h-107l-72 77l-73 -77h-107l111 144h137z" />
    <glyph glyph-name="atilde" unicode="&#xe3;" horiz-adv-x="542" 
d="M349 230q-40 -3 -72.5 -7.5t-56 -13t-36 -21.5t-12.5 -33q0 -27 17.5 -42t55.5 -15q45 0 74.5 28t29.5 78v26zM485 0h-126v83h-2q-9 -17 -23 -33.5t-34.5 -29.5t-47 -21t-59.5 -8q-75 0 -118 39.5t-43 108.5q0 47 21.5 79t62 52t99.5 30.5t134 14.5v8q0 41 -22 63t-81 22
q-44 0 -84.5 -10.5t-75.5 -23.5l-22 103q45 23 98 33.5t107 10.5q59 0 100 -13.5t67 -41t37.5 -69t11.5 -98.5v-299zM453 713q-4 -57 -32.5 -88.5t-70.5 -31.5q-21 0 -39 5.5t-47 18.5q-21 9 -34.5 15.5t-29.5 6.5q-12 0 -22.5 -11t-13.5 -35l-74 12q3 59 30.5 89.5
t71.5 30.5q23 0 43.5 -7t43.5 -17q24 -10 37.5 -15.5t27.5 -5.5q30 0 36 45z" />
    <glyph glyph-name="adieresis" unicode="&#xe4;" horiz-adv-x="542" 
d="M349 230q-40 -3 -72.5 -7.5t-56 -13t-36 -21.5t-12.5 -33q0 -27 17.5 -42t55.5 -15q45 0 74.5 28t29.5 78v26zM485 0h-126v83h-2q-9 -17 -23 -33.5t-34.5 -29.5t-47 -21t-59.5 -8q-75 0 -118 39.5t-43 108.5q0 47 21.5 79t62 52t99.5 30.5t134 14.5v8q0 41 -22 63t-81 22
q-44 0 -84.5 -10.5t-75.5 -23.5l-22 103q45 23 98 33.5t107 10.5q59 0 100 -13.5t67 -41t37.5 -69t11.5 -98.5v-299zM455 668q0 -32 -18.5 -50.5t-56.5 -18.5q-36 0 -55.5 18.5t-19.5 50.5q0 31 19.5 49t55.5 18q38 0 56.5 -17.5t18.5 -49.5zM234 668q0 -32 -19 -50.5
t-56 -18.5t-56 18t-19 50t19.5 50t55.5 18q37 0 56 -17.5t19 -49.5z" />
    <glyph glyph-name="aring" unicode="&#xe5;" horiz-adv-x="542" 
d="M349 230q-40 -3 -72.5 -7.5t-56 -13t-36 -21.5t-12.5 -33q0 -27 17.5 -42t55.5 -15q45 0 74.5 28t29.5 78v26zM485 0h-126v83h-2q-9 -17 -23 -33.5t-34.5 -29.5t-47 -21t-59.5 -8q-75 0 -118 39.5t-43 108.5q0 47 21.5 79t62 52t99.5 30.5t134 14.5v8q0 41 -22 63t-81 22
q-44 0 -84.5 -10.5t-75.5 -23.5l-22 103q45 23 98 33.5t107 10.5q59 0 100 -13.5t67 -41t37.5 -69t11.5 -98.5v-299zM272 637q20 0 34 14t14 34t-14 34t-34 14q-22 0 -35 -14t-13 -34t13 -34t35 -14zM272 571q-49 0 -81.5 32.5t-32.5 81.5q0 24 8.5 44.5t24 35.5t36.5 24
t45 9t45 -9t36 -24t24 -35.5t9 -44.5t-9 -45t-24 -36.5t-36 -24t-45 -8.5z" />
    <glyph glyph-name="ae" unicode="&#xe6;" horiz-adv-x="883" 
d="M713 306q0 49 -25 79t-79 30t-82.5 -28t-36.5 -81h223zM349 230q-40 -3 -72.5 -7.5t-56 -13t-36 -21.5t-12.5 -33q0 -27 17.5 -42t55.5 -15q45 0 74.5 28t29.5 78v26zM195 -10q-75 0 -119 40t-44 109q0 47 21.5 79t62 52t99.5 30.5t134 14.5v8q0 44 -22.5 64.5
t-80.5 20.5q-44 0 -84.5 -10.5t-75.5 -23.5v115q36 12 81 22t102 10q62 0 102 -15t65 -47q65 62 171 62q68 0 114.5 -20.5t75.5 -55.5t41.5 -82t12.5 -101v-38h-361q8 -64 46 -94.5t114 -30.5q56 0 98 11t68 27v-107q-20 -16 -69 -28t-113 -12q-83 0 -137.5 22.5t-88.5 67.5
q-24 -28 -51 -45.5t-54.5 -27.5t-55 -13.5t-52.5 -3.5z" />
    <glyph glyph-name="ccedilla" unicode="&#xe7;" horiz-adv-x="502" 
d="M217 -161q14 -6 27.5 -9t31.5 -3q20 0 36.5 10t16.5 31q0 11 -5.5 18t-13.5 10.5t-18 5t-20 1.5h-16t-16 -1l13 90q-57 7 -98.5 29t-67.5 56.5t-38.5 80.5t-12.5 101q0 60 17 108t50.5 82.5t84.5 53t119 18.5q31 0 55 -2.5t42.5 -6.5t32.5 -8.5t25 -8.5v-115
q-25 9 -55 17t-77 8q-72 0 -112 -33t-40 -108q0 -158 170 -158q38 0 70 8t52 19v-114q-20 -9 -54.5 -18.5t-89.5 -11.5l-7 -38q21 0 40 -5t33.5 -15.5t23.5 -27t9 -41.5q0 -43 -35 -71t-91 -28q-29 0 -52 4.5t-41 11.5z" />
    <glyph glyph-name="egrave" unicode="&#xe8;" horiz-adv-x="569" 
d="M511 34q-10 -7 -28 -15t-42.5 -14.5t-55 -11t-65.5 -4.5q-148 0 -216 70.5t-68 201.5q0 60 17.5 108t50.5 82t80.5 52t108.5 18q68 0 114.5 -20.5t75.5 -55.5t41.5 -82.5t12.5 -101.5v-37h-361q8 -64 46 -94.5t114 -30.5q56 0 91.5 10.5t61.5 24.5zM399 306
q1 47 -24.5 78t-79.5 31q-104 0 -118 -109h222zM353 593h-106l-148 144h167z" />
    <glyph glyph-name="eacute" unicode="&#xe9;" horiz-adv-x="569" 
d="M511 34q-10 -7 -28 -15t-42.5 -14.5t-55 -11t-65.5 -4.5q-148 0 -216 70.5t-68 201.5q0 60 17.5 108t50.5 82t80.5 52t108.5 18q68 0 114.5 -20.5t75.5 -55.5t41.5 -82.5t12.5 -101.5v-37h-361q8 -64 46 -94.5t114 -30.5q56 0 91.5 10.5t61.5 24.5zM399 306
q1 47 -24.5 78t-79.5 31q-104 0 -118 -109h222zM341 593h-106l86 144h168z" />
    <glyph glyph-name="ecircumflex" unicode="&#xea;" horiz-adv-x="569" 
d="M511 34q-10 -7 -28 -15t-42.5 -14.5t-55 -11t-65.5 -4.5q-148 0 -216 70.5t-68 201.5q0 60 17.5 108t50.5 82t80.5 52t108.5 18q68 0 114.5 -20.5t75.5 -55.5t41.5 -82.5t12.5 -101.5v-37h-361q8 -64 46 -94.5t114 -30.5q56 0 91.5 10.5t61.5 24.5zM399 306
q1 47 -24.5 78t-79.5 31q-104 0 -118 -109h222zM470 591h-107l-72 77l-73 -77h-107l111 144h137z" />
    <glyph glyph-name="edieresis" unicode="&#xeb;" horiz-adv-x="569" 
d="M511 34q-10 -7 -28 -15t-42.5 -14.5t-55 -11t-65.5 -4.5q-148 0 -216 70.5t-68 201.5q0 60 17.5 108t50.5 82t80.5 52t108.5 18q68 0 114.5 -20.5t75.5 -55.5t41.5 -82.5t12.5 -101.5v-37h-361q8 -64 46 -94.5t114 -30.5q56 0 91.5 10.5t61.5 24.5zM399 306
q1 47 -24.5 78t-79.5 31q-104 0 -118 -109h222zM477 668q0 -32 -18.5 -50.5t-56.5 -18.5q-36 0 -55.5 18.5t-19.5 50.5q0 31 19.5 49t55.5 18q38 0 56.5 -17.5t18.5 -49.5zM256 668q0 -32 -19 -50.5t-56 -18.5t-56 18t-19 50t19.5 50t55.5 18q37 0 56 -17.5t19 -49.5z" />
    <glyph glyph-name="igrave" unicode="&#xec;" horiz-adv-x="260" 
d="M198 0h-136v510h136v-510zM185 593h-106l-148 144h167z" />
    <glyph glyph-name="iacute" unicode="&#xed;" horiz-adv-x="260" 
d="M198 0h-136v510h136v-510zM182 593h-106l86 144h168z" />
    <glyph glyph-name="icircumflex" unicode="&#xee;" horiz-adv-x="260" 
d="M198 0h-136v510h136v-510zM311 591h-107l-72 77l-73 -77h-107l111 144h137z" />
    <glyph glyph-name="idieresis" unicode="&#xef;" horiz-adv-x="260" 
d="M198 0h-136v510h136v-510zM316 668q0 -32 -18.5 -50.5t-56.5 -18.5q-36 0 -55.5 18.5t-19.5 50.5q0 31 19.5 49t55.5 18q38 0 56.5 -17.5t18.5 -49.5zM95 668q0 -32 -19 -50.5t-56 -18.5t-56 18t-19 50t19.5 50t55.5 18q37 0 56 -17.5t19 -49.5z" />
    <glyph glyph-name="eth" unicode="&#xf0;" horiz-adv-x="606" 
d="M405 646q89 -83 126.5 -182t37.5 -203q0 -76 -24 -128t-63 -84t-88 -46t-98 -14q-70 0 -119 18.5t-80.5 52.5t-46 81.5t-14.5 105.5q0 121 62 187t175 66q30 0 63 -9t67 -41l3 2q-12 34 -37.5 69t-74.5 70l-120 -59l-30 59l79 38q-35 16 -66 24.5t-57 13.5l51 91
q47 -8 94.5 -25.5t96.5 -43.5l130 64l30 -59zM303 102q62 0 93 34.5t31 112.5q0 72 -30 109.5t-94 37.5q-60 0 -92.5 -34.5t-32.5 -112.5t34 -112.5t91 -34.5z" />
    <glyph glyph-name="ntilde" unicode="&#xf1;" horiz-adv-x="603" 
d="M547 0h-136v264q0 40 -5 67t-16 43t-30 22.5t-46 6.5q-63 0 -90.5 -42.5t-27.5 -124.5v-236h-136v510h136v-71h2q28 42 71.5 61t94.5 19q91 0 137 -48.5t46 -155.5v-315zM484 713q-4 -57 -32.5 -88.5t-70.5 -31.5q-21 0 -39 5.5t-47 18.5q-21 9 -34.5 15.5t-29.5 6.5
q-12 0 -22.5 -11t-13.5 -35l-74 12q3 59 30.5 89.5t71.5 30.5q23 0 43.5 -7t43.5 -17q24 -10 37.5 -15.5t27.5 -5.5q30 0 36 45z" />
    <glyph glyph-name="ograve" unicode="&#xf2;" horiz-adv-x="605" 
d="M303 102q62 0 93 37t31 116q0 81 -30 117.5t-94 36.5q-60 0 -92.5 -37t-32.5 -117t34 -116.5t91 -36.5zM303 -11q-129 0 -198 65t-69 201q0 131 71 198.5t196 67.5q127 0 196.5 -66.5t69.5 -199.5q0 -129 -69 -197.5t-197 -68.5zM367 593h-106l-148 144h167z" />
    <glyph glyph-name="oacute" unicode="&#xf3;" horiz-adv-x="605" 
d="M303 102q62 0 93 37t31 116q0 81 -30 117.5t-94 36.5q-60 0 -92.5 -37t-32.5 -117t34 -116.5t91 -36.5zM303 -11q-129 0 -198 65t-69 201q0 131 71 198.5t196 67.5q127 0 196.5 -66.5t69.5 -199.5q0 -129 -69 -197.5t-197 -68.5zM362 593h-106l86 144h168z" />
    <glyph glyph-name="ocircumflex" unicode="&#xf4;" horiz-adv-x="605" 
d="M303 102q62 0 93 37t31 116q0 81 -30 117.5t-94 36.5q-60 0 -92.5 -37t-32.5 -117t34 -116.5t91 -36.5zM303 -11q-129 0 -198 65t-69 201q0 131 71 198.5t196 67.5q127 0 196.5 -66.5t69.5 -199.5q0 -129 -69 -197.5t-197 -68.5zM482 591h-107l-72 77l-73 -77h-107
l111 144h137z" />
    <glyph glyph-name="otilde" unicode="&#xf5;" horiz-adv-x="605" 
d="M303 102q62 0 93 37t31 116q0 81 -30 117.5t-94 36.5q-60 0 -92.5 -37t-32.5 -117t34 -116.5t91 -36.5zM303 -11q-129 0 -198 65t-69 201q0 131 71 198.5t196 67.5q127 0 196.5 -66.5t69.5 -199.5q0 -129 -69 -197.5t-197 -68.5zM484 713q-4 -57 -32.5 -88.5t-70.5 -31.5
q-21 0 -39 5.5t-47 18.5q-21 9 -34.5 15.5t-29.5 6.5q-12 0 -22.5 -11t-13.5 -35l-74 12q3 59 30.5 89.5t71.5 30.5q23 0 43.5 -7t43.5 -17q24 -10 37.5 -15.5t27.5 -5.5q30 0 36 45z" />
    <glyph glyph-name="odieresis" unicode="&#xf6;" horiz-adv-x="605" 
d="M303 102q62 0 93 37t31 116q0 81 -30 117.5t-94 36.5q-60 0 -92.5 -37t-32.5 -117t34 -116.5t91 -36.5zM303 -11q-129 0 -198 65t-69 201q0 131 71 198.5t196 67.5q127 0 196.5 -66.5t69.5 -199.5q0 -129 -69 -197.5t-197 -68.5zM487 668q0 -32 -18.5 -50.5t-56.5 -18.5
q-36 0 -55.5 18.5t-19.5 50.5q0 31 19.5 49t55.5 18q38 0 56.5 -17.5t18.5 -49.5zM266 668q0 -32 -19 -50.5t-56 -18.5t-56 18t-19 50t19.5 50t55.5 18q37 0 56 -17.5t19 -49.5z" />
    <glyph glyph-name="divide" unicode="&#xf7;" horiz-adv-x="589" 
d="M374 135q0 -37 -20.5 -57.5t-58.5 -20.5q-36 0 -57.5 21t-21.5 57t20.5 56t58.5 20q36 0 57.5 -20.5t21.5 -55.5zM374 515q0 -36 -20.5 -56t-58.5 -20q-36 0 -57.5 20.5t-21.5 55.5q0 36 20.5 56.5t58.5 20.5q36 0 57.5 -21t21.5 -56zM50 269v112h490v-112h-490z" />
    <glyph glyph-name="oslash" unicode="&#xf8;" horiz-adv-x="605" 
d="M105 55q-69 67 -69 200q0 131 71 198.5t196 67.5q82 0 143 -29l55 70l52 -40l-53 -68q69 -67 69 -199q0 -129 -69 -197.5t-197 -68.5q-84 0 -145 29l-54 -70l-52 40zM176 255q0 -27 4 -49t12 -40l179 229q-28 16 -68 16q-60 0 -93.5 -37.5t-33.5 -118.5zM303 99
q62 0 94 38t32 118q0 55 -15 90l-179 -229q27 -17 68 -17z" />
    <glyph glyph-name="ugrave" unicode="&#xf9;" horiz-adv-x="603" 
d="M57 510h136v-264q0 -40 5 -66.5t16 -42.5t30 -23t46 -7q63 0 90.5 42.5t27.5 124.5v236h136v-510h-136v72h-2q-28 -42 -71.5 -61.5t-94.5 -19.5q-91 0 -137 48.5t-46 155.5v315zM374 593h-106l-148 144h167z" />
    <glyph glyph-name="uacute" unicode="&#xfa;" horiz-adv-x="603" 
d="M57 510h136v-264q0 -40 5 -66.5t16 -42.5t30 -23t46 -7q63 0 90.5 42.5t27.5 124.5v236h136v-510h-136v72h-2q-28 -42 -71.5 -61.5t-94.5 -19.5q-91 0 -137 48.5t-46 155.5v315zM358 593h-106l86 144h168z" />
    <glyph glyph-name="ucircumflex" unicode="&#xfb;" horiz-adv-x="603" 
d="M57 510h136v-264q0 -40 5 -66.5t16 -42.5t30 -23t46 -7q63 0 90.5 42.5t27.5 124.5v236h136v-510h-136v72h-2q-28 -42 -71.5 -61.5t-94.5 -19.5q-91 0 -137 48.5t-46 155.5v315zM482 591h-107l-72 77l-73 -77h-107l111 144h137z" />
    <glyph glyph-name="udieresis" unicode="&#xfc;" horiz-adv-x="603" 
d="M57 510h136v-264q0 -40 5 -66.5t16 -42.5t30 -23t46 -7q63 0 90.5 42.5t27.5 124.5v236h136v-510h-136v72h-2q-28 -42 -71.5 -61.5t-94.5 -19.5q-91 0 -137 48.5t-46 155.5v315zM484 668q0 -32 -18.5 -50.5t-56.5 -18.5q-36 0 -55.5 18.5t-19.5 50.5q0 31 19.5 49
t55.5 18q38 0 56.5 -17.5t18.5 -49.5zM263 668q0 -32 -19 -50.5t-56 -18.5t-56 18t-19 50t19.5 50t55.5 18q37 0 56 -17.5t19 -49.5z" />
    <glyph glyph-name="yacute" unicode="&#xfd;" horiz-adv-x="532" 
d="M129 -146q32 32 51 60.5t32 60.5l6 15l-212 520h150l129 -360l103 360h138l-174 -512q-15 -43 -29 -76t-29.5 -59t-34 -48t-40.5 -42zM326 593h-106l86 144h168z" />
    <glyph glyph-name="thorn" unicode="&#xfe;" horiz-adv-x="622" 
d="M196 -210h-136v960h136v-307h2q29 40 74 58t93 18q221 0 221 -260q0 -57 -14 -106t-42 -85t-70 -56.5t-99 -20.5q-55 0 -97.5 20.5t-65.5 52.5h-2v-274zM322 103q63 0 92 40t29 118q0 74 -29 110t-95 36q-61 0 -92 -41.5t-31 -113.5q0 -69 32 -109t94 -40z" />
    <glyph glyph-name="ydieresis" unicode="&#xff;" horiz-adv-x="532" 
d="M129 -146q32 32 51 60.5t32 60.5l6 15l-212 520h150l129 -360l103 360h138l-174 -512q-15 -43 -29 -76t-29.5 -59t-34 -48t-40.5 -42zM455 668q0 -32 -18.5 -50.5t-56.5 -18.5q-36 0 -55.5 18.5t-19.5 50.5q0 31 19.5 49t55.5 18q38 0 56.5 -17.5t18.5 -49.5zM234 668
q0 -32 -19 -50.5t-56 -18.5t-56 18t-19 50t19.5 50t55.5 18q37 0 56 -17.5t19 -49.5z" />
    <glyph glyph-name="Amacron" unicode="&#x100;" horiz-adv-x="683" 
d="M474 154h-269l-50 -154h-148l239 700h195l236 -700h-153zM246 285h187l-93 294zM520 787h-354v92h354v-92z" />
    <glyph glyph-name="amacron" unicode="&#x101;" horiz-adv-x="542" 
d="M349 230q-40 -3 -72.5 -7.5t-56 -13t-36 -21.5t-12.5 -33q0 -27 17.5 -42t55.5 -15q45 0 74.5 28t29.5 78v26zM485 0h-126v83h-2q-9 -17 -23 -33.5t-34.5 -29.5t-47 -21t-59.5 -8q-75 0 -118 39.5t-43 108.5q0 47 21.5 79t62 52t99.5 30.5t134 14.5v8q0 41 -22 63t-81 22
q-44 0 -84.5 -10.5t-75.5 -23.5l-22 103q45 23 98 33.5t107 10.5q59 0 100 -13.5t67 -41t37.5 -69t11.5 -98.5v-299zM441 616h-323v90h323v-90z" />
    <glyph glyph-name="Abreve" unicode="&#x102;" horiz-adv-x="683" 
d="M474 154h-269l-50 -154h-148l239 700h195l236 -700h-153zM246 285h187l-93 294zM523 899q-9 -63 -57.5 -101t-122.5 -38q-73 0 -122 38t-59 101l89 21q3 -13 9 -25.5t16 -22t26.5 -15.5t40.5 -6t40.5 6t26.5 15.5t16 22t9 25.5z" />
    <glyph glyph-name="abreve" unicode="&#x103;" horiz-adv-x="542" 
d="M349 230q-40 -3 -72.5 -7.5t-56 -13t-36 -21.5t-12.5 -33q0 -27 17.5 -42t55.5 -15q45 0 74.5 28t29.5 78v26zM485 0h-126v83h-2q-9 -17 -23 -33.5t-34.5 -29.5t-47 -21t-59.5 -8q-75 0 -118 39.5t-43 108.5q0 47 21.5 79t62 52t99.5 30.5t134 14.5v8q0 41 -22 63t-81 22
q-44 0 -84.5 -10.5t-75.5 -23.5l-22 103q45 23 98 33.5t107 10.5q59 0 100 -13.5t67 -41t37.5 -69t11.5 -98.5v-299zM444 726q-4 -33 -19 -58.5t-37.5 -43.5t-52 -27.5t-62.5 -9.5q-34 0 -63.5 10t-52 28t-37.5 44t-19 58l85 19q6 -31 25.5 -51t61.5 -20t61 20t25 51z" />
    <glyph glyph-name="Aogonek" unicode="&#x104;" horiz-adv-x="683" 
d="M462 154h-257l-50 -154h-148l239 700h195l236 -700h-41q-41 -27 -63.5 -58.5t-22.5 -72.5q0 -26 17 -40t43 -14q17 0 32.5 5.5t29.5 13.5v-72q-18 -8 -42 -15t-56 -7q-37 0 -62 9.5t-40.5 24.5t-22 34t-6.5 39q0 24 9 46t24.5 41.5t35.5 36t42 29.5l-44 37zM246 285h187
l-93 294z" />
    <glyph glyph-name="aogonek" unicode="&#x105;" horiz-adv-x="552" 
d="M369 6v77h-2q-9 -17 -23 -33.5t-34.5 -29.5t-47 -21t-59.5 -8q-75 0 -118 39.5t-43 108.5q0 47 21.5 79t62 52t99.5 30.5t134 14.5v8q0 43 -22.5 64t-80.5 21q-45 0 -85 -10.5t-76 -23.5v115q37 12 82 22t102 10q59 0 100 -11.5t67 -37t37.5 -65.5t11.5 -97v-310h-26
q-36 -25 -57 -53.5t-21 -65.5q0 -24 14.5 -36.5t39.5 -12.5q30 0 59 16v-65q-16 -8 -38 -14t-51 -6q-34 0 -57.5 8.5t-37.5 22t-20.5 31.5t-6.5 36q0 46 30.5 81t70.5 58zM359 230q-40 -3 -72.5 -7.5t-56 -13t-36 -21.5t-12.5 -33q0 -27 17 -42t56 -15q45 0 74.5 28t29.5 78
v26z" />
    <glyph glyph-name="Cacute" unicode="&#x106;" horiz-adv-x="634" 
d="M588 28q-14 -7 -30.5 -14t-39 -13t-52 -9.5t-67.5 -3.5q-80 0 -145.5 23t-112 67.5t-72 110.5t-25.5 152q0 90 25.5 159.5t73.5 116.5t116.5 71t154.5 24q57 0 102.5 -10t73.5 -23l-33 -126q-32 11 -65 16t-57 5q-52 0 -94.5 -13t-73 -40.5t-47.5 -70t-17 -100.5
q0 -111 62.5 -167t168.5 -56q24 0 58 6.5t66 20.5zM419 770h-110l91 154h180z" />
    <glyph glyph-name="cacute" unicode="&#x107;" horiz-adv-x="511" 
d="M481 25q-21 -10 -61 -23t-109 -13q-74 0 -126 19t-85 54.5t-48.5 85t-15.5 111.5q0 60 17 108t50.5 82.5t84.5 53t119 18.5q66 0 105 -11.5t60 -19.5l-24 -106q-20 7 -47.5 14t-70.5 7q-72 0 -112 -33t-40 -108q0 -158 170 -158q29 0 58 6t52 17zM351 593h-106l86 144
h168z" />
    <glyph glyph-name="Ccircumflex" unicode="&#x108;" horiz-adv-x="634" 
d="M588 28q-14 -7 -30.5 -14t-39 -13t-52 -9.5t-67.5 -3.5q-80 0 -145.5 23t-112 67.5t-72 110.5t-25.5 152q0 90 25.5 159.5t73.5 116.5t116.5 71t154.5 24q57 0 102.5 -10t73.5 -23l-33 -126q-32 11 -65 16t-57 5q-52 0 -94.5 -13t-73 -40.5t-47.5 -70t-17 -100.5
q0 -111 62.5 -167t168.5 -56q24 0 58 6.5t66 20.5zM572 770h-118l-74 75l-74 -75h-118l116 144h151z" />
    <glyph glyph-name="ccircumflex" unicode="&#x109;" horiz-adv-x="511" 
d="M481 25q-21 -10 -61 -23t-109 -13q-74 0 -126 19t-85 54.5t-48.5 85t-15.5 111.5q0 60 17 108t50.5 82.5t84.5 53t119 18.5q66 0 105 -11.5t60 -19.5l-24 -106q-20 7 -47.5 14t-70.5 7q-72 0 -112 -33t-40 -108q0 -158 170 -158q29 0 58 6t52 17zM467 591h-107l-72 77
l-73 -77h-107l111 144h137z" />
    <glyph glyph-name="Cdotaccent" unicode="&#x10a;" horiz-adv-x="634" 
d="M588 28q-14 -7 -30.5 -14t-39 -13t-52 -9.5t-67.5 -3.5q-80 0 -145.5 23t-112 67.5t-72 110.5t-25.5 152q0 90 25.5 159.5t73.5 116.5t116.5 71t154.5 24q57 0 102.5 -10t73.5 -23l-33 -126q-32 11 -65 16t-57 5q-52 0 -94.5 -13t-73 -40.5t-47.5 -70t-17 -100.5
q0 -111 62.5 -167t168.5 -56q24 0 58 6.5t66 20.5zM485 849q0 -38 -22.5 -58.5t-65.5 -20.5q-42 0 -64 20.5t-22 58.5q0 36 22.5 56t63.5 20q88 0 88 -76z" />
    <glyph glyph-name="cdotaccent" unicode="&#x10b;" horiz-adv-x="511" 
d="M481 25q-21 -10 -61 -23t-109 -13q-74 0 -126 19t-85 54.5t-48.5 85t-15.5 111.5q0 60 17 108t50.5 82.5t84.5 53t119 18.5q66 0 105 -11.5t60 -19.5l-24 -106q-20 7 -47.5 14t-70.5 7q-72 0 -112 -33t-40 -108q0 -158 170 -158q29 0 58 6t52 17zM385 673
q0 -35 -21 -54.5t-62 -19.5q-39 0 -60.5 19.5t-21.5 54.5q0 33 21.5 52t60.5 19q41 0 62 -18.5t21 -52.5z" />
    <glyph glyph-name="Ccaron" unicode="&#x10c;" horiz-adv-x="634" 
d="M588 28q-14 -7 -30.5 -14t-39 -13t-52 -9.5t-67.5 -3.5q-80 0 -145.5 23t-112 67.5t-72 110.5t-25.5 152q0 90 25.5 159.5t73.5 116.5t116.5 71t154.5 24q57 0 102.5 -10t73.5 -23l-33 -126q-32 11 -65 16t-57 5q-52 0 -94.5 -13t-73 -40.5t-47.5 -70t-17 -100.5
q0 -111 62.5 -167t168.5 -56q24 0 58 6.5t66 20.5zM466 770h-151l-116 144h118l74 -76l74 76h118z" />
    <glyph glyph-name="ccaron" unicode="&#x10d;" horiz-adv-x="511" 
d="M481 25q-21 -10 -61 -23t-109 -13q-74 0 -126 19t-85 54.5t-48.5 85t-15.5 111.5q0 60 17 108t50.5 82.5t84.5 53t119 18.5q66 0 105 -11.5t60 -19.5l-24 -106q-20 7 -47.5 14t-70.5 7q-72 0 -112 -33t-40 -108q0 -158 170 -158q29 0 58 6t52 17zM372 591h-137l-111 144
h107l72 -78l73 78h107z" />
    <glyph glyph-name="Dcaron" unicode="&#x10e;" horiz-adv-x="710" 
d="M218 132h61q227 0 227 224q0 110 -51.5 161t-165.5 51h-71v-436zM68 0v700h231q98 0 167.5 -22.5t114 -66t65 -106t20.5 -142.5q0 -180 -98 -271.5t-283 -91.5h-217zM377 770h-151l-116 144h118l74 -76l74 76h118z" />
    <glyph glyph-name="dcaron" unicode="&#x10f;" horiz-adv-x="780" 
d="M426 750h136v-750h-132v75h-2q-26 -40 -67.5 -62t-104.5 -22q-109 0 -164.5 69t-55.5 193t57.5 195t173.5 71q60 0 98.5 -21.5t58.5 -55.5h2v308zM302 407q-63 0 -92.5 -39t-29.5 -114q0 -76 32 -113.5t92 -37.5q61 0 91.5 39.5t30.5 112.5q0 69 -31 110.5t-93 41.5z
M706 488h-103l48 212h145z" />
    <glyph glyph-name="Dcroat" unicode="&#x110;" horiz-adv-x="744" 
d="M104 300h-86v118h86v282h244q100 0 168 -22.5t108.5 -65.5t58 -105.5t17.5 -143.5q0 -181 -89.5 -272t-276.5 -91h-230v300zM254 300v-168h75q117 0 166.5 55t49.5 169q0 57 -10.5 97t-34.5 65.5t-63.5 37.5t-97.5 12h-85v-150h148v-118h-148z" />
    <glyph glyph-name="dcroat" unicode="&#x111;" horiz-adv-x="634" 
d="M302 403q-63 0 -92.5 -38.5t-29.5 -113.5t32 -111.5t92 -36.5q61 0 91.5 38.5t30.5 111.5q0 69 -31 109.5t-93 40.5zM426 750h136v-89h86v-82h-86v-579h-132v75h-2q-26 -41 -67.5 -62.5t-104.5 -21.5q-109 0 -164.5 68t-55.5 192q0 125 57.5 194.5t173.5 69.5
q60 0 98.5 -21.5t58.5 -55.5h2v141h-211v82h211v89z" />
    <glyph glyph-name="Emacron" unicode="&#x112;" horiz-adv-x="564" 
d="M517 0h-449v700h449v-132h-299v-149h263v-123h-263v-164h299v-132zM461 787h-354v92h354v-92z" />
    <glyph glyph-name="emacron" unicode="&#x113;" horiz-adv-x="569" 
d="M511 34q-10 -7 -28 -15t-42.5 -14.5t-55 -11t-65.5 -4.5q-148 0 -216 70.5t-68 201.5q0 60 17.5 108t50.5 82t80.5 52t108.5 18q68 0 114.5 -20.5t75.5 -55.5t41.5 -82.5t12.5 -101.5v-37h-361q8 -64 46 -94.5t114 -30.5q56 0 91.5 10.5t61.5 24.5zM399 306
q1 47 -24.5 78t-79.5 31q-104 0 -118 -109h222zM450 616h-323v90h323v-90z" />
    <glyph glyph-name="Edotaccent" unicode="&#x116;" horiz-adv-x="564" 
d="M517 0h-449v700h449v-132h-299v-149h263v-123h-263v-164h299v-132zM371 849q0 -38 -22.5 -58.5t-65.5 -20.5q-42 0 -64 20.5t-22 58.5q0 36 22.5 56t63.5 20q88 0 88 -76z" />
    <glyph glyph-name="edotaccent" unicode="&#x117;" horiz-adv-x="569" 
d="M511 34q-10 -7 -28 -15t-42.5 -14.5t-55 -11t-65.5 -4.5q-148 0 -216 70.5t-68 201.5q0 60 17.5 108t50.5 82t80.5 52t108.5 18q68 0 114.5 -20.5t75.5 -55.5t41.5 -82.5t12.5 -101.5v-37h-361q8 -64 46 -94.5t114 -30.5q56 0 91.5 10.5t61.5 24.5zM399 306
q1 47 -24.5 78t-79.5 31q-104 0 -118 -109h222zM372 673q0 -35 -21 -54.5t-62 -19.5q-39 0 -60.5 19.5t-21.5 54.5q0 33 21.5 52t60.5 19q41 0 62 -18.5t21 -52.5z" />
    <glyph glyph-name="Eogonek" unicode="&#x118;" horiz-adv-x="564" 
d="M507 -238q-17 -8 -41.5 -15t-56.5 -7q-37 0 -62 9.5t-40 24.5t-21.5 34t-6.5 39q0 24 9 46t24.5 41.5t35.5 36t42 29.5h-322v700h449v-132h-299v-149h263v-123h-263v-164h299v-132h-46q-41 -27 -63.5 -58.5t-22.5 -72.5q0 -26 17 -40t43 -14q17 0 32.5 5.5t29.5 13.5v-72
z" />
    <glyph glyph-name="eogonek" unicode="&#x119;" horiz-adv-x="569" 
d="M502 30q-24 -19 -79 -30q-36 -25 -56 -53.5t-20 -65.5q0 -24 14 -36.5t39 -12.5q30 0 59 16v-65q-16 -8 -38 -14t-51 -6q-34 0 -57.5 8.5t-37.5 22t-20.5 31.5t-6.5 36q0 42 24 73.5t58 54.5h-10q-148 0 -216 70.5t-68 201.5q0 60 17.5 108t50.5 82t80.5 52t108.5 18
q68 0 114.5 -20.5t75.5 -55.5t41.5 -82.5t12.5 -101.5v-37h-361q8 -64 46 -94.5t114 -30.5q56 0 98 11t68 27v-107zM399 306q1 47 -24.5 78t-79.5 31q-104 0 -118 -109h222z" />
    <glyph glyph-name="Ecaron" unicode="&#x11a;" horiz-adv-x="564" 
d="M517 0h-449v700h449v-132h-299v-149h263v-123h-263v-164h299v-132zM363 770h-151l-116 144h118l74 -76l74 76h118z" />
    <glyph glyph-name="ecaron" unicode="&#x11b;" horiz-adv-x="569" 
d="M511 34q-10 -7 -28 -15t-42.5 -14.5t-55 -11t-65.5 -4.5q-148 0 -216 70.5t-68 201.5q0 60 17.5 108t50.5 82t80.5 52t108.5 18q68 0 114.5 -20.5t75.5 -55.5t41.5 -82.5t12.5 -101.5v-37h-361q8 -64 46 -94.5t114 -30.5q56 0 91.5 10.5t61.5 24.5zM399 306
q1 47 -24.5 78t-79.5 31q-104 0 -118 -109h222zM361 591h-137l-111 144h107l72 -78l73 78h107z" />
    <glyph glyph-name="Gcircumflex" unicode="&#x11c;" horiz-adv-x="687" 
d="M498 269h-128v124h263v-354q-36 -20 -93 -35.5t-129 -15.5q-81 0 -148 23t-116 68t-76 110.5t-27 150.5q0 91 27 160.5t76.5 116.5t117.5 71t151 24q67 0 113.5 -12t70.5 -20l-33 -126q-34 12 -64.5 17.5t-68.5 5.5q-47 0 -89.5 -13t-74.5 -40.5t-51.5 -71t-19.5 -103.5
q0 -59 19 -101.5t49.5 -70t70.5 -40.5t82 -13q20 0 40.5 2.5t37.5 7.5v135zM577 770h-118l-74 75l-74 -75h-118l116 144h151z" />
    <glyph glyph-name="gcircumflex" unicode="&#x11d;" horiz-adv-x="622" 
d="M430 510h132v-481q0 -70 -21.5 -117t-59.5 -76t-90 -41.5t-112 -12.5q-27 0 -56.5 2.5t-58.5 7.5t-55 12t-45 16l32 107q26 -11 72.5 -20t93.5 -9q46 0 77.5 9t51 26.5t27.5 43.5t8 60v47h-2q-22 -38 -66 -61t-95 -23q-111 0 -169 61.5t-58 187.5q0 131 55 200.5
t173 69.5q58 0 101 -22.5t63 -57.5h2v71zM300 407q-61 0 -90.5 -35.5t-29.5 -113.5q0 -72 31 -109t89 -37q61 0 93.5 39.5t32.5 105.5q0 69 -30.5 109.5t-95.5 40.5zM494 591h-107l-72 77l-73 -77h-107l111 144h137z" />
    <glyph glyph-name="Gbreve" unicode="&#x11e;" horiz-adv-x="687" 
d="M498 269h-128v124h263v-354q-36 -20 -93 -35.5t-129 -15.5q-81 0 -148 23t-116 68t-76 110.5t-27 150.5q0 91 27 160.5t76.5 116.5t117.5 71t151 24q67 0 113.5 -12t70.5 -20l-33 -126q-34 12 -64.5 17.5t-68.5 5.5q-47 0 -89.5 -13t-74.5 -40.5t-51.5 -71t-19.5 -103.5
q0 -59 19 -101.5t49.5 -70t70.5 -40.5t82 -13q20 0 40.5 2.5t37.5 7.5v135zM570 899q-9 -63 -57.5 -101t-122.5 -38q-73 0 -122 38t-59 101l89 21q3 -13 9 -25.5t16 -22t26.5 -15.5t40.5 -6t40.5 6t26.5 15.5t16 22t9 25.5z" />
    <glyph glyph-name="gbreve" unicode="&#x11f;" horiz-adv-x="622" 
d="M430 510h132v-481q0 -70 -21.5 -117t-59.5 -76t-90 -41.5t-112 -12.5q-27 0 -56.5 2.5t-58.5 7.5t-55 12t-45 16l32 107q26 -11 72.5 -20t93.5 -9q46 0 77.5 9t51 26.5t27.5 43.5t8 60v47h-2q-22 -38 -66 -61t-95 -23q-111 0 -169 61.5t-58 187.5q0 131 55 200.5
t173 69.5q58 0 101 -22.5t63 -57.5h2v71zM300 407q-61 0 -90.5 -35.5t-29.5 -113.5q0 -72 31 -109t89 -37q61 0 93.5 39.5t32.5 105.5q0 69 -30.5 109.5t-95.5 40.5zM473 726q-4 -33 -19 -58.5t-37.5 -43.5t-52 -27.5t-62.5 -9.5q-34 0 -63.5 10t-52 28t-37.5 44t-19 58
l85 19q6 -31 25.5 -51t61.5 -20t61 20t25 51z" />
    <glyph glyph-name="Gdotaccent" unicode="&#x120;" horiz-adv-x="687" 
d="M498 269h-128v124h263v-354q-36 -20 -93 -35.5t-129 -15.5q-81 0 -148 23t-116 68t-76 110.5t-27 150.5q0 91 27 160.5t76.5 116.5t117.5 71t151 24q67 0 113.5 -12t70.5 -20l-33 -126q-34 12 -64.5 17.5t-68.5 5.5q-47 0 -89.5 -13t-74.5 -40.5t-51.5 -71t-19.5 -103.5
q0 -59 19 -101.5t49.5 -70t70.5 -40.5t82 -13q20 0 40.5 2.5t37.5 7.5v135zM486 849q0 -38 -22.5 -58.5t-65.5 -20.5q-42 0 -64 20.5t-22 58.5q0 36 22.5 56t63.5 20q88 0 88 -76z" />
    <glyph glyph-name="gdotaccent" unicode="&#x121;" horiz-adv-x="622" 
d="M430 510h132v-481q0 -70 -21.5 -117t-59.5 -76t-90 -41.5t-112 -12.5q-27 0 -56.5 2.5t-58.5 7.5t-55 12t-45 16l32 107q26 -11 72.5 -20t93.5 -9q46 0 77.5 9t51 26.5t27.5 43.5t8 60v47h-2q-22 -38 -66 -61t-95 -23q-111 0 -169 61.5t-58 187.5q0 131 55 200.5
t173 69.5q58 0 101 -22.5t63 -57.5h2v71zM300 407q-61 0 -90.5 -35.5t-29.5 -113.5q0 -72 31 -109t89 -37q61 0 93.5 39.5t32.5 105.5q0 69 -30.5 109.5t-95.5 40.5zM386 673q0 -35 -21 -54.5t-62 -19.5q-39 0 -60.5 19.5t-21.5 54.5q0 33 21.5 52t60.5 19q41 0 62 -18.5
t21 -52.5z" />
    <glyph glyph-name="Gcommaaccent" unicode="&#x122;" horiz-adv-x="687" 
d="M498 269h-128v124h263v-354q-36 -20 -93 -35.5t-129 -15.5q-81 0 -148 23t-116 68t-76 110.5t-27 150.5q0 91 27 160.5t76.5 116.5t117.5 71t151 24q67 0 113.5 -12t70.5 -20l-33 -126q-34 12 -64.5 17.5t-68.5 5.5q-47 0 -89.5 -13t-74.5 -40.5t-51.5 -71t-19.5 -103.5
q0 -59 19 -101.5t49.5 -70t70.5 -40.5t82 -13q20 0 40.5 2.5t37.5 7.5v135zM329 -183q31 -2 54 5t26 30q-43 -5 -70.5 7t-27.5 41q0 24 23 39t62 15t64 -20t25 -61q0 -25 -10.5 -46t-30 -36t-49 -22.5t-66.5 -5.5v54z" />
    <glyph glyph-name="gcommaaccent" unicode="&#x123;" horiz-adv-x="622" 
d="M430 510h132v-481q0 -70 -21.5 -117t-59.5 -76t-90 -41.5t-112 -12.5q-27 0 -56.5 2.5t-58.5 7.5t-55 12t-45 16l32 107q26 -11 72.5 -20t93.5 -9q46 0 77.5 9t51 26.5t27.5 43.5t8 60v47h-2q-22 -38 -66 -61t-95 -23q-111 0 -169 61.5t-58 187.5q0 131 55 200.5
t173 69.5q58 0 101 -22.5t63 -57.5h2v71zM300 407q-61 0 -90.5 -35.5t-29.5 -113.5q0 -72 31 -109t89 -37q61 0 93.5 39.5t32.5 105.5q0 69 -30.5 109.5t-95.5 40.5zM349.027 694.978q-30.9961 2 -53.4932 -4.99902t-25.4971 -29.9961q41.9951 4.99902 69.4922 -7
q27.4961 -11.998 27.4961 -40.9941q0 -23.998 -22.4971 -38.9961t-61.4922 -14.998t-64.4922 19.998q-25.4971 19.9971 -25.4971 60.9922q0 24.9971 10.499 45.9941q10.498 20.998 29.9961 35.9961q19.4971 14.998 48.9941 22.4971q29.4961 7.49902 66.4912 5.49902
v-53.9932z" />
    <glyph glyph-name="Hcircumflex" unicode="&#x124;" horiz-adv-x="726" 
d="M658 0h-150v292h-290v-292h-150v700h150v-274h290v274h150v-700zM556 770h-118l-74 75l-74 -75h-118l116 144h151z" />
    <glyph glyph-name="hcircumflex" unicode="&#x125;" horiz-adv-x="603" 
d="M547 0h-136v264q0 40 -5 66.5t-16 42.5t-30 23t-46 7q-63 0 -90.5 -42.5t-27.5 -124.5v-236h-136v750h136v-311h2q28 42 71.5 61t94.5 19q92 0 137.5 -48.5t45.5 -155.5v-315zM310 795h-107l-72 77l-73 -77h-107l111 144h137z" />
    <glyph glyph-name="Hbar" unicode="&#x126;" horiz-adv-x="774" 
d="M532 418v88h-290v-88h290zM682 0h-150v284h-290v-284h-150v506h-74v97h74v97h150v-97h290v97h150v-97h74v-97h-74v-506z" />
    <glyph glyph-name="hbar" unicode="&#x127;" horiz-adv-x="608" 
d="M553 0h-136v260q0 40 -5 67t-16 43t-30 22.5t-46 6.5q-63 0 -90.5 -42.5t-27.5 -124.5v-232h-136v579h-86v82h86v89h136v-89h211v-82h-211v-144h2q28 42 71.5 61t94.5 19q91 0 137 -48.5t46 -155.5v-311z" />
    <glyph glyph-name="Imacron" unicode="&#x12a;" horiz-adv-x="286" 
d="M218 0h-150v700h150v-700zM321 787h-354v92h354v-92z" />
    <glyph glyph-name="imacron" unicode="&#x12b;" horiz-adv-x="260" 
d="M198 0h-136v510h136v-510zM293 616h-323v90h323v-90z" />
    <glyph glyph-name="Iogonek" unicode="&#x12e;" horiz-adv-x="286" 
d="M225 -238q-17 -8 -41 -15t-56 -7q-38 0 -63 9.5t-40 24.5t-21.5 34t-6.5 39q0 24 9 46t24.5 41.5t35.5 36t42 29.5h-40v700h150v-700h-29q-40 -27 -63 -58.5t-23 -72.5q0 -26 17 -40t44 -14q17 0 32 5.5t29 13.5v-72z" />
    <glyph glyph-name="iogonek" unicode="&#x12f;" horiz-adv-x="260" 
d="M198 0h-27q-36 -25 -57 -53.5t-21 -65.5q0 -24 14.5 -36.5t38.5 -12.5q30 0 59 16v-65q-16 -8 -38 -14t-51 -6q-34 0 -57 8.5t-37.5 22t-21 31.5t-6.5 36q0 46 30.5 81t69.5 58h-32v510h136v-510zM213 673q0 -35 -21 -54.5t-62 -19.5q-39 0 -60.5 19.5t-21.5 54.5
q0 33 21.5 52t60.5 19q41 0 62 -18.5t21 -52.5z" />
    <glyph glyph-name="Idotaccent" unicode="&#x130;" horiz-adv-x="286" 
d="M218 0h-150v700h150v-700zM232 849q0 -38 -22.5 -58.5t-65.5 -20.5q-42 0 -64 20.5t-22 58.5q0 36 22.5 56t63.5 20q88 0 88 -76z" />
    <glyph glyph-name="dotlessi" unicode="&#x131;" horiz-adv-x="260" 
d="M198 0h-136v510h136v-510z" />
    <glyph glyph-name="Jcircumflex" unicode="&#x134;" horiz-adv-x="441" 
d="M55 138q31 -10 58 -10q55 0 82.5 35.5t27.5 100.5v436h150v-465q0 -55 -13 -100t-40 -77.5t-69 -50t-100 -17.5q-41 0 -66.5 4.5t-54.5 14.5zM486 770h-118l-74 75l-74 -75h-118l116 144h151z" />
    <glyph glyph-name="jcircumflex" unicode="&#x135;" horiz-adv-x="261" 
d="M-49 -95q16 -3 36 -3q16 0 30.5 3t25 13t16.5 28.5t6 49.5v514h136v-506q0 -108 -43 -165t-146 -57q-21 0 -37 2t-27 4zM311 591h-107l-72 77l-73 -77h-107l111 144h137z" />
    <glyph glyph-name="Kcommaaccent" unicode="&#x136;" horiz-adv-x="664" 
d="M218 377l251 323h174l-269 -327l288 -373h-183l-204 270l-57 -65v-205h-150v700h150v-323zM269 -183q31 -2 54 5t26 30q-43 -5 -70.5 7t-27.5 41q0 24 23 39t62 15t64 -20t25 -61q0 -25 -10.5 -46t-30 -36t-49 -22.5t-66.5 -5.5v54z" />
    <glyph glyph-name="kcommaaccent" unicode="&#x137;" horiz-adv-x="555" 
d="M196 292l179 218h157l-200 -223l221 -287h-159l-153 206l-45 -54v-152h-136v750h136v-458zM216 -183q31 -2 53.5 5t25.5 30q-42 -5 -69.5 7t-27.5 41q0 24 22.5 39t61.5 15t64.5 -20t25.5 -61q0 -25 -10.5 -46t-30 -36t-49 -22.5t-66.5 -5.5v54z" />
    <glyph glyph-name="Lacute" unicode="&#x139;" horiz-adv-x="534" 
d="M502 0h-434v700h150v-562h284v-138zM198 770h-110l91 154h180z" />
    <glyph glyph-name="lacute" unicode="&#x13a;" horiz-adv-x="256" 
d="M196 0h-136v750h136v-750zM176 812h-106l86 144h168z" />
    <glyph glyph-name="Lcommaaccent" unicode="&#x13b;" horiz-adv-x="534" 
d="M502 0h-434v700h150v-562h284v-138zM202 -183q31 -2 54 5t26 30q-43 -5 -70.5 7t-27.5 41q0 24 23 39t62 15t64 -20t25 -61q0 -25 -10.5 -46t-30 -36t-49 -22.5t-66.5 -5.5v54z" />
    <glyph glyph-name="lcommaaccent" unicode="&#x13c;" horiz-adv-x="256" 
d="M196 0h-136v750h136v-750zM63 -183q31 -2 53.5 5t25.5 30q-42 -5 -69.5 7t-27.5 41q0 24 22.5 39t61.5 15t64.5 -20t25.5 -61q0 -25 -10.5 -46t-30 -36t-49 -22.5t-66.5 -5.5v54z" />
    <glyph glyph-name="Lcaron" unicode="&#x13d;" horiz-adv-x="534" 
d="M502 0h-434v700h150v-562h284v-138zM426 488h-103l48 212h145z" />
    <glyph glyph-name="lcaron" unicode="&#x13e;" horiz-adv-x="414" 
d="M196 0h-136v750h136v-750zM341 488h-103l48 212h145z" />
    <glyph glyph-name="Ldot" unicode="&#x13f;" horiz-adv-x="544" 
d="M502 0h-434v700h150v-562h284v-138zM509 364q0 -40 -21.5 -62t-62.5 -22q-39 0 -62 22.5t-23 61.5q0 38 22 60t63 22q38 0 61 -22.5t23 -59.5z" />
    <glyph glyph-name="ldot" unicode="&#x140;" horiz-adv-x="422" 
d="M196 0h-136v750h136v-750zM423 356q0 -40 -21.5 -62t-62.5 -22q-39 0 -62 22.5t-23 61.5q0 38 22 60t63 22q38 0 61 -22.5t23 -59.5z" />
    <glyph glyph-name="Lslash" unicode="&#x141;" horiz-adv-x="580" 
d="M270 339v-201h285v-138h-435v245l-100 -63v101l100 63v354h150v-260l154 97v-100z" />
    <glyph glyph-name="lslash" unicode="&#x142;" horiz-adv-x="352" 
d="M108 316l-88 -57v91l88 57v343h136v-254l88 57v-91l-88 -57v-405h-136v316z" />
    <glyph glyph-name="Nacute" unicode="&#x143;" horiz-adv-x="724" 
d="M656 0h-166l-276 493v-493h-146v700h176l266 -478v478h146v-700zM413 770h-110l91 154h180z" />
    <glyph glyph-name="nacute" unicode="&#x144;" horiz-adv-x="603" 
d="M547 0h-136v264q0 40 -5 67t-16 43t-30 22.5t-46 6.5q-63 0 -90.5 -42.5t-27.5 -124.5v-236h-136v510h136v-71h2q28 42 71.5 61t94.5 19q91 0 137 -48.5t46 -155.5v-315zM354 593h-106l86 144h168z" />
    <glyph glyph-name="Ncommaaccent" unicode="&#x145;" horiz-adv-x="724" 
d="M656 0h-166l-276 493v-493h-146v700h176l266 -478v478h146v-700zM298 -183q31 -2 54 5t26 30q-43 -5 -70.5 7t-27.5 41q0 24 23 39t62 15t64 -20t25 -61q0 -25 -10.5 -46t-30 -36t-49 -22.5t-66.5 -5.5v54z" />
    <glyph glyph-name="ncommaaccent" unicode="&#x146;" horiz-adv-x="603" 
d="M547 0h-136v264q0 40 -5 67t-16 43t-30 22.5t-46 6.5q-63 0 -90.5 -42.5t-27.5 -124.5v-236h-136v510h136v-71h2q28 42 71.5 61t94.5 19q91 0 137 -48.5t46 -155.5v-315zM235 -183q31 -2 53.5 5t25.5 30q-42 -5 -69.5 7t-27.5 41q0 24 22.5 39t61.5 15t64.5 -20t25.5 -61
q0 -25 -10.5 -46t-30 -36t-49 -22.5t-66.5 -5.5v54z" />
    <glyph glyph-name="Ncaron" unicode="&#x147;" horiz-adv-x="724" 
d="M656 0h-166l-276 493v-493h-146v700h176l266 -478v478h146v-700zM442 770h-151l-116 144h118l74 -76l74 76h118z" />
    <glyph glyph-name="ncaron" unicode="&#x148;" horiz-adv-x="603" 
d="M547 0h-136v264q0 40 -5 67t-16 43t-30 22.5t-46 6.5q-63 0 -90.5 -42.5t-27.5 -124.5v-236h-136v510h136v-71h2q28 42 71.5 61t94.5 19q91 0 137 -48.5t46 -155.5v-315zM370 591h-137l-111 144h107l72 -78l73 78h107z" />
    <glyph glyph-name="Omacron" unicode="&#x14c;" horiz-adv-x="765" 
d="M389 120q38 0 70 14t55 42.5t35.5 71.5t12.5 102q0 119 -50 174.5t-132 55.5q-37 0 -69.5 -14t-56.5 -42.5t-37.5 -72t-13.5 -101.5q0 -59 14.5 -102t39.5 -71.5t59 -42.5t73 -14zM384 -12q-76 0 -138.5 23.5t-107.5 69.5t-69.5 113.5t-24.5 155.5t25.5 155.5t70.5 113.5
t106.5 69.5t133.5 23.5q81 0 144.5 -25t107 -71.5t66.5 -114t23 -151.5q0 -93 -25.5 -161.5t-71 -113t-107 -66t-133.5 -21.5zM560 787h-354v92h354v-92z" />
    <glyph glyph-name="omacron" unicode="&#x14d;" horiz-adv-x="605" 
d="M303 102q62 0 93 37t31 116q0 81 -30 117.5t-94 36.5q-60 0 -92.5 -37t-32.5 -117t34 -116.5t91 -36.5zM303 -11q-129 0 -198 65t-69 201q0 131 71 198.5t196 67.5q127 0 196.5 -66.5t69.5 -199.5q0 -129 -69 -197.5t-197 -68.5zM464 616h-323v90h323v-90z" />
    <glyph glyph-name="Ohungarumlaut" unicode="&#x150;" horiz-adv-x="765" 
d="M389 120q38 0 70 14t55 42.5t35.5 71.5t12.5 102q0 119 -50 174.5t-132 55.5q-37 0 -69.5 -14t-56.5 -42.5t-37.5 -72t-13.5 -101.5q0 -59 14.5 -102t39.5 -71.5t59 -42.5t73 -14zM384 -12q-76 0 -138.5 23.5t-107.5 69.5t-69.5 113.5t-24.5 155.5t25.5 155.5t70.5 113.5
t106.5 69.5t133.5 23.5q81 0 144.5 -25t107 -71.5t66.5 -114t23 -151.5q0 -93 -25.5 -161.5t-71 -113t-107 -66t-133.5 -21.5zM698 923l-166 -153h-101l104 153h163zM482 923l-166 -153h-101l104 153h163z" />
    <glyph glyph-name="ohungarumlaut" unicode="&#x151;" horiz-adv-x="605" 
d="M303 102q62 0 93 37t31 116q0 81 -30 117.5t-94 36.5q-60 0 -92.5 -37t-32.5 -117t34 -116.5t91 -36.5zM303 -11q-129 0 -198 65t-69 201q0 131 71 198.5t196 67.5q127 0 196.5 -66.5t69.5 -199.5q0 -129 -69 -197.5t-197 -68.5zM446 591h-92l96 144h149zM238 591h-92
l96 144h150z" />
    <glyph glyph-name="OE" unicode="&#x152;" horiz-adv-x="952" 
d="M384 -12q-165 0 -252.5 92.5t-87.5 269.5q0 88 23 155.5t66.5 113.5t106 69.5t140.5 23.5q61 0 111 -12h415v-132h-299v-149h263v-123h-263v-164h299v-132h-412q-25 -6 -53 -9t-57 -3zM389 120q38 0 68 9v440q-17 5 -36.5 8t-40.5 3q-85 0 -131 -56t-46 -174t48.5 -174
t137.5 -56z" />
    <glyph glyph-name="oe" unicode="&#x153;" horiz-adv-x="964" 
d="M896 30q-20 -16 -69 -28.5t-112 -12.5q-76 0 -129.5 20.5t-88.5 58.5q-32 -38 -81 -58.5t-113 -20.5q-129 0 -198 65t-69 201q0 131 71 198.5t196 67.5q129 0 196 -79q32 38 79.5 58.5t108.5 20.5q68 0 115 -20.5t75.5 -55.5t41 -82.5t12.5 -101.5v-37h-360
q8 -64 45.5 -94.5t114.5 -30.5q56 0 97.5 11t67.5 27v-107zM303 102q62 0 93.5 36t31.5 117t-30.5 117.5t-94.5 36.5q-60 0 -92.5 -36.5t-32.5 -117.5t34 -117t91 -36zM793 306q1 49 -24 79t-80 30q-104 0 -118 -109h222z" />
    <glyph glyph-name="Racute" unicode="&#x154;" horiz-adv-x="653" 
d="M218 276v-276h-150v700h238q133 0 201.5 -48.5t68.5 -153.5q0 -39 -10.5 -69t-29 -52.5t-43 -37.5t-52.5 -24q23 -9 39 -26t33.5 -51.5t41.5 -91.5t63 -146h-160q-36 78 -54.5 131t-34 85t-35 46t-57.5 14h-59zM215 400h87q25 0 47 4t37.5 13.5t24.5 26t9 42.5
q0 46 -31.5 64t-94.5 18h-79v-168zM349 770h-110l91 154h180z" />
    <glyph glyph-name="racute" unicode="&#x155;" horiz-adv-x="404" 
d="M196 0h-136v510h130v-83h2q41 92 136 92q10 0 27.5 -1.5t32.5 -5.5v-124q-14 5 -29.5 7.5t-33.5 2.5q-37 0 -61.5 -11t-39.5 -32.5t-21.5 -53.5t-6.5 -74v-227zM249 593h-106l86 144h168z" />
    <glyph glyph-name="Rcommaaccent" unicode="&#x156;" horiz-adv-x="653" 
d="M218 276v-276h-150v700h238q133 0 201.5 -48.5t68.5 -153.5q0 -39 -10.5 -69t-29 -52.5t-43 -37.5t-52.5 -24q23 -9 39 -26t33.5 -51.5t41.5 -91.5t63 -146h-160q-36 78 -54.5 131t-34 85t-35 46t-57.5 14h-59zM215 400h87q25 0 47 4t37.5 13.5t24.5 26t9 42.5
q0 46 -31.5 64t-94.5 18h-79v-168zM259 -183q31 -2 54 5t26 30q-43 -5 -70.5 7t-27.5 41q0 24 23 39t62 15t64 -20t25 -61q0 -25 -10.5 -46t-30 -36t-49 -22.5t-66.5 -5.5v54z" />
    <glyph glyph-name="rcommaaccent" unicode="&#x157;" horiz-adv-x="404" 
d="M196 0h-136v510h130v-83h2q41 92 136 92q10 0 27.5 -1.5t32.5 -5.5v-124q-14 5 -29.5 7.5t-33.5 2.5q-37 0 -61.5 -11t-39.5 -32.5t-21.5 -53.5t-6.5 -74v-227zM70 -183q31 -2 53.5 5t25.5 30q-42 -5 -69.5 7t-27.5 41q0 24 22.5 39t61.5 15t64.5 -20t25.5 -61
q0 -25 -10.5 -46t-30 -36t-49 -22.5t-66.5 -5.5v54z" />
    <glyph glyph-name="Rcaron" unicode="&#x158;" horiz-adv-x="653" 
d="M218 276v-276h-150v700h238q133 0 201.5 -48.5t68.5 -153.5q0 -39 -10.5 -69t-29 -52.5t-43 -37.5t-52.5 -24q23 -9 39 -26t33.5 -51.5t41.5 -91.5t63 -146h-160q-36 78 -54.5 131t-34 85t-35 46t-57.5 14h-59zM215 400h87q25 0 47 4t37.5 13.5t24.5 26t9 42.5
q0 46 -31.5 64t-94.5 18h-79v-168zM372 770h-151l-116 144h118l74 -76l74 76h118z" />
    <glyph glyph-name="rcaron" unicode="&#x159;" horiz-adv-x="404" 
d="M196 0h-136v510h130v-83h2q41 92 136 92q10 0 27.5 -1.5t32.5 -5.5v-124q-14 5 -29.5 7.5t-33.5 2.5q-37 0 -61.5 -11t-39.5 -32.5t-21.5 -53.5t-6.5 -74v-227zM287 591h-137l-111 144h107l72 -78l73 78h107z" />
    <glyph glyph-name="Sacute" unicode="&#x15a;" horiz-adv-x="559" 
d="M68 166q12 -8 30.5 -16.5t41.5 -16t48.5 -12t52.5 -4.5q59 0 86.5 21t27.5 60q0 22 -6.5 36.5t-20 25.5t-35.5 19.5t-53 19.5l-24 8q-83 28 -121.5 77t-38.5 123q0 48 18.5 86t51.5 64.5t77.5 40.5t97.5 14q69 0 118.5 -11.5t79.5 -24.5l-35 -128q-37 17 -76.5 25
t-72.5 8q-51 0 -78 -16.5t-27 -51.5q0 -18 5.5 -30.5t20 -23t39.5 -21.5t64 -24l26 -9q46 -16 76 -37t47 -46t24 -54t7 -61q0 -53 -19.5 -94t-54.5 -69t-82.5 -42t-103.5 -14q-32 0 -64 4t-61 10.5t-54 15.5t-43 19zM332 770h-110l91 154h180z" />
    <glyph glyph-name="sacute" unicode="&#x15b;" horiz-adv-x="453" 
d="M59 125q35 -19 71 -24.5t73 -5.5q42 0 60.5 13.5t18.5 39.5q0 20 -18 31t-45.5 20t-59.5 19t-59.5 27.5t-45.5 45.5t-18 74q0 70 49.5 113t162.5 43q38 0 82 -6.5t73 -17.5l-23 -101q-26 9 -59 14t-65 5q-79 0 -79 -43q0 -20 18 -30t45.5 -18t59.5 -17.5t59.5 -27
t45.5 -47t18 -78.5q0 -36 -12 -66.5t-38.5 -52.5t-68 -34t-99.5 -12q-38 0 -81.5 9t-87.5 26zM279 593h-106l86 144h168z" />
    <glyph glyph-name="Scircumflex" unicode="&#x15c;" horiz-adv-x="559" 
d="M68 166q12 -8 30.5 -16.5t41.5 -16t48.5 -12t52.5 -4.5q59 0 86.5 21t27.5 60q0 22 -6.5 36.5t-20 25.5t-35.5 19.5t-53 19.5l-24 8q-83 28 -121.5 77t-38.5 123q0 48 18.5 86t51.5 64.5t77.5 40.5t97.5 14q69 0 118.5 -11.5t79.5 -24.5l-35 -128q-37 17 -76.5 25
t-72.5 8q-51 0 -78 -16.5t-27 -51.5q0 -18 5.5 -30.5t20 -23t39.5 -21.5t64 -24l26 -9q46 -16 76 -37t47 -46t24 -54t7 -61q0 -53 -19.5 -94t-54.5 -69t-82.5 -42t-103.5 -14q-32 0 -64 4t-61 10.5t-54 15.5t-43 19zM476 770h-118l-74 75l-74 -75h-118l116 144h151z" />
    <glyph glyph-name="scircumflex" unicode="&#x15d;" horiz-adv-x="453" 
d="M59 125q35 -19 71 -24.5t73 -5.5q42 0 60.5 13.5t18.5 39.5q0 20 -18 31t-45.5 20t-59.5 19t-59.5 27.5t-45.5 45.5t-18 74q0 70 49.5 113t162.5 43q38 0 82 -6.5t73 -17.5l-23 -101q-26 9 -59 14t-65 5q-79 0 -79 -43q0 -20 18 -30t45.5 -18t59.5 -17.5t59.5 -27
t45.5 -47t18 -78.5q0 -36 -12 -66.5t-38.5 -52.5t-68 -34t-99.5 -12q-38 0 -81.5 9t-87.5 26zM411 591h-107l-72 77l-73 -77h-107l111 144h137z" />
    <glyph glyph-name="Scedilla" unicode="&#x15e;" horiz-adv-x="559" 
d="M68 166q12 -8 30.5 -16.5t41.5 -16t48.5 -12t52.5 -4.5q59 0 86.5 21t27.5 60q0 22 -6.5 36.5t-20 25.5t-35.5 19.5t-53 19.5l-24 8q-83 28 -121.5 77t-38.5 123q0 48 18.5 86t51.5 64.5t77.5 40.5t97.5 14q69 0 118.5 -11.5t79.5 -24.5l-35 -128q-37 17 -76.5 25
t-72.5 8q-51 0 -78 -16.5t-27 -51.5q0 -18 5.5 -30.5t20 -23t39.5 -21.5t64 -24l26 -9q46 -16 76 -37t47 -46t24 -54t7 -61q0 -50 -17.5 -89t-48.5 -66.5t-73.5 -43.5t-92.5 -19l-7 -42q22 0 43.5 -5.5t38 -16.5t26.5 -29t10 -45q0 -24 -11 -44.5t-30.5 -35.5t-46 -23
t-57.5 -8q-34 0 -57 4.5t-43 12.5l11 67q28 -14 65 -14q24 0 42.5 10.5t18.5 33.5t-20 30.5t-43 7.5q-8 0 -18 -0.5t-18 -2.5l16 102q-51 5 -96 17.5t-74 28.5z" />
    <glyph glyph-name="scedilla" unicode="&#x15f;" horiz-adv-x="453" 
d="M59 125q35 -19 71 -24.5t73 -5.5q42 0 60.5 13.5t18.5 39.5q0 20 -18 31t-45.5 20t-59.5 19t-59.5 27.5t-45.5 45.5t-18 74q0 70 49.5 113t162.5 43q38 0 82 -6.5t73 -17.5l-23 -101q-26 9 -59 14t-65 5q-79 0 -79 -43q0 -20 18 -30t45.5 -18t59.5 -17.5t59.5 -27
t45.5 -47t18 -78.5q0 -68 -42.5 -112.5t-141.5 -51.5l-7 -39q21 0 40 -5t34 -15.5t23.5 -27t8.5 -41.5q0 -43 -34.5 -71t-91.5 -28q-29 0 -51.5 4.5t-40.5 11.5l10 60q28 -12 59 -12q21 0 37 10t16 31q0 22 -17.5 28.5t-37.5 6.5h-17.5t-16.5 -1l14 89q-32 4 -65 11.5
t-66 21.5z" />
    <glyph glyph-name="Scaron" unicode="&#x160;" horiz-adv-x="559" 
d="M68 166q12 -8 30.5 -16.5t41.5 -16t48.5 -12t52.5 -4.5q59 0 86.5 21t27.5 60q0 22 -6.5 36.5t-20 25.5t-35.5 19.5t-53 19.5l-24 8q-83 28 -121.5 77t-38.5 123q0 48 18.5 86t51.5 64.5t77.5 40.5t97.5 14q69 0 118.5 -11.5t79.5 -24.5l-35 -128q-37 17 -76.5 25
t-72.5 8q-51 0 -78 -16.5t-27 -51.5q0 -18 5.5 -30.5t20 -23t39.5 -21.5t64 -24l26 -9q46 -16 76 -37t47 -46t24 -54t7 -61q0 -53 -19.5 -94t-54.5 -69t-82.5 -42t-103.5 -14q-32 0 -64 4t-61 10.5t-54 15.5t-43 19zM369 770h-151l-116 144h118l74 -76l74 76h118z" />
    <glyph glyph-name="scaron" unicode="&#x161;" horiz-adv-x="453" 
d="M59 125q35 -19 71 -24.5t73 -5.5q42 0 60.5 13.5t18.5 39.5q0 20 -18 31t-45.5 20t-59.5 19t-59.5 27.5t-45.5 45.5t-18 74q0 70 49.5 113t162.5 43q38 0 82 -6.5t73 -17.5l-23 -101q-26 9 -59 14t-65 5q-79 0 -79 -43q0 -20 18 -30t45.5 -18t59.5 -17.5t59.5 -27
t45.5 -47t18 -78.5q0 -36 -12 -66.5t-38.5 -52.5t-68 -34t-99.5 -12q-38 0 -81.5 9t-87.5 26zM304 591h-137l-111 144h107l72 -78l73 78h107z" />
    <glyph glyph-name="Tcedilla" unicode="&#x162;" horiz-adv-x="579" 
d="M199 -176q28 -14 66 -14q23 0 41.5 10.5t18.5 33.5t-20 30.5t-43 7.5q-8 0 -18 -0.5t-18 -2.5l17 111h-28v562h-199v138h547v-138h-198v-562h-40l-10 -53q22 0 43.5 -5.5t38.5 -16.5t27 -29t10 -45q0 -24 -11.5 -44.5t-31 -35.5t-46 -23t-56.5 -8q-35 0 -58 4.5t-43 12.5
z" />
    <glyph glyph-name="tcedilla" unicode="&#x163;" horiz-adv-x="411" 
d="M384 394h-141v-196q0 -46 16 -67t65 -21q24 0 52 10l19 -105q-40 -23 -98 -26l-7 -38q21 0 40 -5t34 -15.5t23.5 -27t8.5 -41.5q0 -43 -34.5 -71t-91.5 -28q-29 0 -51.5 4.5t-40.5 11.5l10 60q14 -6 28 -9t31 -3q21 0 37 10t16 31q0 22 -18 28.5t-38 6.5h-16.5t-16.5 -1
l14 92q-64 12 -91 52.5t-27 108.5v239h-93v116h93v108l136 46v-154h141v-116z" />
    <glyph glyph-name="Tcaron" unicode="&#x164;" horiz-adv-x="579" 
d="M365 0h-150v562h-199v138h547v-138h-198v-562zM366 770h-151l-116 144h118l74 -76l74 76h118z" />
    <glyph glyph-name="tcaron" unicode="&#x165;" horiz-adv-x="459" 
d="M384 394h-141v-196q0 -46 16 -67t65 -21q24 0 52 10l19 -105q-23 -14 -51.5 -20t-61.5 -6q-95 0 -135 42.5t-40 123.5v239h-93v116h93v108l136 46v-154h141v-116zM398 565h-103l48 212h145z" />
    <glyph glyph-name="Umacron" unicode="&#x16a;" horiz-adv-x="692" 
d="M480 700h150v-400q0 -163 -72 -237.5t-212 -74.5q-66 0 -119 17.5t-89.5 55t-56 97t-19.5 143.5v399h150v-380q0 -47 6.5 -83t21.5 -61t41 -37.5t65 -12.5q42 0 68 13t41 37.5t20 60.5t5 83v380zM524 787h-354v92h354v-92z" />
    <glyph glyph-name="umacron" unicode="&#x16b;" horiz-adv-x="603" 
d="M57 510h136v-264q0 -40 5 -66.5t16 -42.5t30 -23t46 -7q63 0 90.5 42.5t27.5 124.5v236h136v-510h-136v72h-2q-28 -42 -71.5 -61.5t-94.5 -19.5q-91 0 -137 48.5t-46 155.5v315zM464 616h-323v90h323v-90z" />
    <glyph glyph-name="Ubreve" unicode="&#x16c;" horiz-adv-x="692" 
d="M480 700h150v-400q0 -163 -72 -237.5t-212 -74.5q-66 0 -119 17.5t-89.5 55t-56 97t-19.5 143.5v399h150v-380q0 -47 6.5 -83t21.5 -61t41 -37.5t65 -12.5q42 0 68 13t41 37.5t20 60.5t5 83v380zM528 899q-9 -63 -57.5 -101t-122.5 -38q-73 0 -122 38t-59 101l89 21
q3 -13 9 -25.5t16 -22t26.5 -15.5t40.5 -6t40.5 6t26.5 15.5t16 22t9 25.5z" />
    <glyph glyph-name="ubreve" unicode="&#x16d;" horiz-adv-x="603" 
d="M57 510h136v-264q0 -40 5 -66.5t16 -42.5t30 -23t46 -7q63 0 90.5 42.5t27.5 124.5v236h136v-510h-136v72h-2q-28 -42 -71.5 -61.5t-94.5 -19.5q-91 0 -137 48.5t-46 155.5v315zM482 726q-4 -33 -19 -58.5t-37.5 -43.5t-52 -27.5t-62.5 -9.5q-34 0 -63.5 10t-52 28
t-37.5 44t-19 58l85 19q6 -31 25.5 -51t61.5 -20t61 20t25 51z" />
    <glyph glyph-name="Uring" unicode="&#x16e;" horiz-adv-x="692" 
d="M480 700h150v-400q0 -163 -72 -237.5t-212 -74.5q-66 0 -119 17.5t-89.5 55t-56 97t-19.5 143.5v399h150v-380q0 -47 6.5 -83t21.5 -61t41 -37.5t65 -12.5q42 0 68 13t41 37.5t20 60.5t5 83v380zM346 827q22 0 37 14.5t15 35.5q0 20 -15 35t-37 15q-20 0 -34 -15t-14 -35
q0 -21 14 -35.5t34 -14.5zM346 755q-26 0 -47.5 9.5t-38 26t-25.5 38.5t-9 48q0 25 9 47t25.5 38.5t38 26t47.5 9.5t48 -9.5t38.5 -26t26 -38.5t9.5 -47q0 -26 -9.5 -48t-26 -38.5t-38.5 -26t-48 -9.5z" />
    <glyph glyph-name="uring" unicode="&#x16f;" horiz-adv-x="603" 
d="M57 510h136v-264q0 -40 5 -66.5t16 -42.5t30 -23t46 -7q63 0 90.5 42.5t27.5 124.5v236h136v-510h-136v72h-2q-28 -42 -71.5 -61.5t-94.5 -19.5q-91 0 -137 48.5t-46 155.5v315zM303 637q20 0 34 14t14 34t-14 34t-34 14q-22 0 -35 -14t-13 -34t13 -34t35 -14zM303 571
q-49 0 -81.5 32.5t-32.5 81.5q0 24 8.5 44.5t24 35.5t36.5 24t45 9t45 -9t36 -24t24 -35.5t9 -44.5t-9 -45t-24 -36.5t-36 -24t-45 -8.5z" />
    <glyph glyph-name="Uhungarumlaut" unicode="&#x170;" horiz-adv-x="692" 
d="M480 700h150v-400q0 -163 -72 -237.5t-212 -74.5q-66 0 -119 17.5t-89.5 55t-56 97t-19.5 143.5v399h150v-380q0 -47 6.5 -83t21.5 -61t41 -37.5t65 -12.5q42 0 68 13t41 37.5t20 60.5t5 83v380zM662 923l-166 -153h-101l104 153h163zM446 923l-166 -153h-101l104 153
h163z" />
    <glyph glyph-name="uhungarumlaut" unicode="&#x171;" horiz-adv-x="603" 
d="M57 510h136v-264q0 -40 5 -66.5t16 -42.5t30 -23t46 -7q63 0 90.5 42.5t27.5 124.5v236h136v-510h-136v72h-2q-28 -42 -71.5 -61.5t-94.5 -19.5q-91 0 -137 48.5t-46 155.5v315zM446 591h-92l96 144h149zM238 591h-92l96 144h150z" />
    <glyph glyph-name="Uogonek" unicode="&#x172;" horiz-adv-x="692" 
d="M489 -238q-17 -8 -41 -15t-56 -7q-38 0 -63 9.5t-40 24.5t-21.5 34t-6.5 39q0 43 27 79t65 62h-7q-66 0 -119 16t-89.5 51.5t-56 93.5t-19.5 142v409h150v-390q0 -47 6.5 -81.5t21.5 -57.5t41 -34t65 -11q42 0 68 11.5t41 34t20 57t5 81.5v390h150v-410
q0 -129 -44.5 -198t-133.5 -92q-40 -27 -62 -58.5t-22 -72.5q0 -26 17 -40t43 -14q17 0 32 5.5t29 13.5v-72z" />
    <glyph glyph-name="uogonek" unicode="&#x173;" horiz-adv-x="603" 
d="M57 510h136v-264q0 -40 5 -66.5t16 -42.5t30 -23t46 -7q63 0 90.5 42.5t27.5 124.5v236h136v-510h-27q-36 -25 -56.5 -53.5t-20.5 -65.5q0 -24 14 -36.5t38 -12.5q32 0 59 16v-65q-16 -8 -37.5 -14t-50.5 -6q-34 0 -57.5 8.5t-37.5 22t-20.5 31.5t-6.5 36q0 46 30 81
t70 58l-33 7v65h-2q-23 -34 -55.5 -53t-70.5 -24q-13 -2 -25 -3t-25 0q-85 2 -129 50.5t-44 152.5v315z" />
    <glyph glyph-name="Ydieresis" unicode="&#x178;" horiz-adv-x="636" 
d="M394 0h-150v267l-244 433h174l147 -267l142 267h173l-242 -433v-267zM511 840q0 -33 -19.5 -52t-56.5 -19q-39 0 -59.5 19.5t-20.5 51.5q0 33 20.5 51.5t58.5 18.5t57.5 -18.5t19.5 -51.5zM280 840q0 -33 -20 -52t-59 -19q-36 0 -56.5 19.5t-20.5 51.5q0 33 20.5 51.5
t56.5 18.5q39 0 59 -18.5t20 -51.5z" />
    <glyph glyph-name="Zacute" unicode="&#x179;" horiz-adv-x="595" 
d="M563 0h-531v133l345 435h-333v132h513v-133l-344 -435h350v-132zM347 770h-110l91 154h180z" />
    <glyph glyph-name="zacute" unicode="&#x17a;" horiz-adv-x="499" 
d="M465 0h-431v120l258 274h-250v116h419v-120l-258 -274h262v-116zM298 593h-106l86 144h168z" />
    <glyph glyph-name="Zdotaccent" unicode="&#x17b;" horiz-adv-x="595" 
d="M563 0h-531v133l345 435h-333v132h513v-133l-344 -435h350v-132zM384 849q0 -38 -22.5 -58.5t-65.5 -20.5q-42 0 -64 20.5t-22 58.5q0 36 22.5 56t63.5 20q88 0 88 -76z" />
    <glyph glyph-name="zdotaccent" unicode="&#x17c;" horiz-adv-x="499" 
d="M465 0h-431v120l258 274h-250v116h419v-120l-258 -274h262v-116zM332 673q0 -35 -21 -54.5t-62 -19.5q-39 0 -60.5 19.5t-21.5 54.5q0 33 21.5 52t60.5 19q41 0 62 -18.5t21 -52.5z" />
    <glyph glyph-name="Zcaron" unicode="&#x17d;" horiz-adv-x="595" 
d="M563 0h-531v133l345 435h-333v132h513v-133l-344 -435h350v-132zM373 770h-151l-116 144h118l74 -76l74 76h118z" />
    <glyph glyph-name="zcaron" unicode="&#x17e;" horiz-adv-x="499" 
d="M465 0h-431v120l258 274h-250v116h419v-120l-258 -274h262v-116zM319 591h-137l-111 144h107l72 -78l73 78h107z" />
    <glyph glyph-name="uni018F" unicode="&#x18f;" horiz-adv-x="699" 
d="M43 391h456q-2 30 -11 63.5t-31.5 62.5t-62.5 48t-103 19q-53 0 -100 -9t-85 -27v134q53 16 102 23t103 7q107 0 174 -31t105 -82t52 -116.5t14 -134.5q0 -64 -16.5 -128.5t-54 -116t-97 -83.5t-146.5 -32q-69 0 -124.5 21.5t-94 65.5t-59.5 110.5t-21 157.5v48zM194 282
v-5q1 -76 35.5 -119.5t114.5 -43.5q28 0 55 9t48.5 29t35.5 52t17 78h-306z" />
    <glyph glyph-name="florin" unicode="&#x192;" horiz-adv-x="594" 
d="M219 394h-93l24 116h93l12 63q17 84 68.5 134.5t150.5 50.5q26 0 45 -2.5t40 -5.5l-23 -113q-6 2 -18.5 4t-28.5 2q-25 0 -42 -5t-28.5 -16.5t-19 -31t-13.5 -47.5l-7 -33h127l-23 -116h-128l-80 -390q-11 -54 -28.5 -95.5t-45 -69.5t-66.5 -42.5t-92 -14.5q-21 0 -36 2
t-26 4l26 117q15 -3 36 -3q16 0 30.5 3t26.5 13t22 28.5t17 49.5z" />
    <glyph glyph-name="uni01DD" unicode="&#x1dd;" horiz-adv-x="569" 
d="M68 481q20 15 69 27.5t112 12.5q149 0 216.5 -69.5t67.5 -201.5q0 -60 -17 -108.5t-50 -82t-80.5 -52t-108.5 -18.5q-68 0 -115 20.5t-75.5 55.5t-41 82.5t-12.5 101.5v37h360q-8 64 -45.5 94.5t-113.5 30.5q-57 0 -98.5 -10.5t-67.5 -26.5v107zM171 204q-1 -47 24 -78
t80 -31q104 0 118 109h-222z" />
    <glyph glyph-name="Gcaron" unicode="&#x1e6;" horiz-adv-x="687" 
d="M498 269h-128v124h263v-354q-36 -20 -93 -35.5t-129 -15.5q-81 0 -148 23t-116 68t-76 110.5t-27 150.5q0 91 27 160.5t76.5 116.5t117.5 71t151 24q67 0 113.5 -12t70.5 -20l-33 -126q-34 12 -64.5 17.5t-68.5 5.5q-47 0 -89.5 -13t-74.5 -40.5t-51.5 -71t-19.5 -103.5
q0 -59 19 -101.5t49.5 -70t70.5 -40.5t82 -13q20 0 40.5 2.5t37.5 7.5v135zM471 770h-151l-116 144h118l74 -76l74 76h118z" />
    <glyph glyph-name="gcaron" unicode="&#x1e7;" horiz-adv-x="622" 
d="M430 510h132v-481q0 -70 -21.5 -117t-59.5 -76t-90 -41.5t-112 -12.5q-27 0 -56.5 2.5t-58.5 7.5t-55 12t-45 16l32 107q26 -11 72.5 -20t93.5 -9q46 0 77.5 9t51 26.5t27.5 43.5t8 60v47h-2q-22 -38 -66 -61t-95 -23q-111 0 -169 61.5t-58 187.5q0 131 55 200.5
t173 69.5q58 0 101 -22.5t63 -57.5h2v71zM300 407q-61 0 -90.5 -35.5t-29.5 -113.5q0 -72 31 -109t89 -37q61 0 93.5 39.5t32.5 105.5q0 69 -30.5 109.5t-95.5 40.5zM372 591h-137l-111 144h107l72 -78l73 78h107z" />
    <glyph glyph-name="Scommaaccent" unicode="&#x218;" horiz-adv-x="559" 
d="M68 166q12 -8 30.5 -16.5t41.5 -16t48.5 -12t52.5 -4.5q59 0 86.5 21t27.5 60q0 22 -6.5 36.5t-20 25.5t-35.5 19.5t-53 19.5l-24 8q-83 28 -121.5 77t-38.5 123q0 48 18.5 86t51.5 64.5t77.5 40.5t97.5 14q69 0 118.5 -11.5t79.5 -24.5l-35 -128q-37 17 -76.5 25
t-72.5 8q-51 0 -78 -16.5t-27 -51.5q0 -18 5.5 -30.5t20 -23t39.5 -21.5t64 -24l26 -9q46 -16 76 -37t47 -46t24 -54t7 -61q0 -53 -19.5 -94t-54.5 -69t-82.5 -42t-103.5 -14q-32 0 -64 4t-61 10.5t-54 15.5t-43 19zM197 -183q31 -2 54 5t26 30q-43 -5 -70.5 7t-27.5 41
q0 24 23 39t62 15t64 -20t25 -61q0 -25 -10.5 -46t-30 -36t-49 -22.5t-66.5 -5.5v54z" />
    <glyph glyph-name="scommaaccent" unicode="&#x219;" horiz-adv-x="453" 
d="M59 125q35 -19 71 -24.5t73 -5.5q42 0 60.5 13.5t18.5 39.5q0 20 -18 31t-45.5 20t-59.5 19t-59.5 27.5t-45.5 45.5t-18 74q0 70 49.5 113t162.5 43q38 0 82 -6.5t73 -17.5l-23 -101q-26 9 -59 14t-65 5q-79 0 -79 -43q0 -20 18 -30t45.5 -18t59.5 -17.5t59.5 -27
t45.5 -47t18 -78.5q0 -36 -12 -66.5t-38.5 -52.5t-68 -34t-99.5 -12q-38 0 -81.5 9t-87.5 26zM159 -183q31 -2 53.5 5t25.5 30q-42 -5 -69.5 7t-27.5 41q0 24 22.5 39t61.5 15t64.5 -20t25.5 -61q0 -25 -10.5 -46t-30 -36t-49 -22.5t-66.5 -5.5v54z" />
    <glyph glyph-name="Tcommaaccent" unicode="&#x21a;" horiz-adv-x="579" 
d="M365 0h-150v562h-199v138h547v-138h-198v-562zM222 -183q31 -2 54 5t26 30q-43 -5 -70.5 7t-27.5 41q0 24 23 39t62 15t64 -20t25 -61q0 -25 -10.5 -46t-30 -36t-49 -22.5t-66.5 -5.5v54z" />
    <glyph glyph-name="tcommaaccent" unicode="&#x21b;" horiz-adv-x="411" 
d="M384 394h-141v-196q0 -46 16 -67t65 -21q24 0 52 10l19 -105q-23 -14 -51.5 -20t-61.5 -6q-95 0 -135 42.5t-40 123.5v239h-93v116h93v108l136 46v-154h141v-116zM192 -183q31 -2 53.5 5t25.5 30q-42 -5 -69.5 7t-27.5 41q0 24 22.5 39t61.5 15t64.5 -20t25.5 -61
q0 -25 -10.5 -46t-30 -36t-49 -22.5t-66.5 -5.5v54z" />
    <glyph glyph-name="uni0237" unicode="&#x237;" horiz-adv-x="261" 
d="M-49 -95q16 -3 36 -3q16 0 30.5 3t25 13t16.5 28.5t6 49.5v514h136v-506q0 -108 -43 -165t-146 -57q-21 0 -37 2t-27 4z" />
    <glyph glyph-name="uni0259" unicode="&#x259;" horiz-adv-x="569" 
d="M68 481q20 15 69 27.5t112 12.5q149 0 216.5 -69.5t67.5 -201.5q0 -60 -17 -108.5t-50 -82t-80.5 -52t-108.5 -18.5q-68 0 -115 20.5t-75.5 55.5t-41 82.5t-12.5 101.5v37h360q-8 64 -45.5 94.5t-113.5 30.5q-57 0 -98.5 -10.5t-67.5 -26.5v107zM171 204q-1 -47 24 -78
t80 -31q104 0 118 109h-222z" />
    <glyph glyph-name="afii57929" unicode="&#x2bc;" horiz-adv-x="215" 
d="M117 496h-97l46 204h137z" />
    <glyph glyph-name="circumflex" unicode="&#x2c6;" horiz-adv-x="605" 
d="M482 591h-107l-72 77l-73 -77h-107l111 144h137z" />
    <glyph glyph-name="caron" unicode="&#x2c7;" horiz-adv-x="605" 
d="M371 591h-137l-111 144h107l72 -78l73 78h107z" />
    <glyph glyph-name="breve" unicode="&#x2d8;" horiz-adv-x="605" 
d="M474 726q-4 -33 -19 -58.5t-37.5 -43.5t-52 -27.5t-62.5 -9.5q-34 0 -63.5 10t-52 28t-37.5 44t-19 58l85 19q6 -31 25.5 -51t61.5 -20t61 20t25 51z" />
    <glyph glyph-name="dotaccent" unicode="&#x2d9;" horiz-adv-x="260" 
d="M213 673q0 -35 -21 -54.5t-62 -19.5q-39 0 -60.5 19.5t-21.5 54.5q0 33 21.5 52t60.5 19q41 0 62 -18.5t21 -52.5z" />
    <glyph glyph-name="ring" unicode="&#x2da;" horiz-adv-x="606" 
d="M303 637q20 0 34 14t14 34t-14 34t-34 14q-22 0 -35 -14t-13 -34t13 -34t35 -14zM303 571q-49 0 -81.5 32.5t-32.5 81.5q0 24 8.5 44.5t24 35.5t36.5 24t45 9t45 -9t36 -24t24 -35.5t9 -44.5t-9 -45t-24 -36.5t-36 -24t-45 -8.5z" />
    <glyph glyph-name="ogonek" unicode="&#x2db;" horiz-adv-x="570" 
d="M447 0q-37 -25 -57.5 -53.5t-20.5 -65.5q0 -24 14.5 -36.5t38.5 -12.5q30 0 60 16v-65q-17 -8 -39 -14t-51 -6q-34 0 -57 8.5t-37.5 22t-20.5 31.5t-6 36q0 25 10 47.5t26.5 41.5t38 34t43.5 26z" />
    <glyph glyph-name="tilde" unicode="&#x2dc;" horiz-adv-x="605" 
d="M484 713q-4 -57 -32.5 -88.5t-70.5 -31.5q-21 0 -39 5.5t-47 18.5q-21 9 -34.5 15.5t-29.5 6.5q-12 0 -22.5 -11t-13.5 -35l-74 12q3 59 30.5 89.5t71.5 30.5q23 0 43.5 -7t43.5 -17q24 -10 37.5 -15.5t27.5 -5.5q30 0 36 45z" />
    <glyph glyph-name="hungarumlaut" unicode="&#x2dd;" horiz-adv-x="605" 
d="M446 591h-92l96 144h149zM238 591h-92l96 144h150z" />
    <glyph glyph-name="acutecomb" unicode="&#x301;" horiz-adv-x="0" 
d="M-247 593h-106l86 144h168z" />
    <glyph glyph-name="uni0394" unicode="&#x394;" horiz-adv-x="689" 
d="M6 0l245 700h191l242 -700h-678zM195 132h295l-145 431h-2z" />
    <glyph glyph-name="uni0394" unicode="&#x2206;" horiz-adv-x="689" 
d="M6 0l245 700h191l242 -700h-678zM195 132h295l-145 431h-2z" />
    <glyph glyph-name="uni03A9" unicode="&#x3a9;" horiz-adv-x="768" 
d="M384 580q-56 0 -91 -18t-55 -45.5t-27.5 -60.5t-7.5 -63q0 -19 5 -45.5t20 -52t43 -46t74 -27.5v-222h-295v125h178v39q-35 8 -68.5 27t-59 49.5t-41 73.5t-15.5 100q0 68 22.5 123t66 94t107 60t144.5 21t144.5 -21t107 -60t66 -94t22.5 -123q0 -57 -15.5 -100
t-41.5 -73.5t-59 -49.5t-68 -27v-39h177v-125h-294v222q46 7 74 27.5t43 46t19.5 52t4.5 45.5q0 30 -7.5 63t-27 60.5t-55 45.5t-90.5 18z" />
    <glyph glyph-name="uni03A9" unicode="&#x2126;" horiz-adv-x="768" 
d="M384 580q-56 0 -91 -18t-55 -45.5t-27.5 -60.5t-7.5 -63q0 -19 5 -45.5t20 -52t43 -46t74 -27.5v-222h-295v125h178v39q-35 8 -68.5 27t-59 49.5t-41 73.5t-15.5 100q0 68 22.5 123t66 94t107 60t144.5 21t144.5 -21t107 -60t66 -94t22.5 -123q0 -57 -15.5 -100
t-41.5 -73.5t-59 -49.5t-68 -27v-39h177v-125h-294v222q46 7 74 27.5t43 46t19.5 52t4.5 45.5q0 30 -7.5 63t-27 60.5t-55 45.5t-90.5 18z" />
    <glyph glyph-name="pi" unicode="&#x3c0;" horiz-adv-x="684" 
d="M572 173q0 -37 9 -50.5t30 -13.5q12 0 26 3l3 -117q-14 -2 -34 -4.5t-40 -2.5q-61 0 -95.5 31.5t-34.5 108.5v262h-169v-390h-136v388q-27 0 -48.5 -10.5t-36.5 -22.5l-41 111q9 8 23.5 16t35.5 14t49.5 10t66.5 4h471v-120h-79v-217z" />
    <glyph glyph-name="afii10023" unicode="&#x401;" horiz-adv-x="564" 
d="M517 0h-449v700h449v-132h-299v-149h263v-123h-263v-164h299v-132zM484 840q0 -33 -19.5 -52t-56.5 -19q-39 0 -59.5 19.5t-20.5 51.5q0 33 20.5 51.5t58.5 18.5t57.5 -18.5t19.5 -51.5zM253 840q0 -33 -20 -52t-59 -19q-36 0 -56.5 19.5t-20.5 51.5q0 33 20.5 51.5
t56.5 18.5q39 0 59 -18.5t20 -51.5z" />
    <glyph glyph-name="afii10051" unicode="&#x402;" horiz-adv-x="811" 
d="M365 0h-150v562h-199v138h547v-138h-198v-154q39 15 80.5 24t93.5 9q75 0 120.5 -22t69.5 -55.5t32 -73t8 -74.5q0 -47 -13 -88t-41.5 -72.5t-74 -49.5t-109.5 -18q-15 0 -39 1.5t-42 6.5v114q11 -4 26.5 -6t28.5 -2q55 0 80 28.5t25 79.5q0 54 -30 77t-83 23
q-46 0 -76.5 -9.5t-55.5 -20.5v-280z" />
    <glyph glyph-name="afii10052" unicode="&#x403;" horiz-adv-x="511" 
d="M218 0h-150v700h427v-136h-277v-564zM328 770h-110l91 154h180z" />
    <glyph glyph-name="afii10053" unicode="&#x404;" horiz-adv-x="634" 
d="M588 28q-14 -7 -30.5 -14t-39 -13t-52 -9.5t-67.5 -3.5q-80 0 -145.5 23t-112 67.5t-72 110.5t-25.5 152q0 90 25.5 159.5t73.5 116.5t116.5 71t154.5 24q57 0 102.5 -10t73.5 -23l-32 -120q-32 11 -65.5 16t-57.5 5q-89 0 -151 -40t-80 -125h254v-115h-256
q14 -90 76 -135t156 -45q24 0 58.5 6.5t66.5 20.5z" />
    <glyph glyph-name="afii10054" unicode="&#x405;" horiz-adv-x="559" 
d="M68 166q12 -8 30.5 -16.5t41.5 -16t48.5 -12t52.5 -4.5q59 0 86.5 21t27.5 60q0 22 -6.5 36.5t-20 25.5t-35.5 19.5t-53 19.5l-24 8q-83 28 -121.5 77t-38.5 123q0 48 18.5 86t51.5 64.5t77.5 40.5t97.5 14q69 0 118.5 -11.5t79.5 -24.5l-35 -128q-37 17 -76.5 25
t-72.5 8q-51 0 -78 -16.5t-27 -51.5q0 -18 5.5 -30.5t20 -23t39.5 -21.5t64 -24l26 -9q46 -16 76 -37t47 -46t24 -54t7 -61q0 -53 -19.5 -94t-54.5 -69t-82.5 -42t-103.5 -14q-32 0 -64 4t-61 10.5t-54 15.5t-43 19z" />
    <glyph glyph-name="afii10055" unicode="&#x406;" horiz-adv-x="286" 
d="M218 0h-150v700h150v-700z" />
    <glyph glyph-name="afii10056" unicode="&#x407;" horiz-adv-x="286" 
d="M327 833q0 -33 -20 -52t-58 -19q-39 0 -59.5 19t-20.5 52t20.5 51.5t59.5 18.5q38 0 58 -18.5t20 -51.5zM117 833q0 -33 -20 -52t-60 -19q-38 0 -58 19t-20 52t20.5 51.5t57.5 18.5q40 0 60 -18.5t20 -51.5zM218 0h-150v700h150v-700z" />
    <glyph glyph-name="afii10057" unicode="&#x408;" horiz-adv-x="441" 
d="M55 138q31 -10 58 -10q55 0 82.5 35.5t27.5 100.5v436h150v-465q0 -55 -13 -100t-40 -77.5t-69 -50t-100 -17.5q-41 0 -66.5 4.5t-54.5 14.5z" />
    <glyph glyph-name="afii10058" unicode="&#x409;" horiz-adv-x="1035" 
d="M494 0v565h-192q-2 -135 -8.5 -242t-29 -181t-67 -113t-120.5 -39q-26 0 -47 7v141q15 -3 25 -3q30 0 50 23t31.5 85t16 172.5t4.5 284.5h487v-242h84q134 0 201 -51.5t67 -171.5q0 -115 -70 -175t-209 -60h-223zM644 132h63q39 0 65 7t41.5 19.5t21.5 31.5t6 43
q0 26 -6.5 44t-22.5 29t-41.5 15.5t-63.5 4.5h-63v-194z" />
    <glyph glyph-name="afii10059" unicode="&#x40a;" horiz-adv-x="1044" 
d="M652 132h64q39 0 65 7t41.5 19.5t21.5 31.5t6 43q0 26 -6.5 44t-22.5 29t-41.5 15.5t-63.5 4.5h-64v-194zM502 0v298h-284v-298h-150v700h150v-268h284v268h150v-242h85q134 0 201 -51.5t67 -171.5q0 -115 -70 -175t-209 -60h-224z" />
    <glyph glyph-name="afii10060" unicode="&#x40b;" horiz-adv-x="804" 
d="M365 418q28 8 64.5 15.5t87.5 7.5q122 0 176 -54.5t54 -157.5v-229h-150v195q0 34 -7.5 56t-23.5 34.5t-39.5 17.5t-55.5 5q-63 0 -106 -20v-288h-150v562h-199v138h547v-138h-198v-144z" />
    <glyph glyph-name="afii10061" unicode="&#x40c;" horiz-adv-x="664" 
d="M218 377l251 323h174l-269 -327l288 -373h-183l-204 270l-57 -65v-205h-150v700h150v-323zM379 770h-110l91 154h180z" />
    <glyph glyph-name="afii10062" unicode="&#x40e;" horiz-adv-x="633" 
d="M177 95q27 17 48.5 36.5t34.5 42.5l3 7l-260 519h174l165 -372l134 372h155l-221 -545q-25 -61 -64.5 -106.5t-84.5 -69.5zM527 904q-2 -40 -18.5 -68.5t-43.5 -47t-63 -27t-76 -8.5q-41 0 -77 8.5t-63 27t-43.5 47t-18.5 68.5l117 11q8 -36 29.5 -50t55.5 -14
q33 0 54.5 14t28.5 50z" />
    <glyph glyph-name="afii10145" unicode="&#x40f;" horiz-adv-x="704" 
d="M636 0h-213v-156h-142v156h-213v700h150v-565h268v565h150v-700z" />
    <glyph glyph-name="afii10017" unicode="&#x410;" horiz-adv-x="683" 
d="M474 154h-269l-50 -154h-148l239 700h195l236 -700h-153zM246 285h187l-93 294z" />
    <glyph glyph-name="afii10018" unicode="&#x411;" horiz-adv-x="632" 
d="M215 132h87q66 0 102.5 24t36.5 69q0 25 -9.5 42.5t-26 28t-39 15t-47.5 4.5h-104v-183zM68 0v700h466v-132h-316v-141h126q52 0 98 -10t80.5 -34t54 -63t19.5 -97q0 -56 -21.5 -98t-59 -70t-89.5 -41.5t-112 -13.5h-246z" />
    <glyph glyph-name="afii10019" unicode="&#x412;" horiz-adv-x="633" 
d="M218 410h83q68 0 98 23t30 63q0 46 -32.5 63t-92.5 17h-86v-166zM218 124h82q65 0 102.5 18.5t37.5 68.5q0 51 -34 71.5t-98 20.5h-90v-179zM68 0v700h272q115 0 176.5 -46t61.5 -132q0 -68 -39 -106t-98 -51v-2q34 -2 63 -15.5t49 -35t31.5 -48.5t11.5 -57
q0 -43 -15 -80.5t-47 -65.5t-82 -44.5t-121 -16.5h-263z" />
    <glyph glyph-name="afii10020" unicode="&#x413;" horiz-adv-x="511" 
d="M218 0h-150v700h427v-136h-277v-564z" />
    <glyph glyph-name="afii10021" unicode="&#x414;" horiz-adv-x="749" 
d="M726 -156h-142v156h-424v-156h-142v291h66q25 43 41 94.5t25.5 112.5t14 131.5t6.5 151.5l2 75h469v-565h84v-291zM492 135v430h-180q0 -3 -0.5 -8.5t-1 -11.5t-0.5 -11.5v-7.5q-5 -114 -21.5 -213.5t-51.5 -177.5h255z" />
    <glyph glyph-name="afii10022" unicode="&#x415;" horiz-adv-x="564" 
d="M517 0h-449v700h449v-132h-299v-149h263v-123h-263v-164h299v-132z" />
    <glyph glyph-name="afii10024" unicode="&#x416;" horiz-adv-x="934" 
d="M542 404h31l174 296h168l-200 -317q30 -9 51 -36t43 -73.5t49.5 -114.5t71.5 -159h-172q-29 62 -47.5 107.5t-31 77.5t-22 52t-20.5 31.5t-26.5 16t-40.5 4.5h-28v-289h-150v289h-28q-25 0 -40.5 -4.5t-26.5 -16t-20.5 -31.5t-22 -52t-31 -77.5t-47.5 -107.5h-172
q44 91 71.5 159t49.5 114.5t43 73.5t51 36l-200 317h168l174 -296h31v296h150v-296z" />
    <glyph glyph-name="afii10025" unicode="&#x417;" horiz-adv-x="579" 
d="M67 155q41 -19 85.5 -27t81.5 -8q78 0 113.5 24t35.5 68q0 42 -30 64.5t-97 22.5h-98v115h80q64 0 97.5 19.5t33.5 65.5q0 44 -31 62.5t-90 18.5q-45 0 -82.5 -6.5t-85.5 -26.5l-32 123q34 11 62 19t54.5 13t53.5 7.5t59 2.5q69 0 116 -14t76 -38.5t41.5 -58.5t12.5 -74
q0 -63 -35 -104.5t-95 -57.5v-4q75 -11 112.5 -54t37.5 -106q0 -48 -17 -87t-52.5 -67t-90 -43.5t-130.5 -15.5q-50 0 -106 9t-109 35z" />
    <glyph glyph-name="afii10026" unicode="&#x418;" horiz-adv-x="729" 
d="M661 0h-150v488l-282 -488h-161v700h150v-487l283 487h160v-700z" />
    <glyph glyph-name="afii10027" unicode="&#x419;" horiz-adv-x="729" 
d="M661 0h-150v488l-282 -488h-161v700h150v-487l283 487h160v-700zM567 904q-2 -40 -18.5 -68.5t-43.5 -47t-63 -27t-76 -8.5q-41 0 -77 8.5t-63 27t-43.5 47t-18.5 68.5l117 11q8 -36 29.5 -50t55.5 -14q33 0 54.5 14t28.5 50z" />
    <glyph glyph-name="afii10028" unicode="&#x41a;" horiz-adv-x="656" 
d="M218 407h36l215 293h174l-247 -306q30 -9 54.5 -38t52 -77.5t63 -118t88.5 -160.5h-172q-36 62 -59.5 107.5t-39.5 77.5t-27.5 52t-23 31.5t-25.5 16t-35 4.5h-54v-289h-150v700h150v-293z" />
    <glyph glyph-name="afii10029" unicode="&#x41b;" horiz-adv-x="711" 
d="M644 0h-150v565h-192q-2 -135 -8.5 -242t-29 -181t-67 -113t-120.5 -39q-26 0 -47 7v141q15 -3 25 -3q28 0 46.5 18t30 67t17 134.5t7.5 219.5l1 126h487v-700z" />
    <glyph glyph-name="afii10030" unicode="&#x41c;" horiz-adv-x="897" 
d="M852 0h-151l-38 465l-144 -465h-143l-142 463l-38 -463h-151l70 700h179l158 -528l156 528h173z" />
    <glyph glyph-name="afii10031" unicode="&#x41d;" horiz-adv-x="726" 
d="M658 0h-150v292h-290v-292h-150v700h150v-274h290v274h150v-700z" />
    <glyph glyph-name="afii10032" unicode="&#x41e;" horiz-adv-x="765" 
d="M389 120q38 0 70 14t55 42.5t35.5 71.5t12.5 102q0 119 -50 174.5t-132 55.5q-37 0 -69.5 -14t-56.5 -42.5t-37.5 -72t-13.5 -101.5q0 -59 14.5 -102t39.5 -71.5t59 -42.5t73 -14zM384 -12q-76 0 -138.5 23.5t-107.5 69.5t-69.5 113.5t-24.5 155.5t25.5 155.5t70.5 113.5
t106.5 69.5t133.5 23.5q81 0 144.5 -25t107 -71.5t66.5 -114t23 -151.5q0 -93 -25.5 -161.5t-71 -113t-107 -66t-133.5 -21.5z" />
    <glyph glyph-name="afii10033" unicode="&#x41f;" horiz-adv-x="704" 
d="M636 0h-150v565h-268v-565h-150v700h568v-700z" />
    <glyph glyph-name="afii10034" unicode="&#x420;" horiz-adv-x="626" 
d="M215 351h82q68 0 106 26.5t38 82.5q0 59 -37 83.5t-106 24.5h-83v-217zM218 0h-150v700h241q66 0 119 -14t90.5 -42.5t57.5 -73t20 -104.5q0 -59 -20.5 -105t-59.5 -77.5t-95 -48t-126 -16.5h-77v-219z" />
    <glyph glyph-name="afii10035" unicode="&#x421;" horiz-adv-x="634" 
d="M588 28q-14 -7 -30.5 -14t-39 -13t-52 -9.5t-67.5 -3.5q-80 0 -145.5 23t-112 67.5t-72 110.5t-25.5 152q0 90 25.5 159.5t73.5 116.5t116.5 71t154.5 24q57 0 102.5 -10t73.5 -23l-33 -126q-32 11 -65 16t-57 5q-52 0 -94.5 -13t-73 -40.5t-47.5 -70t-17 -100.5
q0 -111 62.5 -167t168.5 -56q24 0 58 6.5t66 20.5z" />
    <glyph glyph-name="afii10036" unicode="&#x422;" horiz-adv-x="579" 
d="M365 0h-150v562h-199v138h547v-138h-198v-562z" />
    <glyph glyph-name="afii10037" unicode="&#x423;" horiz-adv-x="633" 
d="M177 95q27 17 48.5 36.5t34.5 42.5l3 7l-260 519h174l165 -372l134 372h155l-221 -545q-25 -61 -64.5 -106.5t-84.5 -69.5z" />
    <glyph glyph-name="afii10038" unicode="&#x424;" horiz-adv-x="873" 
d="M507 182q30 1 60 12t54.5 32t39.5 52.5t15 73.5q0 46 -14 78t-37 52t-53.5 29.5t-64.5 10.5v-340zM365 522q-33 -1 -63.5 -11t-54 -30.5t-37.5 -52.5t-14 -76t14.5 -75.5t38 -52t54 -31t62.5 -11.5v340zM511 -12h-150v71q-67 1 -126 20t-103.5 55.5t-70 91t-25.5 126.5
q0 70 26.5 124t71 91t103.5 57t124 21v72h150v-72q68 -1 127 -20t103 -56t69.5 -91t25.5 -126t-27.5 -126t-73 -91t-104 -56t-120.5 -20v-71z" />
    <glyph glyph-name="afii10039" unicode="&#x425;" horiz-adv-x="661" 
d="M473 0l-147 257l-143 -257h-176l212 362l-193 338h177l128 -241l135 241h171l-198 -336l215 -364h-181z" />
    <glyph glyph-name="afii10040" unicode="&#x426;" horiz-adv-x="738" 
d="M715 -156h-142v156h-505v700h150v-565h263v565h150v-565h84v-291z" />
    <glyph glyph-name="afii10041" unicode="&#x427;" horiz-adv-x="646" 
d="M578 0h-150v265q-27 -8 -62 -15t-80 -7q-66 0 -111.5 14.5t-74 42.5t-41.5 67.5t-13 89.5v243h150v-208q0 -34 7.5 -55.5t23.5 -34t39.5 -17t56.5 -4.5q63 0 105 18v301h150v-700z" />
    <glyph glyph-name="afii10042" unicode="&#x428;" horiz-adv-x="952" 
d="M884 0h-816v700h150v-565h183v565h150v-565h183v565h150v-700z" />
    <glyph glyph-name="afii10043" unicode="&#x429;" horiz-adv-x="991" 
d="M968 -156h-142v156h-758v700h150v-565h183v565h150v-565h183v565h150v-565h84v-291z" />
    <glyph glyph-name="afii10044" unicode="&#x42a;" horiz-adv-x="714" 
d="M313 132h60q79 0 113 29.5t34 78.5q0 53 -35.5 76t-111.5 23h-60v-207zM163 0v562h-146v138h296v-229h81q134 0 207.5 -55t73.5 -175q0 -115 -76.5 -178t-215.5 -63h-220z" />
    <glyph glyph-name="afii10045" unicode="&#x42b;" horiz-adv-x="872" 
d="M218 132h56q79 0 113 29.5t34 78.5q0 53 -35.5 76t-111.5 23h-56v-207zM68 0v700h150v-229h77q134 0 207.5 -55t73.5 -175q0 -115 -76.5 -178t-215.5 -63h-216zM804 0h-150v700h150v-700z" />
    <glyph glyph-name="afii10046" unicode="&#x42c;" horiz-adv-x="623" 
d="M218 132h64q79 0 113 29.5t34 78.5q0 53 -35.5 76t-111.5 23h-64v-207zM68 0v700h150v-229h85q134 0 207.5 -55t73.5 -175q0 -115 -76.5 -178t-215.5 -63h-224z" />
    <glyph glyph-name="afii10047" unicode="&#x42d;" horiz-adv-x="644" 
d="M46 672q27 14 77 27t127 13q80 0 145 -23t110.5 -67.5t70 -110.5t24.5 -152q0 -90 -27 -159.5t-77 -116.5t-120 -71t-156 -24q-57 0 -102.5 10t-73.5 23l32 120q32 -11 68 -16t60 -5q46 0 86.5 10.5t71.5 32.5t51.5 56t27.5 81h-275v115h272q-18 84 -78.5 124.5
t-145.5 40.5q-31 0 -69 -6.5t-70 -20.5z" />
    <glyph glyph-name="afii10048" unicode="&#x42e;" horiz-adv-x="1014" 
d="M641 -12q-140 0 -225 78t-99 226h-99v-292h-150v700h150v-274h102q9 69 36 122.5t68 89.5t95 55t118 19q81 0 143 -25t104.5 -71.5t64 -114t21.5 -151.5q0 -93 -24.5 -161t-68 -112.5t-104 -66.5t-132.5 -22zM646 120q77 0 121 56t44 174q0 120 -46 175t-128 55
q-37 0 -68 -14t-53.5 -42.5t-35 -72t-12.5 -101.5q0 -117 49.5 -173.5t128.5 -56.5z" />
    <glyph glyph-name="afii10049" unicode="&#x42f;" horiz-adv-x="643" 
d="M172 282q-53 22 -85.5 66.5t-32.5 121.5q0 119 73 174.5t205 55.5h244v-700h-150v242h-63q-35 0 -53.5 -9.5t-33.5 -36t-33.5 -74t-52.5 -122.5h-170q30 70 50 119.5t35.5 82t30.5 51.5t36 29zM428 366v202h-101q-54 0 -86 -25t-32 -79q0 -52 36 -75t96 -23h87z" />
    <glyph glyph-name="afii10065" unicode="&#x430;" horiz-adv-x="542" 
d="M349 230q-40 -3 -72.5 -7.5t-56 -13t-36 -21.5t-12.5 -33q0 -27 17.5 -42t55.5 -15q45 0 74.5 28t29.5 78v26zM485 0h-126v83h-2q-9 -17 -23 -33.5t-34.5 -29.5t-47 -21t-59.5 -8q-75 0 -118 39.5t-43 108.5q0 47 21.5 79t62 52t99.5 30.5t134 14.5v8q0 41 -22 63t-81 22
q-44 0 -84.5 -10.5t-75.5 -23.5l-22 103q45 23 98 33.5t107 10.5q59 0 100 -13.5t67 -41t37.5 -69t11.5 -98.5v-299z" />
    <glyph glyph-name="afii10066" unicode="&#x431;" horiz-adv-x="616" 
d="M145 400q22 45 71 73t127 28q117 0 177.5 -65t60.5 -188q0 -65 -19.5 -113.5t-54.5 -81t-83 -48.5t-105 -16q-58 0 -108.5 17t-88 55t-59 100t-21.5 152q0 121 21.5 199.5t63.5 125t103.5 67t141.5 26.5q30 3 52 5.5t39.5 5.5t31.5 6t29 8v-120q-24 -8 -56 -14.5
t-83 -11.5q-57 -6 -100.5 -16t-74 -32.5t-47.5 -61t-19 -100.5h1zM188 248q0 -31 7.5 -58t23.5 -46.5t40.5 -30.5t59.5 -11q61 0 90.5 40.5t29.5 105.5q0 66 -29.5 103.5t-95.5 37.5q-34 0 -58 -11.5t-39 -31t-22 -45t-7 -53.5z" />
    <glyph glyph-name="afii10067" unicode="&#x432;" horiz-adv-x="551" 
d="M196 302h84q15 0 30 1.5t26.5 7t19 16t7.5 27.5q0 33 -21 41.5t-56 8.5h-90v-102zM196 106h100q37 0 58.5 11.5t21.5 43.5q0 19 -8 31t-21 18t-29.5 8t-34.5 2h-87v-114zM60 0v510h253q43 0 77 -6.5t58 -21.5t36.5 -40t12.5 -61q0 -24 -7.5 -43.5t-19.5 -34t-27 -23.5
t-31 -13v-3q21 -3 40 -11t34 -23t23.5 -36.5t8.5 -51.5q0 -75 -52.5 -108.5t-146.5 -33.5h-259z" />
    <glyph glyph-name="afii10068" unicode="&#x433;" horiz-adv-x="436" 
d="M196 0h-136v510h367v-120h-231v-390z" />
    <glyph glyph-name="afii10069" unicode="&#x434;" horiz-adv-x="627" 
d="M604 -134h-127v134h-334v-134h-126v250h57q29 54 43.5 132.5t18.5 193.5l2 68h394v-394h72v-250zM396 116v278h-138q0 -41 -3.5 -80.5t-10.5 -75.5t-16 -67.5t-21 -54.5h189z" />
    <glyph glyph-name="afii10070" unicode="&#x435;" horiz-adv-x="569" 
d="M511 34q-10 -7 -28 -15t-42.5 -14.5t-55 -11t-65.5 -4.5q-148 0 -216 70.5t-68 201.5q0 60 17.5 108t50.5 82t80.5 52t108.5 18q68 0 114.5 -20.5t75.5 -55.5t41.5 -82.5t12.5 -101.5v-37h-361q8 -64 46 -94.5t114 -30.5q56 0 91.5 10.5t61.5 24.5zM399 306
q1 47 -24.5 78t-79.5 31q-104 0 -118 -109h222z" />
    <glyph glyph-name="afii10072" unicode="&#x436;" horiz-adv-x="790" 
d="M327 510h136v-208h27l127 208h142l-152 -231q24 -8 40.5 -28t32.5 -54.5t37 -83.5t54 -113h-148q-28 61 -42.5 101t-26 64t-25 33.5t-38.5 9.5h-28v-208h-136v208h-28q-25 0 -38.5 -9.5t-25 -33.5t-26 -64t-42.5 -101h-148q33 64 54 113t37 83.5t32.5 54.5t40.5 28
l-152 231h142l127 -208h27v208z" />
    <glyph glyph-name="afii10073" unicode="&#x437;" horiz-adv-x="507" 
d="M354 268q54 -8 87 -39t33 -81q0 -34 -14.5 -63t-43.5 -50.5t-74.5 -33.5t-106.5 -12q-26 0 -54 3t-55 8.5t-51 13.5t-43 19l23 100q37 -17 78.5 -24.5t85.5 -7.5q61 0 87 15.5t26 44.5q0 55 -99 55h-94v90h90q16 0 31.5 3t27.5 9t19.5 16t7.5 24q0 31 -26 41t-83 10
q-28 0 -66 -5.5t-76 -20.5l-23 103q43 17 96 26t101 9q64 0 106 -10.5t67 -30t34.5 -46t9.5 -57.5q0 -41 -29.5 -69.5t-71.5 -37.5v-2z" />
    <glyph glyph-name="afii10074" unicode="&#x438;" horiz-adv-x="605" 
d="M60 0v510h136v-266l-3 -71h1l35 58l186 279h130v-510h-136v271l4 66h-2l-34 -57l-187 -280h-130z" />
    <glyph glyph-name="afii10075" unicode="&#x439;" horiz-adv-x="605" 
d="M60 0v510h136v-266l-3 -71h1l35 58l186 279h130v-510h-136v271l4 66h-2l-34 -57l-187 -280h-130zM484 731q-2 -39 -17 -67t-39 -46t-56 -26.5t-66 -8.5q-36 0 -68 8.5t-56.5 26.5t-39.5 46t-16 67l101 12q5 -35 26 -51t53 -16q30 0 48.5 16t23.5 51z" />
    <glyph glyph-name="afii10076" unicode="&#x43a;" horiz-adv-x="544" 
d="M196 307h36l152 203h148l-182 -224q25 -7 43.5 -28t39 -57t46 -86.5t63.5 -114.5h-149q-36 63 -54 103t-30.5 62t-27 30t-42.5 8h-43v-203h-136v510h136v-203z" />
    <glyph glyph-name="afii10077" unicode="&#x43b;" horiz-adv-x="589" 
d="M76 -11q-16 0 -30 3t-23 5v123q12 -4 22 -4q22 0 37 17t24.5 56t13.5 103t4 158v60h405v-510h-136v390h-143v-18q-1 -101 -10.5 -173.5t-30 -119t-53.5 -68.5t-80 -22z" />
    <glyph glyph-name="afii10078" unicode="&#x43c;" horiz-adv-x="722" 
d="M617 510l62 -510h-129l-26 258l-4 73h-3l-18 -73l-88 -258h-99l-88 258l-18 73h-3l-4 -73l-26 -258h-130l62 510h141l115 -352h4l112 352h140z" />
    <glyph glyph-name="afii10079" unicode="&#x43d;" horiz-adv-x="601" 
d="M541 0h-136v201h-209v-201h-136v510h136v-193h209v193h136v-510z" />
    <glyph glyph-name="afii10080" unicode="&#x43e;" horiz-adv-x="605" 
d="M303 102q62 0 93 37t31 116q0 81 -30 117.5t-94 36.5q-60 0 -92.5 -37t-32.5 -117t34 -116.5t91 -36.5zM303 -11q-129 0 -198 65t-69 201q0 131 71 198.5t196 67.5q127 0 196.5 -66.5t69.5 -199.5q0 -129 -69 -197.5t-197 -68.5z" />
    <glyph glyph-name="afii10081" unicode="&#x43f;" horiz-adv-x="592" 
d="M532 0h-136v390h-200v-390h-136v510h472v-510z" />
    <glyph glyph-name="afii10082" unicode="&#x440;" horiz-adv-x="622" 
d="M196 -210h-136v720h132v-72h2q30 45 76.5 63t94.5 18q221 0 221 -260q0 -57 -14 -106t-42 -85t-70 -56.5t-99 -20.5q-55 0 -97.5 20.5t-65.5 52.5h-2v-274zM322 103q63 0 92 40t29 118q0 74 -29 110t-95 36q-61 0 -92 -41.5t-31 -113.5q0 -69 32 -109t94 -40z" />
    <glyph glyph-name="afii10083" unicode="&#x441;" horiz-adv-x="511" 
d="M481 25q-21 -10 -61 -23t-109 -13q-74 0 -126 19t-85 54.5t-48.5 85t-15.5 111.5q0 60 17 108t50.5 82.5t84.5 53t119 18.5q66 0 105 -11.5t60 -19.5l-24 -106q-20 7 -47.5 14t-70.5 7q-72 0 -112 -33t-40 -108q0 -158 170 -158q29 0 58 6t52 17z" />
    <glyph glyph-name="afii10084" unicode="&#x442;" horiz-adv-x="488" 
d="M312 0h-136v390h-168v120h472v-120h-168v-390z" />
    <glyph glyph-name="afii10085" unicode="&#x443;" horiz-adv-x="532" 
d="M129 -146q32 32 51 60.5t32 60.5l6 15l-212 520h150l129 -360l103 360h138l-174 -512q-15 -43 -29 -76t-29.5 -59t-34 -48t-40.5 -42z" />
    <glyph glyph-name="afii10086" unicode="&#x444;" horiz-adv-x="768" 
d="M316 -6q-12 -2 -24 -2.5t-24 -0.5q-53 0 -95.5 14.5t-73 46t-47 81.5t-16.5 122q0 70 17 120t48 82t74 47t94 15q14 0 25 -0.5t22 -2.5v234h136v-234q13 2 24.5 2.5t24.5 0.5q53 0 96 -14t73 -44.5t46 -80.5t16 -122q0 -70 -17 -120.5t-48 -83t-74 -48t-94 -15.5h-25
t-22 2v-203h-136v204zM316 407q-5 2 -12.5 2h-15.5q-26 0 -46 -8t-34 -26t-21 -47.5t-7 -73.5q0 -43 7 -72t21 -47t35 -26t50 -8q6 0 11.5 0.5t11.5 0.5v305zM452 102q5 -1 12.5 -1h16.5q51 0 79 35.5t28 123.5q0 42 -6.5 71t-20.5 46t-35.5 24.5t-50.5 7.5q-5 0 -11.5 -0.5
t-11.5 -0.5v-306z" />
    <glyph glyph-name="afii10087" unicode="&#x445;" horiz-adv-x="536" 
d="M531 0h-155l-111 171l-108 -171h-152l171 265l-156 245h155l97 -158l100 158h148l-159 -245z" />
    <glyph glyph-name="afii10088" unicode="&#x446;" horiz-adv-x="621" 
d="M599 -134h-127v134h-412v510h136v-394h190v394h136v-394h77v-250z" />
    <glyph glyph-name="afii10089" unicode="&#x447;" horiz-adv-x="546" 
d="M487 0h-136v181q-8 -2 -21.5 -5t-30 -5.5t-34.5 -4.5t-36 -2q-42 0 -77.5 7.5t-61 25.5t-39.5 47.5t-14 73.5v192h136v-145q0 -49 24 -67t72 -18q29 0 49 4t33 9v217h136v-510z" />
    <glyph glyph-name="afii10090" unicode="&#x448;" horiz-adv-x="806" 
d="M746 0h-686v510h136v-394h139v394h136v-394h139v394h136v-510z" />
    <glyph glyph-name="afii10091" unicode="&#x449;" horiz-adv-x="846" 
d="M823 -134h-126v134h-637v510h136v-394h139v394h136v-394h139v394h136v-394h77v-250z" />
    <glyph glyph-name="afii10092" unicode="&#x44a;" horiz-adv-x="612" 
d="M273 106h82q48 0 68.5 18t20.5 54q0 38 -23.5 53t-70.5 15h-77v-140zM139 0v390h-132v120h268v-158h92q116 0 168.5 -47t52.5 -128q0 -39 -14 -71.5t-41 -56t-66 -36.5t-88 -13h-240z" />
    <glyph glyph-name="afii10093" unicode="&#x44b;" horiz-adv-x="738" 
d="M196 106h63q47 0 67.5 19t20.5 56q0 38 -23.5 53.5t-70.5 15.5h-57v-144zM60 0v510h136v-154h70q115 0 168 -45.5t53 -131.5q0 -39 -14 -72t-41 -56.5t-66 -37t-88 -13.5h-218zM679 0h-136v510h136v-510z" />
    <glyph glyph-name="afii10094" unicode="&#x44c;" horiz-adv-x="534" 
d="M194 106h82q48 0 68.5 18t20.5 54q0 38 -23.5 53t-70.5 15h-77v-140zM60 0v510h136v-158h92q117 0 168.5 -47t51.5 -128q0 -39 -14 -71.5t-40 -56t-65 -36.5t-88 -13h-241z" />
    <glyph glyph-name="afii10095" unicode="&#x44d;" horiz-adv-x="532" 
d="M45 490q21 8 64.5 19.5t107.5 11.5q144 0 211.5 -65.5t67.5 -193.5q0 -60 -16 -110t-50 -86t-87 -56.5t-126 -20.5q-60 0 -107 10t-74 26l23 100q24 -9 56 -16.5t80 -7.5q72 0 112.5 24.5t47.5 89.5h-219v93h217q-7 51 -44.5 76t-110.5 25q-52 0 -83.5 -7.5t-45.5 -12.5z
" />
    <glyph glyph-name="afii10096" unicode="&#x44e;" horiz-adv-x="821" 
d="M529 -11q-112 0 -176 55t-75 157h-82v-201h-136v510h136v-193h82q13 95 76.5 149.5t167.5 54.5q129 0 196 -66t67 -200q0 -129 -66 -197.5t-190 -68.5zM521 102q62 0 92 36.5t30 116.5q0 81 -29 117.5t-93 36.5q-56 0 -87 -37t-31 -117t33 -116.5t85 -36.5z" />
    <glyph glyph-name="afii10097" unicode="&#x44f;" horiz-adv-x="558" 
d="M292 165q-24 0 -37 -6.5t-24 -24.5t-24.5 -50t-38.5 -84h-142q22 49 36 82.5t25.5 55.5t23.5 35t31 22q-43 17 -69.5 50t-26.5 92q0 43 15.5 75.5t43.5 54t67.5 32.5t86.5 11h240v-510h-136v165h-71zM364 268v130h-84q-48 0 -69.5 -16t-21.5 -51t24 -49t72 -14h79z" />
    <glyph glyph-name="afii10071" unicode="&#x451;" horiz-adv-x="569" 
d="M511 34q-10 -7 -28 -15t-42.5 -14.5t-55 -11t-65.5 -4.5q-148 0 -216 70.5t-68 201.5q0 60 17.5 108t50.5 82t80.5 52t108.5 18q68 0 114.5 -20.5t75.5 -55.5t41.5 -82.5t12.5 -101.5v-37h-361q8 -64 46 -94.5t114 -30.5q56 0 91.5 10.5t61.5 24.5zM399 306
q1 47 -24.5 78t-79.5 31q-104 0 -118 -109h222zM477 668q0 -32 -18.5 -50.5t-56.5 -18.5q-36 0 -55.5 18.5t-19.5 50.5q0 31 19.5 49t55.5 18q38 0 56.5 -17.5t18.5 -49.5zM256 668q0 -32 -19 -50.5t-56 -18.5t-56 18t-19 50t19.5 50t55.5 18q37 0 56 -17.5t19 -49.5z" />
    <glyph glyph-name="afii10099" unicode="&#x452;" horiz-adv-x="610" 
d="M413 579h-211v-144h2q26 38 68.5 59t100.5 21q45 0 81 -14.5t61 -46t38.5 -82t13.5 -123.5q0 -72 -12 -136.5t-34.5 -119t-55 -96.5t-74.5 -69l-96 67q35 24 59.5 55.5t40.5 72.5t23 93.5t7 117.5q0 86 -22.5 125.5t-82.5 39.5q-38 0 -61.5 -15.5t-36 -39.5t-16.5 -52.5
t-4 -54.5v-237h-136v579h-86v82h86v89h136v-89h211v-82z" />
    <glyph glyph-name="afii10100" unicode="&#x453;" horiz-adv-x="436" 
d="M196 0h-136v510h367v-120h-231v-390zM292 593h-106l86 144h168z" />
    <glyph glyph-name="afii10101" unicode="&#x454;" horiz-adv-x="517" 
d="M481 25q-21 -11 -61 -23.5t-109 -12.5q-74 0 -126 19t-85 54.5t-48.5 85t-15.5 111.5q0 60 17 108t50.5 82.5t84.5 53t119 18.5q66 0 105 -11.5t60 -19.5l-24 -102q-20 7 -47.5 14t-70.5 7q-61 0 -100.5 -25t-51.5 -76h204v-93h-203q24 -114 169 -114q29 0 58 6t52 17z
" />
    <glyph glyph-name="afii10102" unicode="&#x455;" horiz-adv-x="453" 
d="M59 125q35 -19 71 -24.5t73 -5.5q42 0 60.5 13.5t18.5 39.5q0 20 -18 31t-45.5 20t-59.5 19t-59.5 27.5t-45.5 45.5t-18 74q0 70 49.5 113t162.5 43q38 0 82 -6.5t73 -17.5l-23 -101q-26 9 -59 14t-65 5q-79 0 -79 -43q0 -20 18 -30t45.5 -18t59.5 -17.5t59.5 -27
t45.5 -47t18 -78.5q0 -36 -12 -66.5t-38.5 -52.5t-68 -34t-99.5 -12q-38 0 -81.5 9t-87.5 26z" />
    <glyph glyph-name="afii10103" unicode="&#x456;" horiz-adv-x="260" 
d="M213 673q0 -35 -21 -54.5t-62 -19.5q-39 0 -60.5 19.5t-21.5 54.5q0 33 21.5 52t60.5 19q41 0 62 -18.5t21 -52.5zM198 0h-136v510h136v-510z" />
    <glyph glyph-name="afii10104" unicode="&#x457;" horiz-adv-x="260" 
d="M306 669q0 -32 -19.5 -51t-56.5 -19t-57 19t-20 51t20 50t56 18q38 0 57.5 -18t19.5 -50zM107 669q0 -32 -19 -51t-57 -19t-57.5 19t-19.5 51t19.5 50t57.5 18t57 -18t19 -50zM198 0h-136v510h136v-510z" />
    <glyph glyph-name="afii10105" unicode="&#x458;" horiz-adv-x="261" 
d="M214 673q0 -35 -21 -54.5t-62 -19.5q-39 0 -60.5 19.5t-21.5 54.5q0 33 21.5 52t60.5 19q41 0 62 -18.5t21 -52.5zM-49 -95q16 -3 36 -3q16 0 30.5 3t25 13t16.5 28.5t6 49.5v514h136v-506q0 -108 -43 -165t-146 -57q-21 0 -37 2t-27 4z" />
    <glyph glyph-name="afii10106" unicode="&#x459;" horiz-adv-x="867" 
d="M393 0v390h-143q0 -106 -9 -182t-30 -124.5t-54 -71.5t-81 -23q-16 0 -30 3t-23 5v123q8 -2 13 -3t12 -1q21 1 35.5 18.5t23.5 57t13 103t4 155.5v60h405v-166h92q117 0 168.5 -45t51.5 -127q0 -78 -53.5 -125t-153.5 -47h-241zM527 106h82q47 0 68 16t21 52
q0 38 -23.5 51t-70.5 13h-77v-132z" />
    <glyph glyph-name="afii10107" unicode="&#x45a;" horiz-adv-x="873" 
d="M399 510h136v-166h94q117 0 168 -45t51 -126q0 -78 -54 -125.5t-154 -47.5h-241v209h-203v-209h-136v510h136v-185h203v185zM534 106h81q48 0 68.5 16t20.5 53q0 38 -23.5 50.5t-70.5 12.5h-76v-132z" />
    <glyph glyph-name="afii10108" unicode="&#x45b;" horiz-adv-x="608" 
d="M553 0h-136v260q0 40 -5 67t-16 43t-30 22.5t-46 6.5q-63 0 -90.5 -42.5t-27.5 -124.5v-232h-136v579h-86v82h86v89h136v-89h211v-82h-211v-144h2q28 42 71.5 61t94.5 19q91 0 137 -48.5t46 -155.5v-311z" />
    <glyph glyph-name="afii10109" unicode="&#x45c;" horiz-adv-x="544" 
d="M196 307h36l152 203h148l-182 -224q25 -7 43.5 -28t39 -57t46 -86.5t63.5 -114.5h-149q-36 63 -54 103t-30.5 62t-27 30t-42.5 8h-43v-203h-136v510h136v-203zM333 593h-106l86 144h168z" />
    <glyph glyph-name="afii10110" unicode="&#x45e;" horiz-adv-x="532" 
d="M129 -146q32 32 51 60.5t32 60.5l6 15l-212 520h150l129 -360l103 360h138l-174 -512q-15 -43 -29 -76t-29.5 -59t-34 -48t-40.5 -42zM449 731q-2 -39 -17 -67t-39 -46t-56 -26.5t-66 -8.5q-36 0 -68 8.5t-56.5 26.5t-39.5 46t-16 67l101 12q5 -35 26 -51t53 -16
q30 0 48.5 16t23.5 51z" />
    <glyph glyph-name="afii10193" unicode="&#x45f;" horiz-adv-x="592" 
d="M532 0h-173v-141h-126v141h-173v510h136v-390h200v390h136v-510z" />
    <glyph glyph-name="afii10146" unicode="&#x462;" horiz-adv-x="716" 
d="M523 509h-199v-88h87q135 0 201 -49t66 -159q0 -105 -70.5 -159t-209.5 -54h-224v509h-162v112h162v91h150v-91h199v-112zM325 112h63q39 0 65 6.5t41.5 19.5t22 31t6.5 41q0 50 -29.5 72.5t-105.5 22.5h-63v-193z" />
    <glyph glyph-name="afii10194" unicode="&#x463;" horiz-adv-x="625" 
d="M151 0v410h-143v100h143v240h136v-240h178v-100h-178v-80h92q117 0 169 -42.5t52 -121.5q0 -77 -54 -121.5t-154 -44.5h-241zM286 97h81q48 0 68.5 17.5t20.5 53.5q0 38 -23 52t-71 14h-76v-137z" />
    <glyph glyph-name="afii10147" unicode="&#x472;" horiz-adv-x="765" 
d="M384 -12q-165 0 -252.5 92.5t-87.5 269.5q0 88 23 155.5t66.5 113.5t106 69.5t140.5 23.5q87 0 151 -25t106 -71.5t63 -114t21 -151.5q0 -93 -23.5 -161.5t-67.5 -113t-106 -66t-140 -21.5zM380 582q-76 0 -121 -43t-56 -132h360q-11 90 -56 132.5t-127 42.5zM389 119
q78 0 121 42t53 132h-360q11 -88 58.5 -131t127.5 -43z" />
    <glyph glyph-name="afii10195" unicode="&#x473;" horiz-adv-x="605" 
d="M303 -11q-129 0 -198 65t-69 201q0 131 71 198.5t196 67.5q127 0 196.5 -66.5t69.5 -199.5q0 -129 -69 -197.5t-197 -68.5zM303 98q53 0 84 26.5t39 86.5h-247q9 -60 42 -86.5t82 -26.5zM303 412q-52 0 -84 -26.5t-40 -84.5h247q-8 59 -38.5 85t-84.5 26z" />
    <glyph glyph-name="afii10148" unicode="&#x474;" horiz-adv-x="732" 
d="M427 0h-199l-222 700h163l162 -553h1l114 378q13 42 27 76.5t36 59t53.5 38t78.5 13.5q26 0 46 -2t39 -7v-123q-12 4 -26.5 4.5t-25.5 0.5q-27 0 -49.5 -19t-38.5 -69z" />
    <glyph glyph-name="afii10196" unicode="&#x475;" horiz-adv-x="580" 
d="M6 510h151l111 -372l68 220q12 42 26 72.5t33 50.5t45 30t62 10q23 0 40 -2t34 -7v-106q-9 3 -20.5 4t-19.5 1q-28 0 -43.5 -20t-29.5 -62l-115 -329h-167z" />
    <glyph glyph-name="afii10050" unicode="&#x490;" horiz-adv-x="511" 
d="M218 0h-150v700h289v130h138v-266h-277v-564z" />
    <glyph glyph-name="afii10098" unicode="&#x491;" horiz-adv-x="436" 
d="M196 0h-136v510h246v120h121v-240h-231v-390z" />
    <glyph glyph-name="uni0492" unicode="&#x492;" horiz-adv-x="565" 
d="M461 287h-191v-287h-150v287h-104v132h104v281h427v-132h-277v-149h191v-132z" />
    <glyph glyph-name="uni0493" unicode="&#x493;" horiz-adv-x="463" 
d="M365 172h-141v-172h-136v172h-77v110h77v228h367v-120h-231v-108h141v-110z" />
    <glyph glyph-name="uni0494" unicode="&#x494;" horiz-adv-x="608" 
d="M68 700h427v-136h-277v-196q29 5 57 8.5t64 3.5q75 0 121 -28.5t70.5 -72t33 -95.5t8.5 -99q0 -61 -12 -115.5t-38.5 -95t-68.5 -64.5t-101 -24q-46 0 -82 9v120q12 -3 27 -5t29 -2q45 0 66 45t21 126q0 88 -29.5 129.5t-85.5 41.5q-27 0 -45 -1.5t-35 -3.5v-245h-150
v700z" />
    <glyph glyph-name="uni0495" unicode="&#x495;" horiz-adv-x="508" 
d="M60 510h367v-120h-231v-115q33 3 61 3q113 0 164 -56.5t51 -179.5q0 -122 -45 -191t-140 -69q-22 0 -38 2t-27 4l1 117q11 -2 21 -4t22 -2q16 0 29 7t23 23.5t15.5 42.5t5.5 65q0 31 -4.5 55.5t-16 41t-32 25.5t-52.5 9h-18.5t-19.5 -1v-167h-136v510z" />
    <glyph glyph-name="uni0496" unicode="&#x496;" horiz-adv-x="955" 
d="M392 244l-40 45l-176 -289h-172l232 369l-214 331h168l202 -335v335h150v-335l202 335h167l-213 -331l149 -235h96v-290h-142v156h-46l-174 289l-39 -44v-245h-150v244z" />
    <glyph glyph-name="uni0497" unicode="&#x497;" horiz-adv-x="792" 
d="M483 208l-29 -29v-179h-136v179l-27 29l-133 -208h-156l179 261l-162 249h152l147 -244v244h136v-244l147 244h152l-161 -249l100 -145h87v-250h-126v134h-38z" />
    <glyph glyph-name="uni0498" unicode="&#x498;" horiz-adv-x="564" 
d="M528 201q0 -80 -46 -135.5t-153 -71.5v-150h-142v146q-40 3 -78 11.5t-70 23.5v137q45 -23 92 -32.5t88 -9.5q42 0 71 6t46 18t24.5 29t7.5 39q0 42 -30 64.5t-97 22.5h-98v115h80q64 0 97.5 19.5t33.5 65.5q0 44 -31 62.5t-90 18.5q-45 0 -90 -7.5t-93 -27.5v138
q51 15 100 22t112 7q69 0 116 -14t76 -38.5t41.5 -58.5t12.5 -74q0 -63 -35 -104.5t-95 -57.5v-4q75 -11 112.5 -54t37.5 -106z" />
    <glyph glyph-name="uni0499" unicode="&#x499;" horiz-adv-x="497" 
d="M344 268q54 -8 87 -39t33 -81q0 -59 -43 -101.5t-132 -53.5v-128h-127v127q-35 5 -68 12t-62 21v115q37 -17 85 -27.5t92 -10.5q61 0 87 15t26 44q0 55 -99 55h-94v90h90q16 0 31.5 3t27.5 9t19.5 16t7.5 24q0 31 -26 41t-83 10q-33 0 -74 -6.5t-81 -23.5v111
q43 17 91 24t96 7q64 0 106 -10.5t67 -30t34.5 -46t9.5 -57.5q0 -41 -29.5 -69.5t-71.5 -37.5v-2z" />
    <glyph glyph-name="uni049A" unicode="&#x49a;" horiz-adv-x="685" 
d="M218 377l251 323h174l-269 -327l187 -239h104v-290h-142v156h-44l-204 270l-57 -65v-205h-150v700h150v-323z" />
    <glyph glyph-name="uni049B" unicode="&#x49b;" horiz-adv-x="573" 
d="M196 268l178 242h158l-194 -242l126 -152h96v-250h-126v134h-43l-150 191l-45 -48v-143h-136v510h136v-242z" />
    <glyph glyph-name="uni049C" unicode="&#x49c;" horiz-adv-x="774" 
d="M369 426l210 274h174l-263 -327l282 -373h-183l-220 299v-117h-93v125h-58v-307h-150v700h150v-276h58v126h93v-124z" />
    <glyph glyph-name="uni049D" unicode="&#x49d;" horiz-adv-x="649" 
d="M319 113h-77v96h-46v-209h-136v510h136v-198h46v98h77v-98h4l141 198h159l-187 -242l212 -268h-166l-157 209h-6v-96z" />
    <glyph glyph-name="uni04A0" unicode="&#x4a0;" horiz-adv-x="753" 
d="M307 377l251 323h174l-269 -327l288 -373h-183l-204 270l-57 -65v-205h-150v562h-146v138h296v-323z" />
    <glyph glyph-name="uni04A1" unicode="&#x4a1;" horiz-adv-x="637" 
d="M274 268l178 242h158l-194 -242l219 -268h-166l-149 191l-46 -48v-143h-136v390h-131v120h267v-242z" />
    <glyph glyph-name="uni04A2" unicode="&#x4a2;" horiz-adv-x="766" 
d="M658 134h84v-290h-142v156h-92v292h-290v-292h-150v700h150v-274h290v274h150v-566z" />
    <glyph glyph-name="uni04A3" unicode="&#x4a3;" horiz-adv-x="640" 
d="M617 -134h-126v134h-86v201h-209v-201h-136v510h136v-193h209v193h136v-394h76v-250z" />
    <glyph glyph-name="uni04A4" unicode="&#x4a4;" horiz-adv-x="923" 
d="M630 0h-150v292h-262v-292h-150v700h150v-274h262v274h427v-136h-277v-564z" />
    <glyph glyph-name="uni04A5" unicode="&#x4a5;" horiz-adv-x="759" 
d="M527 0h-136v201h-195v-201h-136v510h136v-193h195v193h359v-120h-223v-390z" />
    <glyph glyph-name="uni04AA" unicode="&#x4aa;" horiz-adv-x="617" 
d="M573 17q-23 -11 -55.5 -18t-77.5 -10v-145h-142v153q-128 23 -191 109.5t-63 234.5q0 181 89 276t276 95q57 0 98 -8.5t65 -16.5v-138q-33 12 -73 18.5t-69 6.5q-116 0 -171.5 -52t-55.5 -172q0 -115 56 -169t172 -54q36 0 70 7t72 24v-141z" />
    <glyph glyph-name="uni04AB" unicode="&#x4ab;" horiz-adv-x="500" 
d="M470 19q-16 -8 -40.5 -15t-61.5 -12v-127h-126v129q-55 8 -94 30.5t-64 56.5t-36.5 79t-11.5 99q0 60 17 108t50.5 82.5t84.5 53t119 18.5q31 0 55 -2.5t42.5 -6.5t32.5 -8.5t25 -8.5v-115q-25 9 -55 17t-77 8q-72 0 -112 -33t-40 -108q0 -158 170 -158q38 0 70 8t52 19
v-114z" />
    <glyph glyph-name="uni04AE" unicode="&#x4ae;" horiz-adv-x="636" 
d="M394 0h-150v267l-244 433h174l147 -267l142 267h173l-242 -433v-267z" />
    <glyph glyph-name="uni04AF" unicode="&#x4af;" horiz-adv-x="530" 
d="M333 -14v-196h-136v196l-191 524h151l111 -365l115 365h142z" />
    <glyph glyph-name="uni04B0" unicode="&#x4b0;" horiz-adv-x="636" 
d="M410 295h146v-106h-162v-189h-150v189h-162v106h146l-228 405h174l147 -267l142 267h173z" />
    <glyph glyph-name="uni04B1" unicode="&#x4b1;" horiz-adv-x="530" 
d="M345 20h123v-106h-135v-124h-136v124h-136v106h123l-178 490h151l112 -360l114 360h142z" />
    <glyph glyph-name="uni04B2" unicode="&#x4b2;" horiz-adv-x="686" 
d="M326 257l-143 -257h-176l212 362l-193 338h177l128 -241l135 241h171l-198 -336l136 -230h97v-290h-142v156h-57z" />
    <glyph glyph-name="uni04B3" unicode="&#x4b3;" horiz-adv-x="557" 
d="M459 116h88v-250h-127v134h-44l-111 171l-108 -171h-152l171 265l-156 245h155l97 -158l100 158h148l-159 -245z" />
    <glyph glyph-name="uni04B6" unicode="&#x4b6;" horiz-adv-x="685" 
d="M662 -156h-142v156h-92v265q-27 -8 -62 -15t-80 -7q-66 0 -111.5 14.5t-74 42.5t-41.5 67.5t-13 89.5v243h150v-208q0 -34 7.5 -55.5t23.5 -34t39.5 -17t56.5 -4.5q63 0 105 18v301h150v-566h84v-290z" />
    <glyph glyph-name="uni04B7" unicode="&#x4b7;" horiz-adv-x="586" 
d="M564 -134h-127v134h-86v181q-8 -2 -21.5 -5t-30 -5.5t-34.5 -4.5t-36 -2q-42 0 -77.5 7.5t-61 25.5t-39.5 47.5t-14 73.5v192h136v-145q0 -49 24 -67t72 -18q29 0 49 5t33 8v217h136v-394h77v-250z" />
    <glyph glyph-name="uni04B8" unicode="&#x4b8;" horiz-adv-x="676" 
d="M374 504v-126q24 3 47 8t38 11v303h150v-700h-150v267q-17 -5 -39 -10t-46 -9v-112h-93v107q-125 5 -180 60.5t-55 162.5v234h147v-206q0 -57 21.5 -82.5t66.5 -32.5v125h93z" />
    <glyph glyph-name="uni04B9" unicode="&#x4b9;" horiz-adv-x="587" 
d="M325 379v-99q22 3 40 7.5l26 6.5v216h136v-510h-136v185q-6 -2 -24 -6.5t-42 -7.5v-85h-82v80q-44 1 -81.5 10t-65 29t-43.5 52.5t-16 81.5v171h136v-136q0 -43 17.5 -64t52.5 -27v96h82z" />
    <glyph glyph-name="uni04BA" unicode="&#x4ba;" horiz-adv-x="646" 
d="M68 700h150v-256q27 8 62 15t80 7q66 0 111.5 -14.5t74 -42t41.5 -67t13 -89.5v-253h-150v209q0 68 -30.5 94t-95.5 26q-31 0 -58 -5t-48 -13v-311h-150v700z" />
    <glyph glyph-name="uni04BB" unicode="&#x4bb;" horiz-adv-x="603" 
d="M547 0h-136v264q0 40 -5 66.5t-16 42.5t-30 23t-46 7q-63 0 -90.5 -42.5t-27.5 -124.5v-236h-136v750h136v-311h2q28 42 71.5 61t94.5 19q92 0 137.5 -48.5t45.5 -155.5v-315z" />
    <glyph glyph-name="uni04C0" unicode="&#x4c0;" horiz-adv-x="286" 
d="M218 0h-150v700h150v-700z" />
    <glyph glyph-name="uni04C3" unicode="&#x4c3;" horiz-adv-x="687" 
d="M68 700h150v-323l251 323h174l-273 -332h31q81 0 130 -28t76 -71t35.5 -94.5t8.5 -98.5q0 -60 -13 -112.5t-41.5 -92t-73.5 -62.5t-109 -23q-46 0 -82 9v120q12 -3 27 -5t29 -2q54 0 79 42.5t25 119.5q0 179 -158 179h-116v-249h-150v700z" />
    <glyph glyph-name="uni04C4" unicode="&#x4c4;" horiz-adv-x="569" 
d="M196 268l178 242h158l-201 -250l15 -1q40 -2 74.5 -15.5t59 -40.5t38.5 -69t14 -101q0 -124 -48 -187.5t-151 -63.5q-23 0 -39 2t-27 4l2 116q11 -2 21 -3.5t22 -1.5q19 0 35 5.5t28 20t18.5 39.5t6.5 64q0 32 -6.5 56.5t-22.5 41t-43 25t-68 8.5h-64v-159h-136v510h136
v-242z" />
    <glyph glyph-name="uni04C7" unicode="&#x4c7;" horiz-adv-x="726" 
d="M435 -91q19 0 32.5 6t22.5 20t13.5 38.5t4.5 61.5v257h-290v-292h-150v700h150v-274h290v274h150v-694q0 -110 -46.5 -165t-149.5 -55q-25 0 -45.5 2.5t-37.5 7.5v121q14 -4 29.5 -6t26.5 -2z" />
    <glyph glyph-name="uni04C8" unicode="&#x4c8;" horiz-adv-x="601" 
d="M405 201h-209v-201h-136v510h136v-193h209v193h136v-512q0 -105 -43 -160.5t-145 -55.5q-24 0 -41 2t-28 4l2 117q10 -2 20.5 -4t22.5 -2q16 0 29.5 3t24 13.5t16.5 29.5t6 51v205z" />
    <glyph glyph-name="uni04CB" unicode="&#x4cb;" horiz-adv-x="646" 
d="M428 265q-27 -8 -62 -15t-80 -7q-66 0 -111.5 14.5t-74 42.5t-41.5 67.5t-13 89.5v243h150v-208q0 -34 7.5 -55.5t23.5 -34t39.5 -17t56.5 -4.5q63 0 105 18v301h150v-700h-92v-156h-142v290h84v131z" />
    <glyph glyph-name="uni04CC" unicode="&#x4cc;" horiz-adv-x="546" 
d="M351 189q-8 -2 -21.5 -5t-30 -5.5t-34.5 -4.5t-36 -2q-42 0 -77.5 7.5t-61 25.5t-39.5 47.5t-14 73.5v184h136v-137q0 -49 24 -67t72 -18q29 0 49 4t33 9v209h136v-510h-87v-134h-126v234h77v89z" />
    <glyph glyph-name="uni04CF" unicode="&#x4cf;" horiz-adv-x="256" 
d="M196 0h-136v750h136v-750z" />
    <glyph glyph-name="uni04D0" unicode="&#x4d0;" horiz-adv-x="683" 
d="M474 154h-269l-50 -154h-148l239 700h195l236 -700h-153zM246 285h187l-93 294zM544 904q-2 -40 -18.5 -68.5t-43.5 -47t-63 -27t-76 -8.5q-41 0 -77 8.5t-63 27t-43.5 47t-18.5 68.5l117 11q8 -36 29.5 -50t55.5 -14q33 0 54.5 14t28.5 50z" />
    <glyph glyph-name="uni04D1" unicode="&#x4d1;" horiz-adv-x="542" 
d="M349 230q-40 -3 -72.5 -7.5t-56 -13t-36 -21.5t-12.5 -33q0 -27 17.5 -42t55.5 -15q45 0 74.5 28t29.5 78v26zM485 0h-126v83h-2q-9 -17 -23 -33.5t-34.5 -29.5t-47 -21t-59.5 -8q-75 0 -118 39.5t-43 108.5q0 47 21.5 79t62 52t99.5 30.5t134 14.5v8q0 41 -22 63t-81 22
q-44 0 -84.5 -10.5t-75.5 -23.5l-22 103q45 23 98 33.5t107 10.5q59 0 100 -13.5t67 -41t37.5 -69t11.5 -98.5v-299zM456 731q-2 -39 -17 -67t-39 -46t-56 -26.5t-66 -8.5q-36 0 -68 8.5t-56.5 26.5t-39.5 46t-16 67l101 12q5 -35 26 -51t53 -16q30 0 48.5 16t23.5 51z" />
    <glyph glyph-name="uni04D2" unicode="&#x4d2;" horiz-adv-x="683" 
d="M474 154h-269l-50 -154h-148l239 700h195l236 -700h-153zM246 285h187l-93 294zM534 840q0 -33 -19.5 -52t-56.5 -19q-39 0 -59.5 19.5t-20.5 51.5q0 33 20.5 51.5t58.5 18.5t57.5 -18.5t19.5 -51.5zM303 840q0 -33 -20 -52t-59 -19q-36 0 -56.5 19.5t-20.5 51.5
q0 33 20.5 51.5t56.5 18.5q39 0 59 -18.5t20 -51.5z" />
    <glyph glyph-name="uni04D3" unicode="&#x4d3;" horiz-adv-x="542" 
d="M349 230q-40 -3 -72.5 -7.5t-56 -13t-36 -21.5t-12.5 -33q0 -27 17.5 -42t55.5 -15q45 0 74.5 28t29.5 78v26zM485 0h-126v83h-2q-9 -17 -23 -33.5t-34.5 -29.5t-47 -21t-59.5 -8q-75 0 -118 39.5t-43 108.5q0 47 21.5 79t62 52t99.5 30.5t134 14.5v8q0 41 -22 63t-81 22
q-44 0 -84.5 -10.5t-75.5 -23.5l-22 103q45 23 98 33.5t107 10.5q59 0 100 -13.5t67 -41t37.5 -69t11.5 -98.5v-299zM454 668q0 -32 -18.5 -50.5t-56.5 -18.5q-36 0 -55.5 18.5t-19.5 50.5q0 31 19.5 49t55.5 18q38 0 56.5 -17.5t18.5 -49.5zM233 668q0 -32 -19 -50.5
t-56 -18.5t-56 18t-19 50t19.5 50t55.5 18q37 0 56 -17.5t19 -49.5z" />
    <glyph glyph-name="uni04D4" unicode="&#x4d4;" horiz-adv-x="1005" 
d="M509 285v293h-2l-177 -293h179zM958 0h-449v154h-255l-93 -154h-155l427 700h525v-132h-299v-149h264v-123h-264v-164h299v-132z" />
    <glyph glyph-name="uni04D5" unicode="&#x4d5;" horiz-adv-x="883" 
d="M713 306q0 49 -25 79t-79 30t-82.5 -28t-36.5 -81h223zM349 230q-40 -3 -72.5 -7.5t-56 -13t-36 -21.5t-12.5 -33q0 -27 17.5 -42t55.5 -15q45 0 74.5 28t29.5 78v26zM195 -10q-75 0 -119 40t-44 109q0 47 21.5 79t62 52t99.5 30.5t134 14.5v8q0 44 -22.5 64.5
t-80.5 20.5q-44 0 -84.5 -10.5t-75.5 -23.5v115q36 12 81 22t102 10q62 0 102 -15t65 -47q65 62 171 62q68 0 114.5 -20.5t75.5 -55.5t41.5 -82t12.5 -101v-38h-361q8 -64 46 -94.5t114 -30.5q56 0 98 11t68 27v-107q-20 -16 -69 -28t-113 -12q-83 0 -137.5 22.5t-88.5 67.5
q-24 -28 -51 -45.5t-54.5 -27.5t-55 -13.5t-52.5 -3.5z" />
    <glyph glyph-name="uni04D6" unicode="&#x4d6;" horiz-adv-x="564" 
d="M517 0h-449v700h449v-132h-299v-149h263v-123h-263v-164h299v-132zM503 904q-2 -40 -18.5 -68.5t-43.5 -47t-63 -27t-76 -8.5q-41 0 -77 8.5t-63 27t-43.5 47t-18.5 68.5l117 11q8 -36 29.5 -50t55.5 -14q33 0 54.5 14t28.5 50z" />
    <glyph glyph-name="uni04D7" unicode="&#x4d7;" horiz-adv-x="569" 
d="M511 34q-10 -7 -28 -15t-42.5 -14.5t-55 -11t-65.5 -4.5q-148 0 -216 70.5t-68 201.5q0 60 17.5 108t50.5 82t80.5 52t108.5 18q68 0 114.5 -20.5t75.5 -55.5t41.5 -82.5t12.5 -101.5v-37h-361q8 -64 46 -94.5t114 -30.5q56 0 91.5 10.5t61.5 24.5zM399 306
q1 47 -24.5 78t-79.5 31q-104 0 -118 -109h222zM469 731q-2 -39 -17 -67t-39 -46t-56 -26.5t-66 -8.5q-36 0 -68 8.5t-56.5 26.5t-39.5 46t-16 67l101 12q5 -35 26 -51t53 -16q30 0 48.5 16t23.5 51z" />
    <glyph glyph-name="uni04D8" unicode="&#x4d8;" horiz-adv-x="699" 
d="M43 391h456q-2 30 -11 63.5t-31.5 62.5t-62.5 48t-103 19q-53 0 -100 -9t-85 -27v134q53 16 102 23t103 7q107 0 174 -31t105 -82t52 -116.5t14 -134.5q0 -64 -16.5 -128.5t-54 -116t-97 -83.5t-146.5 -32q-69 0 -124.5 21.5t-94 65.5t-59.5 110.5t-21 157.5v48zM194 282
v-5q1 -76 35.5 -119.5t114.5 -43.5q28 0 55 9t48.5 29t35.5 52t17 78h-306z" />
    <glyph glyph-name="afii10846" unicode="&#x4d9;" horiz-adv-x="569" 
d="M68 481q20 15 69 27.5t112 12.5q149 0 216.5 -69.5t67.5 -201.5q0 -60 -17 -108.5t-50 -82t-80.5 -52t-108.5 -18.5q-68 0 -115 20.5t-75.5 55.5t-41 82.5t-12.5 101.5v37h360q-8 64 -45.5 94.5t-113.5 30.5q-57 0 -98.5 -10.5t-67.5 -26.5v107zM171 204q-1 -47 24 -78
t80 -31q104 0 118 109h-222z" />
    <glyph glyph-name="uni04DA" unicode="&#x4da;" horiz-adv-x="699" 
d="M43 391h456q-2 30 -11 63.5t-31.5 62.5t-62.5 48t-103 19q-53 0 -100 -9t-85 -27v134q53 16 102 23t103 7q107 0 174 -31t105 -82t52 -116.5t14 -134.5q0 -64 -16.5 -128.5t-54 -116t-97 -83.5t-146.5 -32q-69 0 -124.5 21.5t-94 65.5t-59.5 110.5t-21 157.5v48zM194 282
v-5q1 -76 35.5 -119.5t114.5 -43.5q28 0 55 9t48.5 29t35.5 52t17 78h-306zM532 840q0 -33 -19.5 -52t-56.5 -19q-39 0 -59.5 19.5t-20.5 51.5q0 33 20.5 51.5t58.5 18.5t57.5 -18.5t19.5 -51.5zM301 840q0 -33 -20 -52t-59 -19q-36 0 -56.5 19.5t-20.5 51.5q0 33 20.5 51.5
t56.5 18.5q39 0 59 -18.5t20 -51.5z" />
    <glyph glyph-name="uni04DB" unicode="&#x4db;" horiz-adv-x="569" 
d="M68 481q20 15 69 27.5t112 12.5q149 0 216.5 -69.5t67.5 -201.5q0 -60 -17 -108.5t-50 -82t-80.5 -52t-108.5 -18.5q-68 0 -115 20.5t-75.5 55.5t-41 82.5t-12.5 101.5v37h360q-8 64 -45.5 94.5t-113.5 30.5q-57 0 -98.5 -10.5t-67.5 -26.5v107zM171 204q-1 -47 24 -78
t80 -31q104 0 118 109h-222zM462 668q0 -32 -18.5 -50.5t-56.5 -18.5q-36 0 -55.5 18.5t-19.5 50.5q0 31 19.5 49t55.5 18q38 0 56.5 -17.5t18.5 -49.5zM241 668q0 -32 -19 -50.5t-56 -18.5t-56 18t-19 50t19.5 50t55.5 18q37 0 56 -17.5t19 -49.5z" />
    <glyph glyph-name="uni04DC" unicode="&#x4dc;" horiz-adv-x="934" 
d="M542 404h31l174 296h168l-200 -317q30 -9 51 -36t43 -73.5t49.5 -114.5t71.5 -159h-172q-29 62 -47.5 107.5t-31 77.5t-22 52t-20.5 31.5t-26.5 16t-40.5 4.5h-28v-289h-150v289h-28q-25 0 -40.5 -4.5t-26.5 -16t-20.5 -31.5t-22 -52t-31 -77.5t-47.5 -107.5h-172
q44 91 71.5 159t49.5 114.5t43 73.5t51 36l-200 317h168l174 -296h31v296h150v-296zM661 840q0 -33 -19.5 -52t-56.5 -19q-39 0 -59.5 19.5t-20.5 51.5q0 33 20.5 51.5t58.5 18.5t57.5 -18.5t19.5 -51.5zM430 840q0 -33 -20 -52t-59 -19q-36 0 -56.5 19.5t-20.5 51.5
q0 33 20.5 51.5t56.5 18.5q39 0 59 -18.5t20 -51.5z" />
    <glyph glyph-name="uni04DD" unicode="&#x4dd;" horiz-adv-x="790" 
d="M327 510h136v-208h27l127 208h142l-152 -231q24 -8 40.5 -28t32.5 -54.5t37 -83.5t54 -113h-148q-28 61 -42.5 101t-26 64t-25 33.5t-38.5 9.5h-28v-208h-136v208h-28q-25 0 -38.5 -9.5t-25 -33.5t-26 -64t-42.5 -101h-148q33 64 54 113t37 83.5t32.5 54.5t40.5 28
l-152 231h142l127 -208h27v208zM581 668q0 -32 -18.5 -50.5t-56.5 -18.5q-36 0 -55.5 18.5t-19.5 50.5q0 31 19.5 49t55.5 18q38 0 56.5 -17.5t18.5 -49.5zM360 668q0 -32 -19 -50.5t-56 -18.5t-56 18t-19 50t19.5 50t55.5 18q37 0 56 -17.5t19 -49.5z" />
    <glyph glyph-name="uni04DE" unicode="&#x4de;" horiz-adv-x="579" 
d="M67 155q41 -19 85.5 -27t81.5 -8q78 0 113.5 24t35.5 68q0 42 -30 64.5t-97 22.5h-98v115h80q64 0 97.5 19.5t33.5 65.5q0 44 -31 62.5t-90 18.5q-45 0 -82.5 -6.5t-85.5 -26.5l-32 123q34 11 62 19t54.5 13t53.5 7.5t59 2.5q69 0 116 -14t76 -38.5t41.5 -58.5t12.5 -74
q0 -63 -35 -104.5t-95 -57.5v-4q75 -11 112.5 -54t37.5 -106q0 -48 -17 -87t-52.5 -67t-90 -43.5t-130.5 -15.5q-50 0 -106 9t-109 35zM461 840q0 -33 -19.5 -52t-56.5 -19q-39 0 -59.5 19.5t-20.5 51.5q0 33 20.5 51.5t58.5 18.5t57.5 -18.5t19.5 -51.5zM230 840
q0 -33 -20 -52t-59 -19q-36 0 -56.5 19.5t-20.5 51.5q0 33 20.5 51.5t56.5 18.5q39 0 59 -18.5t20 -51.5z" />
    <glyph glyph-name="uni04DF" unicode="&#x4df;" horiz-adv-x="507" 
d="M354 268q54 -8 87 -39t33 -81q0 -34 -14.5 -63t-43.5 -50.5t-74.5 -33.5t-106.5 -12q-26 0 -54 3t-55 8.5t-51 13.5t-43 19l23 100q37 -17 78.5 -24.5t85.5 -7.5q61 0 87 15.5t26 44.5q0 55 -99 55h-94v90h90q16 0 31.5 3t27.5 9t19.5 16t7.5 24q0 31 -26 41t-83 10
q-28 0 -66 -5.5t-76 -20.5l-23 103q43 17 96 26t101 9q64 0 106 -10.5t67 -30t34.5 -46t9.5 -57.5q0 -41 -29.5 -69.5t-71.5 -37.5v-2zM436 668q0 -32 -18.5 -50.5t-56.5 -18.5q-36 0 -55.5 18.5t-19.5 50.5q0 31 19.5 49t55.5 18q38 0 56.5 -17.5t18.5 -49.5zM215 668
q0 -32 -19 -50.5t-56 -18.5t-56 18t-19 50t19.5 50t55.5 18q37 0 56 -17.5t19 -49.5z" />
    <glyph glyph-name="uni04E2" unicode="&#x4e2;" horiz-adv-x="729" 
d="M661 0h-150v488l-282 -488h-161v700h150v-487l283 487h160v-700zM555 787h-354v92h354v-92z" />
    <glyph glyph-name="uni04E3" unicode="&#x4e3;" horiz-adv-x="605" 
d="M464 616h-323v90h323v-90zM60 0v510h136v-266l-3 -71h1l35 58l186 279h130v-510h-136v271l4 66h-2l-34 -57l-187 -280h-130z" />
    <glyph glyph-name="uni04E4" unicode="&#x4e4;" horiz-adv-x="729" 
d="M661 0h-150v488l-282 -488h-161v700h150v-487l283 487h160v-700zM561 840q0 -33 -19.5 -52t-56.5 -19q-39 0 -59.5 19.5t-20.5 51.5q0 33 20.5 51.5t58.5 18.5t57.5 -18.5t19.5 -51.5zM330 840q0 -33 -20 -52t-59 -19q-36 0 -56.5 19.5t-20.5 51.5q0 33 20.5 51.5
t56.5 18.5q39 0 59 -18.5t20 -51.5z" />
    <glyph glyph-name="uni04E5" unicode="&#x4e5;" horiz-adv-x="605" 
d="M60 0v510h136v-266l-3 -71h1l35 58l186 279h130v-510h-136v271l4 66h-2l-34 -57l-187 -280h-130zM487 668q0 -32 -18.5 -50.5t-56.5 -18.5q-36 0 -55.5 18.5t-19.5 50.5q0 31 19.5 49t55.5 18q38 0 56.5 -17.5t18.5 -49.5zM266 668q0 -32 -19 -50.5t-56 -18.5t-56 18
t-19 50t19.5 50t55.5 18q37 0 56 -17.5t19 -49.5z" />
    <glyph glyph-name="uni04E6" unicode="&#x4e6;" horiz-adv-x="765" 
d="M389 120q38 0 70 14t55 42.5t35.5 71.5t12.5 102q0 119 -50 174.5t-132 55.5q-37 0 -69.5 -14t-56.5 -42.5t-37.5 -72t-13.5 -101.5q0 -59 14.5 -102t39.5 -71.5t59 -42.5t73 -14zM384 -12q-76 0 -138.5 23.5t-107.5 69.5t-69.5 113.5t-24.5 155.5t25.5 155.5t70.5 113.5
t106.5 69.5t133.5 23.5q81 0 144.5 -25t107 -71.5t66.5 -114t23 -151.5q0 -93 -25.5 -161.5t-71 -113t-107 -66t-133.5 -21.5zM575 840q0 -33 -19.5 -52t-56.5 -19q-39 0 -59.5 19.5t-20.5 51.5q0 33 20.5 51.5t58.5 18.5t57.5 -18.5t19.5 -51.5zM344 840q0 -33 -20 -52
t-59 -19q-36 0 -56.5 19.5t-20.5 51.5q0 33 20.5 51.5t56.5 18.5q39 0 59 -18.5t20 -51.5z" />
    <glyph glyph-name="uni04E7" unicode="&#x4e7;" horiz-adv-x="605" 
d="M303 102q62 0 93 37t31 116q0 81 -30 117.5t-94 36.5q-60 0 -92.5 -37t-32.5 -117t34 -116.5t91 -36.5zM303 -11q-129 0 -198 65t-69 201q0 131 71 198.5t196 67.5q127 0 196.5 -66.5t69.5 -199.5q0 -129 -69 -197.5t-197 -68.5zM487 668q0 -32 -18.5 -50.5t-56.5 -18.5
q-36 0 -55.5 18.5t-19.5 50.5q0 31 19.5 49t55.5 18q38 0 56.5 -17.5t18.5 -49.5zM266 668q0 -32 -19 -50.5t-56 -18.5t-56 18t-19 50t19.5 50t55.5 18q37 0 56 -17.5t19 -49.5z" />
    <glyph glyph-name="uni04E8" unicode="&#x4e8;" horiz-adv-x="765" 
d="M384 -12q-165 0 -252.5 92.5t-87.5 269.5q0 88 23 155.5t66.5 113.5t106 69.5t140.5 23.5q87 0 151 -25t106 -71.5t63 -114t21 -151.5q0 -93 -23.5 -161.5t-67.5 -113t-106 -66t-140 -21.5zM380 582q-76 0 -121 -43t-56 -132h360q-11 90 -56 132.5t-127 42.5zM389 119
q78 0 121 42t53 132h-360q11 -88 58.5 -131t127.5 -43z" />
    <glyph glyph-name="uni04E9" unicode="&#x4e9;" horiz-adv-x="605" 
d="M303 -11q-129 0 -198 65t-69 201q0 131 71 198.5t196 67.5q127 0 196.5 -66.5t69.5 -199.5q0 -129 -69 -197.5t-197 -68.5zM303 98q53 0 84 26.5t39 86.5h-247q9 -60 42 -86.5t82 -26.5zM303 412q-52 0 -84 -26.5t-40 -84.5h247q-8 59 -38.5 85t-84.5 26z" />
    <glyph glyph-name="uni04EA" unicode="&#x4ea;" horiz-adv-x="765" 
d="M384 -12q-165 0 -252.5 92.5t-87.5 269.5q0 88 23 155.5t66.5 113.5t106 69.5t140.5 23.5q87 0 151 -25t106 -71.5t63 -114t21 -151.5q0 -93 -23.5 -161.5t-67.5 -113t-106 -66t-140 -21.5zM380 582q-76 0 -121 -43t-56 -132h360q-11 90 -56 132.5t-127 42.5zM389 119
q78 0 121 42t53 132h-360q11 -88 58.5 -131t127.5 -43zM575 840q0 -33 -19.5 -52t-56.5 -19q-39 0 -59.5 19.5t-20.5 51.5q0 33 20.5 51.5t58.5 18.5t57.5 -18.5t19.5 -51.5zM344 840q0 -33 -20 -52t-59 -19q-36 0 -56.5 19.5t-20.5 51.5q0 33 20.5 51.5t56.5 18.5
q39 0 59 -18.5t20 -51.5z" />
    <glyph glyph-name="uni04EB" unicode="&#x4eb;" horiz-adv-x="605" 
d="M303 -11q-129 0 -198 65t-69 201q0 131 71 198.5t196 67.5q127 0 196.5 -66.5t69.5 -199.5q0 -129 -69 -197.5t-197 -68.5zM303 98q53 0 84 26.5t39 86.5h-247q9 -60 42 -86.5t82 -26.5zM303 412q-52 0 -84 -26.5t-40 -84.5h247q-8 59 -38.5 85t-84.5 26zM487 668
q0 -32 -18.5 -50.5t-56.5 -18.5q-36 0 -55.5 18.5t-19.5 50.5q0 31 19.5 49t55.5 18q38 0 56.5 -17.5t18.5 -49.5zM266 668q0 -32 -19 -50.5t-56 -18.5t-56 18t-19 50t19.5 50t55.5 18q37 0 56 -17.5t19 -49.5z" />
    <glyph glyph-name="uni04EC" unicode="&#x4ec;" horiz-adv-x="644" 
d="M46 672q27 14 77 27t127 13q80 0 145 -23t110.5 -67.5t70 -110.5t24.5 -152q0 -90 -27 -159.5t-77 -116.5t-120 -71t-156 -24q-57 0 -102.5 10t-73.5 23l32 120q32 -11 68 -16t60 -5q46 0 86.5 10.5t71.5 32.5t51.5 56t27.5 81h-275v115h272q-18 84 -78.5 124.5
t-145.5 40.5q-31 0 -69 -6.5t-70 -20.5zM459 840q0 -33 -19.5 -52t-56.5 -19q-39 0 -59.5 19.5t-20.5 51.5q0 33 20.5 51.5t58.5 18.5t57.5 -18.5t19.5 -51.5zM228 840q0 -33 -20 -52t-59 -19q-36 0 -56.5 19.5t-20.5 51.5q0 33 20.5 51.5t56.5 18.5q39 0 59 -18.5t20 -51.5
z" />
    <glyph glyph-name="uni04ED" unicode="&#x4ed;" horiz-adv-x="532" 
d="M45 490q21 8 64.5 19.5t107.5 11.5q144 0 211.5 -65.5t67.5 -193.5q0 -60 -16 -110t-50 -86t-87 -56.5t-126 -20.5q-60 0 -107 10t-74 26l23 100q24 -9 56 -16.5t80 -7.5q72 0 112.5 24.5t47.5 89.5h-219v93h217q-7 51 -44.5 76t-110.5 25q-52 0 -83.5 -7.5t-45.5 -12.5z
M425 668q0 -32 -18.5 -50.5t-56.5 -18.5q-36 0 -55.5 18.5t-19.5 50.5q0 31 19.5 49t55.5 18q38 0 56.5 -17.5t18.5 -49.5zM204 668q0 -32 -19 -50.5t-56 -18.5t-56 18t-19 50t19.5 50t55.5 18q37 0 56 -17.5t19 -49.5z" />
    <glyph glyph-name="uni04EE" unicode="&#x4ee;" horiz-adv-x="633" 
d="M177 95q27 17 48.5 36.5t34.5 42.5l3 7l-260 519h174l165 -372l134 372h155l-221 -545q-25 -61 -64.5 -106.5t-84.5 -69.5zM511 787h-354v92h354v-92z" />
    <glyph glyph-name="uni04EF" unicode="&#x4ef;" horiz-adv-x="532" 
d="M129 -146q32 32 51 60.5t32 60.5l6 15l-212 520h150l129 -360l103 360h138l-174 -512q-15 -43 -29 -76t-29.5 -59t-34 -48t-40.5 -42zM436 616h-323v90h323v-90z" />
    <glyph glyph-name="uni04F0" unicode="&#x4f0;" horiz-adv-x="633" 
d="M177 95q27 17 48.5 36.5t34.5 42.5l3 7l-260 519h174l165 -372l134 372h155l-221 -545q-25 -61 -64.5 -106.5t-84.5 -69.5zM526 840q0 -33 -19.5 -52t-56.5 -19q-39 0 -59.5 19.5t-20.5 51.5q0 33 20.5 51.5t58.5 18.5t57.5 -18.5t19.5 -51.5zM295 840q0 -33 -20 -52
t-59 -19q-36 0 -56.5 19.5t-20.5 51.5q0 33 20.5 51.5t56.5 18.5q39 0 59 -18.5t20 -51.5z" />
    <glyph glyph-name="uni04F1" unicode="&#x4f1;" horiz-adv-x="532" 
d="M129 -146q32 32 51 60.5t32 60.5l6 15l-212 520h150l129 -360l103 360h138l-174 -512q-15 -43 -29 -76t-29.5 -59t-34 -48t-40.5 -42zM454 668q0 -32 -18.5 -50.5t-56.5 -18.5q-36 0 -55.5 18.5t-19.5 50.5q0 31 19.5 49t55.5 18q38 0 56.5 -17.5t18.5 -49.5zM233 668
q0 -32 -19 -50.5t-56 -18.5t-56 18t-19 50t19.5 50t55.5 18q37 0 56 -17.5t19 -49.5z" />
    <glyph glyph-name="uni04F2" unicode="&#x4f2;" horiz-adv-x="633" 
d="M177 95q27 17 48.5 36.5t34.5 42.5l3 7l-260 519h174l165 -372l134 372h155l-221 -545q-25 -61 -64.5 -106.5t-84.5 -69.5zM650 923l-166 -153h-101l104 153h163zM434 923l-166 -153h-101l104 153h163z" />
    <glyph glyph-name="uni04F3" unicode="&#x4f3;" horiz-adv-x="532" 
d="M129 -146q32 32 51 60.5t32 60.5l6 15l-212 520h150l129 -360l103 360h138l-174 -512q-15 -43 -29 -76t-29.5 -59t-34 -48t-40.5 -42zM415 591h-92l96 144h149zM207 591h-92l96 144h150z" />
    <glyph glyph-name="uni04F4" unicode="&#x4f4;" horiz-adv-x="646" 
d="M578 0h-150v265q-27 -8 -62 -15t-80 -7q-66 0 -111.5 14.5t-74 42.5t-41.5 67.5t-13 89.5v243h150v-208q0 -34 7.5 -55.5t23.5 -34t39.5 -17t56.5 -4.5q63 0 105 18v301h150v-700zM504 840q0 -33 -19.5 -52t-56.5 -19q-39 0 -59.5 19.5t-20.5 51.5q0 33 20.5 51.5
t58.5 18.5t57.5 -18.5t19.5 -51.5zM273 840q0 -33 -20 -52t-59 -19q-36 0 -56.5 19.5t-20.5 51.5q0 33 20.5 51.5t56.5 18.5q39 0 59 -18.5t20 -51.5z" />
    <glyph glyph-name="uni04F5" unicode="&#x4f5;" horiz-adv-x="546" 
d="M487 0h-136v181q-8 -2 -21.5 -5t-30 -5.5t-34.5 -4.5t-36 -2q-42 0 -77.5 7.5t-61 25.5t-39.5 47.5t-14 73.5v192h136v-145q0 -49 24 -67t72 -18q29 0 49 4t33 9v217h136v-510zM449 668q0 -32 -18.5 -50.5t-56.5 -18.5q-36 0 -55.5 18.5t-19.5 50.5q0 31 19.5 49t55.5 18
q38 0 56.5 -17.5t18.5 -49.5zM228 668q0 -32 -19 -50.5t-56 -18.5t-56 18t-19 50t19.5 50t55.5 18q37 0 56 -17.5t19 -49.5z" />
    <glyph glyph-name="uni04F8" unicode="&#x4f8;" horiz-adv-x="872" 
d="M218 132h56q79 0 113 29.5t34 78.5q0 53 -35.5 76t-111.5 23h-56v-207zM68 0v700h150v-229h77q134 0 207.5 -55t73.5 -175q0 -115 -76.5 -178t-215.5 -63h-216zM804 0h-150v700h150v-700zM625 840q0 -33 -19.5 -52t-56.5 -19q-39 0 -59.5 19.5t-20.5 51.5q0 33 20.5 51.5
t58.5 18.5t57.5 -18.5t19.5 -51.5zM394 840q0 -33 -20 -52t-59 -19q-36 0 -56.5 19.5t-20.5 51.5q0 33 20.5 51.5t56.5 18.5q39 0 59 -18.5t20 -51.5z" />
    <glyph glyph-name="uni04F9" unicode="&#x4f9;" horiz-adv-x="738" 
d="M196 106h63q47 0 67.5 19t20.5 56q0 38 -23.5 53.5t-70.5 15.5h-57v-144zM60 0v510h136v-154h70q115 0 168 -45.5t53 -131.5q0 -39 -14 -72t-41 -56.5t-66 -37t-88 -13.5h-218zM679 0h-136v510h136v-510zM551 668q0 -32 -18.5 -50.5t-56.5 -18.5q-36 0 -55.5 18.5
t-19.5 50.5q0 31 19.5 49t55.5 18q38 0 56.5 -17.5t18.5 -49.5zM330 668q0 -32 -19 -50.5t-56 -18.5t-56 18t-19 50t19.5 50t55.5 18q37 0 56 -17.5t19 -49.5z" />
    <glyph glyph-name="uni04FC" unicode="&#x4fc;" horiz-adv-x="655" 
d="M219 362l-193 338h177l128 -241l135 241h171l-199 -337l90 -128q23 -33 42 -62t32.5 -57.5t21 -58t7.5 -63.5q0 -43 -11.5 -81t-37 -66t-67 -44.5t-100.5 -16.5q-40 0 -77 8v120q11 -2 25 -4t26 -2q83 0 83 80q0 43 -21 82t-56 92l-66 99l-146 -261h-176z" />
    <glyph glyph-name="uni04FD" unicode="&#x4fd;" horiz-adv-x="537" 
d="M176 265l-156 245h155l97 -158l100 158h148l-158 -244l66 -87q16 -22 32.5 -45t29.5 -49.5t21 -56.5t8 -66q0 -81 -44.5 -130.5t-137.5 -49.5q-20 0 -34.5 1.5t-25.5 3.5l2 117q8 -2 16.5 -3t19.5 -1q30 0 50.5 15.5t20.5 50.5q0 33 -19 64t-39 59l-62 84l-109 -173h-152
z" />
    <glyph glyph-name="uni0510" unicode="&#x510;" horiz-adv-x="564" 
d="M526 26q-42 -20 -95 -29.5t-105 -9.5q-78 0 -133 15.5t-89 43.5t-49.5 67t-15.5 86q0 66 38.5 109t110.5 54v4q-62 17 -96 59t-34 105q0 39 13.5 72.5t42.5 58t76 38.5t115 14q64 0 113.5 -8t97.5 -23l-5 -133q-44 18 -88 26t-89 8q-60 0 -92 -18.5t-32 -62.5
q0 -30 13.5 -47.5t37.5 -26.5t56.5 -11.5t70.5 -2.5h38v-113h-52q-46 0 -79.5 -3.5t-55.5 -13.5t-32.5 -27.5t-10.5 -44.5q0 -45 34 -69.5t117 -24.5q42 0 88 9t85 30z" />
    <glyph glyph-name="uni0511" unicode="&#x511;" horiz-adv-x="497" 
d="M153 270q-42 9 -71.5 37.5t-29.5 69.5q0 31 9.5 57.5t34 46t66.5 30t106 10.5q49 0 96.5 -7t90.5 -24v-111q-40 17 -81 23.5t-73 6.5q-57 0 -83.5 -10t-26.5 -41q0 -14 7.5 -24t20 -16t28 -9t31.5 -3h90v-90h-94q-99 0 -99 -55q0 -29 26 -44t87 -15q44 0 92 10.5t85 27.5
v-115q-42 -19 -91.5 -27.5t-102.5 -8.5q-62 0 -106.5 12t-74 33.5t-43.5 50.5t-14 63q0 50 33 81t87 39v2z" />
    <glyph glyph-name="uni0512" unicode="&#x512;" horiz-adv-x="711" 
d="M494 565h-192q-2 -135 -8.5 -242t-29 -181t-67 -113t-120.5 -39q-26 0 -47 7v141q15 -3 25 -3q28 0 46.5 18t30 67t17 134.5t7.5 219.5l1 126h487v-694q0 -110 -47 -165t-150 -55q-24 0 -45 2.5t-37 7.5v121q14 -4 29 -6t26 -2q19 0 33 6t23 20t13.5 38.5t4.5 61.5v530z
" />
    <glyph glyph-name="uni0513" unicode="&#x513;" horiz-adv-x="589" 
d="M76 -11q-16 0 -30 3t-23 5v123q12 -4 22 -4q22 0 37 17t24.5 56t13.5 103t4 158v60h405v-506q0 -108 -43 -165t-146 -57q-23 0 -40 2t-28 4l1 117q11 -2 21 -4t22 -2q16 0 30 3t24.5 13.5t16.5 29.5t6 51v394h-143v-18q-1 -101 -10.5 -173.5t-30 -119t-53.5 -68.5
t-80 -22z" />
    <glyph glyph-name="uni0526" unicode="&#x526;" horiz-adv-x="707" 
d="M68 700h150v-256q27 8 62 15t80 7q66 0 111.5 -14.5t74 -42t41.5 -67t13 -89.5v-119h84v-290h-142v156h-92v209q0 68 -30.5 94t-95.5 26q-31 0 -58 -5t-48 -13v-311h-150v700z" />
    <glyph glyph-name="uni0527" unicode="&#x527;" horiz-adv-x="646" 
d="M411 0v264q0 40 -5 66.5t-16 42.5t-30 23t-46 7q-63 0 -90.5 -42.5t-27.5 -124.5v-236h-136v750h136v-311h2q28 42 71.5 61t94.5 19q92 0 137.5 -48.5t45.5 -155.5v-199h77v-250h-126v134h-87z" />
    <glyph glyph-name="uni052E" unicode="&#x52e;" horiz-adv-x="751" 
d="M494 0v565h-192q-2 -135 -8.5 -242t-29 -181t-67 -113t-120.5 -39q-26 0 -47 7v141q15 -3 25 -3q28 0 46.5 18t30 67t17 134.5t7.5 219.5l1 126h487v-566h84v-290h-142v156h-92z" />
    <glyph glyph-name="uni052F" unicode="&#x52f;" horiz-adv-x="628" 
d="M76 -11q-16 0 -30 3t-23 5v123q12 -4 22 -4q22 0 37 17t24.5 56t13.5 103t4 158v60h405v-394h77v-250h-127v134h-86v390h-143v-18q-1 -101 -10.5 -173.5t-30 -119t-53.5 -68.5t-80 -22z" />
    <glyph glyph-name="uni1E9E" unicode="&#x1e9e;" horiz-adv-x="671" 
d="M296 117q19 -5 35 -6.5t30 -1.5q25 0 46 5.5t36.5 18t24 33t8.5 50.5q0 51 -28.5 76.5t-96.5 25.5h-33v72l111 161q-15 13 -38 21t-54 8t-53.5 -9.5t-37 -26t-21.5 -39t-7 -48.5v-457h-150v464q0 67 21 114.5t57 77t84.5 43t104.5 13.5q72 0 138.5 -29t121.5 -95
l-133 -177v-2q54 -5 88 -24.5t52.5 -47.5t25.5 -60t7 -62q0 -56 -18 -98t-50.5 -70.5t-76.5 -43t-96 -14.5q-29 0 -52 3t-46 9v116z" />
    <glyph glyph-name="uni2010" unicode="&#x2010;" horiz-adv-x="478" 
d="M404 226h-330v112h330v-112z" />
    <glyph glyph-name="uni2011" unicode="&#x2011;" horiz-adv-x="478" 
d="M404 226h-330v112h330v-112z" />
    <glyph glyph-name="figuredash" unicode="&#x2012;" horiz-adv-x="635" 
d="M589 297h-543v103h543v-103z" />
    <glyph glyph-name="endash" unicode="&#x2013;" horiz-adv-x="647" 
d="M600 235h-553v103h553v-103z" />
    <glyph glyph-name="emdash" unicode="&#x2014;" horiz-adv-x="808" 
d="M762 235h-715v103h715v-103z" />
    <glyph glyph-name="quoteleft" unicode="&#x2018;" horiz-adv-x="319" 
d="M274 632q-49 -16 -76 -40.5t-35 -62.5q52 0 73 -26t21 -61t-24.5 -59.5t-73.5 -24.5q-43 0 -73.5 29.5t-30.5 92.5q0 40 12 77.5t35 68t58 53t81 33.5z" />
    <glyph glyph-name="quoteright" unicode="&#x2019;" horiz-adv-x="319" 
d="M44 438q50 15 76.5 40t35.5 63q-52 0 -73 26t-21 61t24.5 59.5t72.5 24.5q44 0 74 -29.5t30 -93.5q0 -40 -11.5 -77t-35 -68t-58 -53.5t-80.5 -33.5z" />
    <glyph glyph-name="quotesinglbase" unicode="&#x201a;" horiz-adv-x="319" 
d="M44 -115q50 16 76.5 40.5t35.5 62.5q-52 0 -73 26t-21 61t24.5 59.5t72.5 24.5q44 0 74 -29.5t30 -92.5q0 -40 -11.5 -77t-35 -68t-58 -53.5t-80.5 -33.5z" />
    <glyph glyph-name="quotedblleft" unicode="&#x201c;" horiz-adv-x="556" 
d="M274 632q-49 -16 -76 -40.5t-35 -62.5q52 0 73 -26t21 -61t-24.5 -59.5t-73.5 -24.5q-43 0 -73.5 29.5t-30.5 92.5q0 40 12 77.5t35 68t58 53t81 33.5zM512 632q-50 -16 -76.5 -40.5t-35.5 -62.5q52 0 73 -26t21 -61t-24.5 -59.5t-72.5 -24.5q-44 0 -74 29.5t-30 92.5
q0 40 11.5 77.5t35 68t58 53t80.5 33.5z" />
    <glyph glyph-name="quotedblright" unicode="&#x201d;" horiz-adv-x="556" 
d="M44 438q50 15 76.5 40t35.5 63q-52 0 -73 26t-21 61t24.5 59.5t72.5 24.5q44 0 74 -29.5t30 -93.5q0 -40 -11.5 -77t-35 -68t-58 -53.5t-80.5 -33.5zM281 438q95 29 111 103q-51 0 -72 26t-21 61t24 59.5t73 24.5q43 0 73.5 -29.5t30.5 -93.5q0 -40 -12 -77t-35 -68
t-58 -53.5t-81 -33.5z" />
    <glyph glyph-name="quotedblbase" unicode="&#x201e;" horiz-adv-x="556" 
d="M44 -115q50 16 76.5 40.5t35.5 62.5q-52 0 -73 26t-21 61t24.5 59.5t72.5 24.5q44 0 74 -29.5t30 -92.5q0 -40 -11.5 -77t-35 -68t-58 -53.5t-80.5 -33.5zM281 -115q49 16 76 40.5t35 62.5q-51 0 -72 26t-21 61t24 59.5t73 24.5q43 0 73.5 -29.5t30.5 -92.5
q0 -40 -12 -77t-35 -68t-58 -53.5t-81 -33.5z" />
    <glyph glyph-name="dagger" unicode="&#x2020;" horiz-adv-x="549" 
d="M347 0h-145v431h-164v114h164v155h145v-155h164v-114h-164v-431z" />
    <glyph glyph-name="daggerdbl" unicode="&#x2021;" horiz-adv-x="549" 
d="M347 0h-145v155h-164v115h164v161h-164v114h164v155h145v-155h164v-114h-164v-161h164v-115h-164v-155z" />
    <glyph glyph-name="bullet" unicode="&#x2022;" horiz-adv-x="435" 
d="M219 194q-32 0 -61 12.5t-50.5 34t-34 49.5t-12.5 60t12.5 61t34 50.5t50.5 34t61 12.5q31 0 59.5 -12.5t50 -34t34 -50.5t12.5 -61t-12.5 -60t-34 -49.5t-50 -34t-59.5 -12.5z" />
    <glyph glyph-name="ellipsis" unicode="&#x2026;" horiz-adv-x="834" 
d="M239 74q0 -40 -24 -62.5t-69 -22.5q-42 0 -66.5 23t-24.5 62q0 41 23 63t68 22q42 0 67.5 -23.5t25.5 -61.5zM779 74q0 -40 -24 -62.5t-69 -22.5q-42 0 -66.5 23t-24.5 62q0 41 23 63t68 22q42 0 67.5 -23.5t25.5 -61.5zM509 74q0 -40 -24 -62.5t-69 -22.5
q-42 0 -66.5 23t-24.5 62q0 41 23 63t68 22q42 0 67.5 -23.5t25.5 -61.5z" />
    <glyph glyph-name="perthousand" unicode="&#x2030;" horiz-adv-x="1261" 
d="M638 69q39 0 55.5 25.5t16.5 79.5q0 53 -15.5 79t-56.5 26q-38 0 -54.5 -26t-16.5 -79q0 -105 71 -105zM638 -12q-33 0 -65.5 8.5t-57.5 30t-40.5 57.5t-15.5 90t15.5 89.5t41 57t57.5 30.5t65 9q34 0 66 -8.5t57 -30t40.5 -57.5t15.5 -90q0 -53 -15.5 -89t-41 -57.5
t-57.5 -30.5t-65 -9zM219 421q39 0 55 25t16 79t-15 80t-56 26q-38 0 -55 -26t-17 -80q0 -104 72 -104zM219 340q-33 0 -65.5 8.5t-57.5 29.5t-40.5 57t-15.5 90t15.5 89.5t41 57.5t57.5 31t65 9q34 0 66 -8.5t57 -30t40.5 -57.5t15.5 -91q0 -53 -15.5 -88.5t-41 -57
t-57.5 -30.5t-65 -9zM230 0h-96l493 700h96zM1042 69q39 0 55.5 25.5t16.5 79.5q0 53 -15.5 79t-56.5 26q-38 0 -54.5 -26t-16.5 -79q0 -105 71 -105zM1042 -12q-33 0 -65.5 8.5t-57.5 30t-40.5 57.5t-15.5 90t15.5 89.5t41 57t57.5 30.5t65 9q34 0 66 -8.5t57 -30
t40.5 -57.5t15.5 -90q0 -53 -15.5 -89t-41 -57.5t-57.5 -30.5t-65 -9z" />
    <glyph glyph-name="guilsinglleft" unicode="&#x2039;" horiz-adv-x="358" 
d="M318 61h-133l-133 208l133 208h133l-121 -208z" />
    <glyph glyph-name="guilsinglright" unicode="&#x203a;" horiz-adv-x="358" 
d="M174 61h-133l121 208l-121 208h133l133 -208z" />
    <glyph glyph-name="fraction" unicode="&#x2044;" horiz-adv-x="169" 
d="M-88 -22h-88l433 742h88z" />
    <glyph glyph-name="uni2070" unicode="&#x2070;" 
d="M203 460q30 0 43.5 29.5t13.5 101.5t-14 102.5t-47 30.5q-32 0 -45.5 -30.5t-13.5 -102.5t15.5 -101.5t47.5 -29.5zM200 374q-85 0 -129 52t-44 166t45 166.5t127 52.5q90 0 132 -52.5t42 -166.5q0 -116 -45 -167t-128 -51z" />
    <glyph glyph-name="uni2074" unicode="&#x2074;" 
d="M330 381h-109v83h-204v85l182 251h131v-246h56v-90h-56v-83zM222 553v158h-1l-112 -158h113z" />
    <glyph glyph-name="uni2075" unicode="&#x2075;" 
d="M58 482q26 -11 48.5 -14.5t51.5 -3.5q79 0 79 58q0 26 -17 40.5t-58 14.5q-30 0 -51 -3.5t-47 -10.5l13 237h252v-87h-172l-5 -66q24 7 58 7q35 0 61.5 -10.5t44 -28t26 -41t8.5 -50.5q0 -32 -10 -59.5t-31 -47.5t-55 -31.5t-82 -11.5q-27 0 -56.5 4t-57.5 15v89z" />
    <glyph glyph-name="uni2076" unicode="&#x2076;" 
d="M209 454q23 0 38.5 17t15.5 49q0 29 -15.5 45t-39.5 16q-23 0 -40.5 -13t-17.5 -43q0 -33 16 -52t43 -19zM336 709q-24 8 -47 11t-46 3q-18 0 -37 -4.5t-34 -16t-24.5 -32t-8.5 -51.5q14 15 37.5 26t60.5 11q27 0 51.5 -8t43 -24.5t29.5 -42t11 -60.5q0 -33 -12 -60
t-33.5 -46.5t-51.5 -30t-66 -10.5q-49 0 -82 16.5t-53.5 44t-29 64t-8.5 75.5q0 49 10.5 92t34.5 75.5t62.5 51t95.5 18.5q17 0 42 -2.5t55 -10.5v-89z" />
    <glyph glyph-name="uni2077" unicode="&#x2077;" 
d="M205 381h-118l147 332h-189v87h304v-72z" />
    <glyph glyph-name="uni2078" unicode="&#x2078;" 
d="M207 630q20 12 32 26.5t12 31.5q0 18 -13 30t-39 12q-24 0 -37.5 -12.5t-13.5 -29.5q0 -20 16.5 -35t42.5 -23zM194 568q-23 -11 -38 -25t-15 -38q0 -20 14 -35.5t45 -15.5q26 0 42.5 13.5t16.5 38.5q0 26 -21.5 40t-43.5 22zM285 605q46 -18 65.5 -43t19.5 -62
q0 -58 -46 -92t-123 -34q-36 0 -67.5 8t-54 23t-35.5 37.5t-13 51.5q0 42 21 67t63 41q-40 17 -57.5 40t-17.5 58q0 51 44 81t117 30q33 0 62 -6.5t50 -20t33.5 -33.5t12.5 -47q0 -34 -20.5 -59t-53.5 -40z" />
    <glyph glyph-name="uni2079" unicode="&#x2079;" 
d="M192 730q-23 0 -38.5 -17t-15.5 -49q0 -29 15.5 -45t39.5 -16q23 0 40.5 13t17.5 43q0 34 -16 52.5t-43 18.5zM63 475q24 -8 47 -11t45 -3q18 0 37.5 4.5t35 16.5t25 32t9.5 52q-15 -16 -38.5 -27t-60.5 -11q-27 0 -51.5 8t-43 24.5t-29.5 42t-11 60.5q0 33 12 60
t33.5 46.5t52 30.5t66.5 11q48 0 81 -16.5t53.5 -44.5t29 -64t8.5 -75q0 -49 -10.5 -92t-35 -75.5t-63.5 -51t-96 -18.5q-17 0 -41.5 2t-54.5 10v89z" />
    <glyph glyph-name="uni207A" unicode="&#x207a;" horiz-adv-x="356" 
d="M218 443h-79v108h-108v80h108v107h79v-107h107v-80h-107v-108z" />
    <glyph glyph-name="uni207B" unicode="&#x207b;" horiz-adv-x="356" 
d="M31 551v80h294v-80h-294z" />
    <glyph glyph-name="uni207C" unicode="&#x207c;" horiz-adv-x="356" 
d="M31 616v79h294v-79h-294zM31 486v79h294v-79h-294z" />
    <glyph glyph-name="uni207D" unicode="&#x207d;" horiz-adv-x="233" 
d="M230 863q-53 -64 -73.5 -133.5t-20.5 -138.5q0 -65 21.5 -136.5t71.5 -135.5h-97q-51 61 -73.5 131.5t-22.5 140.5q0 71 22.5 142.5t73.5 129.5h98v0z" />
    <glyph glyph-name="uni207E" unicode="&#x207e;" horiz-adv-x="233" 
d="M5 319q50 64 71.5 135.5t21.5 136.5q0 69 -20.5 138.5t-74.5 133.5h100q51 -58 73 -129.5t22 -142.5q0 -70 -22.5 -140.5t-73.5 -131.5h-97z" />
    <glyph glyph-name="uni2080" unicode="&#x2080;" 
d="M203 -20q30 0 43.5 29.5t13.5 101.5t-14 102.5t-47 30.5q-32 0 -45.5 -30.5t-13.5 -102.5t15.5 -101.5t47.5 -29.5zM200 -106q-85 0 -129 52t-44 166t45 166.5t127 52.5q90 0 132 -52.5t42 -166.5q0 -116 -45 -167t-128 -51z" />
    <glyph glyph-name="uni2081" unicode="&#x2081;" 
d="M290 -99h-110v303l-82 -55l-46 75l149 96h89v-419z" />
    <glyph glyph-name="uni2082" unicode="&#x2082;" 
d="M355 -99h-315v96l75 54q32 22 54.5 39.5t36.5 32.5t20 29.5t6 30.5q0 24 -16 40t-56 16q-26 0 -53.5 -6.5t-50.5 -18.5v94q34 12 65.5 17.5t68.5 5.5q83 0 122 -34t39 -88q0 -26 -8.5 -49.5t-27.5 -47t-48 -47.5t-69 -51l-31 -20v-1h188v-92z" />
    <glyph glyph-name="uni2083" unicode="&#x2083;" 
d="M49 4q30 -11 57.5 -15.5t52.5 -4.5q42 0 61 11.5t19 33.5q0 27 -18.5 38t-56.5 11h-67v78h58q35 0 55 10t20 33q0 21 -16.5 31.5t-54.5 10.5q-29 0 -56 -5.5t-47 -14.5v90q29 11 65 15.5t68 4.5q43 0 72.5 -9t47.5 -24.5t26 -35.5t8 -41q0 -40 -22.5 -64t-64.5 -35v-2
q29 -5 47.5 -15t29.5 -24t15.5 -30t4.5 -31q0 -57 -47 -91.5t-134 -34.5q-24 0 -57 4t-66 15v91z" />
    <glyph glyph-name="uni2084" unicode="&#x2084;" 
d="M330 -99h-109v83h-204v85l182 251h131v-246h56v-90h-56v-83zM222 73v158h-1l-112 -158h113z" />
    <glyph glyph-name="uni2085" unicode="&#x2085;" 
d="M58 2q26 -11 48.5 -14.5t51.5 -3.5q79 0 79 58q0 26 -17 40.5t-58 14.5q-30 0 -51 -3.5t-47 -10.5l13 237h252v-87h-172l-5 -66q24 7 58 7q35 0 61.5 -10.5t44 -28t26 -41t8.5 -50.5q0 -32 -10 -59.5t-31 -47.5t-55 -31.5t-82 -11.5q-27 0 -56.5 4t-57.5 15v89z" />
    <glyph glyph-name="uni2086" unicode="&#x2086;" 
d="M209 -26q23 0 38.5 17t15.5 49q0 29 -15.5 45t-39.5 16q-23 0 -40.5 -13t-17.5 -43q0 -33 16 -52t43 -19zM336 229q-24 8 -47 11t-46 3q-18 0 -37 -4.5t-34 -16t-24.5 -32t-8.5 -51.5q14 15 37.5 26t60.5 11q27 0 51.5 -8t43 -24.5t29.5 -42t11 -60.5q0 -33 -12 -60
t-33.5 -46.5t-51.5 -30t-66 -10.5q-49 0 -82 16.5t-53.5 44t-29 64t-8.5 75.5q0 49 10.5 92t34.5 75.5t62.5 51t95.5 18.5q17 0 42 -2.5t55 -10.5v-89z" />
    <glyph glyph-name="uni2087" unicode="&#x2087;" 
d="M205 -99h-118l147 332h-189v87h304v-72z" />
    <glyph glyph-name="uni2088" unicode="&#x2088;" 
d="M207 150q20 12 32 26.5t12 31.5q0 18 -13 30t-39 12q-24 0 -37.5 -12.5t-13.5 -29.5q0 -20 16.5 -35t42.5 -23zM194 88q-23 -11 -38 -25t-15 -38q0 -20 14 -35.5t45 -15.5q26 0 42.5 13.5t16.5 38.5q0 26 -21.5 40t-43.5 22zM285 125q46 -18 65.5 -43t19.5 -62
q0 -58 -46 -92t-123 -34q-36 0 -67.5 8t-54 23t-35.5 37.5t-13 51.5q0 42 21 67t63 41q-40 17 -57.5 40t-17.5 58q0 51 44 81t117 30q33 0 62 -6.5t50 -20t33.5 -33.5t12.5 -47q0 -34 -20.5 -59t-53.5 -40z" />
    <glyph glyph-name="uni2089" unicode="&#x2089;" 
d="M192 250q-23 0 -38.5 -17t-15.5 -49q0 -29 15.5 -45t39.5 -16q23 0 40.5 13t17.5 43q0 34 -16 52.5t-43 18.5zM63 -5q24 -8 47 -11t45 -3q18 0 37.5 4.5t35 16.5t25 32t9.5 52q-15 -16 -38.5 -27t-60.5 -11q-27 0 -51.5 8t-43 24.5t-29.5 42t-11 60.5q0 33 12 60
t33.5 46.5t52 30.5t66.5 11q48 0 81 -16.5t53.5 -44.5t29 -64t8.5 -75q0 -49 -10.5 -92t-35 -75.5t-63.5 -51t-96 -18.5q-17 0 -41.5 2t-54.5 10v89z" />
    <glyph glyph-name="uni208A" unicode="&#x208a;" horiz-adv-x="356" 
d="M218 -37h-79v108h-108v80h108v107h79v-107h107v-80h-107v-108z" />
    <glyph glyph-name="uni208B" unicode="&#x208b;" horiz-adv-x="356" 
d="M31 71v80h294v-80h-294z" />
    <glyph glyph-name="uni208C" unicode="&#x208c;" horiz-adv-x="356" 
d="M31 136v79h294v-79h-294zM31 6v79h294v-79h-294z" />
    <glyph glyph-name="uni208D" unicode="&#x208d;" horiz-adv-x="233" 
d="M230 383q-53 -64 -73.5 -133.5t-20.5 -138.5q0 -65 21.5 -136.5t71.5 -135.5h-97q-51 61 -73.5 131.5t-22.5 140.5q0 71 22.5 142.5t73.5 129.5h98v0z" />
    <glyph glyph-name="uni208E" unicode="&#x208e;" horiz-adv-x="233" 
d="M5 -161q50 64 71.5 135.5t21.5 136.5q0 69 -20.5 138.5t-74.5 133.5h100q51 -58 73 -129.5t22 -142.5q0 -70 -22.5 -140.5t-73.5 -131.5h-97z" />
    <glyph glyph-name="Euro" unicode="&#x20ac;" horiz-adv-x="594" 
d="M583 13q-27 -12 -67.5 -18.5t-101.5 -6.5q-146 0 -224 67t-98 192h-84l20 74h58v62h-78l21 73h66q23 126 104 191t233 65q54 0 90.5 -7t59.5 -14v-125q-32 11 -67 16t-64 5q-85 0 -130.5 -34t-64.5 -97h276l-22 -73h-271q-1 -8 -1 -16v-17v-15t1 -14h253l-22 -74h-213
q17 -62 62.5 -97.5t128.5 -35.5q36 0 67.5 6t67.5 21v-128z" />
    <glyph glyph-name="uni20B4" unicode="&#x20b4;" horiz-adv-x="594" 
d="M512 13q-53 -15 -102.5 -20t-91.5 -5q-74 0 -121 18.5t-73.5 45t-36 56t-9.5 51.5q0 30 8.5 52t18.5 38h-61v74h119q5 4 15.5 13t22.5 19t23 19t16 13h-196v75h277q23 19 34 38t11 36q0 18 -7.5 29.5t-19.5 18t-26.5 8.5t-27.5 2q-25 0 -44.5 -1t-38 -4t-37.5 -8t-43 -13
v123q27 6 55 10t53.5 6.5t47.5 3.5t36 1q67 0 109 -15.5t64.5 -38t30.5 -49t8 -48.5q0 -32 -11.5 -57t-26.5 -42h68v-75h-131q-5 -4 -16.5 -13t-23.5 -19t-23 -19t-16 -13h210v-74h-285q-18 -17 -25 -36t-7 -34q0 -72 118 -72q29 0 71 5.5t84 22.5v-122z" />
    <glyph glyph-name="uni20B8" unicode="&#x20b8;" horiz-adv-x="594" 
d="M564 610h-534v90h534v-90zM372 0h-150v469h-192v90h534v-90h-192v-469z" />
    <glyph glyph-name="uni20BD" unicode="&#x20bd;" horiz-adv-x="594" 
d="M250 376h72q65 0 91 30t26 83q0 54 -25.5 80t-91.5 26h-72v-219zM453 121h-200v-121h-150v121h-88v94h88v66h-88v95h88v324h232q136 0 196.5 -53.5t60.5 -155.5q0 -49 -15.5 -88t-47.5 -66t-82.5 -41.5t-120.5 -14.5h-73v-66h200v-94z" />
    <glyph glyph-name="afii61352" unicode="&#x2116;" horiz-adv-x="1086" 
d="M640 0h-166l-259 490h-1v-490h-146v700h176l250 -478v478h146v-700zM877 329q-49 0 -81 17t-50.5 44t-26 61t-7.5 69q0 36 7 70.5t25 61.5t49.5 43.5t81.5 16.5t82.5 -16.5t51 -43.5t26 -61.5t7.5 -70.5q0 -35 -7.5 -69t-26.5 -61t-51 -44t-80 -17zM1032 162h-309v106
h309v-106zM877 422q18 0 28.5 9t16 23t7.5 31.5t2 34.5q0 18 -1.5 36t-7.5 32t-16.5 22.5t-28.5 8.5t-28.5 -9t-16 -23t-7.5 -31.5t-2 -35.5q0 -17 2 -34.5t8 -31.5t16.5 -23t27.5 -9z" />
    <glyph glyph-name="uni2117" unicode="&#x2117;" horiz-adv-x="831" 
d="M778 349q0 -75 -28.5 -140.5t-78 -114.5t-115.5 -77.5t-141 -28.5q-74 0 -140 28.5t-115 77.5t-77.5 114.5t-28.5 140.5t28.5 141t77.5 115t115 77.5t140 28.5q75 0 141 -28.5t115.5 -77.5t78 -115t28.5 -141zM707 348q0 61 -23 114t-63 93t-93 63t-114 23
q-60 0 -112.5 -23t-91.5 -63t-62 -93t-23 -114q0 -60 23 -112.5t62 -91.5t91.5 -62t112.5 -23q61 0 114 23t93 62t63 91.5t23 112.5zM388 363h46q10 0 20 2t18 7.5t13 15.5t5 26q0 32 -16 41.5t-38 9.5h-48v-102zM390 163h-94v378h151q22 0 47 -4.5t45.5 -18t34 -37.5
t13.5 -63q0 -64 -41 -97t-107 -33h-49v-125z" />
    <glyph glyph-name="trademark" unicode="&#x2122;" horiz-adv-x="996" 
d="M914 294h-102v265l-90 -265h-77l-89 265h-1v-265h-103v406h137l95 -279h2l92 279h136v-406zM273 294h-108v313h-129v93h365v-93h-128v-313z" />
    <glyph glyph-name="onethird" unicode="&#x2153;" horiz-adv-x="894" 
d="M252 -22h-88l433 742h88zM267 282h-110v303l-82 -55l-46 75l149 96h89v-419zM547 104q30 -11 57.5 -15.5t52.5 -4.5q42 0 61 11.5t19 33.5q0 27 -18.5 38t-56.5 11h-67v78h58q35 0 55 10t20 33q0 21 -16.5 31.5t-54.5 10.5q-29 0 -56 -5.5t-47 -14.5v90q29 11 65 15.5
t68 4.5q43 0 72.5 -9t47.5 -24.5t26 -35.5t8 -41q0 -40 -22.5 -64t-64.5 -35v-2q29 -5 47.5 -15t29.5 -24t15.5 -30t4.5 -31q0 -57 -47 -91.5t-134 -34.5q-24 0 -57 4t-66 15v91z" />
    <glyph glyph-name="twothirds" unicode="&#x2154;" horiz-adv-x="894" 
d="M274 -22h-88l433 742h88zM328 282h-315v96l75 54q32 22 54.5 39.5t36.5 32.5t20 29.5t6 30.5q0 24 -16 40t-56 16q-26 0 -53.5 -6.5t-50.5 -18.5v94q34 12 65.5 17.5t68.5 5.5q83 0 122 -34t39 -88q0 -26 -8.5 -49.5t-27.5 -47t-48 -47.5t-69 -51l-31 -20v-1h188v-92z
M562 104q30 -11 57.5 -15.5t52.5 -4.5q42 0 61 11.5t19 33.5q0 27 -18.5 38t-56.5 11h-67v78h58q35 0 55 10t20 33q0 21 -16.5 31.5t-54.5 10.5q-29 0 -56 -5.5t-47 -14.5v90q29 11 65 15.5t68 4.5q43 0 72.5 -9t47.5 -24.5t26 -35.5t8 -41q0 -40 -22.5 -64t-64.5 -35v-2
q29 -5 47.5 -15t29.5 -24t15.5 -30t4.5 -31q0 -57 -47 -91.5t-134 -34.5q-24 0 -57 4t-66 15v91z" />
    <glyph glyph-name="oneeighth" unicode="&#x215b;" horiz-adv-x="894" 
d="M248 -22h-88l433 742h88zM266 282h-110v303l-82 -55l-46 75l149 96h89v-419zM699 250q20 12 32 26.5t12 31.5q0 18 -13 30t-39 12q-24 0 -37.5 -12.5t-13.5 -29.5q0 -20 16.5 -35t42.5 -23zM686 188q-23 -11 -38 -25t-15 -38q0 -20 14 -35.5t45 -15.5q26 0 42.5 13.5
t16.5 38.5q0 26 -21.5 40t-43.5 22zM777 225q46 -18 65.5 -43t19.5 -62q0 -58 -46 -92t-123 -34q-36 0 -67.5 8t-54 23t-35.5 37.5t-13 51.5q0 42 21 67t63 41q-40 17 -57.5 40t-17.5 58q0 51 44 81t117 30q33 0 62 -6.5t50 -20t33.5 -33.5t12.5 -47q0 -34 -20.5 -59
t-53.5 -40z" />
    <glyph glyph-name="threeeighths" unicode="&#x215c;" horiz-adv-x="894" 
d="M256 -22h-88l433 742h88zM705 250q20 12 32 26.5t12 31.5q0 18 -13 30t-39 12q-24 0 -37.5 -12.5t-13.5 -29.5q0 -20 16.5 -35t42.5 -23zM692 188q-23 -11 -38 -25t-15 -38q0 -20 14 -35.5t45 -15.5q26 0 42.5 13.5t16.5 38.5q0 26 -21.5 40t-43.5 22zM783 225
q46 -18 65.5 -43t19.5 -62q0 -58 -46 -92t-123 -34q-36 0 -67.5 8t-54 23t-35.5 37.5t-13 51.5q0 42 21 67t63 41q-40 17 -57.5 40t-17.5 58q0 51 44 81t117 30q33 0 62 -6.5t50 -20t33.5 -33.5t12.5 -47q0 -34 -20.5 -59t-53.5 -40zM27 385q30 -11 57.5 -15.5t52.5 -4.5
q42 0 61 11.5t19 33.5q0 27 -18.5 38t-56.5 11h-67v78h58q35 0 55 10t20 33q0 21 -16.5 31.5t-54.5 10.5q-29 0 -56 -5.5t-47 -14.5v90q29 11 65 15.5t68 4.5q43 0 72.5 -9t47.5 -24.5t26 -35.5t8 -41q0 -40 -22.5 -64t-64.5 -35v-2q29 -5 47.5 -15t29.5 -24t15.5 -30
t4.5 -31q0 -57 -47 -91.5t-134 -34.5q-24 0 -57 4t-66 15v91z" />
    <glyph glyph-name="fiveeighths" unicode="&#x215d;" horiz-adv-x="894" 
d="M256 -22h-88l433 742h88zM39 383q26 -11 48.5 -14.5t51.5 -3.5q79 0 79 58q0 26 -17 40.5t-58 14.5q-30 0 -51 -3.5t-47 -10.5l13 237h252v-87h-172l-5 -66q24 7 58 7q35 0 61.5 -10.5t44 -28t26 -41t8.5 -50.5q0 -32 -10 -59.5t-31 -47.5t-55 -31.5t-82 -11.5
q-27 0 -56.5 4t-57.5 15v89zM705 250q20 12 32 26.5t12 31.5q0 18 -13 30t-39 12q-24 0 -37.5 -12.5t-13.5 -29.5q0 -20 16.5 -35t42.5 -23zM692 188q-23 -11 -38 -25t-15 -38q0 -20 14 -35.5t45 -15.5q26 0 42.5 13.5t16.5 38.5q0 26 -21.5 40t-43.5 22zM783 225
q46 -18 65.5 -43t19.5 -62q0 -58 -46 -92t-123 -34q-36 0 -67.5 8t-54 23t-35.5 37.5t-13 51.5q0 42 21 67t63 41q-40 17 -57.5 40t-17.5 58q0 51 44 81t117 30q33 0 62 -6.5t50 -20t33.5 -33.5t12.5 -47q0 -34 -20.5 -59t-53.5 -40z" />
    <glyph glyph-name="seveneighths" unicode="&#x215e;" horiz-adv-x="894" 
d="M242 -22h-88l433 742h88zM697 250q20 12 32 26.5t12 31.5q0 18 -13 30t-39 12q-24 0 -37.5 -12.5t-13.5 -29.5q0 -20 16.5 -35t42.5 -23zM684 188q-23 -11 -38 -25t-15 -38q0 -20 14 -35.5t45 -15.5q26 0 42.5 13.5t16.5 38.5q0 26 -21.5 40t-43.5 22zM775 225
q46 -18 65.5 -43t19.5 -62q0 -58 -46 -92t-123 -34q-36 0 -67.5 8t-54 23t-35.5 37.5t-13 51.5q0 42 21 67t63 41q-40 17 -57.5 40t-17.5 58q0 51 44 81t117 30q33 0 62 -6.5t50 -20t33.5 -33.5t12.5 -47q0 -34 -20.5 -59t-53.5 -40zM202 282h-118l147 332h-189v87h304v-72z
" />
    <glyph glyph-name="arrowleft" unicode="&#x2190;" horiz-adv-x="800" 
d="M399 125h-140l-199 225l199 225h140l-156 -170h497v-109h-497z" />
    <glyph glyph-name="arrowup" unicode="&#x2191;" horiz-adv-x="800" 
d="M175 361v140l225 199l225 -199v-140l-170 156v-517h-109v517z" />
    <glyph glyph-name="arrowright" unicode="&#x2192;" horiz-adv-x="800" 
d="M402 575h139l199 -225l-199 -225h-139l155 171h-497v109h497z" />
    <glyph glyph-name="arrowdown" unicode="&#x2193;" horiz-adv-x="800" 
d="M625 339v-140l-225 -199l-225 199v140l171 -155v516h109v-516z" />
    <glyph glyph-name="arrowboth" unicode="&#x2194;" horiz-adv-x="800" 
d="M385 125h-140l-195 225l195 225h140l-153 -170h337l-154 170h140l195 -225l-195 -225h-140l154 171h-337z" />
    <glyph glyph-name="arrowupdn" unicode="&#x2195;" horiz-adv-x="800" 
d="M625 335v-140l-225 -195l-225 195v140l171 -153v337l-171 -154v140l225 195l225 -195v-140l-170 154v-337z" />
    <glyph glyph-name="uni2196" unicode="&#x2196;" horiz-adv-x="800" 
d="M232 202l-99 99l19 298l298 19l99 -99l-230 -11l353 -353l-77 -76l-353 352z" />
    <glyph glyph-name="uni2197" unicode="&#x2197;" horiz-adv-x="800" 
d="M252 519l99 99l298 -19l19 -298l-99 -99l-11 229l-353 -352l-76 76l352 353z" />
    <glyph glyph-name="uni2198" unicode="&#x2198;" horiz-adv-x="800" 
d="M569 499l99 -99l-19 -298l-298 -19l-99 99l229 10l-352 353l76 77l353 -353z" />
    <glyph glyph-name="uni2199" unicode="&#x2199;" horiz-adv-x="800" 
d="M549 182l-99 -99l-298 19l-19 298l99 99l10 -230l353 353l77 -77l-353 -353z" />
    <glyph glyph-name="partialdiff" unicode="&#x2202;" horiz-adv-x="606" 
d="M303 102q62 0 93 36t31 117q0 75 -30 114.5t-94 39.5q-60 0 -92.5 -36.5t-32.5 -117.5t34 -117t91 -36zM406 465q-19 48 -52.5 82.5t-75 58.5t-87 38.5t-88.5 21.5l50 92q113 -19 192.5 -68t129 -116.5t72 -148t22.5 -161.5q0 -76 -24 -128.5t-63 -85t-88 -47t-98 -14.5
q-70 0 -119 19.5t-80.5 54.5t-46 83.5t-14.5 106.5q0 121 61.5 190t172.5 69q32 0 65.5 -8.5t67.5 -40.5z" />
    <glyph glyph-name="product" unicode="&#x220f;" horiz-adv-x="702" 
d="M635 -210h-150v775h-267v-775h-150v910h567v-910z" />
    <glyph glyph-name="summation" unicode="&#x2211;" horiz-adv-x="568" 
d="M553 -210h-521v132l229 347l-229 299v132h514v-132h-337l232 -299l-232 -347h344v-132z" />
    <glyph glyph-name="minus" unicode="&#x2212;" horiz-adv-x="589" 
d="M50 269v112h490v-112h-490z" />
    <glyph glyph-name="uni2215" unicode="&#x2215;" horiz-adv-x="518" 
d="M132 -150h-126l371 920h126z" />
    <glyph glyph-name="radical" unicode="&#x221a;" horiz-adv-x="726" 
d="M428 -150h-119l-181 521h-92v108h200l128 -391h3l128 711h216v-100h-123z" />
    <glyph glyph-name="infinity" unicode="&#x221e;" horiz-adv-x="757" 
d="M321 353l-49 48q-14 15 -26.5 22t-32.5 7q-17 0 -30 -7t-21 -18t-12 -24.5t-4 -27.5q0 -34 19.5 -53t43.5 -19q17 0 35.5 8t38.5 27zM439 353l46 -44q14 -14 28 -21t34 -7q31 0 48 21.5t17 49.5q0 37 -18.5 57.5t-43.5 20.5q-19 0 -36.5 -8t-37.5 -29zM323 231
q-25 -26 -55.5 -37.5t-63.5 -11.5q-42 0 -72 16t-49.5 41t-28.5 55t-9 59q0 28 9 59t28.5 57t49.5 42.5t72 16.5q29 0 60.5 -11t58.5 -39l56 -58l57 59q49 49 119 49q39 0 68.5 -14.5t49.5 -39t30.5 -56t10.5 -65.5q0 -27 -9 -57.5t-28.5 -55.5t-50 -41.5t-72.5 -16.5
q-31 0 -61.5 12t-56.5 38l-58 56z" />
    <glyph glyph-name="integral" unicode="&#x222b;" horiz-adv-x="541" 
d="M245 4q-11 -54 -28.5 -95.5t-45 -69.5t-66.5 -42.5t-92 -14.5q-21 0 -36 2t-26 4l26 117q15 -3 36 -3q16 0 30.5 3t26.5 13t22 28.5t17 49.5l116 577q17 84 68.5 134.5t150.5 50.5q26 0 45 -2.5t40 -5.5l-23 -113q-6 2 -18.5 4t-28.5 2q-25 0 -42 -5t-28.5 -16.5t-19 -31
t-13.5 -47.5z" />
    <glyph glyph-name="approxequal" unicode="&#x2248;" horiz-adv-x="580" 
d="M530 223q-10 -16 -22.5 -31.5t-28.5 -27.5t-35.5 -19.5t-42.5 -7.5t-49.5 7t-70.5 28q-29 14 -52 23.5t-49 9.5q-16 0 -29.5 -7.5t-25 -18t-19.5 -22.5t-14 -22l-42 92q8 16 20 32t28.5 28.5t37 20t44.5 7.5q26 0 55 -8.5t74 -29.5q32 -14 51 -22t38 -8q16 0 30.5 7.5
t26 18.5t20.5 23t14 20zM530 423q-10 -16 -22.5 -31.5t-28.5 -27.5t-35.5 -19.5t-42.5 -7.5t-49.5 7t-70.5 27q-29 14 -52 24t-49 10q-16 0 -29.5 -7.5t-25 -18t-19.5 -23t-14 -22.5l-42 93q8 16 20 32t28.5 28.5t37 20t44.5 7.5q26 0 55 -9t74 -29q32 -15 51 -22.5t38 -7.5
q16 0 30.5 7.5t26 18.5t20.5 22.5t14 20.5z" />
    <glyph glyph-name="notequal" unicode="&#x2260;" horiz-adv-x="589" 
d="M157 169h-107v112h172l52 91h-224v112h289l61 106h94l-62 -106h108v-112h-172l-53 -91h225v-112h-289l-62 -107h-93z" />
    <glyph glyph-name="lessequal" unicode="&#x2264;" horiz-adv-x="582" 
d="M532 190l-482 172v103l482 171v-114l-334 -107v-2l334 -109v-114zM532 48h-482v111h482v-111z" />
    <glyph glyph-name="greaterequal" unicode="&#x2265;" horiz-adv-x="582" 
d="M532 362l-482 -172v114l334 109v2l-334 107v114l482 -171v-103zM532 48h-482v111h482v-111z" />
    <glyph glyph-name="lozenge" unicode="&#x25ca;" horiz-adv-x="619" 
d="M310 173l133 177l-133 177l-133 -177zM310 -12l-271 362l271 362l270 -362z" />
    <glyph glyph-name="uniF400" unicode="&#xf400;" horiz-adv-x="0" 
d="M-247 593h-106l86 144h168z" />
    <glyph glyph-name="uniF401" unicode="&#xf401;" horiz-adv-x="0" 
d="M-319 770h-110l91 154h180z" />
    <glyph glyph-name="uniF406" unicode="&#xf406;" horiz-adv-x="765" 
d="M563 899q-9 -63 -57.5 -101t-122.5 -38q-73 0 -122 38t-59 101l89 21q3 -13 9 -25.5t16 -22t26.5 -15.5t40.5 -6t40.5 6t26.5 15.5t16 22t9 25.5z" />
    <glyph glyph-name="uniF407" unicode="&#xf407;" horiz-adv-x="601" 
d="M240 -176q29 -14 66 -14q24 0 42 10.5t18 33.5t-20 30.5t-42 7.5q-8 0 -18 -0.5t-18 -2.5l16 111h83l-11 -53q23 0 44.5 -5.5t38 -16.5t26.5 -29t10 -45q0 -24 -11 -44.5t-30.5 -35.5t-46 -23t-57.5 -8q-34 0 -57 4.5t-43 12.5z" />
    <glyph glyph-name="uniF408" unicode="&#xf408;" horiz-adv-x="765" 
d="M575 770h-118l-74 75l-74 -75h-118l116 144h151z" />
    <glyph glyph-name="uniF409" unicode="&#xf409;" horiz-adv-x="702" 
d="M287 -183q31 -2 54 5t26 30q-43 -5 -70.5 7t-27.5 41q0 24 23 39t62 15t64 -20t25 -61q0 -25 -10.5 -46t-30 -36t-49 -22.5t-66.5 -5.5v54z" />
    <glyph glyph-name="uniF40A" unicode="&#xf40a;" horiz-adv-x="261" 
d="M145 488h-103l48 212h145z" />
    <glyph glyph-name="uniF40B" unicode="&#xf40b;" horiz-adv-x="577" 
d="M376 849q0 -38 -22.5 -58.5t-65.5 -20.5q-42 0 -64 20.5t-22 58.5q0 36 22.5 56t63.5 20q88 0 88 -76z" />
    <glyph glyph-name="uniF40C" unicode="&#xf40c;" horiz-adv-x="765" 
d="M382 827q22 0 37 14.5t15 35.5q0 20 -15 35t-37 15q-20 0 -34 -15t-14 -35q0 -21 14 -35.5t34 -14.5zM382 755q-26 0 -47.5 9.5t-38 26t-25.5 38.5t-9 48q0 25 9 47t25.5 38.5t38 26t47.5 9.5t48 -9.5t38.5 -26t26 -38.5t9.5 -47q0 -26 -9.5 -48t-26 -38.5t-38.5 -26
t-48 -9.5z" />
    <glyph glyph-name="uniF40D" unicode="&#xf40d;" horiz-adv-x="765" 
d="M580 903q-5 -63 -35 -96.5t-73 -33.5q-23 0 -42.5 6t-48.5 20q-23 9 -36.5 16.5t-30.5 7.5q-14 0 -24.5 -12t-13.5 -38l-78 12q3 64 32.5 97t74.5 33q25 0 46.5 -7.5t44.5 -19.5q26 -11 40.5 -16.5t28.5 -5.5t24.5 12t13.5 37z" />
    <glyph glyph-name="uniF40E" unicode="&#xf40e;" horiz-adv-x="680" 
d="M484 -238q-17 -8 -41.5 -15t-56.5 -7q-37 0 -62 9.5t-40 24.5t-21.5 34t-6.5 39q0 26 11 50t29 44.5t41 37.5t47 31l64 -10q-41 -27 -63.5 -58.5t-22.5 -72.5q0 -26 17 -40t43 -14q17 0 32.5 5.5t29.5 13.5v-72z" />
    <glyph glyph-name="uniF49E" unicode="&#xf49e;" horiz-adv-x="664" 
d="M86 539h-86v82h86v79h150v-79h211v-82h-211v-95q27 8 62 15t80 7q66 0 111.5 -14.5t74 -42t41.5 -67t13 -89.5v-253h-150v209q0 68 -30.5 94t-95.5 26q-31 0 -58 -5t-48 -13v-311h-150v539z" />
    <glyph glyph-name="uniF49F" unicode="&#xf49f;" horiz-adv-x="608" 
d="M553 0h-136v260q0 40 -5 67t-16 43t-30 22.5t-46 6.5q-63 0 -90.5 -42.5t-27.5 -124.5v-232h-136v579h-86v82h86v89h136v-89h211v-82h-211v-144h2q28 42 71.5 61t94.5 19q91 0 137 -48.5t46 -155.5v-311z" />
    <glyph glyph-name="uniF4C6" unicode="&#xf4c6;" horiz-adv-x="646" 
d="M428 265q-27 -8 -62 -15t-80 -7q-66 0 -111.5 14.5t-74 42.5t-41.5 67.5t-13 89.5v243h150v-208q0 -34 7.5 -55.5t23.5 -34t39.5 -17t56.5 -4.5q63 0 105 18v301h150v-694q0 -110 -46.5 -165t-149.5 -55q-25 0 -45.5 2.5t-37.5 7.5v121q30 -8 56 -8q19 0 32.5 6t22.5 20
t13.5 38.5t4.5 61.5v230z" />
    <glyph glyph-name="uniF4C7" unicode="&#xf4c7;" horiz-adv-x="546" 
d="M351 181q-8 -2 -21.5 -5t-30 -5.5t-34.5 -4.5t-36 -2q-42 0 -77.5 7.5t-61 25.5t-39.5 47.5t-14 73.5v192h136v-145q0 -49 24 -67t72 -18q29 0 49 4t33 9v217h136v-512q0 -106 -43 -161t-146 -55q-23 0 -40 2t-29 4l2 117q11 -2 21 -4t22 -2q16 0 30 3t24.5 13.5
t16.5 29.5t6 51v185z" />
    <glyph glyph-name="uniF4CC" unicode="&#xf4cc;" horiz-adv-x="633" 
d="M177 100q27 17 48.5 36.5t34.5 42.5l3 7l-260 519h174l165 -372l134 372h155l-221 -545q-25 -61 -64.5 -106.5t-84.5 -69.5zM383 770h-110l91 154h180z" />
    <glyph glyph-name="uniF4CD" unicode="&#xf4cd;" horiz-adv-x="532" 
d="M129 -146q32 32 51 60.5t32 60.5l6 15l-212 520h150l129 -360l103 360h138l-174 -512q-15 -43 -29 -76t-29.5 -59t-34 -48t-40.5 -42zM328 593h-106l86 144h168z" />
    <glyph glyph-name="uniF4D6" unicode="&#xf4d6;" horiz-adv-x="644" 
d="M46 672q27 14 77 27t127 13q80 0 145 -23t110.5 -67.5t70 -110.5t24.5 -152q0 -90 -27 -159.5t-77 -116.5t-120 -71t-156 -24q-57 0 -102.5 10t-73.5 23l32 120q32 -11 68 -16t60 -5q46 0 86.5 10.5t71.5 32.5t51.5 56t27.5 81h-275v115h272q-18 84 -78.5 124.5
t-145.5 40.5q-31 0 -69 -6.5t-70 -20.5zM363 849q0 -38 -22.5 -58.5t-65.5 -20.5q-42 0 -64 20.5t-22 58.5q0 36 22.5 56t63.5 20q88 0 88 -76z" />
    <glyph glyph-name="uniF4D7" unicode="&#xf4d7;" horiz-adv-x="532" 
d="M45 490q21 8 64.5 19.5t107.5 11.5q144 0 211.5 -65.5t67.5 -193.5q0 -60 -16 -110t-50 -86t-87 -56.5t-126 -20.5q-60 0 -107 10t-74 26l23 100q24 -9 56 -16.5t80 -7.5q72 0 112.5 24.5t47.5 89.5h-219v93h217q-7 51 -44.5 76t-110.5 25q-52 0 -83.5 -7.5t-45.5 -12.5z
M316 673q0 -35 -21 -54.5t-62 -19.5q-39 0 -60.5 19.5t-21.5 54.5q0 33 21.5 52t60.5 19q41 0 62 -18.5t21 -52.5z" />
    <glyph glyph-name="uni0498.alt" unicode="&#xf50a;" horiz-adv-x="564" 
d="M528 201q0 -80 -46 -135.5t-153 -71.5v-150h-142v146q-40 3 -78 11.5t-70 23.5v137q45 -23 92 -32.5t88 -9.5q42 0 71 6t46 18t24.5 29t7.5 39q0 42 -30 64.5t-97 22.5h-98v115h80q64 0 97.5 19.5t33.5 65.5q0 44 -31 62.5t-90 18.5q-45 0 -90 -7.5t-93 -27.5v138
q51 15 100 22t112 7q69 0 116 -14t76 -38.5t41.5 -58.5t12.5 -74q0 -63 -35 -104.5t-95 -57.5v-4q75 -11 112.5 -54t37.5 -106z" />
    <glyph glyph-name="uni0499.alt" unicode="&#xf50b;" horiz-adv-x="497" 
d="M344 268q54 -8 87 -39t33 -81q0 -59 -43 -101.5t-132 -53.5v-128h-127v127q-35 5 -68 12t-62 21v115q37 -17 85 -27.5t92 -10.5q61 0 87 15t26 44q0 55 -99 55h-94v90h90q16 0 31.5 3t27.5 9t19.5 16t7.5 24q0 31 -26 41t-83 10q-33 0 -74 -6.5t-81 -23.5v111
q43 17 91 24t96 7q64 0 106 -10.5t67 -30t34.5 -46t9.5 -57.5q0 -41 -29.5 -69.5t-71.5 -37.5v-2z" />
    <glyph glyph-name="uni04AA.alt02" unicode="&#xf50c;" horiz-adv-x="618" 
d="M288 -176q28 -14 65 -14q23 0 42 10.5t19 33.5t-20 30.5t-43 7.5q-8 0 -18 -0.5t-18 -2.5l15 102q-144 17 -215 105.5t-71 244.5q0 181 89 276t276 95q57 0 98 -8.5t65 -16.5v-138q-33 12 -73 18.5t-69 6.5q-116 0 -171.5 -52t-55.5 -172q0 -115 56 -169t172 -54
q36 0 70 7t72 24v-141q-27 -12 -66.5 -20t-96.5 -9l-6 -41q22 0 43.5 -5.5t38 -16.5t26.5 -29t10 -45q0 -24 -11.5 -44.5t-31 -35.5t-46 -23t-56.5 -8q-34 0 -57.5 4.5t-43.5 12.5z" />
    <glyph glyph-name="uni04AB.alt02" unicode="&#xf50d;" horiz-adv-x="502" 
d="M217 -161q14 -6 27.5 -9t31.5 -3q20 0 36.5 10t16.5 31q0 11 -5.5 18t-13.5 10.5t-18 5t-20 1.5h-16t-16 -1l13 90q-57 7 -98.5 29t-67.5 56.5t-38.5 80.5t-12.5 101q0 60 17 108t50.5 82.5t84.5 53t119 18.5q31 0 55 -2.5t42.5 -6.5t32.5 -8.5t25 -8.5v-115
q-25 9 -55 17t-77 8q-72 0 -112 -33t-40 -108q0 -158 170 -158q38 0 70 8t52 19v-114q-20 -9 -54.5 -18.5t-89.5 -11.5l-7 -38q21 0 40 -5t33.5 -15.5t23.5 -27t9 -41.5q0 -43 -35 -71t-91 -28q-29 0 -52 4.5t-41 11.5z" />
    <glyph glyph-name="uniF516" unicode="&#xf516;" horiz-adv-x="579" 
d="M67 155q41 -19 85.5 -27t81.5 -8q78 0 113.5 24t35.5 68q0 42 -30 64.5t-97 22.5h-98v115h80q64 0 97.5 19.5t33.5 65.5q0 44 -31 62.5t-90 18.5q-45 0 -82.5 -6.5t-85.5 -26.5l-32 123q34 11 62 19t54.5 13t53.5 7.5t59 2.5q69 0 116 -14t76 -38.5t41.5 -58.5t12.5 -74
q0 -63 -35 -104.5t-95 -57.5v-4q75 -11 112.5 -54t37.5 -106q0 -48 -17 -87t-52.5 -67t-90 -43.5t-130.5 -15.5q-50 0 -106 9t-109 35zM348 770h-151l-116 144h118l74 -76l74 76h118z" />
    <glyph glyph-name="uniF517" unicode="&#xf517;" horiz-adv-x="507" 
d="M354 268q54 -8 87 -39t33 -81q0 -34 -14.5 -63t-43.5 -50.5t-74.5 -33.5t-106.5 -12q-26 0 -54 3t-55 8.5t-51 13.5t-43 19l23 100q37 -17 78.5 -24.5t85.5 -7.5q61 0 87 15.5t26 44.5q0 55 -99 55h-94v90h90q16 0 31.5 3t27.5 9t19.5 16t7.5 24q0 31 -26 41t-83 10
q-28 0 -66 -5.5t-76 -20.5l-23 103q43 17 96 26t101 9q64 0 106 -10.5t67 -30t34.5 -46t9.5 -57.5q0 -41 -29.5 -69.5t-71.5 -37.5v-2zM330 591h-137l-111 144h107l72 -78l73 78h107z" />
    <glyph glyph-name="uniF532" unicode="&#xf532;" horiz-adv-x="729" 
d="M566 904q-2 -40 -18 -68.5t-43 -47t-63 -27t-76 -8.5q-41 0 -77 8.5t-63 27t-44 47t-19 68.5l118 11q8 -36 29 -50t56 -14q32 0 53.5 14t29.5 50zM511 488l-282 -488h-161v700h150v-487l283 487h160v-694q0 -111 -46.5 -165.5t-149.5 -54.5q-25 0 -45.5 2.5t-37.5 7.5
v121q30 -8 56 -8q19 0 32.5 6t22.5 20t13.5 38.5t4.5 61.5v453z" />
    <glyph glyph-name="uniF533" unicode="&#xf533;" horiz-adv-x="605" 
d="M484 731q-2 -39 -17 -67t-39 -46t-56 -26.5t-66 -8.5q-36 0 -68 8.5t-56.5 26.5t-39.5 46t-16 67l101 12q5 -35 26 -51t53 -16q30 0 48.5 16t23.5 51zM60 0v510h136v-266l-3 -71h1l35 58l186 279h130v-512q0 -105 -43 -160.5t-145 -55.5q-24 0 -41 2t-28 4l2 117
q10 -2 20.5 -4t22.5 -2q16 0 29.5 3t24 13.5t16.5 29.5t6 51v275l4 66h-2l-34 -57l-187 -280h-130z" />
    <glyph glyph-name="uniF534" unicode="&#xf534;" horiz-adv-x="765" 
d="M389 120q38 0 70 14t55 42.5t35.5 71.5t12.5 102q0 119 -50 174.5t-132 55.5q-37 0 -69.5 -14t-56.5 -42.5t-37.5 -72t-13.5 -101.5q0 -59 14.5 -102t39.5 -71.5t59 -42.5t73 -14zM384 -12q-76 0 -138.5 23.5t-107.5 69.5t-69.5 113.5t-24.5 155.5t25.5 155.5t70.5 113.5
t106.5 69.5t133.5 23.5q81 0 144.5 -25t107 -71.5t66.5 -114t23 -151.5q0 -93 -25.5 -161.5t-71 -113t-107 -66t-133.5 -21.5zM473 849q0 -38 -22.5 -58.5t-65.5 -20.5q-42 0 -64 20.5t-22 58.5q0 36 22.5 56t63.5 20q88 0 88 -76z" />
    <glyph glyph-name="uniF535" unicode="&#xf535;" horiz-adv-x="605" 
d="M303 102q62 0 93 37t31 116q0 81 -30 117.5t-94 36.5q-60 0 -92.5 -37t-32.5 -117t34 -116.5t91 -36.5zM303 -11q-129 0 -198 65t-69 201q0 131 71 198.5t196 67.5q127 0 196.5 -66.5t69.5 -199.5q0 -129 -69 -197.5t-197 -68.5zM388 673q0 -35 -21 -54.5t-62 -19.5
q-39 0 -60.5 19.5t-21.5 54.5q0 33 21.5 52t60.5 19q41 0 62 -18.5t21 -52.5z" />
    <glyph glyph-name="uniF536" unicode="&#xf536;" horiz-adv-x="872" 
d="M218 132h56q79 0 113 29.5t34 78.5q0 53 -35.5 76t-111.5 23h-56v-207zM68 0v700h150v-229h77q134 0 207.5 -55t73.5 -175q0 -115 -76.5 -178t-215.5 -63h-216zM804 0h-150v700h150v-700zM624 904q-2 -40 -18.5 -68.5t-43.5 -47t-63 -27t-76 -8.5q-41 0 -77 8.5t-63 27
t-43.5 47t-18.5 68.5l117 11q8 -36 29.5 -50t55.5 -14q33 0 54.5 14t28.5 50z" />
    <glyph glyph-name="uniF537" unicode="&#xf537;" horiz-adv-x="738" 
d="M196 106h63q47 0 67.5 19t20.5 56q0 38 -23.5 53.5t-70.5 15.5h-57v-144zM60 0v510h136v-154h70q115 0 168 -45.5t53 -131.5q0 -39 -14 -72t-41 -56.5t-66 -37t-88 -13.5h-218zM679 0h-136v510h136v-510zM540 731q-2 -39 -17 -67t-39 -46t-56 -26.5t-66 -8.5
q-36 0 -68 8.5t-56.5 26.5t-39.5 46t-16 67l101 12q5 -35 26 -51t53 -16q30 0 48.5 16t23.5 51z" />
    <glyph glyph-name="uniF538" unicode="&#xf538;" horiz-adv-x="564" 
d="M526 26q-42 -20 -95 -29.5t-105 -9.5q-78 0 -133 15.5t-89 43.5t-49.5 67t-15.5 86q0 66 38.5 109t110.5 54v4q-62 17 -96 59t-34 105q0 39 13.5 72.5t42.5 58t76 38.5t115 14q64 0 113.5 -8t97.5 -23l-5 -133q-44 18 -88 26t-89 8q-60 0 -92 -18.5t-32 -62.5
q0 -30 13.5 -47.5t37.5 -26.5t56.5 -11.5t70.5 -2.5h38v-113h-52q-46 0 -79.5 -3.5t-55.5 -13.5t-32.5 -27.5t-10.5 -44.5q0 -45 34 -69.5t117 -24.5q42 0 88 9t85 30zM503 840q0 -33 -19.5 -52t-56.5 -19q-39 0 -59.5 19.5t-20.5 51.5q0 33 20.5 51.5t58.5 18.5t57.5 -18.5
t19.5 -51.5zM272 840q0 -33 -20 -52t-59 -19q-36 0 -56.5 19.5t-20.5 51.5q0 33 20.5 51.5t56.5 18.5q39 0 59 -18.5t20 -51.5z" />
    <glyph glyph-name="uniF539" unicode="&#xf539;" horiz-adv-x="497" 
d="M153 270q-42 9 -71.5 37.5t-29.5 69.5q0 31 9.5 57.5t34 46t66.5 30t106 10.5q49 0 96.5 -7t90.5 -24v-111q-40 17 -81 23.5t-73 6.5q-57 0 -83.5 -10t-26.5 -41q0 -14 7.5 -24t20 -16t28 -9t31.5 -3h90v-90h-94q-99 0 -99 -55q0 -29 26 -44t87 -15q44 0 92 10.5t85 27.5
v-115q-42 -19 -91.5 -27.5t-102.5 -8.5q-62 0 -106.5 12t-74 33.5t-43.5 50.5t-14 63q0 50 33 81t87 39v2zM462 668q0 -32 -18.5 -50.5t-56.5 -18.5q-36 0 -55.5 18.5t-19.5 50.5q0 31 19.5 49t55.5 18q38 0 56.5 -17.5t18.5 -49.5zM241 668q0 -32 -19 -50.5t-56 -18.5
t-56 18t-19 50t19.5 50t55.5 18q37 0 56 -17.5t19 -49.5z" />
    <glyph glyph-name="uni0492.alt" unicode="&#xf53c;" horiz-adv-x="525" 
d="M218 0h-150v700h427v-132h-277v-156h260v-130h-260v-282z" />
    <glyph glyph-name="uni0493.alt" unicode="&#xf53d;" horiz-adv-x="435" 
d="M347 172h-151v-172h-136v510h367v-120h-231v-108h151v-110z" />
    </font>
</defs>
</svg>
