<svg width="1920" height="483" viewBox="0 0 1920 483" fill="none" xmlns="http://www.w3.org/2000/svg">
<g clip-path="url(#clip0_606_135)">
<g opacity="0.2">
<path d="M2362.76 20.099C1875.73 -245.862 1916.8 -764.409 1916.8 -764.409C1553.8 -743.244 1443.11 -39.0088 758.854 109.115" stroke="white" stroke-width="1.14635" stroke-miterlimit="10" stroke-linecap="round"/>
<path d="M758.853 109.116C1425.14 -26.274 1540.63 -700.105 1908.87 -723.769C1908.87 -723.769 1881.6 -225.667 2362.76 20.1001" stroke="white" stroke-width="1.14635" stroke-miterlimit="10" stroke-linecap="round"/>
<path d="M758.853 109.116C1407.17 -13.5402 1527.45 -656.967 1900.95 -683.129C1900.95 -683.129 1887.47 -205.472 2362.76 20.1002" stroke="white" stroke-width="1.14635" stroke-miterlimit="10" stroke-linecap="round"/>
<path d="M758.853 109.116C1389.2 -0.806515 1514.27 -613.829 1893.03 -642.49C1893.03 -642.49 1893.34 -185.278 2362.76 20.1001" stroke="white" stroke-width="1.14635" stroke-miterlimit="10" stroke-linecap="round"/>
<path d="M758.853 109.116C1371.23 11.9276 1501.09 -570.691 1885.1 -601.851C1885.1 -601.851 1899.21 -165.083 2362.76 20.1002" stroke="white" stroke-width="1.14635" stroke-miterlimit="10" stroke-linecap="round"/>
<path d="M758.853 109.116C1353.26 24.6613 1487.91 -527.553 1877.18 -561.212C1877.18 -561.212 1905.07 -144.889 2362.76 20.1002" stroke="white" stroke-width="1.14635" stroke-miterlimit="10" stroke-linecap="round"/>
<path d="M758.853 109.116C1335.29 37.395 1474.73 -484.415 1869.26 -520.572C1869.26 -520.572 1910.94 -124.695 2362.76 20.1002" stroke="white" stroke-width="1.14635" stroke-miterlimit="10" stroke-linecap="round"/>
<path d="M758.853 109.116C1317.32 50.1291 1461.56 -441.277 1861.34 -479.934C1861.34 -479.934 1916.81 -104.5 2362.76 20.1002" stroke="white" stroke-width="1.14635" stroke-miterlimit="10" stroke-linecap="round"/>
<path d="M758.853 109.116C1299.36 62.8628 1448.38 -398.138 1853.41 -439.294C1853.41 -439.294 1922.68 -84.3057 2362.76 20.1002" stroke="white" stroke-width="1.14635" stroke-miterlimit="10" stroke-linecap="round"/>
<path d="M758.853 109.116C1281.39 75.5965 1435.2 -355 1845.49 -398.655C1845.49 -398.655 1928.55 -64.1112 2362.76 20.1002" stroke="white" stroke-width="1.14635" stroke-miterlimit="10" stroke-linecap="round"/>
<path d="M758.853 109.116C1079.02 95.9265 1259.89 -70.0284 1455.5 -201.358C1568.16 -276.996 1685.7 -341.149 1837.57 -358.016C1837.57 -358.016 1934.41 -43.917 2362.76 20.1002" stroke="white" stroke-width="1.14635" stroke-miterlimit="10" stroke-linecap="round"/>
<path d="M758.853 109.116C1245.45 101.064 1408.84 -268.724 1829.65 -317.377C1829.65 -317.377 1940.28 -23.7224 2362.76 20.1002" stroke="white" stroke-width="1.14635" stroke-miterlimit="10" stroke-linecap="round"/>
<path d="M758.853 109.116C1227.48 113.798 1395.66 -225.586 1821.72 -276.738C1821.72 -276.738 1946.15 -3.52784 2362.76 20.1002" stroke="white" stroke-width="1.14635" stroke-miterlimit="10" stroke-linecap="round"/>
<path d="M758.853 109.116C1209.51 126.532 1382.49 -182.448 1813.8 -236.099C1813.8 -236.099 1952.02 16.6664 2362.76 20.1002" stroke="white" stroke-width="1.14635" stroke-miterlimit="10" stroke-linecap="round"/>
<path d="M758.853 109.116C1191.54 139.266 1369.31 -139.31 1805.88 -195.46C1805.88 -195.46 1957.89 36.8613 2362.76 20.1002" stroke="white" stroke-width="1.14635" stroke-miterlimit="10" stroke-linecap="round"/>
<path d="M758.853 109.116C1173.58 152 1356.13 -96.1713 1797.96 -154.821C1797.96 -154.821 1963.75 57.0555 2362.76 20.1002" stroke="white" stroke-width="1.14635" stroke-miterlimit="10" stroke-linecap="round"/>
<path d="M758.853 109.116C1155.61 164.733 1342.95 -53.033 1790.03 -114.181C1790.03 -114.181 1969.62 77.2497 2362.76 20.1002" stroke="white" stroke-width="1.14635" stroke-miterlimit="10" stroke-linecap="round"/>
<path d="M758.853 109.116C1137.64 177.467 1329.77 -9.89508 1782.11 -73.5424C1782.11 -73.5424 1975.49 97.4442 2362.76 20.1002" stroke="white" stroke-width="1.14635" stroke-miterlimit="10" stroke-linecap="round"/>
<path d="M758.853 109.116C1119.67 190.201 1316.59 33.2428 1774.19 -32.9035C1774.19 -32.9035 1981.36 117.639 2362.76 20.1002" stroke="white" stroke-width="1.14635" stroke-miterlimit="10" stroke-linecap="round"/>
<path d="M758.853 109.116C1101.7 202.935 1303.41 76.3809 1766.27 7.73558C1766.27 7.73558 1987.23 137.833 2362.76 20.1002" stroke="white" stroke-width="1.14635" stroke-miterlimit="10" stroke-linecap="round"/>
<path d="M758.853 109.116C1083.73 215.669 1290.24 119.52 1758.34 48.3753C1758.34 48.3753 1993.09 158.028 2362.76 20.1002" stroke="white" stroke-width="1.14635" stroke-miterlimit="10" stroke-linecap="round"/>
<path d="M758.853 109.116C1065.76 228.403 1277.06 162.657 1750.42 89.0138C1750.42 89.0138 1998.96 178.222 2362.76 20.1002" stroke="white" stroke-width="1.14635" stroke-miterlimit="10" stroke-linecap="round"/>
<path d="M758.853 109.116C1047.8 241.137 1263.88 205.795 1742.5 129.653C1742.5 129.653 2004.83 198.417 2362.76 20.1002" stroke="white" stroke-width="1.14635" stroke-miterlimit="10" stroke-linecap="round"/>
<path d="M758.853 109.116C1029.83 253.87 1250.7 248.934 1734.58 170.292C1734.58 170.292 2010.7 218.611 2362.76 20.1002" stroke="white" stroke-width="1.14635" stroke-miterlimit="10" stroke-linecap="round"/>
<path d="M758.853 109.116C1011.86 266.604 1237.52 292.072 1726.65 210.931C1726.65 210.931 2016.57 238.805 2362.76 20.1002" stroke="white" stroke-width="1.14635" stroke-miterlimit="10" stroke-linecap="round"/>
<path d="M758.853 109.116C993.889 279.338 1224.34 335.21 1718.73 251.57C1718.73 251.57 2022.44 259 2362.76 20.1002" stroke="white" stroke-width="1.14635" stroke-miterlimit="10" stroke-linecap="round"/>
<path d="M758.853 109.116C975.92 292.072 1211.17 378.348 1710.81 292.21C1710.81 292.21 2028.3 279.195 2362.76 20.1002" stroke="white" stroke-width="1.14635" stroke-miterlimit="10" stroke-linecap="round"/>
<path d="M758.853 109.116C957.952 304.806 1197.99 421.486 1702.89 332.849C1702.89 332.849 2034.17 299.389 2362.76 20.1002" stroke="white" stroke-width="1.14635" stroke-miterlimit="10" stroke-linecap="round"/>
<path d="M759 108.864C940.13 317.288 1184.96 464.372 1695.11 373.236C1695.11 373.236 2040.19 319.331 2362.91 19.8483" stroke="white" stroke-width="1.14635" stroke-miterlimit="10" stroke-linecap="round"/>
<path d="M758.855 109.116C922.016 330.273 1171.63 507.762 1687.04 414.127C1687.04 414.127 2045.91 339.777 2362.77 20.1001" stroke="white" stroke-width="1.14635" stroke-miterlimit="10" stroke-linecap="round"/>
<path d="M758.853 109.115C904.046 343.007 1158.45 550.9 1679.12 454.766C1679.12 454.766 2051.78 359.972 2362.76 20.1" stroke="white" stroke-width="1.14635" stroke-miterlimit="10" stroke-linecap="round"/>
<path d="M758.856 109.115C886.08 355.74 1145.28 594.038 1671.2 495.404C1671.2 495.404 2057.65 380.166 2362.77 20.0995" stroke="white" stroke-width="1.14635" stroke-miterlimit="10" stroke-linecap="round"/>
<path d="M-244.676 -289.344C-228.477 -247.97 -211.221 -206.854 -191.049 -166.518C149.503 505.47 948.331 774.572 1671.2 495.405" stroke="white" stroke-width="1.14635" stroke-miterlimit="10" stroke-linecap="round"/>
<path d="M1671.19 495.405C1325.55 625.52 972.284 627.639 660.67 526.955C628.699 516.426 597.066 505.089 566.198 492.187C462.88 449.002 367.349 393.296 278.489 332.879C219.729 293.428 163.845 249.854 111.261 202.484C108.157 199.692 105.078 196.882 101.992 194.065C99.1777 191.495 96.3743 188.914 93.5816 186.323C-18.5878 82.1205 -113.745 -39.0076 -188.43 -172.658C-205.55 -203.541 -220.427 -235.082 -234.648 -266.625C-238.037 -274.193 -241.381 -281.766 -244.679 -289.344" stroke="white" stroke-width="1.14635" stroke-miterlimit="10" stroke-linecap="round"/>
<path d="M1671.2 495.405C1319.54 624.471 969.412 618.576 663.944 513.027C632.476 501.762 601.278 489.96 571.152 476.173C468.409 429.155 376.312 369.027 290.414 310.624C231.407 271.483 175.016 228.535 121.599 182.053C118.45 179.322 115.336 176.567 112.198 173.814C109.339 171.303 106.49 168.805 103.657 166.261C-8.99274 65.829 -106.494 -50.3978 -185.806 -178.796C-203.681 -208.062 -219.23 -238.019 -234.141 -267.865C-237.715 -275.018 -241.204 -282.177 -244.677 -289.343" stroke="white" stroke-width="1.14635" stroke-miterlimit="10" stroke-linecap="round"/>
<path d="M1671.2 495.405C1313.53 623.421 966.539 609.512 667.218 499.098C636.252 487.097 605.488 474.799 576.105 460.158C473.909 409.233 385.274 344.757 302.338 288.368C243.082 249.525 186.182 207.202 131.937 161.621C128.742 158.95 125.593 156.25 122.402 153.562C119.499 151.111 116.606 148.686 113.732 146.197C2.13617 49.5579 -100.546 -62.2681 -183.182 -184.936C-201.803 -212.577 -217.992 -240.973 -233.635 -269.107C-237.383 -275.848 -241.032 -282.593 -244.676 -289.344" stroke="white" stroke-width="1.14635" stroke-miterlimit="10" stroke-linecap="round"/>
<path d="M1671.2 495.405C1307.53 622.372 963.666 600.449 670.491 485.171C640.027 472.433 609.7 459.611 581.058 444.143C479.388 389.236 394.236 320.488 314.261 266.112C254.808 227.478 197.402 185.781 142.275 141.191C139.04 138.571 135.849 135.935 132.606 133.311C129.659 130.92 126.722 128.567 123.806 126.134C11.33 32.3025 -94.3223 -75.1827 -180.559 -191.075C-199.914 -217.085 -216.753 -243.923 -233.13 -270.348C-237.051 -276.676 -240.861 -283.009 -244.676 -289.344" stroke="white" stroke-width="1.14635" stroke-miterlimit="10" stroke-linecap="round"/>
<path d="M1671.2 495.404C1301.51 621.322 960.791 591.386 673.762 471.243C643.779 458.413 614.487 444.022 586.009 428.128C484.855 369.162 403.195 296.219 326.183 243.857C265.491 204.781 207.633 163.749 152.609 120.76C149.331 118.198 146.103 115.619 142.808 113.059C139.817 110.729 136.837 108.447 133.878 106.071C20.5396 15.0358 -88.042 -88.0661 -177.939 -197.215C-198.013 -221.588 -215.513 -246.871 -232.627 -271.59C-236.721 -277.504 -240.692 -283.425 -244.678 -289.344" stroke="white" stroke-width="1.14635" stroke-miterlimit="10" stroke-linecap="round"/>
<path d="M1671.2 495.404C1295.51 620.272 957.921 582.322 677.038 457.314C647.539 443.837 618.804 428.748 590.964 412.113C490.326 349.011 412.159 271.95 338.109 221.602C276.929 182.632 218.542 142.207 162.949 100.328C159.626 97.8246 156.363 95.3027 153.015 92.8071C149.979 90.5368 146.957 88.3276 143.955 86.0074C29.7718 -2.24265 -81.6899 -100.925 -175.313 -203.354C-196.093 -226.088 -214.264 -249.816 -232.119 -272.832C-236.385 -278.331 -240.518 -283.842 -244.675 -289.344" stroke="white" stroke-width="1.14635" stroke-miterlimit="10" stroke-linecap="round"/>
<path d="M1671.19 495.405C1289.49 619.224 955.042 573.26 680.305 443.388C651.293 429.252 623.115 413.463 595.911 396.099C495.796 328.784 421.115 247.681 350.027 199.348C288.359 160.483 229.444 120.667 173.281 79.8983C169.912 77.4533 166.614 74.9881 163.214 72.5565C160.133 70.3465 157.068 68.2088 154.023 65.9454C39.0126 -19.5319 -75.2716 -113.766 -172.696 -209.492C-194.163 -230.585 -213.019 -252.757 -231.619 -274.072C-236.056 -279.157 -240.352 -284.256 -244.68 -289.343" stroke="white" stroke-width="1.14635" stroke-miterlimit="10" stroke-linecap="round"/>
<path d="M1671.19 495.405C1283.48 618.175 952.168 564.197 683.578 429.459C655.125 413.777 626.596 398.589 600.863 380.085C501.287 308.479 430.076 223.412 361.95 177.092C299.794 138.334 240.35 99.126 183.618 59.4678C180.204 57.0807 176.87 54.6719 173.417 52.305C170.293 50.1552 167.186 48.0886 164.097 45.8825C48.2754 -36.8359 -68.7674 -126.605 -170.073 -215.631C-192.21 -235.084 -211.763 -255.697 -231.114 -275.314C-235.721 -279.983 -240.181 -284.672 -244.68 -289.343" stroke="white" stroke-width="1.14635" stroke-miterlimit="10" stroke-linecap="round"/>
<path d="M1671.19 495.405C1277.48 617.126 949.295 555.133 686.851 415.532C658.9 399.113 630.843 383.273 605.815 364.07C506.804 288.101 439.038 199.143 373.873 154.836C311.229 116.185 251.256 77.5853 193.955 39.0368C190.495 36.7082 187.126 34.3565 183.621 32.0531C180.452 29.9636 177.304 27.9683 174.171 25.8192C57.5543 -54.1536 -62.1782 -139.452 -167.451 -221.77C-190.237 -239.588 -210.501 -258.637 -230.609 -276.555C-235.384 -280.81 -240.01 -285.088 -244.68 -289.343" stroke="white" stroke-width="1.14635" stroke-miterlimit="10" stroke-linecap="round"/>
<path d="M1671.19 495.405C1271.47 616.076 946.42 546.07 690.123 401.604C662.675 384.449 635.1 367.935 610.768 348.055C512.353 267.65 447.999 174.873 385.796 132.581C322.664 94.0359 262.163 56.0441 204.292 18.6057C200.786 16.3362 197.382 14.0404 193.825 11.8017C190.612 9.77205 187.423 7.84729 184.244 5.75614C66.8486 -71.4868 -55.5022 -152.324 -164.829 -227.909C-188.245 -244.098 -209.232 -261.578 -230.105 -277.797C-235.045 -281.636 -239.839 -285.504 -244.68 -289.343" stroke="white" stroke-width="1.14635" stroke-miterlimit="10" stroke-linecap="round"/>
<path d="M1671.19 495.405C1265.46 615.026 943.547 537.007 693.396 387.675C666.451 369.784 639.37 352.579 615.72 332.041C517.941 247.129 456.96 150.604 397.72 110.326C334.1 71.8866 273.069 34.5027 214.629 -1.8253C211.078 -4.0357 207.638 -6.27496 204.029 -8.44973C200.771 -10.4191 197.542 -12.2738 194.318 -14.3071C76.1571 -88.835 -48.7402 -165.236 -162.206 -234.048C-186.234 -248.62 -207.956 -264.519 -229.6 -279.038C-234.705 -282.462 -239.668 -285.92 -244.68 -289.343" stroke="white" stroke-width="1.14635" stroke-miterlimit="10" stroke-linecap="round"/>
<path d="M1671.19 495.405C1259.45 613.978 940.674 527.944 696.669 373.748C670.226 355.12 643.652 337.204 620.672 316.026C523.575 226.542 465.921 126.335 409.643 88.0702C345.535 49.7374 283.976 12.9621 224.966 -22.2561C221.368 -24.4074 217.895 -26.5912 214.233 -28.701C210.931 -30.6109 207.661 -32.3956 204.392 -34.3697C85.48 -106.2 -41.898 -178.205 -159.584 -240.187C-184.204 -253.155 -206.673 -267.465 -229.095 -280.279C-234.363 -283.29 -239.497 -286.336 -244.68 -289.343" stroke="white" stroke-width="1.14635" stroke-miterlimit="10" stroke-linecap="round"/>
<path d="M1671.19 495.405C1253.44 612.928 937.8 518.88 699.942 359.82C674.001 340.456 647.947 321.814 625.625 300.011C529.26 205.892 474.882 102.066 421.566 65.8152C356.97 27.5882 294.883 -8.57937 235.303 -42.6873C231.659 -44.7792 228.151 -46.9065 224.436 -48.9527C221.09 -50.802 217.78 -52.5178 214.466 -54.4332C94.8159 -123.581 -34.9836 -191.244 -156.961 -246.327C-182.16 -257.706 -205.383 -270.415 -228.59 -281.52C-234.02 -284.119 -239.327 -286.751 -244.68 -289.343" stroke="white" stroke-width="1.14635" stroke-miterlimit="10" stroke-linecap="round"/>
<path d="M1671.19 495.405C1247.43 611.878 934.927 509.817 703.215 345.892C677.777 325.792 652.255 306.41 630.577 283.997C535.003 185.183 483.843 77.7963 433.489 43.5598C368.406 5.43916 305.79 -30.1202 245.64 -63.1182C241.95 -65.1507 238.407 -67.2226 234.64 -69.2045C231.249 -70.9933 227.9 -72.6401 224.54 -74.4961C104.164 -140.979 -28.0074 -204.367 -154.339 -252.466C-180.102 -262.274 -204.087 -273.372 -228.085 -282.762C-233.675 -284.949 -239.156 -287.167 -244.68 -289.343" stroke="white" stroke-width="1.14635" stroke-miterlimit="10" stroke-linecap="round"/>
<path d="M1671.19 495.405C1241.42 610.829 932.053 500.754 706.487 331.963C681.552 311.127 656.578 290.994 635.529 267.982C540.806 164.42 492.805 53.5271 445.412 21.3043C379.841 -16.7099 316.696 -51.6611 255.976 -83.549C252.24 -85.5222 248.663 -87.5382 244.844 -89.4562C241.409 -91.185 238.02 -92.7634 234.613 -94.5593C113.523 -158.395 -20.9853 -217.585 -151.716 -258.605C-178.035 -266.863 -202.787 -276.336 -227.58 -284.004C-233.329 -285.782 -238.985 -287.583 -244.68 -289.343" stroke="white" stroke-width="1.14635" stroke-miterlimit="10" stroke-linecap="round"/>
<path d="M1671.19 495.405C1235.41 609.78 929.179 491.69 709.76 318.036C685.327 296.463 660.912 275.567 640.481 251.967C546.674 143.606 501.765 29.258 457.335 -0.950651C391.276 -38.8592 327.546 -73.0118 266.314 -103.98C262.531 -105.893 258.919 -107.854 255.048 -109.708C251.568 -111.377 248.141 -112.887 244.687 -114.622C122.892 -175.829 -13.9324 -230.902 -149.094 -264.744C-175.962 -271.471 -201.484 -279.308 -227.075 -285.245C-232.983 -286.615 -238.814 -287.999 -244.68 -289.343" stroke="white" stroke-width="1.14635" stroke-miterlimit="10" stroke-linecap="round"/>
<path d="M1671.19 495.405C1229.4 608.73 926.306 482.627 713.033 304.107C689.103 281.799 665.261 260.133 645.434 235.952C552.608 122.746 510.727 4.98816 469.259 -23.2068C402.712 -61.0089 338.439 -94.512 276.651 -124.411C272.821 -126.264 269.175 -128.17 265.251 -129.959C261.728 -131.568 258.261 -133.011 254.761 -134.685C132.27 -193.282 -6.86533 -244.322 -146.471 -270.883C-173.886 -276.099 -200.179 -282.288 -226.57 -286.486C-232.635 -287.451 -238.643 -288.415 -244.68 -289.343" stroke="white" stroke-width="1.14635" stroke-miterlimit="10" stroke-linecap="round"/>
<path d="M1671.19 495.405C1223.39 607.681 923.432 473.564 716.305 290.18C692.878 267.135 669.623 244.691 650.386 219.937C558.612 101.846 519.688 -19.2809 481.182 -45.4617C414.147 -83.1578 349.33 -116.009 286.988 -144.842C283.111 -146.635 279.432 -148.486 275.456 -150.211C271.887 -151.759 268.382 -153.135 264.835 -154.748C141.656 -210.753 0.199705 -257.842 -143.849 -277.022C-171.811 -280.745 -198.875 -285.276 -226.065 -287.728C-232.288 -288.289 -238.472 -288.83 -244.68 -289.343" stroke="white" stroke-width="1.14635" stroke-miterlimit="10" stroke-linecap="round"/>
<path d="M1671.19 495.405C1217.38 606.632 920.559 464.501 719.578 276.252C696.653 252.471 673.997 229.243 655.338 203.923C564.687 80.908 528.649 -43.5503 493.105 -67.7174C425.582 -105.307 360.219 -137.503 297.324 -165.272C293.401 -167.005 289.687 -168.802 285.659 -170.462C282.046 -171.951 278.503 -173.261 274.909 -174.812C151.049 -228.243 7.24699 -271.459 -141.226 -283.161C-169.74 -285.409 -197.574 -288.272 -225.56 -288.969C-231.942 -289.128 -238.315 -289.253 -244.68 -289.343" stroke="white" stroke-width="1.14635" stroke-miterlimit="10" stroke-linecap="round"/>
<path d="M1671.19 495.405C1211.37 605.582 917.685 455.437 722.851 262.323C700.415 238.894 679.517 214.037 660.291 187.908C570.833 59.9388 537.61 -67.8194 505.028 -89.9723C440.967 -125.328 375.087 -157.283 307.661 -185.704C303.691 -187.375 299.944 -189.118 295.863 -190.714C292.206 -192.142 288.625 -193.386 284.982 -194.874C160.447 -245.751 14.2638 -285.162 -138.604 -289.301C-167.676 -290.088 -196.274 -291.274 -225.055 -290.211C-231.597 -289.969 -238.13 -289.662 -244.68 -289.343" stroke="white" stroke-width="1.14635" stroke-miterlimit="10" stroke-linecap="round"/>
<path d="M1671.19 495.405C1205.36 604.533 914.812 446.374 726.124 248.396C704.22 224.219 683.885 198.666 665.243 171.894C577.051 38.9419 546.572 -92.0887 516.951 -112.228C452.546 -147.431 386.112 -178.788 317.998 -206.135C313.981 -207.746 310.2 -209.433 306.067 -210.966C302.365 -212.333 298.746 -213.513 295.056 -214.938C169.851 -263.279 21.2407 -298.943 -135.981 -295.44C-165.62 -294.779 -194.98 -294.282 -224.551 -291.452C-231.252 -290.811 -237.959 -290.078 -244.68 -289.343" stroke="white" stroke-width="1.14635" stroke-miterlimit="10" stroke-linecap="round"/>
<path d="M1671.19 495.405C1199.35 603.483 911.938 437.311 729.396 234.468C708.03 209.542 688.257 183.294 670.195 155.878C583.34 17.9213 555.533 -116.358 528.875 -134.483C464.118 -169.538 397.127 -200.298 328.335 -226.566C324.271 -228.115 320.456 -229.749 316.271 -231.217C312.525 -232.525 308.868 -233.64 305.13 -235.001C179.257 -280.826 28.168 -312.79 -133.359 -301.579C-163.575 -299.482 -193.689 -297.293 -224.046 -292.693C-230.909 -291.654 -237.788 -290.494 -244.68 -289.343" stroke="white" stroke-width="1.14635" stroke-miterlimit="10" stroke-linecap="round"/>
<path d="M1671.19 495.405C1193.35 602.434 909.064 428.248 732.669 220.54C711.843 194.865 692.632 167.921 675.147 139.864C589.701 -3.11826 564.494 -140.627 540.798 -156.739C475.682 -191.649 408.132 -221.813 338.672 -246.996C334.561 -248.484 330.712 -250.065 326.474 -251.469C322.684 -252.716 318.99 -253.767 315.204 -255.064C188.665 -298.391 35.0419 -326.692 -130.736 -307.718C-161.54 -304.193 -192.404 -300.307 -223.54 -293.935C-230.566 -292.497 -237.617 -290.91 -244.68 -289.343" stroke="white" stroke-width="1.14635" stroke-miterlimit="10" stroke-linecap="round"/>
<path d="M1671.19 495.405C1187.34 601.385 906.19 419.184 735.942 206.612C715.66 180.187 697.011 152.548 680.099 123.849C596.13 -24.1729 573.455 -164.896 552.721 -178.994C487.239 -213.764 419.126 -243.333 349.009 -267.428C344.851 -268.853 340.969 -270.381 336.678 -271.72C332.844 -272.908 329.111 -273.896 325.278 -275.127C198.075 -315.974 41.8586 -340.636 -128.114 -313.857C-159.517 -308.91 -191.124 -303.324 -223.035 -295.176C-230.225 -293.341 -237.446 -291.326 -244.68 -289.343" stroke="white" stroke-width="1.14635" stroke-miterlimit="10" stroke-linecap="round"/>
<path d="M1671.19 495.405C1181.33 600.335 903.317 410.121 739.215 192.684C719.481 165.509 701.394 137.175 685.052 107.834C602.628 -45.2384 582.417 -189.166 564.644 -201.249C498.789 -235.883 430.109 -264.857 359.346 -287.858C355.14 -289.222 351.224 -290.696 346.882 -291.972C343.003 -293.099 339.233 -294.024 335.351 -295.19C207.484 -333.576 48.6185 -354.612 -125.491 -319.996C-157.504 -313.632 -189.848 -306.342 -222.53 -296.418C-229.884 -294.185 -237.276 -291.741 -244.68 -289.343" stroke="white" stroke-width="1.14635" stroke-miterlimit="10" stroke-linecap="round"/>
<path d="M1671.19 495.405C1175.32 599.286 900.443 401.058 742.487 178.756C723.304 150.831 705.78 121.802 690.004 91.8194C609.192 -66.3123 591.378 -213.435 576.568 -223.505C510.331 -258.006 441.082 -286.386 369.683 -308.29C365.43 -309.591 361.481 -311.012 357.086 -312.224C353.163 -313.291 349.355 -314.154 345.425 -315.253C192.818 -358.816 31.5965 -362.563 -122.869 -326.135C-156.388 -318.353 -189.485 -308.848 -222.026 -297.659C-229.545 -295.029 -237.105 -292.157 -244.68 -289.343" stroke="white" stroke-width="1.14635" stroke-miterlimit="10" stroke-linecap="round"/>
<path d="M1671.19 495.405C1169.31 598.237 897.57 391.994 745.76 164.828C727.132 136.153 710.169 106.429 694.957 75.8047C615.819 -87.3907 600.339 -237.704 588.491 -245.76C521.84 -280.075 452.024 -307.858 380.02 -328.72C375.717 -329.952 371.737 -331.328 367.289 -332.475C363.322 -333.482 359.476 -334.284 355.499 -335.316C199.436 -376.377 35.2779 -375.327 -120.247 -332.274C-154.572 -322.95 -188.377 -311.81 -221.521 -298.9C-229.207 -295.873 -236.934 -292.573 -244.68 -289.343" stroke="white" stroke-width="1.14635" stroke-miterlimit="10" stroke-linecap="round"/>
<path d="M1671.19 495.405C1163.3 597.187 894.697 382.931 749.033 150.9C730.962 121.475 714.562 91.0574 699.909 59.7901C622.508 -108.47 609.3 -261.974 600.414 -268.016C533.376 -302.224 462.984 -329.414 390.357 -349.151C386.008 -350.323 381.996 -351.653 377.493 -352.727C373.484 -353.682 369.599 -354.418 365.573 -355.38C205.971 -393.868 38.8849 -388.001 -117.624 -338.413C-152.756 -327.537 -187.27 -314.761 -221.016 -300.142C-228.869 -296.717 -236.763 -292.989 -244.68 -289.343" stroke="white" stroke-width="1.14635" stroke-miterlimit="10" stroke-linecap="round"/>
<path d="M1671.19 495.405C1157.29 596.138 891.823 373.868 752.305 136.972C734.795 106.799 718.957 75.6865 704.861 43.7753C629.256 -129.548 618.261 -286.243 612.337 -290.27C544.906 -324.377 473.932 -350.974 400.694 -369.582C396.299 -370.694 392.252 -371.97 387.697 -372.978C383.643 -373.874 379.719 -374.541 375.646 -375.442C245.05 -403.998 75.1189 -410.665 -115.002 -344.552C-150.939 -332.116 -186.163 -317.704 -220.511 -301.383C-228.532 -297.56 -236.592 -293.405 -244.68 -289.343" stroke="white" stroke-width="1.14635" stroke-miterlimit="10" stroke-linecap="round"/>
<path d="M1671.19 495.405C1151.28 595.089 888.949 364.805 755.579 123.044C738.632 92.1235 723.355 60.3167 709.813 27.7605C636.06 -150.623 627.222 -310.512 624.261 -312.526C556.429 -346.535 484.871 -372.538 411.031 -390.013C406.59 -391.065 402.509 -392.288 397.901 -393.23C393.803 -394.067 389.842 -394.678 385.72 -395.505C254.488 -421.846 81.6259 -424.682 -112.379 -350.692C-149.13 -336.706 -185.063 -320.658 -220.006 -302.625C-228.2 -298.412 -236.421 -293.821 -244.68 -289.343" stroke="white" stroke-width="1.14635" stroke-miterlimit="10" stroke-linecap="round"/>
<path d="M1671.19 495.405C1145.27 594.039 886.075 355.742 758.851 109.116C742.494 77.438 727.779 44.938 714.765 11.7458C643.19 -171.814 636.184 -334.781 636.184 -334.781C567.943 -368.695 495.799 -394.106 421.368 -410.444C416.88 -411.437 412.761 -412.591 408.105 -413.481C403.96 -414.248 399.958 -414.788 395.794 -415.569C239.734 -443.066 22.9502 -437.865 -219.501 -303.866C-227.861 -299.247 -236.25 -294.236 -244.68 -289.343" stroke="white" stroke-width="1.14635" stroke-miterlimit="10" stroke-linecap="round"/>
</g>
</g>
<defs>
<clipPath id="clip0_606_135">
<rect width="1920" height="483" fill="white"/>
</clipPath>
</defs>
</svg>
