<svg width="2792" height="2772" viewBox="0 0 2792 2772" fill="none" xmlns="http://www.w3.org/2000/svg">
<g opacity="0.2">
<path d="M2659.77 1555.1C2172.74 1289.14 2213.8 770.591 2213.8 770.591C1850.81 791.755 1740.11 1495.99 1055.86 1644.11" stroke="white" stroke-width="1.14635" stroke-miterlimit="10" stroke-linecap="round"/>
<path d="M1055.86 1644.11C1722.14 1508.73 1837.63 834.894 2205.88 811.231C2205.88 811.231 2178.6 1309.33 2659.77 1555.1" stroke="white" stroke-width="1.14635" stroke-miterlimit="10" stroke-linecap="round"/>
<path d="M1055.86 1644.11C1704.17 1521.46 1824.45 878.032 2197.95 851.87C2197.95 851.87 2184.47 1329.53 2659.77 1555.1" stroke="white" stroke-width="1.14635" stroke-miterlimit="10" stroke-linecap="round"/>
<path d="M1055.86 1644.11C1686.2 1534.19 1811.27 921.17 2190.03 892.509C2190.03 892.509 2190.34 1349.72 2659.77 1555.1" stroke="white" stroke-width="1.14635" stroke-miterlimit="10" stroke-linecap="round"/>
<path d="M1055.86 1644.11C1668.23 1546.93 1798.09 964.308 2182.11 933.148C2182.11 933.148 2196.21 1369.92 2659.77 1555.1" stroke="white" stroke-width="1.14635" stroke-miterlimit="10" stroke-linecap="round"/>
<path d="M1055.86 1644.11C1650.26 1559.66 1784.91 1007.45 2174.18 973.787C2174.18 973.787 2202.08 1390.11 2659.77 1555.1" stroke="white" stroke-width="1.14635" stroke-miterlimit="10" stroke-linecap="round"/>
<path d="M1055.86 1644.11C1632.3 1572.39 1771.74 1050.58 2166.26 1014.43C2166.26 1014.43 2207.94 1410.3 2659.77 1555.1" stroke="white" stroke-width="1.14635" stroke-miterlimit="10" stroke-linecap="round"/>
<path d="M1055.86 1644.11C1614.33 1585.13 1758.56 1093.72 2158.34 1055.07C2158.34 1055.07 2213.81 1430.5 2659.77 1555.1" stroke="white" stroke-width="1.14635" stroke-miterlimit="10" stroke-linecap="round"/>
<path d="M1055.86 1644.11C1596.36 1597.86 1745.38 1136.86 2150.42 1095.7C2150.42 1095.7 2219.68 1450.69 2659.77 1555.1" stroke="white" stroke-width="1.14635" stroke-miterlimit="10" stroke-linecap="round"/>
<path d="M1055.86 1644.11C1578.39 1610.6 1732.2 1180 2142.49 1136.34C2142.49 1136.34 2225.55 1470.89 2659.77 1555.1" stroke="white" stroke-width="1.14635" stroke-miterlimit="10" stroke-linecap="round"/>
<path d="M1055.86 1644.11C1376.02 1630.93 1556.89 1464.97 1752.5 1333.64C1865.16 1258 1982.71 1193.85 2134.57 1176.98C2134.57 1176.98 2231.42 1491.08 2659.77 1555.1" stroke="white" stroke-width="1.14635" stroke-miterlimit="10" stroke-linecap="round"/>
<path d="M1055.86 1644.11C1542.45 1636.06 1705.84 1266.28 2126.65 1217.62C2126.65 1217.62 2237.28 1511.28 2659.77 1555.1" stroke="white" stroke-width="1.14635" stroke-miterlimit="10" stroke-linecap="round"/>
<path d="M1055.86 1644.11C1524.48 1648.8 1692.67 1309.41 2118.73 1258.26C2118.73 1258.26 2243.15 1531.47 2659.77 1555.1" stroke="white" stroke-width="1.14635" stroke-miterlimit="10" stroke-linecap="round"/>
<path d="M1055.86 1644.11C1506.52 1661.53 1679.49 1352.55 2110.8 1298.9C2110.8 1298.9 2249.02 1551.67 2659.77 1555.1" stroke="white" stroke-width="1.14635" stroke-miterlimit="10" stroke-linecap="round"/>
<path d="M1055.86 1644.11C1488.55 1674.26 1666.31 1395.69 2102.88 1339.54C2102.88 1339.54 2254.89 1571.86 2659.77 1555.1" stroke="white" stroke-width="1.14635" stroke-miterlimit="10" stroke-linecap="round"/>
<path d="M1055.86 1644.11C1470.58 1687 1653.13 1438.83 2094.96 1380.18C2094.96 1380.18 2260.76 1592.05 2659.77 1555.1" stroke="white" stroke-width="1.14635" stroke-miterlimit="10" stroke-linecap="round"/>
<path d="M1055.86 1644.11C1452.61 1699.73 1639.95 1481.97 2087.04 1420.82C2087.04 1420.82 2266.62 1612.25 2659.77 1555.1" stroke="white" stroke-width="1.14635" stroke-miterlimit="10" stroke-linecap="round"/>
<path d="M1055.86 1644.11C1434.64 1712.47 1626.77 1525.1 2079.11 1461.46C2079.11 1461.46 2272.49 1632.44 2659.77 1555.1" stroke="white" stroke-width="1.14635" stroke-miterlimit="10" stroke-linecap="round"/>
<path d="M1055.86 1644.11C1416.67 1725.2 1613.6 1568.24 2071.19 1502.1C2071.19 1502.1 2278.36 1652.64 2659.77 1555.1" stroke="white" stroke-width="1.14635" stroke-miterlimit="10" stroke-linecap="round"/>
<path d="M1055.86 1644.11C1398.7 1737.93 1600.42 1611.38 2063.27 1542.73C2063.27 1542.73 2284.23 1672.83 2659.77 1555.1" stroke="white" stroke-width="1.14635" stroke-miterlimit="10" stroke-linecap="round"/>
<path d="M1055.86 1644.11C1380.73 1750.67 1587.24 1654.52 2055.35 1583.37C2055.35 1583.37 2290.1 1693.03 2659.77 1555.1" stroke="white" stroke-width="1.14635" stroke-miterlimit="10" stroke-linecap="round"/>
<path d="M1055.86 1644.11C1362.77 1763.4 1574.06 1697.66 2047.42 1624.01C2047.42 1624.01 2295.97 1713.22 2659.77 1555.1" stroke="white" stroke-width="1.14635" stroke-miterlimit="10" stroke-linecap="round"/>
<path d="M1055.86 1644.11C1344.8 1776.14 1560.88 1740.79 2039.5 1664.65C2039.5 1664.65 2301.83 1733.42 2659.77 1555.1" stroke="white" stroke-width="1.14635" stroke-miterlimit="10" stroke-linecap="round"/>
<path d="M1055.86 1644.11C1326.83 1788.87 1547.7 1783.93 2031.58 1705.29C2031.58 1705.29 2307.7 1753.61 2659.77 1555.1" stroke="white" stroke-width="1.14635" stroke-miterlimit="10" stroke-linecap="round"/>
<path d="M1055.86 1644.11C1308.86 1801.6 1534.52 1827.07 2023.66 1745.93C2023.66 1745.93 2313.57 1773.8 2659.77 1555.1" stroke="white" stroke-width="1.14635" stroke-miterlimit="10" stroke-linecap="round"/>
<path d="M1055.86 1644.11C1290.89 1814.34 1521.35 1870.21 2015.73 1786.57C2015.73 1786.57 2319.44 1794 2659.77 1555.1" stroke="white" stroke-width="1.14635" stroke-miterlimit="10" stroke-linecap="round"/>
<path d="M1055.86 1644.11C1272.92 1827.07 1508.17 1913.35 2007.81 1827.21C2007.81 1827.21 2325.31 1814.19 2659.77 1555.1" stroke="white" stroke-width="1.14635" stroke-miterlimit="10" stroke-linecap="round"/>
<path d="M1055.86 1644.11C1254.95 1839.8 1494.99 1956.49 1999.89 1867.85C1999.89 1867.85 2331.17 1834.39 2659.77 1555.1" stroke="white" stroke-width="1.14635" stroke-miterlimit="10" stroke-linecap="round"/>
<path d="M1056 1643.86C1237.13 1852.29 1481.96 1999.37 1992.11 1908.24C1992.11 1908.24 2337.19 1854.33 2659.91 1554.85" stroke="white" stroke-width="1.14635" stroke-miterlimit="10" stroke-linecap="round"/>
<path d="M1055.86 1644.11C1219.02 1865.27 1468.63 2042.76 1984.04 1949.13C1984.04 1949.13 2342.91 1874.78 2659.77 1555.1" stroke="white" stroke-width="1.14635" stroke-miterlimit="10" stroke-linecap="round"/>
<path d="M1055.85 1644.11C1201.05 1878.01 1455.45 2085.9 1976.12 1989.77C1976.12 1989.77 2348.78 1894.97 2659.77 1555.1" stroke="white" stroke-width="1.14635" stroke-miterlimit="10" stroke-linecap="round"/>
<path d="M1055.86 1644.11C1183.08 1890.74 1442.28 2129.04 1968.2 2030.4C1968.2 2030.4 2354.65 1915.17 2659.77 1555.1" stroke="white" stroke-width="1.14635" stroke-miterlimit="10" stroke-linecap="round"/>
<path d="M52.326 1245.66C68.5253 1287.03 85.7808 1328.14 105.953 1368.48C446.505 2040.47 1245.33 2309.57 1968.2 2030.4" stroke="white" stroke-width="1.14635" stroke-miterlimit="10" stroke-linecap="round"/>
<path d="M1968.2 2030.4C1622.55 2160.52 1269.29 2162.64 957.672 2061.95C925.701 2051.43 894.068 2040.09 863.2 2027.19C759.882 1984 664.351 1928.29 575.491 1867.88C516.731 1828.43 460.847 1784.85 408.263 1737.48C405.159 1734.69 402.08 1731.88 398.994 1729.06C396.18 1726.49 393.376 1723.91 390.584 1721.32C278.414 1617.12 183.257 1495.99 108.572 1362.34C91.4518 1331.46 76.5746 1299.92 62.3543 1268.37C58.9646 1260.81 55.6207 1253.23 52.3229 1245.66" stroke="white" stroke-width="1.14635" stroke-miterlimit="10" stroke-linecap="round"/>
<path d="M1968.2 2030.4C1616.55 2159.47 1266.41 2153.58 960.946 2048.03C929.478 2036.76 898.28 2024.96 868.154 2011.17C765.411 1964.15 673.314 1904.03 587.416 1845.62C528.409 1806.48 472.018 1763.53 418.601 1717.05C415.452 1714.32 412.338 1711.57 409.2 1708.81C406.341 1706.3 403.492 1703.8 400.659 1701.26C288.009 1600.83 190.508 1484.6 111.196 1356.2C93.3211 1326.94 77.7721 1296.98 62.8609 1267.13C59.2874 1259.98 55.7983 1252.82 52.3247 1245.66" stroke="white" stroke-width="1.14635" stroke-miterlimit="10" stroke-linecap="round"/>
<path d="M1968.2 2030.4C1610.54 2158.42 1263.54 2144.51 964.22 2034.1C933.254 2022.1 902.49 2009.8 873.107 1995.16C770.911 1944.23 682.276 1879.76 599.34 1823.37C540.084 1784.52 483.184 1742.2 428.939 1696.62C425.744 1693.95 422.594 1691.25 419.404 1688.56C416.501 1686.11 413.608 1683.68 410.734 1681.2C299.138 1584.56 196.456 1472.73 113.82 1350.06C95.1991 1322.42 79.0095 1294.03 63.3665 1265.89C59.6188 1259.15 55.9699 1252.41 52.3256 1245.66" stroke="white" stroke-width="1.14635" stroke-miterlimit="10" stroke-linecap="round"/>
<path d="M1968.2 2030.4C1604.53 2157.37 1260.67 2135.45 967.493 2020.17C937.029 2007.43 906.702 1994.61 878.06 1979.14C776.39 1924.24 691.238 1855.49 611.263 1801.11C551.81 1762.48 494.404 1720.78 439.277 1676.19C436.042 1673.57 432.851 1670.93 429.608 1668.31C426.661 1665.92 423.724 1663.57 420.808 1661.13C308.332 1567.3 202.68 1459.82 116.443 1343.92C97.0882 1317.91 80.2485 1291.08 63.8717 1264.65C59.9507 1258.32 56.1413 1251.99 52.326 1245.66" stroke="white" stroke-width="1.14635" stroke-miterlimit="10" stroke-linecap="round"/>
<path d="M1968.2 2030.4C1598.52 2156.32 1257.79 2126.39 970.764 2006.24C940.781 1993.41 911.489 1979.02 883.011 1963.13C781.857 1904.16 700.197 1831.22 623.185 1778.86C562.493 1739.78 504.635 1698.75 449.611 1655.76C446.332 1653.2 443.105 1650.62 439.81 1648.06C436.818 1645.73 433.839 1643.45 430.88 1641.07C317.542 1550.04 208.96 1446.93 119.063 1337.78C98.9886 1313.41 81.4888 1288.13 64.375 1263.41C60.281 1257.5 56.3102 1251.57 52.3243 1245.66" stroke="white" stroke-width="1.14635" stroke-miterlimit="10" stroke-linecap="round"/>
<path d="M1968.2 2030.4C1592.51 2155.27 1254.92 2117.32 974.04 1992.31C944.541 1978.84 915.806 1963.75 887.966 1947.11C787.328 1884.01 709.161 1806.95 635.111 1756.6C573.931 1717.63 515.544 1677.21 459.951 1635.33C456.628 1632.82 453.365 1630.3 450.017 1627.81C446.981 1625.54 443.959 1623.33 440.957 1621.01C326.774 1532.76 215.312 1434.07 121.689 1331.65C100.909 1308.91 82.7376 1285.18 64.8832 1262.17C60.617 1256.67 56.4842 1251.16 52.3272 1245.65" stroke="white" stroke-width="1.14635" stroke-miterlimit="10" stroke-linecap="round"/>
<path d="M1968.2 2030.4C1586.5 2154.22 1252.04 2108.26 977.308 1978.39C948.295 1964.25 920.117 1948.46 892.913 1931.1C792.798 1863.78 718.117 1782.68 647.029 1734.35C585.361 1695.48 526.446 1655.67 470.284 1614.9C466.914 1612.45 463.616 1609.99 460.216 1607.56C457.135 1605.35 454.071 1603.21 451.026 1600.94C336.015 1515.47 221.731 1421.23 124.306 1325.51C102.839 1304.41 83.983 1282.24 65.383 1260.93C60.9459 1255.84 56.6503 1250.74 52.3223 1245.66" stroke="white" stroke-width="1.14635" stroke-miterlimit="10" stroke-linecap="round"/>
<path d="M1968.2 2030.4C1580.49 2153.17 1249.17 2099.2 980.58 1964.46C952.127 1948.78 923.598 1933.59 897.866 1915.08C798.29 1843.48 727.079 1758.41 658.952 1712.09C596.796 1673.33 537.352 1634.13 480.62 1594.47C477.206 1592.08 473.872 1589.67 470.42 1587.3C467.295 1585.15 464.189 1583.09 461.099 1580.88C345.278 1498.16 228.235 1408.39 126.929 1319.37C104.792 1299.92 85.2391 1279.3 65.8878 1259.69C61.2814 1255.02 56.8212 1250.33 52.3223 1245.66" stroke="white" stroke-width="1.14635" stroke-miterlimit="10" stroke-linecap="round"/>
<path d="M1968.2 2030.4C1574.48 2152.12 1246.3 2090.13 983.853 1950.53C955.902 1934.11 927.845 1918.27 902.817 1899.07C803.806 1823.1 736.04 1734.14 670.876 1689.84C608.231 1651.18 548.259 1612.58 490.957 1574.04C487.497 1571.71 484.128 1569.36 480.623 1567.05C477.454 1564.96 474.307 1562.97 471.173 1560.82C354.556 1480.85 234.824 1395.55 129.551 1313.23C106.765 1295.41 86.5013 1276.36 66.3929 1258.44C61.6185 1254.19 56.9922 1249.91 52.3223 1245.66" stroke="white" stroke-width="1.14635" stroke-miterlimit="10" stroke-linecap="round"/>
<path d="M1968.2 2030.4C1568.47 2151.08 1243.42 2081.07 987.126 1936.6C959.678 1919.45 932.103 1902.93 907.77 1883.05C809.355 1802.65 745.001 1709.87 682.799 1667.58C619.667 1629.04 559.165 1591.04 501.294 1553.6C497.789 1551.34 494.384 1549.04 490.828 1546.8C487.614 1544.77 484.425 1542.85 481.247 1540.76C363.851 1463.51 241.5 1382.68 132.174 1307.09C108.757 1290.9 87.7703 1273.42 66.8976 1257.2C61.9568 1253.36 57.1629 1249.5 52.3223 1245.66" stroke="white" stroke-width="1.14635" stroke-miterlimit="10" stroke-linecap="round"/>
<path d="M1968.2 2030.4C1562.46 2150.03 1240.55 2072.01 990.398 1922.67C963.453 1904.78 936.372 1887.58 912.722 1867.04C814.943 1782.13 753.962 1685.6 694.722 1645.33C631.102 1606.89 570.072 1569.5 511.631 1533.17C508.08 1530.96 504.64 1528.72 501.031 1526.55C497.773 1524.58 494.544 1522.73 491.321 1520.69C373.159 1446.16 248.262 1369.76 134.796 1300.95C110.769 1286.38 89.0464 1270.48 67.4026 1255.96C62.2973 1252.54 57.3339 1249.08 52.3223 1245.66" stroke="white" stroke-width="1.14635" stroke-miterlimit="10" stroke-linecap="round"/>
<path d="M1968.2 2030.4C1556.45 2148.98 1237.68 2062.94 993.671 1908.75C967.228 1890.12 940.654 1872.2 917.675 1851.02C820.577 1761.54 762.923 1661.33 706.645 1623.07C642.538 1584.74 580.978 1547.96 521.968 1512.74C518.371 1510.59 514.897 1508.41 511.235 1506.3C507.933 1504.39 504.663 1502.6 501.394 1500.63C382.482 1428.8 255.104 1356.79 137.419 1294.81C112.798 1281.84 90.3295 1267.53 67.9075 1254.72C62.6391 1251.71 57.505 1248.66 52.3223 1245.66" stroke="white" stroke-width="1.14635" stroke-miterlimit="10" stroke-linecap="round"/>
<path d="M1968.2 2030.4C1550.44 2147.93 1234.8 2053.88 996.944 1894.82C971.004 1875.46 944.949 1856.81 922.627 1835.01C826.263 1740.89 771.884 1637.07 718.568 1600.81C653.973 1562.59 591.885 1526.42 532.305 1492.31C528.661 1490.22 525.153 1488.09 521.439 1486.05C518.092 1484.2 514.783 1482.48 511.468 1480.57C391.818 1411.42 262.019 1343.76 140.041 1288.67C114.842 1277.29 91.6194 1264.58 68.4125 1253.48C62.9826 1250.88 57.6756 1248.25 52.3223 1245.66" stroke="white" stroke-width="1.14635" stroke-miterlimit="10" stroke-linecap="round"/>
<path d="M1968.2 2030.4C1544.43 2146.88 1231.93 2044.82 1000.22 1880.89C974.779 1860.79 949.258 1841.41 927.579 1819C832.005 1720.18 780.846 1612.8 730.491 1578.56C665.408 1540.44 602.792 1504.88 542.642 1471.88C538.952 1469.85 535.409 1467.78 531.642 1465.79C528.251 1464.01 524.902 1462.36 521.542 1460.5C401.166 1394.02 268.995 1330.63 142.664 1282.53C116.9 1272.72 92.915 1261.63 68.9173 1252.24C63.3274 1250.05 57.8466 1247.83 52.3223 1245.66" stroke="white" stroke-width="1.14635" stroke-miterlimit="10" stroke-linecap="round"/>
<path d="M1968.2 2030.4C1538.42 2145.83 1229.06 2035.75 1003.49 1866.96C978.554 1846.13 953.58 1825.99 932.531 1802.98C837.808 1699.42 789.807 1588.53 742.414 1556.3C676.843 1518.29 613.698 1483.34 552.978 1451.45C549.243 1449.48 545.665 1447.46 541.846 1445.54C538.411 1443.81 535.023 1442.24 531.616 1440.44C410.525 1376.6 276.017 1317.41 145.286 1276.39C118.967 1268.14 94.2153 1258.66 69.4225 1251C63.6733 1249.22 58.0175 1247.42 52.3223 1245.66" stroke="white" stroke-width="1.14635" stroke-miterlimit="10" stroke-linecap="round"/>
<path d="M1968.2 2030.4C1532.41 2144.78 1226.18 2026.69 1006.76 1853.04C982.329 1831.46 957.914 1810.57 937.483 1786.97C843.676 1678.6 798.768 1564.26 754.338 1534.05C688.278 1496.14 624.548 1461.99 563.316 1431.02C559.533 1429.11 555.922 1427.14 552.05 1425.29C548.57 1423.62 545.143 1422.11 541.689 1420.38C419.894 1359.17 283.07 1304.1 147.909 1270.26C121.04 1263.53 95.5184 1255.69 69.9273 1249.75C64.0197 1248.38 58.1886 1247 52.3223 1245.66" stroke="white" stroke-width="1.14635" stroke-miterlimit="10" stroke-linecap="round"/>
<path d="M1968.2 2030.4C1526.4 2143.73 1223.31 2017.63 1010.04 1839.11C986.105 1816.8 962.263 1795.13 942.436 1770.95C849.611 1657.75 807.729 1539.99 766.261 1511.79C699.714 1473.99 635.441 1440.49 573.653 1410.59C569.823 1408.74 566.178 1406.83 562.254 1405.04C558.73 1403.43 555.264 1401.99 551.763 1400.31C429.272 1341.72 290.137 1290.68 150.531 1264.12C123.116 1258.9 96.8229 1252.71 70.4323 1248.51C64.3672 1247.55 58.3596 1246.58 52.3223 1245.66" stroke="white" stroke-width="1.14635" stroke-miterlimit="10" stroke-linecap="round"/>
<path d="M1968.2 2030.4C1520.39 2142.68 1220.43 2008.56 1013.31 1825.18C989.88 1802.13 966.625 1779.69 947.388 1754.94C855.615 1636.84 816.69 1515.72 778.184 1489.54C711.149 1451.84 646.332 1418.99 583.99 1390.16C580.113 1388.36 576.434 1386.51 572.458 1384.79C568.889 1383.24 565.385 1381.86 561.837 1380.25C438.658 1324.25 297.202 1277.16 153.153 1257.98C125.191 1254.25 98.1269 1249.72 70.937 1247.27C64.7139 1246.71 58.5302 1246.17 52.3223 1245.66" stroke="white" stroke-width="1.14635" stroke-miterlimit="10" stroke-linecap="round"/>
<path d="M1968.2 2030.4C1514.39 2141.63 1217.56 1999.5 1016.58 1811.25C993.655 1787.47 970.999 1764.24 952.34 1738.92C861.689 1615.91 825.652 1491.45 790.108 1467.28C722.584 1429.69 657.221 1397.5 594.327 1369.73C590.403 1367.99 586.69 1366.2 582.662 1364.54C579.048 1363.05 575.506 1361.74 571.911 1360.19C448.051 1306.76 304.249 1263.54 155.776 1251.84C127.262 1249.59 99.4286 1246.73 71.4418 1246.03C65.0598 1245.87 58.6867 1245.75 52.3223 1245.66" stroke="white" stroke-width="1.14635" stroke-miterlimit="10" stroke-linecap="round"/>
<path d="M1968.2 2030.4C1508.38 2140.58 1214.69 1990.44 1019.85 1797.32C997.417 1773.89 976.519 1749.04 957.293 1722.91C867.835 1594.94 834.612 1467.18 802.031 1445.03C737.969 1409.67 672.089 1377.72 604.664 1349.3C600.694 1347.62 596.946 1345.88 592.865 1344.29C589.208 1342.86 585.627 1341.61 581.984 1340.12C457.45 1289.25 311.266 1249.84 158.399 1245.7C129.326 1244.91 100.728 1243.73 71.9469 1244.79C65.4057 1245.03 58.8719 1245.34 52.3223 1245.66" stroke="white" stroke-width="1.14635" stroke-miterlimit="10" stroke-linecap="round"/>
<path d="M1968.2 2030.4C1502.37 2139.53 1211.81 1981.37 1023.13 1783.4C1001.22 1759.22 980.887 1733.67 962.245 1706.89C874.054 1573.94 843.574 1442.91 813.953 1422.77C749.548 1387.57 683.114 1356.21 615.001 1328.86C610.984 1327.25 607.202 1325.57 603.069 1324.03C599.367 1322.67 595.749 1321.49 592.059 1320.06C466.853 1271.72 318.243 1236.06 161.021 1239.56C131.382 1240.22 102.023 1240.72 72.4517 1243.55C65.7503 1244.19 59.0429 1244.92 52.3223 1245.66" stroke="white" stroke-width="1.14635" stroke-miterlimit="10" stroke-linecap="round"/>
<path d="M1968.2 2030.4C1496.36 2138.48 1208.94 1972.31 1026.4 1769.47C1005.03 1744.54 985.259 1718.29 967.197 1690.88C880.343 1552.92 852.535 1418.64 825.877 1400.52C761.12 1365.46 694.129 1334.7 625.338 1308.43C621.273 1306.88 617.459 1305.25 613.273 1303.78C609.527 1302.47 605.87 1301.36 602.132 1300C476.259 1254.17 325.17 1222.21 163.643 1233.42C133.427 1235.52 103.313 1237.71 72.9564 1242.31C66.0937 1243.35 59.2139 1244.51 52.3223 1245.66" stroke="white" stroke-width="1.14635" stroke-miterlimit="10" stroke-linecap="round"/>
<path d="M1968.2 2030.4C1490.35 2137.43 1206.07 1963.25 1029.67 1755.54C1008.84 1729.86 989.634 1702.92 972.149 1674.86C886.703 1531.88 861.496 1394.37 837.8 1378.26C772.685 1343.35 705.134 1313.19 635.674 1288C631.563 1286.51 627.714 1284.93 623.476 1283.53C619.686 1282.28 615.992 1281.23 612.206 1279.94C485.667 1236.61 332.044 1208.31 166.266 1227.28C135.463 1230.81 104.598 1234.69 73.4619 1241.06C66.4359 1242.5 59.3849 1244.09 52.3223 1245.66" stroke="white" stroke-width="1.14635" stroke-miterlimit="10" stroke-linecap="round"/>
<path d="M1968.2 2030.4C1484.34 2136.38 1203.19 1954.18 1032.94 1741.61C1012.66 1715.19 994.013 1687.55 977.102 1658.85C893.132 1510.83 870.457 1370.1 849.723 1356.01C784.241 1321.24 716.128 1291.67 646.011 1267.57C641.853 1266.15 637.971 1264.62 633.68 1263.28C629.846 1262.09 626.114 1261.1 622.28 1259.87C495.077 1219.03 338.861 1194.36 168.888 1221.14C137.486 1226.09 105.878 1231.68 73.9669 1239.82C66.7776 1241.66 59.5559 1243.67 52.3223 1245.66" stroke="white" stroke-width="1.14635" stroke-miterlimit="10" stroke-linecap="round"/>
<path d="M1968.2 2030.4C1478.33 2135.33 1200.32 1945.12 1036.22 1727.68C1016.48 1700.51 998.396 1672.17 982.054 1642.83C899.63 1489.76 879.419 1345.83 861.646 1333.75C795.791 1299.12 727.111 1270.14 656.348 1247.14C652.143 1245.78 648.227 1244.3 643.884 1243.03C640.005 1241.9 636.235 1240.97 632.353 1239.81C504.486 1201.42 345.621 1180.39 171.511 1215C139.498 1221.37 107.154 1228.66 74.4717 1238.58C67.118 1240.81 59.7266 1243.26 52.3223 1245.66" stroke="white" stroke-width="1.14635" stroke-miterlimit="10" stroke-linecap="round"/>
<path d="M1968.2 2030.4C1472.32 2134.29 1197.45 1936.06 1039.49 1713.76C1020.31 1685.83 1002.78 1656.8 987.006 1626.82C906.194 1468.69 888.38 1321.56 873.57 1311.49C807.333 1276.99 738.084 1248.61 666.685 1226.71C662.433 1225.41 658.483 1223.99 654.088 1222.78C650.165 1221.71 646.357 1220.85 642.427 1219.75C489.82 1176.18 328.599 1172.44 174.133 1208.86C140.614 1216.65 107.518 1226.15 74.9765 1237.34C67.4572 1239.97 59.8976 1242.84 52.3223 1245.66" stroke="white" stroke-width="1.14635" stroke-miterlimit="10" stroke-linecap="round"/>
<path d="M1968.2 2030.4C1466.31 2133.24 1194.57 1926.99 1042.76 1699.83C1024.13 1671.15 1007.17 1641.43 991.959 1610.8C912.822 1447.61 897.341 1297.29 885.493 1289.24C818.842 1254.92 749.026 1227.14 677.022 1206.28C672.719 1205.05 668.739 1203.67 664.292 1202.52C660.324 1201.52 656.479 1200.72 652.501 1199.68C496.439 1158.62 332.28 1159.67 176.756 1202.72C142.431 1212.05 108.625 1223.19 75.4813 1236.1C67.7953 1239.13 60.0686 1242.43 52.3223 1245.66" stroke="white" stroke-width="1.14635" stroke-miterlimit="10" stroke-linecap="round"/>
<path d="M1968.2 2030.4C1460.3 2132.19 1191.7 1917.93 1046.04 1685.9C1027.96 1656.47 1011.56 1626.06 996.911 1594.79C919.51 1426.53 906.302 1273.03 897.416 1266.98C830.379 1232.78 759.986 1205.59 687.359 1185.85C683.01 1184.68 678.998 1183.35 674.496 1182.27C670.486 1181.32 666.602 1180.58 662.575 1179.62C502.973 1141.13 335.887 1147 179.378 1196.59C144.247 1207.46 109.732 1220.24 75.9863 1234.86C68.1332 1238.28 60.2392 1242.01 52.3223 1245.66" stroke="white" stroke-width="1.14635" stroke-miterlimit="10" stroke-linecap="round"/>
<path d="M1968.2 2030.4C1454.29 2131.14 1188.83 1908.87 1049.31 1671.97C1031.8 1641.8 1015.96 1610.69 1001.86 1578.77C926.258 1405.45 915.263 1248.76 909.339 1244.73C841.908 1210.62 770.935 1184.03 697.696 1165.42C693.301 1164.3 689.255 1163.03 684.699 1162.02C680.646 1161.12 676.721 1160.46 672.649 1159.56C542.052 1131 372.121 1124.33 182 1190.45C146.063 1202.88 110.839 1217.3 76.4911 1233.62C68.4699 1237.44 60.4106 1241.59 52.3223 1245.66" stroke="white" stroke-width="1.14635" stroke-miterlimit="10" stroke-linecap="round"/>
<path d="M1968.2 2030.4C1448.28 2130.09 1185.95 1899.8 1052.58 1658.04C1035.63 1627.12 1020.36 1595.32 1006.82 1562.76C933.062 1384.38 924.225 1224.49 921.263 1222.47C853.431 1188.46 781.873 1162.46 708.033 1144.99C703.592 1143.93 699.511 1142.71 694.903 1141.77C690.806 1140.93 686.844 1140.32 682.722 1139.49C551.49 1113.15 378.628 1110.32 184.623 1184.31C147.872 1198.29 111.939 1214.34 76.9958 1232.37C68.8018 1236.59 60.581 1241.18 52.3223 1245.66" stroke="white" stroke-width="1.14635" stroke-miterlimit="10" stroke-linecap="round"/>
<path d="M1968.2 2030.4C1442.27 2129.04 1183.08 1890.74 1055.85 1644.12C1039.5 1612.44 1024.78 1579.94 1011.77 1546.75C940.193 1363.19 933.186 1200.22 933.186 1200.22C864.946 1166.3 792.801 1140.89 718.37 1124.56C713.883 1123.56 709.764 1122.41 705.107 1121.52C700.962 1120.75 696.96 1120.21 692.796 1119.43C536.736 1091.93 319.952 1097.13 77.5008 1231.13C69.1414 1235.75 60.7522 1240.76 52.3223 1245.66" stroke="white" stroke-width="1.14635" stroke-miterlimit="10" stroke-linecap="round"/>
</g>
</svg>
