<svg width="258" height="88" viewBox="0 0 258 88" fill="none" xmlns="http://www.w3.org/2000/svg">
<g clip-path="url(#clip0_175_764)">
<path d="M101.628 9.23267H100.754V78.285H101.628V9.23267Z" fill="white"/>
<path d="M123.649 24.7004H117.986L116.698 28.2419H114.975L120.031 14.9851H121.736L126.698 28.2419H124.917L123.649 24.7004ZM118.535 23.1475H123.1L120.884 16.9169H120.808L118.535 23.1475Z" fill="white"/>
<path d="M133.836 28.2419H132.132V16.576H128.211V14.9851H137.756V16.576H133.836V28.2419Z" fill="white"/>
<path d="M140.785 21.6133C140.785 17.3711 143.228 14.7954 146.732 14.7954C150.671 14.7954 152.792 17.5983 152.792 21.6133C152.792 26.1206 150.254 28.431 146.789 28.431C143.115 28.431 140.785 25.8175 140.785 21.6133ZM150.974 21.6133C150.974 17.9771 149.345 16.3863 146.732 16.3863C144.403 16.3863 142.603 18.0717 142.603 21.6133C142.603 25.0978 144.346 26.8401 146.959 26.8401C149.44 26.8401 150.974 25.041 150.974 21.6133Z" fill="white"/>
<path d="M170.478 28.2419H168.774L167.96 17.8827L164.608 28.2419H162.828L159.494 17.9205L158.661 28.2419H156.957L158.093 14.9851H160.176L163.755 26.3859L167.259 14.9851H169.342L170.478 28.2419Z" fill="white"/>
<path d="M179.51 28.2419H177.806V16.576H173.886V14.9851H183.431V16.576H179.51V28.2419Z" fill="white"/>
<path d="M194.811 28.2419H187.406V14.9851H194.811V16.576H189.111V20.5908H194.319V22.1437H189.111V26.651H194.811V28.2419Z" fill="white"/>
<path d="M209.317 28.2419H207.612V16.576H201.344V28.2419H199.639V14.9851H209.317V28.2419Z" fill="white"/>
<path d="M224.314 28.2419H222.609V16.576H218.064C218.008 24.1702 217.685 28.3934 214.428 28.3934C214.171 28.4017 213.914 28.3632 213.671 28.2798V26.6322C213.85 26.6791 214.035 26.6982 214.22 26.689C215.602 26.689 216.246 24.9277 216.341 16.5191L216.36 14.9851H224.314V28.2419Z" fill="white"/>
<path d="M229.046 21.6133C229.046 17.3711 231.489 14.7954 234.993 14.7954C238.932 14.7954 241.053 17.5983 241.053 21.6133C241.053 26.1206 238.516 28.431 235.05 28.431C231.376 28.431 229.046 25.8175 229.046 21.6133ZM239.235 21.6133C239.235 17.9771 237.607 16.3863 234.993 16.3863C232.664 16.3863 230.865 18.0717 230.865 21.6133C230.865 25.0978 232.607 26.8401 235.22 26.8401C237.701 26.8401 239.235 25.041 239.235 21.6133Z" fill="white"/>
<path d="M251.657 22.4844H245.786V20.9692H251.657V22.4844Z" fill="white"/>
<path d="M117.172 43.6928H122.721C122.588 40.8332 120.732 39.4884 118.119 39.4884C117.157 39.4741 116.201 39.6346 115.297 39.9621L114.975 38.5796C116.045 38.1191 117.2 37.8869 118.365 37.8978C122.172 37.8978 124.577 39.9431 124.577 44.545C124.577 48.8818 122.342 51.5333 117.892 51.5333C116.913 51.5484 115.939 51.3946 115.013 51.0789L115.335 49.5826C116.165 49.8256 117.026 49.9468 117.892 49.9424C120.789 49.9424 122.664 48.4274 122.74 45.2457H117.172V43.6928Z" fill="white"/>
<path d="M138.817 51.3435H137.112V39.6775H132.567C132.51 47.272 132.188 51.495 128.931 51.495C128.674 51.5032 128.417 51.4647 128.173 51.3815V49.7337C128.352 49.7807 128.538 49.7999 128.723 49.7906C130.105 49.7906 130.749 48.0293 130.844 39.6209L130.863 38.0869H138.817V51.3435Z" fill="white"/>
<path d="M151.522 51.344H144.118V38.0874H151.522V39.678H145.822V43.6929H151.03V45.2459H145.822V49.7531H151.522V51.344Z" fill="white"/>
<path d="M159.305 45.3597H158.055V51.344H156.351V38.0874H158.055V44.1097H159.172L163.85 38.0874H166.028L160.934 44.1853C162.392 44.4316 162.809 46.4769 166.236 51.344H164.078C160.612 46.2875 160.915 45.3597 159.305 45.3597Z" fill="white"/>
<path d="M174.397 51.344H172.693V39.678H168.772V38.0874H178.317V39.678H174.397V51.344Z" fill="white"/>
<path d="M183.997 51.344H182.293V38.0874H186.194C189.205 38.0874 191.099 39.3371 191.099 42.2159C191.099 44.9619 189.205 46.4579 186.043 46.4579H183.997V51.344ZM183.997 44.867H186.043C188.145 44.867 189.281 44.0148 189.281 42.2535C189.281 40.4356 188.145 39.678 186.043 39.678H183.997V44.867Z" fill="white"/>
<path d="M194.885 44.7153C194.885 40.4733 197.328 37.8977 200.832 37.8977C204.771 37.8977 206.892 40.7003 206.892 44.7153C206.892 49.2226 204.354 51.5331 200.889 51.5331C197.215 51.5331 194.885 48.9196 194.885 44.7153ZM205.074 44.7153C205.074 41.0791 203.445 39.4883 200.832 39.4883C198.502 39.4883 196.703 41.174 196.703 44.7153C196.703 48.1999 198.446 49.9423 201.059 49.9423C203.54 49.9423 205.074 48.143 205.074 44.7153Z" fill="white"/>
<path d="M220.564 50.9843C219.648 51.3714 218.66 51.5587 217.666 51.5335C213.538 51.5335 211.057 48.958 211.057 44.8861C211.057 40.3788 213.595 37.8981 217.553 37.8981C218.587 37.8658 219.617 38.0396 220.583 38.4094L220.261 39.9054C219.445 39.62 218.587 39.479 217.723 39.4887C214.579 39.4887 212.875 41.3069 212.875 44.7157C212.875 48.0109 214.788 49.9427 217.893 49.9427C218.714 49.958 219.527 49.7966 220.28 49.4693L220.564 50.9843Z" fill="white"/>
<path d="M232.72 51.344H225.315V38.0874H232.72V39.678H227.02V43.6929H232.228V45.2459H227.02V49.7531H232.72V51.344Z" fill="white"/>
<path d="M241.847 51.344H240.143V39.678H236.223V38.0874H245.768V39.678H241.847V51.344Z" fill="white"/>
<path d="M249.743 51.344V38.0874H251.447V43.0871H252.849C256.163 43.0871 258 44.1853 258 47.1017C258 50.0751 255.898 51.344 252.773 51.344L249.743 51.344ZM251.447 49.7531H252.754C255.33 49.7531 256.182 48.6926 256.182 47.1017C256.182 45.3783 255.235 44.6776 252.792 44.6776H251.447V49.7531Z" fill="white"/>
<path d="M116.34 71.7176H114.975V61.1023H118.099C120.51 61.1023 122.026 62.1031 122.026 64.4082C122.026 66.6071 120.51 67.8051 117.977 67.8051H116.34L116.34 71.7176ZM116.34 66.5312H117.977C119.661 66.5312 120.571 65.8489 120.571 64.4385C120.571 62.9827 119.661 62.3761 117.977 62.3761H116.34V66.5312Z" fill="white"/>
<path d="M124.906 66.4096C124.906 63.0127 126.863 60.9504 129.668 60.9504C132.822 60.9504 134.521 63.1948 134.521 66.4096C134.521 70.0189 132.489 71.8689 129.714 71.8689C126.772 71.8689 124.906 69.7762 124.906 66.4096ZM133.065 66.4096C133.065 63.498 131.761 62.2242 129.668 62.2242C127.803 62.2242 126.362 63.5739 126.362 66.4096C126.362 69.2 127.757 70.5952 129.85 70.5952C131.837 70.5952 133.065 69.1546 133.065 66.4096Z" fill="white"/>
<path d="M145.317 71.4293C144.584 71.7392 143.793 71.8892 142.997 71.8691C139.691 71.8691 137.705 69.8066 137.705 66.5463C137.705 62.9371 139.737 60.9505 142.906 60.9505C143.734 60.9247 144.559 61.0639 145.333 61.3599L145.075 62.558C144.422 62.3294 143.734 62.2165 143.043 62.2243C140.525 62.2243 139.161 63.6801 139.161 66.4097C139.161 69.0485 140.692 70.5953 143.179 70.5953C143.836 70.6075 144.488 70.4782 145.09 70.2162L145.317 71.4293Z" fill="white"/>
<path d="M154.855 68.8818H150.32L149.289 71.7176H147.909L151.958 61.1023H153.323L157.296 71.7176H155.871L154.855 68.8818ZM150.76 67.6383H154.415L152.641 62.649H152.58L150.76 67.6383Z" fill="white"/>
<path d="M162.861 71.7176H161.496V62.3761H158.357V61.1023H166V62.3761H162.861V71.7176Z" fill="white"/>
<path d="M168.274 66.4096C168.274 63.0127 170.23 60.9504 173.036 60.9504C176.19 60.9504 177.888 63.1948 177.888 66.4096C177.888 70.0189 175.856 71.8689 173.081 71.8689C170.139 71.8689 168.274 69.7762 168.274 66.4096ZM176.432 66.4096C176.432 63.498 175.128 62.2242 173.036 62.2242C171.17 62.2242 169.73 63.5739 169.73 66.4096C169.73 69.2 171.125 70.5952 173.218 70.5952C175.204 70.5952 176.432 69.1546 176.432 66.4096Z" fill="white"/>
<path d="M191.899 71.7175H190.535L189.883 63.4225L187.199 71.7175H185.773L183.104 63.4528L182.437 71.7175H181.072L181.982 61.1023H183.65L186.516 70.2315L189.322 61.1023H190.99L191.899 71.7175Z" fill="white"/>
<path d="M52.8847 43.7664C52.8832 45.5823 52.3432 47.3569 51.333 48.8658C50.3229 50.3748 48.888 51.5503 47.2097 52.2437C45.5315 52.9371 43.6853 53.1172 41.9047 52.7613C40.1241 52.4054 38.489 51.5295 37.2062 50.2443C35.9235 48.959 35.0506 47.3223 34.6981 45.541C34.3456 43.7597 34.5292 41.9139 35.2258 40.237C35.9224 38.56 37.1006 37.1273 38.6115 36.1201C40.1223 35.1128 41.8979 34.5762 43.7138 34.5781C46.1482 34.5809 48.4819 35.5504 50.2017 37.2734C51.9215 38.9965 52.8866 41.332 52.8847 43.7664Z" fill="white"/>
<path d="M43.7898 0.0547319C37.3862 0.045602 31.059 1.44513 25.2566 4.15412C32.7434 3.38194 40.5189 6.60658 46.2608 12.4019L46.2664 12.3994C49.1372 15.2346 51.6542 18.911 53.7925 23.3356C65.9718 25.5161 74.2433 19.4667 77.5029 15.8868L77.5049 15.8843C73.398 10.9254 68.2462 6.93497 62.4179 4.1985C56.5896 1.46202 50.2286 0.0470437 43.7898 0.0547319Z" fill="white"/>
<path d="M17.4275 8.8672C11.3828 13.4236 6.62033 19.4668 3.60327 26.4091C7.24088 27.3041 18.1321 30.8423 23.1288 44.3095C24.6318 43.8206 27.8715 41.9358 30.1193 34.659C32.8773 25.7447 37.899 17.1419 44.4133 13.3334C37.2333 6.37545 26.3331 3.33208 17.4275 8.8672Z" fill="white"/>
<path d="M81.6978 65.615C84.9073 60.0841 86.8571 53.9132 87.4083 47.5422C84.3347 54.4011 77.6496 59.5112 69.7513 61.5778L69.7506 61.5839C65.8558 62.6482 61.408 62.9861 56.5005 62.6225C48.5193 72.062 49.6314 82.2379 51.1071 86.8459L51.1082 86.8489C57.4567 85.7824 63.4909 83.3259 68.7791 79.655C74.0674 75.9842 78.4788 71.1898 81.6978 65.615Z" fill="white"/>
<path d="M87.2346 38.4166C86.3023 30.9077 83.441 23.7682 78.9292 17.6938C76.3339 20.3913 67.819 28.0382 53.6379 25.6247C53.3105 27.1685 53.3257 30.9119 58.5144 36.4936C64.8685 43.3352 69.8206 51.9782 69.8672 59.5145C79.4932 56.7859 87.5834 48.8837 87.2346 38.4166Z" fill="white"/>
<path d="M5.87121 65.6082C9.0672 71.1513 13.4452 75.9222 18.694 79.5816C14.2808 73.4949 13.1904 65.1602 15.3468 57.2983L15.3418 57.2947C16.3659 53.3951 18.2967 49.3808 21.0659 45.3198C16.8678 33.6998 7.48422 29.5733 2.74894 28.5452L2.74578 28.5447C0.497116 34.5699 -0.388853 41.0185 0.151549 47.427C0.69195 53.8354 2.6453 60.0446 5.87121 65.6082Z" fill="white"/>
<path d="M26.6969 83.9944C33.6763 86.9429 41.2991 88.0386 48.8264 87.1753C47.7841 83.5829 45.4078 72.3977 54.5921 61.3441C53.4166 60.2892 50.1616 58.4306 42.7252 60.1256C33.6131 62.1984 23.6393 62.1582 17.0783 58.4304C14.6324 68.117 17.4423 79.0625 26.6969 83.9944Z" fill="white"/>
</g>
<defs>
<clipPath id="clip0_175_764">
<rect width="258" height="87.4081" fill="white" transform="translate(0 0.0546875)"/>
</clipPath>
</defs>
</svg>
