<svg width="217" height="74" viewBox="0 0 217 74" fill="none" xmlns="http://www.w3.org/2000/svg">
<path d="M85.4774 7.71948H84.7422V65.7984H85.4774V7.71948Z" fill="#333333"/>
<path d="M85.4774 7.71948H84.7422V65.7984H85.4774V7.71948Z" fill="black" fill-opacity="0.2"/>
<path d="M85.4774 7.71948H84.7422V65.7984H85.4774V7.71948Z" fill="black" fill-opacity="0.2"/>
<path d="M85.4774 7.71948H84.7422V65.7984H85.4774V7.71948Z" fill="black" fill-opacity="0.2"/>
<path d="M85.4774 7.71948H84.7422V65.7984H85.4774V7.71948Z" fill="black" fill-opacity="0.2"/>
<path d="M85.4774 7.71948H84.7422V65.7984H85.4774V7.71948Z" fill="black" fill-opacity="0.2"/>
<path d="M85.4774 7.71948H84.7422V65.7984H85.4774V7.71948Z" fill="black" fill-opacity="0.2"/>
<path d="M85.4774 7.71948H84.7422V65.7984H85.4774V7.71948Z" fill="black" fill-opacity="0.2"/>
<path d="M85.4774 7.71948H84.7422V65.7984H85.4774V7.71948Z" fill="black" fill-opacity="0.2"/>
<path d="M103.998 20.729H99.2356L98.1526 23.7077H96.7031L100.956 12.5576H102.39L106.563 23.7077H105.066L103.998 20.729ZM99.6976 19.4229H103.536L101.673 14.1824H101.609L99.6976 19.4229Z" fill="#333333"/>
<path d="M103.998 20.729H99.2356L98.1526 23.7077H96.7031L100.956 12.5576H102.39L106.563 23.7077H105.066L103.998 20.729ZM99.6976 19.4229H103.536L101.673 14.1824H101.609L99.6976 19.4229Z" fill="black" fill-opacity="0.2"/>
<path d="M103.998 20.729H99.2356L98.1526 23.7077H96.7031L100.956 12.5576H102.39L106.563 23.7077H105.066L103.998 20.729ZM99.6976 19.4229H103.536L101.673 14.1824H101.609L99.6976 19.4229Z" fill="black" fill-opacity="0.2"/>
<path d="M103.998 20.729H99.2356L98.1526 23.7077H96.7031L100.956 12.5576H102.39L106.563 23.7077H105.066L103.998 20.729ZM99.6976 19.4229H103.536L101.673 14.1824H101.609L99.6976 19.4229Z" fill="black" fill-opacity="0.2"/>
<path d="M103.998 20.729H99.2356L98.1526 23.7077H96.7031L100.956 12.5576H102.39L106.563 23.7077H105.066L103.998 20.729ZM99.6976 19.4229H103.536L101.673 14.1824H101.609L99.6976 19.4229Z" fill="black" fill-opacity="0.2"/>
<path d="M103.998 20.729H99.2356L98.1526 23.7077H96.7031L100.956 12.5576H102.39L106.563 23.7077H105.066L103.998 20.729ZM99.6976 19.4229H103.536L101.673 14.1824H101.609L99.6976 19.4229Z" fill="black" fill-opacity="0.2"/>
<path d="M103.998 20.729H99.2356L98.1526 23.7077H96.7031L100.956 12.5576H102.39L106.563 23.7077H105.066L103.998 20.729ZM99.6976 19.4229H103.536L101.673 14.1824H101.609L99.6976 19.4229Z" fill="black" fill-opacity="0.2"/>
<path d="M103.998 20.729H99.2356L98.1526 23.7077H96.7031L100.956 12.5576H102.39L106.563 23.7077H105.066L103.998 20.729ZM99.6976 19.4229H103.536L101.673 14.1824H101.609L99.6976 19.4229Z" fill="black" fill-opacity="0.2"/>
<path d="M103.998 20.729H99.2356L98.1526 23.7077H96.7031L100.956 12.5576H102.39L106.563 23.7077H105.066L103.998 20.729ZM99.6976 19.4229H103.536L101.673 14.1824H101.609L99.6976 19.4229Z" fill="black" fill-opacity="0.2"/>
<path d="M112.567 23.7077H111.133V13.8957H107.836V12.5576H115.864V13.8957H112.567V23.7077Z" fill="#333333"/>
<path d="M112.567 23.7077H111.133V13.8957H107.836V12.5576H115.864V13.8957H112.567V23.7077Z" fill="black" fill-opacity="0.2"/>
<path d="M112.567 23.7077H111.133V13.8957H107.836V12.5576H115.864V13.8957H112.567V23.7077Z" fill="black" fill-opacity="0.2"/>
<path d="M112.567 23.7077H111.133V13.8957H107.836V12.5576H115.864V13.8957H112.567V23.7077Z" fill="black" fill-opacity="0.2"/>
<path d="M112.567 23.7077H111.133V13.8957H107.836V12.5576H115.864V13.8957H112.567V23.7077Z" fill="black" fill-opacity="0.2"/>
<path d="M112.567 23.7077H111.133V13.8957H107.836V12.5576H115.864V13.8957H112.567V23.7077Z" fill="black" fill-opacity="0.2"/>
<path d="M112.567 23.7077H111.133V13.8957H107.836V12.5576H115.864V13.8957H112.567V23.7077Z" fill="black" fill-opacity="0.2"/>
<path d="M112.567 23.7077H111.133V13.8957H107.836V12.5576H115.864V13.8957H112.567V23.7077Z" fill="black" fill-opacity="0.2"/>
<path d="M112.567 23.7077H111.133V13.8957H107.836V12.5576H115.864V13.8957H112.567V23.7077Z" fill="black" fill-opacity="0.2"/>
<path d="M118.412 18.1326C118.412 14.5646 120.467 12.3982 123.414 12.3982C126.727 12.3982 128.511 14.7557 128.511 18.1326C128.511 21.9236 126.377 23.8669 123.462 23.8669C120.371 23.8669 118.412 21.6687 118.412 18.1326ZM126.982 18.1326C126.982 15.0743 125.612 13.7362 123.414 13.7362C121.455 13.7362 119.941 15.1538 119.941 18.1326C119.941 21.0634 121.407 22.5288 123.605 22.5288C125.691 22.5288 126.982 21.0156 126.982 18.1326Z" fill="#333333"/>
<path d="M118.412 18.1326C118.412 14.5646 120.467 12.3982 123.414 12.3982C126.727 12.3982 128.511 14.7557 128.511 18.1326C128.511 21.9236 126.377 23.8669 123.462 23.8669C120.371 23.8669 118.412 21.6687 118.412 18.1326ZM126.982 18.1326C126.982 15.0743 125.612 13.7362 123.414 13.7362C121.455 13.7362 119.941 15.1538 119.941 18.1326C119.941 21.0634 121.407 22.5288 123.605 22.5288C125.691 22.5288 126.982 21.0156 126.982 18.1326Z" fill="black" fill-opacity="0.2"/>
<path d="M118.412 18.1326C118.412 14.5646 120.467 12.3982 123.414 12.3982C126.727 12.3982 128.511 14.7557 128.511 18.1326C128.511 21.9236 126.377 23.8669 123.462 23.8669C120.371 23.8669 118.412 21.6687 118.412 18.1326ZM126.982 18.1326C126.982 15.0743 125.612 13.7362 123.414 13.7362C121.455 13.7362 119.941 15.1538 119.941 18.1326C119.941 21.0634 121.407 22.5288 123.605 22.5288C125.691 22.5288 126.982 21.0156 126.982 18.1326Z" fill="black" fill-opacity="0.2"/>
<path d="M118.412 18.1326C118.412 14.5646 120.467 12.3982 123.414 12.3982C126.727 12.3982 128.511 14.7557 128.511 18.1326C128.511 21.9236 126.377 23.8669 123.462 23.8669C120.371 23.8669 118.412 21.6687 118.412 18.1326ZM126.982 18.1326C126.982 15.0743 125.612 13.7362 123.414 13.7362C121.455 13.7362 119.941 15.1538 119.941 18.1326C119.941 21.0634 121.407 22.5288 123.605 22.5288C125.691 22.5288 126.982 21.0156 126.982 18.1326Z" fill="black" fill-opacity="0.2"/>
<path d="M118.412 18.1326C118.412 14.5646 120.467 12.3982 123.414 12.3982C126.727 12.3982 128.511 14.7557 128.511 18.1326C128.511 21.9236 126.377 23.8669 123.462 23.8669C120.371 23.8669 118.412 21.6687 118.412 18.1326ZM126.982 18.1326C126.982 15.0743 125.612 13.7362 123.414 13.7362C121.455 13.7362 119.941 15.1538 119.941 18.1326C119.941 21.0634 121.407 22.5288 123.605 22.5288C125.691 22.5288 126.982 21.0156 126.982 18.1326Z" fill="black" fill-opacity="0.2"/>
<path d="M118.412 18.1326C118.412 14.5646 120.467 12.3982 123.414 12.3982C126.727 12.3982 128.511 14.7557 128.511 18.1326C128.511 21.9236 126.377 23.8669 123.462 23.8669C120.371 23.8669 118.412 21.6687 118.412 18.1326ZM126.982 18.1326C126.982 15.0743 125.612 13.7362 123.414 13.7362C121.455 13.7362 119.941 15.1538 119.941 18.1326C119.941 21.0634 121.407 22.5288 123.605 22.5288C125.691 22.5288 126.982 21.0156 126.982 18.1326Z" fill="black" fill-opacity="0.2"/>
<path d="M118.412 18.1326C118.412 14.5646 120.467 12.3982 123.414 12.3982C126.727 12.3982 128.511 14.7557 128.511 18.1326C128.511 21.9236 126.377 23.8669 123.462 23.8669C120.371 23.8669 118.412 21.6687 118.412 18.1326ZM126.982 18.1326C126.982 15.0743 125.612 13.7362 123.414 13.7362C121.455 13.7362 119.941 15.1538 119.941 18.1326C119.941 21.0634 121.407 22.5288 123.605 22.5288C125.691 22.5288 126.982 21.0156 126.982 18.1326Z" fill="black" fill-opacity="0.2"/>
<path d="M118.412 18.1326C118.412 14.5646 120.467 12.3982 123.414 12.3982C126.727 12.3982 128.511 14.7557 128.511 18.1326C128.511 21.9236 126.377 23.8669 123.462 23.8669C120.371 23.8669 118.412 21.6687 118.412 18.1326ZM126.982 18.1326C126.982 15.0743 125.612 13.7362 123.414 13.7362C121.455 13.7362 119.941 15.1538 119.941 18.1326C119.941 21.0634 121.407 22.5288 123.605 22.5288C125.691 22.5288 126.982 21.0156 126.982 18.1326Z" fill="black" fill-opacity="0.2"/>
<path d="M118.412 18.1326C118.412 14.5646 120.467 12.3982 123.414 12.3982C126.727 12.3982 128.511 14.7557 128.511 18.1326C128.511 21.9236 126.377 23.8669 123.462 23.8669C120.371 23.8669 118.412 21.6687 118.412 18.1326ZM126.982 18.1326C126.982 15.0743 125.612 13.7362 123.414 13.7362C121.455 13.7362 119.941 15.1538 119.941 18.1326C119.941 21.0634 121.407 22.5288 123.605 22.5288C125.691 22.5288 126.982 21.0156 126.982 18.1326Z" fill="black" fill-opacity="0.2"/>
<path d="M143.387 23.7077H141.953L141.268 14.9948L138.449 23.7077H136.952L134.148 15.0265L133.447 23.7077H132.014L132.97 12.5576H134.722L137.732 22.1466L140.679 12.5576H142.431L143.387 23.7077Z" fill="#333333"/>
<path d="M143.387 23.7077H141.953L141.268 14.9948L138.449 23.7077H136.952L134.148 15.0265L133.447 23.7077H132.014L132.97 12.5576H134.722L137.732 22.1466L140.679 12.5576H142.431L143.387 23.7077Z" fill="black" fill-opacity="0.2"/>
<path d="M143.387 23.7077H141.953L141.268 14.9948L138.449 23.7077H136.952L134.148 15.0265L133.447 23.7077H132.014L132.97 12.5576H134.722L137.732 22.1466L140.679 12.5576H142.431L143.387 23.7077Z" fill="black" fill-opacity="0.2"/>
<path d="M143.387 23.7077H141.953L141.268 14.9948L138.449 23.7077H136.952L134.148 15.0265L133.447 23.7077H132.014L132.97 12.5576H134.722L137.732 22.1466L140.679 12.5576H142.431L143.387 23.7077Z" fill="black" fill-opacity="0.2"/>
<path d="M143.387 23.7077H141.953L141.268 14.9948L138.449 23.7077H136.952L134.148 15.0265L133.447 23.7077H132.014L132.97 12.5576H134.722L137.732 22.1466L140.679 12.5576H142.431L143.387 23.7077Z" fill="black" fill-opacity="0.2"/>
<path d="M143.387 23.7077H141.953L141.268 14.9948L138.449 23.7077H136.952L134.148 15.0265L133.447 23.7077H132.014L132.97 12.5576H134.722L137.732 22.1466L140.679 12.5576H142.431L143.387 23.7077Z" fill="black" fill-opacity="0.2"/>
<path d="M143.387 23.7077H141.953L141.268 14.9948L138.449 23.7077H136.952L134.148 15.0265L133.447 23.7077H132.014L132.97 12.5576H134.722L137.732 22.1466L140.679 12.5576H142.431L143.387 23.7077Z" fill="black" fill-opacity="0.2"/>
<path d="M143.387 23.7077H141.953L141.268 14.9948L138.449 23.7077H136.952L134.148 15.0265L133.447 23.7077H132.014L132.97 12.5576H134.722L137.732 22.1466L140.679 12.5576H142.431L143.387 23.7077Z" fill="black" fill-opacity="0.2"/>
<path d="M143.387 23.7077H141.953L141.268 14.9948L138.449 23.7077H136.952L134.148 15.0265L133.447 23.7077H132.014L132.97 12.5576H134.722L137.732 22.1466L140.679 12.5576H142.431L143.387 23.7077Z" fill="black" fill-opacity="0.2"/>
<path d="M150.983 23.7077H149.549V13.8957H146.252V12.5576H154.28V13.8957H150.983V23.7077Z" fill="#333333"/>
<path d="M150.983 23.7077H149.549V13.8957H146.252V12.5576H154.28V13.8957H150.983V23.7077Z" fill="black" fill-opacity="0.2"/>
<path d="M150.983 23.7077H149.549V13.8957H146.252V12.5576H154.28V13.8957H150.983V23.7077Z" fill="black" fill-opacity="0.2"/>
<path d="M150.983 23.7077H149.549V13.8957H146.252V12.5576H154.28V13.8957H150.983V23.7077Z" fill="black" fill-opacity="0.2"/>
<path d="M150.983 23.7077H149.549V13.8957H146.252V12.5576H154.28V13.8957H150.983V23.7077Z" fill="black" fill-opacity="0.2"/>
<path d="M150.983 23.7077H149.549V13.8957H146.252V12.5576H154.28V13.8957H150.983V23.7077Z" fill="black" fill-opacity="0.2"/>
<path d="M150.983 23.7077H149.549V13.8957H146.252V12.5576H154.28V13.8957H150.983V23.7077Z" fill="black" fill-opacity="0.2"/>
<path d="M150.983 23.7077H149.549V13.8957H146.252V12.5576H154.28V13.8957H150.983V23.7077Z" fill="black" fill-opacity="0.2"/>
<path d="M150.983 23.7077H149.549V13.8957H146.252V12.5576H154.28V13.8957H150.983V23.7077Z" fill="black" fill-opacity="0.2"/>
<path d="M163.853 23.7077H157.625V12.5576H163.853V13.8957H159.059V17.2725H163.439V18.5786H159.059V22.3696H163.853V23.7077Z" fill="#333333"/>
<path d="M163.853 23.7077H157.625V12.5576H163.853V13.8957H159.059V17.2725H163.439V18.5786H159.059V22.3696H163.853V23.7077Z" fill="black" fill-opacity="0.2"/>
<path d="M163.853 23.7077H157.625V12.5576H163.853V13.8957H159.059V17.2725H163.439V18.5786H159.059V22.3696H163.853V23.7077Z" fill="black" fill-opacity="0.2"/>
<path d="M163.853 23.7077H157.625V12.5576H163.853V13.8957H159.059V17.2725H163.439V18.5786H159.059V22.3696H163.853V23.7077Z" fill="black" fill-opacity="0.2"/>
<path d="M163.853 23.7077H157.625V12.5576H163.853V13.8957H159.059V17.2725H163.439V18.5786H159.059V22.3696H163.853V23.7077Z" fill="black" fill-opacity="0.2"/>
<path d="M163.853 23.7077H157.625V12.5576H163.853V13.8957H159.059V17.2725H163.439V18.5786H159.059V22.3696H163.853V23.7077Z" fill="black" fill-opacity="0.2"/>
<path d="M163.853 23.7077H157.625V12.5576H163.853V13.8957H159.059V17.2725H163.439V18.5786H159.059V22.3696H163.853V23.7077Z" fill="black" fill-opacity="0.2"/>
<path d="M163.853 23.7077H157.625V12.5576H163.853V13.8957H159.059V17.2725H163.439V18.5786H159.059V22.3696H163.853V23.7077Z" fill="black" fill-opacity="0.2"/>
<path d="M163.853 23.7077H157.625V12.5576H163.853V13.8957H159.059V17.2725H163.439V18.5786H159.059V22.3696H163.853V23.7077Z" fill="black" fill-opacity="0.2"/>
<path d="M176.054 23.7077H174.62V13.8957H169.348V23.7077H167.914V12.5576H176.054V23.7077Z" fill="#333333"/>
<path d="M176.054 23.7077H174.62V13.8957H169.348V23.7077H167.914V12.5576H176.054V23.7077Z" fill="black" fill-opacity="0.2"/>
<path d="M176.054 23.7077H174.62V13.8957H169.348V23.7077H167.914V12.5576H176.054V23.7077Z" fill="black" fill-opacity="0.2"/>
<path d="M176.054 23.7077H174.62V13.8957H169.348V23.7077H167.914V12.5576H176.054V23.7077Z" fill="black" fill-opacity="0.2"/>
<path d="M176.054 23.7077H174.62V13.8957H169.348V23.7077H167.914V12.5576H176.054V23.7077Z" fill="black" fill-opacity="0.2"/>
<path d="M176.054 23.7077H174.62V13.8957H169.348V23.7077H167.914V12.5576H176.054V23.7077Z" fill="black" fill-opacity="0.2"/>
<path d="M176.054 23.7077H174.62V13.8957H169.348V23.7077H167.914V12.5576H176.054V23.7077Z" fill="black" fill-opacity="0.2"/>
<path d="M176.054 23.7077H174.62V13.8957H169.348V23.7077H167.914V12.5576H176.054V23.7077Z" fill="black" fill-opacity="0.2"/>
<path d="M176.054 23.7077H174.62V13.8957H169.348V23.7077H167.914V12.5576H176.054V23.7077Z" fill="black" fill-opacity="0.2"/>
<path d="M188.667 23.7077H187.233V13.8957H183.41C183.363 20.283 183.092 23.8351 180.352 23.8351C180.135 23.8421 179.92 23.8097 179.715 23.7396V22.3538C179.865 22.3933 180.021 22.4094 180.177 22.4016C181.339 22.4016 181.881 20.9202 181.961 13.8478L181.977 12.5576H188.667V23.7077Z" fill="#333333"/>
<path d="M188.667 23.7077H187.233V13.8957H183.41C183.363 20.283 183.092 23.8351 180.352 23.8351C180.135 23.8421 179.92 23.8097 179.715 23.7396V22.3538C179.865 22.3933 180.021 22.4094 180.177 22.4016C181.339 22.4016 181.881 20.9202 181.961 13.8478L181.977 12.5576H188.667V23.7077Z" fill="black" fill-opacity="0.2"/>
<path d="M188.667 23.7077H187.233V13.8957H183.41C183.363 20.283 183.092 23.8351 180.352 23.8351C180.135 23.8421 179.92 23.8097 179.715 23.7396V22.3538C179.865 22.3933 180.021 22.4094 180.177 22.4016C181.339 22.4016 181.881 20.9202 181.961 13.8478L181.977 12.5576H188.667V23.7077Z" fill="black" fill-opacity="0.2"/>
<path d="M188.667 23.7077H187.233V13.8957H183.41C183.363 20.283 183.092 23.8351 180.352 23.8351C180.135 23.8421 179.92 23.8097 179.715 23.7396V22.3538C179.865 22.3933 180.021 22.4094 180.177 22.4016C181.339 22.4016 181.881 20.9202 181.961 13.8478L181.977 12.5576H188.667V23.7077Z" fill="black" fill-opacity="0.2"/>
<path d="M188.667 23.7077H187.233V13.8957H183.41C183.363 20.283 183.092 23.8351 180.352 23.8351C180.135 23.8421 179.92 23.8097 179.715 23.7396V22.3538C179.865 22.3933 180.021 22.4094 180.177 22.4016C181.339 22.4016 181.881 20.9202 181.961 13.8478L181.977 12.5576H188.667V23.7077Z" fill="black" fill-opacity="0.2"/>
<path d="M188.667 23.7077H187.233V13.8957H183.41C183.363 20.283 183.092 23.8351 180.352 23.8351C180.135 23.8421 179.92 23.8097 179.715 23.7396V22.3538C179.865 22.3933 180.021 22.4094 180.177 22.4016C181.339 22.4016 181.881 20.9202 181.961 13.8478L181.977 12.5576H188.667V23.7077Z" fill="black" fill-opacity="0.2"/>
<path d="M188.667 23.7077H187.233V13.8957H183.41C183.363 20.283 183.092 23.8351 180.352 23.8351C180.135 23.8421 179.92 23.8097 179.715 23.7396V22.3538C179.865 22.3933 180.021 22.4094 180.177 22.4016C181.339 22.4016 181.881 20.9202 181.961 13.8478L181.977 12.5576H188.667V23.7077Z" fill="black" fill-opacity="0.2"/>
<path d="M188.667 23.7077H187.233V13.8957H183.41C183.363 20.283 183.092 23.8351 180.352 23.8351C180.135 23.8421 179.92 23.8097 179.715 23.7396V22.3538C179.865 22.3933 180.021 22.4094 180.177 22.4016C181.339 22.4016 181.881 20.9202 181.961 13.8478L181.977 12.5576H188.667V23.7077Z" fill="black" fill-opacity="0.2"/>
<path d="M188.667 23.7077H187.233V13.8957H183.41C183.363 20.283 183.092 23.8351 180.352 23.8351C180.135 23.8421 179.92 23.8097 179.715 23.7396V22.3538C179.865 22.3933 180.021 22.4094 180.177 22.4016C181.339 22.4016 181.881 20.9202 181.961 13.8478L181.977 12.5576H188.667V23.7077Z" fill="black" fill-opacity="0.2"/>
<path d="M192.648 18.1326C192.648 14.5646 194.703 12.3982 197.65 12.3982C200.963 12.3982 202.747 14.7557 202.747 18.1326C202.747 21.9236 200.613 23.8669 197.698 23.8669C194.608 23.8669 192.648 21.6687 192.648 18.1326ZM201.218 18.1326C201.218 15.0743 199.848 13.7362 197.65 13.7362C195.691 13.7362 194.178 15.1538 194.178 18.1326C194.178 21.0634 195.643 22.5288 197.841 22.5288C199.928 22.5288 201.218 21.0156 201.218 18.1326Z" fill="#333333"/>
<path d="M192.648 18.1326C192.648 14.5646 194.703 12.3982 197.65 12.3982C200.963 12.3982 202.747 14.7557 202.747 18.1326C202.747 21.9236 200.613 23.8669 197.698 23.8669C194.608 23.8669 192.648 21.6687 192.648 18.1326ZM201.218 18.1326C201.218 15.0743 199.848 13.7362 197.65 13.7362C195.691 13.7362 194.178 15.1538 194.178 18.1326C194.178 21.0634 195.643 22.5288 197.841 22.5288C199.928 22.5288 201.218 21.0156 201.218 18.1326Z" fill="black" fill-opacity="0.2"/>
<path d="M192.648 18.1326C192.648 14.5646 194.703 12.3982 197.65 12.3982C200.963 12.3982 202.747 14.7557 202.747 18.1326C202.747 21.9236 200.613 23.8669 197.698 23.8669C194.608 23.8669 192.648 21.6687 192.648 18.1326ZM201.218 18.1326C201.218 15.0743 199.848 13.7362 197.65 13.7362C195.691 13.7362 194.178 15.1538 194.178 18.1326C194.178 21.0634 195.643 22.5288 197.841 22.5288C199.928 22.5288 201.218 21.0156 201.218 18.1326Z" fill="black" fill-opacity="0.2"/>
<path d="M192.648 18.1326C192.648 14.5646 194.703 12.3982 197.65 12.3982C200.963 12.3982 202.747 14.7557 202.747 18.1326C202.747 21.9236 200.613 23.8669 197.698 23.8669C194.608 23.8669 192.648 21.6687 192.648 18.1326ZM201.218 18.1326C201.218 15.0743 199.848 13.7362 197.65 13.7362C195.691 13.7362 194.178 15.1538 194.178 18.1326C194.178 21.0634 195.643 22.5288 197.841 22.5288C199.928 22.5288 201.218 21.0156 201.218 18.1326Z" fill="black" fill-opacity="0.2"/>
<path d="M192.648 18.1326C192.648 14.5646 194.703 12.3982 197.65 12.3982C200.963 12.3982 202.747 14.7557 202.747 18.1326C202.747 21.9236 200.613 23.8669 197.698 23.8669C194.608 23.8669 192.648 21.6687 192.648 18.1326ZM201.218 18.1326C201.218 15.0743 199.848 13.7362 197.65 13.7362C195.691 13.7362 194.178 15.1538 194.178 18.1326C194.178 21.0634 195.643 22.5288 197.841 22.5288C199.928 22.5288 201.218 21.0156 201.218 18.1326Z" fill="black" fill-opacity="0.2"/>
<path d="M192.648 18.1326C192.648 14.5646 194.703 12.3982 197.65 12.3982C200.963 12.3982 202.747 14.7557 202.747 18.1326C202.747 21.9236 200.613 23.8669 197.698 23.8669C194.608 23.8669 192.648 21.6687 192.648 18.1326ZM201.218 18.1326C201.218 15.0743 199.848 13.7362 197.65 13.7362C195.691 13.7362 194.178 15.1538 194.178 18.1326C194.178 21.0634 195.643 22.5288 197.841 22.5288C199.928 22.5288 201.218 21.0156 201.218 18.1326Z" fill="black" fill-opacity="0.2"/>
<path d="M192.648 18.1326C192.648 14.5646 194.703 12.3982 197.65 12.3982C200.963 12.3982 202.747 14.7557 202.747 18.1326C202.747 21.9236 200.613 23.8669 197.698 23.8669C194.608 23.8669 192.648 21.6687 192.648 18.1326ZM201.218 18.1326C201.218 15.0743 199.848 13.7362 197.65 13.7362C195.691 13.7362 194.178 15.1538 194.178 18.1326C194.178 21.0634 195.643 22.5288 197.841 22.5288C199.928 22.5288 201.218 21.0156 201.218 18.1326Z" fill="black" fill-opacity="0.2"/>
<path d="M192.648 18.1326C192.648 14.5646 194.703 12.3982 197.65 12.3982C200.963 12.3982 202.747 14.7557 202.747 18.1326C202.747 21.9236 200.613 23.8669 197.698 23.8669C194.608 23.8669 192.648 21.6687 192.648 18.1326ZM201.218 18.1326C201.218 15.0743 199.848 13.7362 197.65 13.7362C195.691 13.7362 194.178 15.1538 194.178 18.1326C194.178 21.0634 195.643 22.5288 197.841 22.5288C199.928 22.5288 201.218 21.0156 201.218 18.1326Z" fill="black" fill-opacity="0.2"/>
<path d="M192.648 18.1326C192.648 14.5646 194.703 12.3982 197.65 12.3982C200.963 12.3982 202.747 14.7557 202.747 18.1326C202.747 21.9236 200.613 23.8669 197.698 23.8669C194.608 23.8669 192.648 21.6687 192.648 18.1326ZM201.218 18.1326C201.218 15.0743 199.848 13.7362 197.65 13.7362C195.691 13.7362 194.178 15.1538 194.178 18.1326C194.178 21.0634 195.643 22.5288 197.841 22.5288C199.928 22.5288 201.218 21.0156 201.218 18.1326Z" fill="black" fill-opacity="0.2"/>
<path d="M211.664 18.8652H206.727V17.5908H211.664V18.8652Z" fill="#333333"/>
<path d="M211.664 18.8652H206.727V17.5908H211.664V18.8652Z" fill="black" fill-opacity="0.2"/>
<path d="M211.664 18.8652H206.727V17.5908H211.664V18.8652Z" fill="black" fill-opacity="0.2"/>
<path d="M211.664 18.8652H206.727V17.5908H211.664V18.8652Z" fill="black" fill-opacity="0.2"/>
<path d="M211.664 18.8652H206.727V17.5908H211.664V18.8652Z" fill="black" fill-opacity="0.2"/>
<path d="M211.664 18.8652H206.727V17.5908H211.664V18.8652Z" fill="black" fill-opacity="0.2"/>
<path d="M211.664 18.8652H206.727V17.5908H211.664V18.8652Z" fill="black" fill-opacity="0.2"/>
<path d="M211.664 18.8652H206.727V17.5908H211.664V18.8652Z" fill="black" fill-opacity="0.2"/>
<path d="M211.664 18.8652H206.727V17.5908H211.664V18.8652Z" fill="black" fill-opacity="0.2"/>
<path d="M98.551 36.7032H103.218C103.106 34.2981 101.545 33.167 99.3473 33.167C98.5386 33.1549 97.7344 33.2899 96.9739 33.5654L96.7031 32.4026C97.6034 32.0152 98.5745 31.8199 99.5545 31.8292C102.756 31.8292 104.779 33.5494 104.779 37.42C104.779 41.0676 102.9 43.2977 99.1561 43.2977C98.3331 43.3104 97.5141 43.1811 96.735 42.9155L97.0058 41.657C97.7041 41.8614 98.4284 41.9634 99.1561 41.9597C101.593 41.9597 103.17 40.6855 103.234 38.0093H98.551V36.7032Z" fill="#333333"/>
<path d="M98.551 36.7032H103.218C103.106 34.2981 101.545 33.167 99.3473 33.167C98.5386 33.1549 97.7344 33.2899 96.9739 33.5654L96.7031 32.4026C97.6034 32.0152 98.5745 31.8199 99.5545 31.8292C102.756 31.8292 104.779 33.5494 104.779 37.42C104.779 41.0676 102.9 43.2977 99.1561 43.2977C98.3331 43.3104 97.5141 43.1811 96.735 42.9155L97.0058 41.657C97.7041 41.8614 98.4284 41.9634 99.1561 41.9597C101.593 41.9597 103.17 40.6855 103.234 38.0093H98.551V36.7032Z" fill="black" fill-opacity="0.2"/>
<path d="M98.551 36.7032H103.218C103.106 34.2981 101.545 33.167 99.3473 33.167C98.5386 33.1549 97.7344 33.2899 96.9739 33.5654L96.7031 32.4026C97.6034 32.0152 98.5745 31.8199 99.5545 31.8292C102.756 31.8292 104.779 33.5494 104.779 37.42C104.779 41.0676 102.9 43.2977 99.1561 43.2977C98.3331 43.3104 97.5141 43.1811 96.735 42.9155L97.0058 41.657C97.7041 41.8614 98.4284 41.9634 99.1561 41.9597C101.593 41.9597 103.17 40.6855 103.234 38.0093H98.551V36.7032Z" fill="black" fill-opacity="0.2"/>
<path d="M98.551 36.7032H103.218C103.106 34.2981 101.545 33.167 99.3473 33.167C98.5386 33.1549 97.7344 33.2899 96.9739 33.5654L96.7031 32.4026C97.6034 32.0152 98.5745 31.8199 99.5545 31.8292C102.756 31.8292 104.779 33.5494 104.779 37.42C104.779 41.0676 102.9 43.2977 99.1561 43.2977C98.3331 43.3104 97.5141 43.1811 96.735 42.9155L97.0058 41.657C97.7041 41.8614 98.4284 41.9634 99.1561 41.9597C101.593 41.9597 103.17 40.6855 103.234 38.0093H98.551V36.7032Z" fill="black" fill-opacity="0.2"/>
<path d="M98.551 36.7032H103.218C103.106 34.2981 101.545 33.167 99.3473 33.167C98.5386 33.1549 97.7344 33.2899 96.9739 33.5654L96.7031 32.4026C97.6034 32.0152 98.5745 31.8199 99.5545 31.8292C102.756 31.8292 104.779 33.5494 104.779 37.42C104.779 41.0676 102.9 43.2977 99.1561 43.2977C98.3331 43.3104 97.5141 43.1811 96.735 42.9155L97.0058 41.657C97.7041 41.8614 98.4284 41.9634 99.1561 41.9597C101.593 41.9597 103.17 40.6855 103.234 38.0093H98.551V36.7032Z" fill="black" fill-opacity="0.2"/>
<path d="M98.551 36.7032H103.218C103.106 34.2981 101.545 33.167 99.3473 33.167C98.5386 33.1549 97.7344 33.2899 96.9739 33.5654L96.7031 32.4026C97.6034 32.0152 98.5745 31.8199 99.5545 31.8292C102.756 31.8292 104.779 33.5494 104.779 37.42C104.779 41.0676 102.9 43.2977 99.1561 43.2977C98.3331 43.3104 97.5141 43.1811 96.735 42.9155L97.0058 41.657C97.7041 41.8614 98.4284 41.9634 99.1561 41.9597C101.593 41.9597 103.17 40.6855 103.234 38.0093H98.551V36.7032Z" fill="black" fill-opacity="0.2"/>
<path d="M98.551 36.7032H103.218C103.106 34.2981 101.545 33.167 99.3473 33.167C98.5386 33.1549 97.7344 33.2899 96.9739 33.5654L96.7031 32.4026C97.6034 32.0152 98.5745 31.8199 99.5545 31.8292C102.756 31.8292 104.779 33.5494 104.779 37.42C104.779 41.0676 102.9 43.2977 99.1561 43.2977C98.3331 43.3104 97.5141 43.1811 96.735 42.9155L97.0058 41.657C97.7041 41.8614 98.4284 41.9634 99.1561 41.9597C101.593 41.9597 103.17 40.6855 103.234 38.0093H98.551V36.7032Z" fill="black" fill-opacity="0.2"/>
<path d="M98.551 36.7032H103.218C103.106 34.2981 101.545 33.167 99.3473 33.167C98.5386 33.1549 97.7344 33.2899 96.9739 33.5654L96.7031 32.4026C97.6034 32.0152 98.5745 31.8199 99.5545 31.8292C102.756 31.8292 104.779 33.5494 104.779 37.42C104.779 41.0676 102.9 43.2977 99.1561 43.2977C98.3331 43.3104 97.5141 43.1811 96.735 42.9155L97.0058 41.657C97.7041 41.8614 98.4284 41.9634 99.1561 41.9597C101.593 41.9597 103.17 40.6855 103.234 38.0093H98.551V36.7032Z" fill="black" fill-opacity="0.2"/>
<path d="M98.551 36.7032H103.218C103.106 34.2981 101.545 33.167 99.3473 33.167C98.5386 33.1549 97.7344 33.2899 96.9739 33.5654L96.7031 32.4026C97.6034 32.0152 98.5745 31.8199 99.5545 31.8292C102.756 31.8292 104.779 33.5494 104.779 37.42C104.779 41.0676 102.9 43.2977 99.1561 43.2977C98.3331 43.3104 97.5141 43.1811 96.735 42.9155L97.0058 41.657C97.7041 41.8614 98.4284 41.9634 99.1561 41.9597C101.593 41.9597 103.17 40.6855 103.234 38.0093H98.551V36.7032Z" fill="black" fill-opacity="0.2"/>
<path d="M116.757 43.1382H115.323V33.3261H111.5C111.452 39.7137 111.182 43.2656 108.442 43.2656C108.225 43.2725 108.01 43.2402 107.805 43.1701V41.7842C107.955 41.8238 108.111 41.8399 108.267 41.8321C109.429 41.8321 109.971 40.3507 110.051 33.2785L110.067 31.9883H116.757V43.1382Z" fill="#333333"/>
<path d="M116.757 43.1382H115.323V33.3261H111.5C111.452 39.7137 111.182 43.2656 108.442 43.2656C108.225 43.2725 108.01 43.2402 107.805 43.1701V41.7842C107.955 41.8238 108.111 41.8399 108.267 41.8321C109.429 41.8321 109.971 40.3507 110.051 33.2785L110.067 31.9883H116.757V43.1382Z" fill="black" fill-opacity="0.2"/>
<path d="M116.757 43.1382H115.323V33.3261H111.5C111.452 39.7137 111.182 43.2656 108.442 43.2656C108.225 43.2725 108.01 43.2402 107.805 43.1701V41.7842C107.955 41.8238 108.111 41.8399 108.267 41.8321C109.429 41.8321 109.971 40.3507 110.051 33.2785L110.067 31.9883H116.757V43.1382Z" fill="black" fill-opacity="0.2"/>
<path d="M116.757 43.1382H115.323V33.3261H111.5C111.452 39.7137 111.182 43.2656 108.442 43.2656C108.225 43.2725 108.01 43.2402 107.805 43.1701V41.7842C107.955 41.8238 108.111 41.8399 108.267 41.8321C109.429 41.8321 109.971 40.3507 110.051 33.2785L110.067 31.9883H116.757V43.1382Z" fill="black" fill-opacity="0.2"/>
<path d="M116.757 43.1382H115.323V33.3261H111.5C111.452 39.7137 111.182 43.2656 108.442 43.2656C108.225 43.2725 108.01 43.2402 107.805 43.1701V41.7842C107.955 41.8238 108.111 41.8399 108.267 41.8321C109.429 41.8321 109.971 40.3507 110.051 33.2785L110.067 31.9883H116.757V43.1382Z" fill="black" fill-opacity="0.2"/>
<path d="M116.757 43.1382H115.323V33.3261H111.5C111.452 39.7137 111.182 43.2656 108.442 43.2656C108.225 43.2725 108.01 43.2402 107.805 43.1701V41.7842C107.955 41.8238 108.111 41.8399 108.267 41.8321C109.429 41.8321 109.971 40.3507 110.051 33.2785L110.067 31.9883H116.757V43.1382Z" fill="black" fill-opacity="0.2"/>
<path d="M116.757 43.1382H115.323V33.3261H111.5C111.452 39.7137 111.182 43.2656 108.442 43.2656C108.225 43.2725 108.01 43.2402 107.805 43.1701V41.7842C107.955 41.8238 108.111 41.8399 108.267 41.8321C109.429 41.8321 109.971 40.3507 110.051 33.2785L110.067 31.9883H116.757V43.1382Z" fill="black" fill-opacity="0.2"/>
<path d="M116.757 43.1382H115.323V33.3261H111.5C111.452 39.7137 111.182 43.2656 108.442 43.2656C108.225 43.2725 108.01 43.2402 107.805 43.1701V41.7842C107.955 41.8238 108.111 41.8399 108.267 41.8321C109.429 41.8321 109.971 40.3507 110.051 33.2785L110.067 31.9883H116.757V43.1382Z" fill="black" fill-opacity="0.2"/>
<path d="M116.757 43.1382H115.323V33.3261H111.5C111.452 39.7137 111.182 43.2656 108.442 43.2656C108.225 43.2725 108.01 43.2402 107.805 43.1701V41.7842C107.955 41.8238 108.111 41.8399 108.267 41.8321C109.429 41.8321 109.971 40.3507 110.051 33.2785L110.067 31.9883H116.757V43.1382Z" fill="black" fill-opacity="0.2"/>
<path d="M127.443 43.1387H121.215V31.9888H127.443V33.3266H122.648V36.7035H127.029V38.0096H122.648V41.8007H127.443V43.1387Z" fill="#333333"/>
<path d="M127.443 43.1387H121.215V31.9888H127.443V33.3266H122.648V36.7035H127.029V38.0096H122.648V41.8007H127.443V43.1387Z" fill="black" fill-opacity="0.2"/>
<path d="M127.443 43.1387H121.215V31.9888H127.443V33.3266H122.648V36.7035H127.029V38.0096H122.648V41.8007H127.443V43.1387Z" fill="black" fill-opacity="0.2"/>
<path d="M127.443 43.1387H121.215V31.9888H127.443V33.3266H122.648V36.7035H127.029V38.0096H122.648V41.8007H127.443V43.1387Z" fill="black" fill-opacity="0.2"/>
<path d="M127.443 43.1387H121.215V31.9888H127.443V33.3266H122.648V36.7035H127.029V38.0096H122.648V41.8007H127.443V43.1387Z" fill="black" fill-opacity="0.2"/>
<path d="M127.443 43.1387H121.215V31.9888H127.443V33.3266H122.648V36.7035H127.029V38.0096H122.648V41.8007H127.443V43.1387Z" fill="black" fill-opacity="0.2"/>
<path d="M127.443 43.1387H121.215V31.9888H127.443V33.3266H122.648V36.7035H127.029V38.0096H122.648V41.8007H127.443V43.1387Z" fill="black" fill-opacity="0.2"/>
<path d="M127.443 43.1387H121.215V31.9888H127.443V33.3266H122.648V36.7035H127.029V38.0096H122.648V41.8007H127.443V43.1387Z" fill="black" fill-opacity="0.2"/>
<path d="M127.443 43.1387H121.215V31.9888H127.443V33.3266H122.648V36.7035H127.029V38.0096H122.648V41.8007H127.443V43.1387Z" fill="black" fill-opacity="0.2"/>
<path d="M133.989 38.1054H132.937V43.1387H131.504V31.9888H132.937V37.054H133.877L137.812 31.9888H139.643L135.359 37.1176C136.585 37.3248 136.936 39.045 139.819 43.1387H138.003C135.088 38.8857 135.343 38.1054 133.989 38.1054Z" fill="#333333"/>
<path d="M133.989 38.1054H132.937V43.1387H131.504V31.9888H132.937V37.054H133.877L137.812 31.9888H139.643L135.359 37.1176C136.585 37.3248 136.936 39.045 139.819 43.1387H138.003C135.088 38.8857 135.343 38.1054 133.989 38.1054Z" fill="black" fill-opacity="0.2"/>
<path d="M133.989 38.1054H132.937V43.1387H131.504V31.9888H132.937V37.054H133.877L137.812 31.9888H139.643L135.359 37.1176C136.585 37.3248 136.936 39.045 139.819 43.1387H138.003C135.088 38.8857 135.343 38.1054 133.989 38.1054Z" fill="black" fill-opacity="0.2"/>
<path d="M133.989 38.1054H132.937V43.1387H131.504V31.9888H132.937V37.054H133.877L137.812 31.9888H139.643L135.359 37.1176C136.585 37.3248 136.936 39.045 139.819 43.1387H138.003C135.088 38.8857 135.343 38.1054 133.989 38.1054Z" fill="black" fill-opacity="0.2"/>
<path d="M133.989 38.1054H132.937V43.1387H131.504V31.9888H132.937V37.054H133.877L137.812 31.9888H139.643L135.359 37.1176C136.585 37.3248 136.936 39.045 139.819 43.1387H138.003C135.088 38.8857 135.343 38.1054 133.989 38.1054Z" fill="black" fill-opacity="0.2"/>
<path d="M133.989 38.1054H132.937V43.1387H131.504V31.9888H132.937V37.054H133.877L137.812 31.9888H139.643L135.359 37.1176C136.585 37.3248 136.936 39.045 139.819 43.1387H138.003C135.088 38.8857 135.343 38.1054 133.989 38.1054Z" fill="black" fill-opacity="0.2"/>
<path d="M133.989 38.1054H132.937V43.1387H131.504V31.9888H132.937V37.054H133.877L137.812 31.9888H139.643L135.359 37.1176C136.585 37.3248 136.936 39.045 139.819 43.1387H138.003C135.088 38.8857 135.343 38.1054 133.989 38.1054Z" fill="black" fill-opacity="0.2"/>
<path d="M133.989 38.1054H132.937V43.1387H131.504V31.9888H132.937V37.054H133.877L137.812 31.9888H139.643L135.359 37.1176C136.585 37.3248 136.936 39.045 139.819 43.1387H138.003C135.088 38.8857 135.343 38.1054 133.989 38.1054Z" fill="black" fill-opacity="0.2"/>
<path d="M133.989 38.1054H132.937V43.1387H131.504V31.9888H132.937V37.054H133.877L137.812 31.9888H139.643L135.359 37.1176C136.585 37.3248 136.936 39.045 139.819 43.1387H138.003C135.088 38.8857 135.343 38.1054 133.989 38.1054Z" fill="black" fill-opacity="0.2"/>
<path d="M146.682 43.1387H145.248V33.3266H141.951V31.9888H149.979V33.3266H146.682V43.1387Z" fill="#333333"/>
<path d="M146.682 43.1387H145.248V33.3266H141.951V31.9888H149.979V33.3266H146.682V43.1387Z" fill="black" fill-opacity="0.2"/>
<path d="M146.682 43.1387H145.248V33.3266H141.951V31.9888H149.979V33.3266H146.682V43.1387Z" fill="black" fill-opacity="0.2"/>
<path d="M146.682 43.1387H145.248V33.3266H141.951V31.9888H149.979V33.3266H146.682V43.1387Z" fill="black" fill-opacity="0.2"/>
<path d="M146.682 43.1387H145.248V33.3266H141.951V31.9888H149.979V33.3266H146.682V43.1387Z" fill="black" fill-opacity="0.2"/>
<path d="M146.682 43.1387H145.248V33.3266H141.951V31.9888H149.979V33.3266H146.682V43.1387Z" fill="black" fill-opacity="0.2"/>
<path d="M146.682 43.1387H145.248V33.3266H141.951V31.9888H149.979V33.3266H146.682V43.1387Z" fill="black" fill-opacity="0.2"/>
<path d="M146.682 43.1387H145.248V33.3266H141.951V31.9888H149.979V33.3266H146.682V43.1387Z" fill="black" fill-opacity="0.2"/>
<path d="M146.682 43.1387H145.248V33.3266H141.951V31.9888H149.979V33.3266H146.682V43.1387Z" fill="black" fill-opacity="0.2"/>
<path d="M154.758 43.1387H153.324V31.9888H156.606C159.138 31.9888 160.731 33.0399 160.731 35.4612C160.731 37.7708 159.138 39.0291 156.478 39.0291H154.758V43.1387ZM154.758 37.691H156.478C158.246 37.691 159.202 36.9742 159.202 35.4928C159.202 33.9638 158.246 33.3266 156.478 33.3266H154.758V37.691Z" fill="#333333"/>
<path d="M154.758 43.1387H153.324V31.9888H156.606C159.138 31.9888 160.731 33.0399 160.731 35.4612C160.731 37.7708 159.138 39.0291 156.478 39.0291H154.758V43.1387ZM154.758 37.691H156.478C158.246 37.691 159.202 36.9742 159.202 35.4928C159.202 33.9638 158.246 33.3266 156.478 33.3266H154.758V37.691Z" fill="black" fill-opacity="0.2"/>
<path d="M154.758 43.1387H153.324V31.9888H156.606C159.138 31.9888 160.731 33.0399 160.731 35.4612C160.731 37.7708 159.138 39.0291 156.478 39.0291H154.758V43.1387ZM154.758 37.691H156.478C158.246 37.691 159.202 36.9742 159.202 35.4928C159.202 33.9638 158.246 33.3266 156.478 33.3266H154.758V37.691Z" fill="black" fill-opacity="0.2"/>
<path d="M154.758 43.1387H153.324V31.9888H156.606C159.138 31.9888 160.731 33.0399 160.731 35.4612C160.731 37.7708 159.138 39.0291 156.478 39.0291H154.758V43.1387ZM154.758 37.691H156.478C158.246 37.691 159.202 36.9742 159.202 35.4928C159.202 33.9638 158.246 33.3266 156.478 33.3266H154.758V37.691Z" fill="black" fill-opacity="0.2"/>
<path d="M154.758 43.1387H153.324V31.9888H156.606C159.138 31.9888 160.731 33.0399 160.731 35.4612C160.731 37.7708 159.138 39.0291 156.478 39.0291H154.758V43.1387ZM154.758 37.691H156.478C158.246 37.691 159.202 36.9742 159.202 35.4928C159.202 33.9638 158.246 33.3266 156.478 33.3266H154.758V37.691Z" fill="black" fill-opacity="0.2"/>
<path d="M154.758 43.1387H153.324V31.9888H156.606C159.138 31.9888 160.731 33.0399 160.731 35.4612C160.731 37.7708 159.138 39.0291 156.478 39.0291H154.758V43.1387ZM154.758 37.691H156.478C158.246 37.691 159.202 36.9742 159.202 35.4928C159.202 33.9638 158.246 33.3266 156.478 33.3266H154.758V37.691Z" fill="black" fill-opacity="0.2"/>
<path d="M154.758 43.1387H153.324V31.9888H156.606C159.138 31.9888 160.731 33.0399 160.731 35.4612C160.731 37.7708 159.138 39.0291 156.478 39.0291H154.758V43.1387ZM154.758 37.691H156.478C158.246 37.691 159.202 36.9742 159.202 35.4928C159.202 33.9638 158.246 33.3266 156.478 33.3266H154.758V37.691Z" fill="black" fill-opacity="0.2"/>
<path d="M154.758 43.1387H153.324V31.9888H156.606C159.138 31.9888 160.731 33.0399 160.731 35.4612C160.731 37.7708 159.138 39.0291 156.478 39.0291H154.758V43.1387ZM154.758 37.691H156.478C158.246 37.691 159.202 36.9742 159.202 35.4928C159.202 33.9638 158.246 33.3266 156.478 33.3266H154.758V37.691Z" fill="black" fill-opacity="0.2"/>
<path d="M154.758 43.1387H153.324V31.9888H156.606C159.138 31.9888 160.731 33.0399 160.731 35.4612C160.731 37.7708 159.138 39.0291 156.478 39.0291H154.758V43.1387ZM154.758 37.691H156.478C158.246 37.691 159.202 36.9742 159.202 35.4928C159.202 33.9638 158.246 33.3266 156.478 33.3266H154.758V37.691Z" fill="black" fill-opacity="0.2"/>
<path d="M163.914 37.5633C163.914 33.9954 165.969 31.8291 168.916 31.8291C172.229 31.8291 174.013 34.1863 174.013 37.5633C174.013 41.3543 171.879 43.2977 168.964 43.2977C165.873 43.2977 163.914 41.0995 163.914 37.5633ZM172.484 37.5633C172.484 34.505 171.114 33.1669 168.916 33.1669C166.957 33.1669 165.443 34.5847 165.443 37.5633C165.443 40.4942 166.909 41.9596 169.107 41.9596C171.193 41.9596 172.484 40.4463 172.484 37.5633Z" fill="#333333"/>
<path d="M163.914 37.5633C163.914 33.9954 165.969 31.8291 168.916 31.8291C172.229 31.8291 174.013 34.1863 174.013 37.5633C174.013 41.3543 171.879 43.2977 168.964 43.2977C165.873 43.2977 163.914 41.0995 163.914 37.5633ZM172.484 37.5633C172.484 34.505 171.114 33.1669 168.916 33.1669C166.957 33.1669 165.443 34.5847 165.443 37.5633C165.443 40.4942 166.909 41.9596 169.107 41.9596C171.193 41.9596 172.484 40.4463 172.484 37.5633Z" fill="black" fill-opacity="0.2"/>
<path d="M163.914 37.5633C163.914 33.9954 165.969 31.8291 168.916 31.8291C172.229 31.8291 174.013 34.1863 174.013 37.5633C174.013 41.3543 171.879 43.2977 168.964 43.2977C165.873 43.2977 163.914 41.0995 163.914 37.5633ZM172.484 37.5633C172.484 34.505 171.114 33.1669 168.916 33.1669C166.957 33.1669 165.443 34.5847 165.443 37.5633C165.443 40.4942 166.909 41.9596 169.107 41.9596C171.193 41.9596 172.484 40.4463 172.484 37.5633Z" fill="black" fill-opacity="0.2"/>
<path d="M163.914 37.5633C163.914 33.9954 165.969 31.8291 168.916 31.8291C172.229 31.8291 174.013 34.1863 174.013 37.5633C174.013 41.3543 171.879 43.2977 168.964 43.2977C165.873 43.2977 163.914 41.0995 163.914 37.5633ZM172.484 37.5633C172.484 34.505 171.114 33.1669 168.916 33.1669C166.957 33.1669 165.443 34.5847 165.443 37.5633C165.443 40.4942 166.909 41.9596 169.107 41.9596C171.193 41.9596 172.484 40.4463 172.484 37.5633Z" fill="black" fill-opacity="0.2"/>
<path d="M163.914 37.5633C163.914 33.9954 165.969 31.8291 168.916 31.8291C172.229 31.8291 174.013 34.1863 174.013 37.5633C174.013 41.3543 171.879 43.2977 168.964 43.2977C165.873 43.2977 163.914 41.0995 163.914 37.5633ZM172.484 37.5633C172.484 34.505 171.114 33.1669 168.916 33.1669C166.957 33.1669 165.443 34.5847 165.443 37.5633C165.443 40.4942 166.909 41.9596 169.107 41.9596C171.193 41.9596 172.484 40.4463 172.484 37.5633Z" fill="black" fill-opacity="0.2"/>
<path d="M163.914 37.5633C163.914 33.9954 165.969 31.8291 168.916 31.8291C172.229 31.8291 174.013 34.1863 174.013 37.5633C174.013 41.3543 171.879 43.2977 168.964 43.2977C165.873 43.2977 163.914 41.0995 163.914 37.5633ZM172.484 37.5633C172.484 34.505 171.114 33.1669 168.916 33.1669C166.957 33.1669 165.443 34.5847 165.443 37.5633C165.443 40.4942 166.909 41.9596 169.107 41.9596C171.193 41.9596 172.484 40.4463 172.484 37.5633Z" fill="black" fill-opacity="0.2"/>
<path d="M163.914 37.5633C163.914 33.9954 165.969 31.8291 168.916 31.8291C172.229 31.8291 174.013 34.1863 174.013 37.5633C174.013 41.3543 171.879 43.2977 168.964 43.2977C165.873 43.2977 163.914 41.0995 163.914 37.5633ZM172.484 37.5633C172.484 34.505 171.114 33.1669 168.916 33.1669C166.957 33.1669 165.443 34.5847 165.443 37.5633C165.443 40.4942 166.909 41.9596 169.107 41.9596C171.193 41.9596 172.484 40.4463 172.484 37.5633Z" fill="black" fill-opacity="0.2"/>
<path d="M163.914 37.5633C163.914 33.9954 165.969 31.8291 168.916 31.8291C172.229 31.8291 174.013 34.1863 174.013 37.5633C174.013 41.3543 171.879 43.2977 168.964 43.2977C165.873 43.2977 163.914 41.0995 163.914 37.5633ZM172.484 37.5633C172.484 34.505 171.114 33.1669 168.916 33.1669C166.957 33.1669 165.443 34.5847 165.443 37.5633C165.443 40.4942 166.909 41.9596 169.107 41.9596C171.193 41.9596 172.484 40.4463 172.484 37.5633Z" fill="black" fill-opacity="0.2"/>
<path d="M163.914 37.5633C163.914 33.9954 165.969 31.8291 168.916 31.8291C172.229 31.8291 174.013 34.1863 174.013 37.5633C174.013 41.3543 171.879 43.2977 168.964 43.2977C165.873 43.2977 163.914 41.0995 163.914 37.5633ZM172.484 37.5633C172.484 34.505 171.114 33.1669 168.916 33.1669C166.957 33.1669 165.443 34.5847 165.443 37.5633C165.443 40.4942 166.909 41.9596 169.107 41.9596C171.193 41.9596 172.484 40.4463 172.484 37.5633Z" fill="black" fill-opacity="0.2"/>
<path d="M185.512 42.836C184.742 43.1616 183.911 43.3191 183.075 43.2979C179.602 43.2979 177.516 41.1317 177.516 37.7069C177.516 33.9159 179.65 31.8294 182.979 31.8294C183.849 31.8022 184.715 31.9484 185.528 32.2594L185.257 33.5177C184.571 33.2777 183.849 33.1591 183.123 33.1672C180.478 33.1672 179.045 34.6965 179.045 37.5635C179.045 40.3351 180.654 41.9599 183.266 41.9599C183.956 41.9728 184.64 41.837 185.273 41.5617L185.512 42.836Z" fill="#333333"/>
<path d="M185.512 42.836C184.742 43.1616 183.911 43.3191 183.075 43.2979C179.602 43.2979 177.516 41.1317 177.516 37.7069C177.516 33.9159 179.65 31.8294 182.979 31.8294C183.849 31.8022 184.715 31.9484 185.528 32.2594L185.257 33.5177C184.571 33.2777 183.849 33.1591 183.123 33.1672C180.478 33.1672 179.045 34.6965 179.045 37.5635C179.045 40.3351 180.654 41.9599 183.266 41.9599C183.956 41.9728 184.64 41.837 185.273 41.5617L185.512 42.836Z" fill="black" fill-opacity="0.2"/>
<path d="M185.512 42.836C184.742 43.1616 183.911 43.3191 183.075 43.2979C179.602 43.2979 177.516 41.1317 177.516 37.7069C177.516 33.9159 179.65 31.8294 182.979 31.8294C183.849 31.8022 184.715 31.9484 185.528 32.2594L185.257 33.5177C184.571 33.2777 183.849 33.1591 183.123 33.1672C180.478 33.1672 179.045 34.6965 179.045 37.5635C179.045 40.3351 180.654 41.9599 183.266 41.9599C183.956 41.9728 184.64 41.837 185.273 41.5617L185.512 42.836Z" fill="black" fill-opacity="0.2"/>
<path d="M185.512 42.836C184.742 43.1616 183.911 43.3191 183.075 43.2979C179.602 43.2979 177.516 41.1317 177.516 37.7069C177.516 33.9159 179.65 31.8294 182.979 31.8294C183.849 31.8022 184.715 31.9484 185.528 32.2594L185.257 33.5177C184.571 33.2777 183.849 33.1591 183.123 33.1672C180.478 33.1672 179.045 34.6965 179.045 37.5635C179.045 40.3351 180.654 41.9599 183.266 41.9599C183.956 41.9728 184.64 41.837 185.273 41.5617L185.512 42.836Z" fill="black" fill-opacity="0.2"/>
<path d="M185.512 42.836C184.742 43.1616 183.911 43.3191 183.075 43.2979C179.602 43.2979 177.516 41.1317 177.516 37.7069C177.516 33.9159 179.65 31.8294 182.979 31.8294C183.849 31.8022 184.715 31.9484 185.528 32.2594L185.257 33.5177C184.571 33.2777 183.849 33.1591 183.123 33.1672C180.478 33.1672 179.045 34.6965 179.045 37.5635C179.045 40.3351 180.654 41.9599 183.266 41.9599C183.956 41.9728 184.64 41.837 185.273 41.5617L185.512 42.836Z" fill="black" fill-opacity="0.2"/>
<path d="M185.512 42.836C184.742 43.1616 183.911 43.3191 183.075 43.2979C179.602 43.2979 177.516 41.1317 177.516 37.7069C177.516 33.9159 179.65 31.8294 182.979 31.8294C183.849 31.8022 184.715 31.9484 185.528 32.2594L185.257 33.5177C184.571 33.2777 183.849 33.1591 183.123 33.1672C180.478 33.1672 179.045 34.6965 179.045 37.5635C179.045 40.3351 180.654 41.9599 183.266 41.9599C183.956 41.9728 184.64 41.837 185.273 41.5617L185.512 42.836Z" fill="black" fill-opacity="0.2"/>
<path d="M185.512 42.836C184.742 43.1616 183.911 43.3191 183.075 43.2979C179.602 43.2979 177.516 41.1317 177.516 37.7069C177.516 33.9159 179.65 31.8294 182.979 31.8294C183.849 31.8022 184.715 31.9484 185.528 32.2594L185.257 33.5177C184.571 33.2777 183.849 33.1591 183.123 33.1672C180.478 33.1672 179.045 34.6965 179.045 37.5635C179.045 40.3351 180.654 41.9599 183.266 41.9599C183.956 41.9728 184.64 41.837 185.273 41.5617L185.512 42.836Z" fill="black" fill-opacity="0.2"/>
<path d="M185.512 42.836C184.742 43.1616 183.911 43.3191 183.075 43.2979C179.602 43.2979 177.516 41.1317 177.516 37.7069C177.516 33.9159 179.65 31.8294 182.979 31.8294C183.849 31.8022 184.715 31.9484 185.528 32.2594L185.257 33.5177C184.571 33.2777 183.849 33.1591 183.123 33.1672C180.478 33.1672 179.045 34.6965 179.045 37.5635C179.045 40.3351 180.654 41.9599 183.266 41.9599C183.956 41.9728 184.64 41.837 185.273 41.5617L185.512 42.836Z" fill="black" fill-opacity="0.2"/>
<path d="M185.512 42.836C184.742 43.1616 183.911 43.3191 183.075 43.2979C179.602 43.2979 177.516 41.1317 177.516 37.7069C177.516 33.9159 179.65 31.8294 182.979 31.8294C183.849 31.8022 184.715 31.9484 185.528 32.2594L185.257 33.5177C184.571 33.2777 183.849 33.1591 183.123 33.1672C180.478 33.1672 179.045 34.6965 179.045 37.5635C179.045 40.3351 180.654 41.9599 183.266 41.9599C183.956 41.9728 184.64 41.837 185.273 41.5617L185.512 42.836Z" fill="black" fill-opacity="0.2"/>
<path d="M195.738 43.1387H189.51V31.9888H195.738V33.3266H190.943V36.7035H195.324V38.0096H190.943V41.8007H195.738V43.1387Z" fill="#333333"/>
<path d="M195.738 43.1387H189.51V31.9888H195.738V33.3266H190.943V36.7035H195.324V38.0096H190.943V41.8007H195.738V43.1387Z" fill="black" fill-opacity="0.2"/>
<path d="M195.738 43.1387H189.51V31.9888H195.738V33.3266H190.943V36.7035H195.324V38.0096H190.943V41.8007H195.738V43.1387Z" fill="black" fill-opacity="0.2"/>
<path d="M195.738 43.1387H189.51V31.9888H195.738V33.3266H190.943V36.7035H195.324V38.0096H190.943V41.8007H195.738V43.1387Z" fill="black" fill-opacity="0.2"/>
<path d="M195.738 43.1387H189.51V31.9888H195.738V33.3266H190.943V36.7035H195.324V38.0096H190.943V41.8007H195.738V43.1387Z" fill="black" fill-opacity="0.2"/>
<path d="M195.738 43.1387H189.51V31.9888H195.738V33.3266H190.943V36.7035H195.324V38.0096H190.943V41.8007H195.738V43.1387Z" fill="black" fill-opacity="0.2"/>
<path d="M195.738 43.1387H189.51V31.9888H195.738V33.3266H190.943V36.7035H195.324V38.0096H190.943V41.8007H195.738V43.1387Z" fill="black" fill-opacity="0.2"/>
<path d="M195.738 43.1387H189.51V31.9888H195.738V33.3266H190.943V36.7035H195.324V38.0096H190.943V41.8007H195.738V43.1387Z" fill="black" fill-opacity="0.2"/>
<path d="M195.738 43.1387H189.51V31.9888H195.738V33.3266H190.943V36.7035H195.324V38.0096H190.943V41.8007H195.738V43.1387Z" fill="black" fill-opacity="0.2"/>
<path d="M203.414 43.1387H201.981V33.3266H198.684V31.9888H206.712V33.3266H203.414V43.1387Z" fill="#333333"/>
<path d="M203.414 43.1387H201.981V33.3266H198.684V31.9888H206.712V33.3266H203.414V43.1387Z" fill="black" fill-opacity="0.2"/>
<path d="M203.414 43.1387H201.981V33.3266H198.684V31.9888H206.712V33.3266H203.414V43.1387Z" fill="black" fill-opacity="0.2"/>
<path d="M203.414 43.1387H201.981V33.3266H198.684V31.9888H206.712V33.3266H203.414V43.1387Z" fill="black" fill-opacity="0.2"/>
<path d="M203.414 43.1387H201.981V33.3266H198.684V31.9888H206.712V33.3266H203.414V43.1387Z" fill="black" fill-opacity="0.2"/>
<path d="M203.414 43.1387H201.981V33.3266H198.684V31.9888H206.712V33.3266H203.414V43.1387Z" fill="black" fill-opacity="0.2"/>
<path d="M203.414 43.1387H201.981V33.3266H198.684V31.9888H206.712V33.3266H203.414V43.1387Z" fill="black" fill-opacity="0.2"/>
<path d="M203.414 43.1387H201.981V33.3266H198.684V31.9888H206.712V33.3266H203.414V43.1387Z" fill="black" fill-opacity="0.2"/>
<path d="M203.414 43.1387H201.981V33.3266H198.684V31.9888H206.712V33.3266H203.414V43.1387Z" fill="black" fill-opacity="0.2"/>
<path d="M210.055 43.1387V31.9888H211.488V36.1939H212.667C215.455 36.1939 217 37.1176 217 39.5706C217 42.0714 215.232 43.1387 212.603 43.1387L210.055 43.1387ZM211.488 41.8007H212.587C214.754 41.8007 215.47 40.9086 215.47 39.5706C215.47 38.1211 214.674 37.5317 212.619 37.5317H211.488V41.8007Z" fill="#333333"/>
<path d="M210.055 43.1387V31.9888H211.488V36.1939H212.667C215.455 36.1939 217 37.1176 217 39.5706C217 42.0714 215.232 43.1387 212.603 43.1387L210.055 43.1387ZM211.488 41.8007H212.587C214.754 41.8007 215.47 40.9086 215.47 39.5706C215.47 38.1211 214.674 37.5317 212.619 37.5317H211.488V41.8007Z" fill="black" fill-opacity="0.2"/>
<path d="M210.055 43.1387V31.9888H211.488V36.1939H212.667C215.455 36.1939 217 37.1176 217 39.5706C217 42.0714 215.232 43.1387 212.603 43.1387L210.055 43.1387ZM211.488 41.8007H212.587C214.754 41.8007 215.47 40.9086 215.47 39.5706C215.47 38.1211 214.674 37.5317 212.619 37.5317H211.488V41.8007Z" fill="black" fill-opacity="0.2"/>
<path d="M210.055 43.1387V31.9888H211.488V36.1939H212.667C215.455 36.1939 217 37.1176 217 39.5706C217 42.0714 215.232 43.1387 212.603 43.1387L210.055 43.1387ZM211.488 41.8007H212.587C214.754 41.8007 215.47 40.9086 215.47 39.5706C215.47 38.1211 214.674 37.5317 212.619 37.5317H211.488V41.8007Z" fill="black" fill-opacity="0.2"/>
<path d="M210.055 43.1387V31.9888H211.488V36.1939H212.667C215.455 36.1939 217 37.1176 217 39.5706C217 42.0714 215.232 43.1387 212.603 43.1387L210.055 43.1387ZM211.488 41.8007H212.587C214.754 41.8007 215.47 40.9086 215.47 39.5706C215.47 38.1211 214.674 37.5317 212.619 37.5317H211.488V41.8007Z" fill="black" fill-opacity="0.2"/>
<path d="M210.055 43.1387V31.9888H211.488V36.1939H212.667C215.455 36.1939 217 37.1176 217 39.5706C217 42.0714 215.232 43.1387 212.603 43.1387L210.055 43.1387ZM211.488 41.8007H212.587C214.754 41.8007 215.47 40.9086 215.47 39.5706C215.47 38.1211 214.674 37.5317 212.619 37.5317H211.488V41.8007Z" fill="black" fill-opacity="0.2"/>
<path d="M210.055 43.1387V31.9888H211.488V36.1939H212.667C215.455 36.1939 217 37.1176 217 39.5706C217 42.0714 215.232 43.1387 212.603 43.1387L210.055 43.1387ZM211.488 41.8007H212.587C214.754 41.8007 215.47 40.9086 215.47 39.5706C215.47 38.1211 214.674 37.5317 212.619 37.5317H211.488V41.8007Z" fill="black" fill-opacity="0.2"/>
<path d="M210.055 43.1387V31.9888H211.488V36.1939H212.667C215.455 36.1939 217 37.1176 217 39.5706C217 42.0714 215.232 43.1387 212.603 43.1387L210.055 43.1387ZM211.488 41.8007H212.587C214.754 41.8007 215.47 40.9086 215.47 39.5706C215.47 38.1211 214.674 37.5317 212.619 37.5317H211.488V41.8007Z" fill="black" fill-opacity="0.2"/>
<path d="M210.055 43.1387V31.9888H211.488V36.1939H212.667C215.455 36.1939 217 37.1176 217 39.5706C217 42.0714 215.232 43.1387 212.603 43.1387L210.055 43.1387ZM211.488 41.8007H212.587C214.754 41.8007 215.47 40.9086 215.47 39.5706C215.47 38.1211 214.674 37.5317 212.619 37.5317H211.488V41.8007Z" fill="black" fill-opacity="0.2"/>
<path d="M97.851 60.2745H96.7031V51.3462H99.3306C101.358 51.3462 102.634 52.188 102.634 54.1268C102.634 55.9762 101.358 56.9838 99.2283 56.9838H97.851L97.851 60.2745ZM97.851 55.9124H99.2283C100.644 55.9124 101.409 55.3384 101.409 54.1522C101.409 52.9278 100.644 52.4176 99.2283 52.4176H97.851V55.9124Z" fill="#025EA1"/>
<path d="M105.057 55.8101C105.057 52.9531 106.702 51.2185 109.062 51.2185C111.714 51.2185 113.143 53.1062 113.143 55.8101C113.143 58.8459 111.434 60.4019 109.1 60.4019C106.626 60.4019 105.057 58.6418 105.057 55.8101ZM111.919 55.8101C111.919 53.3612 110.822 52.2899 109.062 52.2899C107.493 52.2899 106.281 53.4251 106.281 55.8101C106.281 58.1571 107.454 59.3305 109.215 59.3305C110.886 59.3305 111.919 58.1189 111.919 55.8101Z" fill="#025EA1"/>
<path d="M122.225 60.0321C121.608 60.2928 120.943 60.4189 120.274 60.402C117.493 60.402 115.822 58.6673 115.822 55.9251C115.822 52.8895 117.531 51.2186 120.197 51.2186C120.894 51.1969 121.587 51.3139 122.238 51.5629L122.021 52.5706C121.472 52.3784 120.894 52.2834 120.312 52.29C118.195 52.29 117.047 53.5144 117.047 55.8103C117.047 58.0297 118.335 59.3307 120.427 59.3307C120.979 59.341 121.527 59.2322 122.034 59.0118L122.225 60.0321Z" fill="#025EA1"/>
<path d="M130.246 57.8894H126.432L125.565 60.2745H124.404L127.81 51.3462H128.958L132.3 60.2745H131.101L130.246 57.8894ZM126.802 56.8435H129.876L128.384 52.6471H128.333L126.802 56.8435Z" fill="#025EA1"/>
<path d="M136.979 60.2745H135.832V52.4175H133.191V51.3462H139.62V52.4175H136.979V60.2745Z" fill="#025EA1"/>
<path d="M141.533 55.8101C141.533 52.9531 143.179 51.2185 145.539 51.2185C148.191 51.2185 149.62 53.1062 149.62 55.8101C149.62 58.8459 147.911 60.4019 145.576 60.4019C143.102 60.4019 141.533 58.6418 141.533 55.8101ZM148.395 55.8101C148.395 53.3612 147.299 52.2899 145.539 52.2899C143.969 52.2899 142.758 53.4251 142.758 55.8101C142.758 58.1571 143.931 59.3305 145.691 59.3305C147.362 59.3305 148.395 58.1189 148.395 55.8101Z" fill="#025EA1"/>
<path d="M161.404 60.2745H160.256L159.708 53.2977L157.45 60.2745H156.251L154.006 53.3231L153.445 60.2745H152.297L153.062 51.3462H154.465L156.876 59.0246L159.236 51.3462H160.639L161.404 60.2745Z" fill="#025EA1"/>
<g clip-path="url(#clip0_286_730)">
<path d="M42.6349 30.8085C41.5087 29.794 40.1069 29.1362 38.6069 28.9183C37.1069 28.7003 35.5759 28.932 34.2075 29.5841C32.8392 30.2362 31.6949 31.2793 30.9193 32.5816C30.1437 33.8839 29.7716 35.387 29.8501 36.9007C29.9287 38.4145 30.4543 39.871 31.3604 41.086C32.2666 42.3011 33.5127 43.2202 34.9412 43.7272C36.3697 44.2342 37.9165 44.3062 39.3859 43.9342C40.8553 43.5623 42.1815 42.7629 43.1967 41.6374C44.5573 40.1265 45.2624 38.1372 45.1571 36.1067C45.0517 34.0761 44.1446 32.1705 42.6349 30.8085Z" fill="url(#paint0_radial_286_730)"/>
<path d="M15.5455 7.33994C10.4912 11.1502 6.51064 16.2055 3.99219 22.0126C7.02519 22.7602 16.1061 25.7155 20.2723 36.9642C21.5255 36.5559 24.2268 34.9815 26.1009 28.9035C28.6141 20.7659 33.3817 12.939 39.5644 10.3108C33.399 4.21102 25.2758 2.77479 15.5455 7.33994Z" fill="url(#paint1_linear_286_730)"/>
<path d="M65.6101 13.2241L65.6118 13.2221C59.6248 5.99092 51.0817 1.34482 41.7579 0.249416C32.4341 -0.845992 23.0468 1.69354 15.5469 7.34022C29.0549 1.00252 39.4655 6.23074 45.8407 19.4459C55.9957 21.2672 62.8923 16.2143 65.6101 13.2241Z" fill="url(#paint2_linear_286_730)"/>
<path d="M23.228 70.0894C29.0545 72.5618 35.4224 73.4817 41.7105 72.7594C40.8413 69.7588 38.8601 60.4161 46.5178 51.1834C45.5376 50.3023 42.8236 48.7499 36.6233 50.1657C28.32 52.0577 19.1584 51.842 13.7912 47.8013C11.5918 56.191 14.4097 63.9447 23.228 70.0894Z" fill="url(#paint3_linear_286_730)"/>
<path d="M3.292 23.788L3.28934 23.7876C0.0209518 32.5886 0.269152 42.3105 3.98237 50.9333C7.69559 59.5561 14.5883 66.4167 23.2283 70.0896C10.9862 61.5592 10.3083 49.9285 18.5644 37.7993C15.0641 28.0935 7.24023 24.6468 3.292 23.788Z" fill="url(#paint4_linear_286_730)"/>
<path d="M73.7253 32.0614C72.9529 25.7789 70.5656 19.8037 66.796 14.7188C64.6322 16.9718 57.5326 23.3591 45.7086 21.3431C45.4357 22.6326 45.4483 25.7593 49.7745 30.4216C55.5647 36.667 59.9586 44.7097 59.1431 51.3786C67.508 49.0887 72.8134 42.7713 73.7253 32.0614Z" fill="url(#paint5_linear_286_730)"/>
<path d="M43.5992 72.479L43.6001 72.4815C52.856 70.9109 61.1509 65.8345 66.7613 58.3071C72.3716 50.7797 74.866 41.38 73.726 32.0613C72.4602 46.9293 62.7274 53.3318 48.0961 52.2459C41.4415 60.1304 42.3687 68.63 43.5992 72.479Z" fill="url(#paint6_linear_286_730)"/>
</g>
<defs>
<radialGradient id="paint0_radial_286_730" cx="0" cy="0" r="1" gradientUnits="userSpaceOnUse" gradientTransform="translate(35.0442 32.2294) scale(10.7907 10.7907)">
<stop stop-color="#4495D1"/>
<stop offset="1" stop-color="#15256D"/>
</radialGradient>
<linearGradient id="paint1_linear_286_730" x1="11.6162" y1="31.3428" x2="29.7642" y2="3.3973" gradientUnits="userSpaceOnUse">
<stop stop-color="#4495D1"/>
<stop offset="1" stop-color="#15256D"/>
</linearGradient>
<linearGradient id="paint2_linear_286_730" x1="18.8615" y1="-0.863714" x2="63.9437" y2="17.3507" gradientUnits="userSpaceOnUse">
<stop stop-color="#4495D1"/>
<stop offset="1" stop-color="#15256D"/>
</linearGradient>
<linearGradient id="paint3_linear_286_730" x1="45.9534" y1="61.5043" x2="12.6791" y2="59.7609" gradientUnits="userSpaceOnUse">
<stop stop-color="#4495D1"/>
<stop offset="1" stop-color="#15256D"/>
</linearGradient>
<linearGradient id="paint4_linear_286_730" x1="14.4417" y1="71.3355" x2="7.67342" y2="23.1812" gradientUnits="userSpaceOnUse">
<stop stop-color="#4495D1"/>
<stop offset="1" stop-color="#15256D"/>
</linearGradient>
<linearGradient id="paint5_linear_286_730" x1="54.9034" y1="16.6869" x2="70.0308" y2="46.3771" gradientUnits="userSpaceOnUse">
<stop stop-color="#4495D1"/>
<stop offset="1" stop-color="#15256D"/>
</linearGradient>
<linearGradient id="paint6_linear_286_730" x1="79.1742" y1="39.064" x2="40.8563" y2="69.0004" gradientUnits="userSpaceOnUse">
<stop stop-color="#4495D1"/>
<stop offset="1" stop-color="#15256D"/>
</linearGradient>
<clipPath id="clip0_286_730">
<rect width="73" height="73" fill="white" transform="translate(1)"/>
</clipPath>
</defs>
</svg>
